M48
; DRILL file {KiCad 9.0.6} date 2026-03-08T22:22:34-0700
; FORMAT={-:-/ absolute / metric / decimal}
; #@! TF.CreationDate,2026-03-08T22:22:34-07:00
; #@! TF.GenerationSoftware,Kicad,Pcbnew,9.0.6
; #@! TF.FileFunction,Plated,1,2,PTH
FMAT,2
METRIC
; #@! TA.AperFunction,Plated,PTH,ComponentDrill
T1C0.203
; #@! TA.AperFunction,Plated,PTH,ViaDrill
T2C0.300
; #@! TA.AperFunction,Plated,PTH,ComponentDrill
T3C1.750
%
G90
G05
T1
X134.35Y-58.05
X135.3Y-57.475
X135.3Y-58.625
X136.25Y-58.05
T2
X131.7Y-59.3
X131.8Y-61.7
X131.9Y-60.1
X132.8Y-53.1
X133.274Y-59.776
X133.6Y-63.7
X133.75Y-69.45
X134.6Y-55.6
X134.6Y-55.6
X135.3Y-52.95
X136.7Y-63.487
X136.8Y-52.95
X137.7Y-59.9
X137.85Y-69.55
X138.55Y-65.65
X138.6Y-73.3
X140.0Y-62.8
X143.35Y-55.2
X143.45Y-69.5
X144.8Y-59.9
X145.2Y-55.3
T3
X126.0Y-46.39
X126.0Y-50.35
X126.0Y-55.258
X126.0Y-59.217
X126.0Y-64.218
X126.0Y-68.177
X126.0Y-73.117
X126.0Y-77.078
X141.04Y-49.8
X145.0Y-49.8
M30
