%TF.GenerationSoftware,KiCad,Pcbnew,9.0.6*%
%TF.CreationDate,2026-03-08T22:22:37-07:00*%
%TF.ProjectId,Untitled,556e7469-746c-4656-942e-6b696361645f,rev?*%
%TF.SameCoordinates,Original*%
%TF.FileFunction,Soldermask,Top*%
%TF.FilePolarity,Negative*%
%FSLAX46Y46*%
G04 Gerber Fmt 4.6, Leading zero omitted, Abs format (unit mm)*
G04 Created by KiCad (PCBNEW 9.0.6) date 2026-03-08 22:22:37*
%MOMM*%
%LPD*%
G01*
G04 APERTURE LIST*
G04 Aperture macros list*
%AMRoundRect*
0 Rectangle with rounded corners*
0 $1 Rounding radius*
0 $2 $3 $4 $5 $6 $7 $8 $9 X,Y pos of 4 corners*
0 Add a 4 corners polygon primitive as box body*
4,1,4,$2,$3,$4,$5,$6,$7,$8,$9,$2,$3,0*
0 Add four circle primitives for the rounded corners*
1,1,$1+$1,$2,$3*
1,1,$1+$1,$4,$5*
1,1,$1+$1,$6,$7*
1,1,$1+$1,$8,$9*
0 Add four rect primitives between the rounded corners*
20,1,$1+$1,$2,$3,$4,$5,0*
20,1,$1+$1,$4,$5,$6,$7,0*
20,1,$1+$1,$6,$7,$8,$9,0*
20,1,$1+$1,$8,$9,$2,$3,0*%
G04 Aperture macros list end*
%ADD10C,0.000000*%
%ADD11R,0.533400X1.778000*%
%ADD12R,2.997200X2.489200*%
%ADD13RoundRect,0.102000X1.312500X-1.312500X1.312500X1.312500X-1.312500X1.312500X-1.312500X-1.312500X0*%
%ADD14C,2.829000*%
%ADD15RoundRect,0.200000X0.275000X-0.200000X0.275000X0.200000X-0.275000X0.200000X-0.275000X-0.200000X0*%
%ADD16RoundRect,0.225000X-0.250000X0.225000X-0.250000X-0.225000X0.250000X-0.225000X0.250000X0.225000X0*%
%ADD17RoundRect,0.225000X-0.225000X-0.250000X0.225000X-0.250000X0.225000X0.250000X-0.225000X0.250000X0*%
%ADD18RoundRect,0.102000X-1.312500X-1.312500X1.312500X-1.312500X1.312500X1.312500X-1.312500X1.312500X0*%
%ADD19RoundRect,0.225000X0.225000X0.250000X-0.225000X0.250000X-0.225000X-0.250000X0.225000X-0.250000X0*%
%ADD20RoundRect,0.200000X0.200000X0.275000X-0.200000X0.275000X-0.200000X-0.275000X0.200000X-0.275000X0*%
%ADD21R,0.240000X0.599999*%
%ADD22C,1.485001*%
%ADD23C,0.499999*%
%ADD24R,0.558800X1.981200*%
%ADD25RoundRect,0.225000X0.250000X-0.225000X0.250000X0.225000X-0.250000X0.225000X-0.250000X-0.225000X0*%
%ADD26RoundRect,0.102000X-0.625000X-1.000000X0.625000X-1.000000X0.625000X1.000000X-0.625000X1.000000X0*%
%ADD27RoundRect,0.200000X-0.275000X0.200000X-0.275000X-0.200000X0.275000X-0.200000X0.275000X0.200000X0*%
G04 APERTURE END LIST*
D10*
%TO.C,U1*%
G36*
X136500001Y-57275000D02*
G01*
X136500001Y-57674999D01*
X136950000Y-57674997D01*
X137000000Y-57724999D01*
X137000000Y-57874999D01*
X136950000Y-57924999D01*
X136500001Y-57924999D01*
X136500001Y-58175001D01*
X136950000Y-58174998D01*
X137000000Y-58225001D01*
X137000000Y-58375001D01*
X136950000Y-58425001D01*
X136500001Y-58425001D01*
X136500001Y-58825000D01*
X136450001Y-58875000D01*
X134150001Y-58875000D01*
X134100001Y-58825000D01*
X134100001Y-58425001D01*
X133650002Y-58425001D01*
X133600002Y-58375001D01*
X133600002Y-58225001D01*
X133650002Y-58175001D01*
X134100001Y-58175001D01*
X134100001Y-57924999D01*
X133650002Y-57924999D01*
X133600002Y-57874999D01*
X133600002Y-57724999D01*
X133650002Y-57674999D01*
X134100001Y-57674999D01*
X134100001Y-57274998D01*
X134150001Y-57225000D01*
X136450001Y-57225000D01*
X136500001Y-57275000D01*
G37*
%TD*%
D11*
%TO.C,U4*%
X133940000Y-72080800D03*
X135210000Y-72080800D03*
X136480000Y-72080800D03*
X137750000Y-72080800D03*
X137750000Y-66950000D03*
X136480000Y-66950000D03*
X135210000Y-66950000D03*
X133940000Y-66950000D03*
D12*
X135845000Y-69515400D03*
%TD*%
D13*
%TO.C,J3*%
X126000000Y-50350000D03*
D14*
X126000000Y-46390000D03*
%TD*%
D15*
%TO.C,R2*%
X132700000Y-58775000D03*
X132700000Y-57125000D03*
%TD*%
D13*
%TO.C,J2*%
X126000000Y-77077500D03*
D14*
X126000000Y-73117500D03*
%TD*%
D16*
%TO.C,C1*%
X136000000Y-61062500D03*
X136000000Y-62612500D03*
%TD*%
D17*
%TO.C,C7*%
X142500000Y-59027600D03*
X144050000Y-59027600D03*
%TD*%
%TO.C,C9*%
X141225000Y-68500000D03*
X142775000Y-68500000D03*
%TD*%
D18*
%TO.C,J1*%
X141040000Y-49800000D03*
D14*
X145000000Y-49800000D03*
%TD*%
D19*
%TO.C,C11*%
X136000000Y-64550000D03*
X134450000Y-64550000D03*
%TD*%
%TO.C,C4*%
X134275000Y-60825000D03*
X132725000Y-60825000D03*
%TD*%
D20*
%TO.C,R3*%
X134325000Y-62425000D03*
X132675000Y-62425000D03*
%TD*%
D21*
%TO.C,U1*%
X136300002Y-56650000D03*
X135800000Y-56650000D03*
X135300001Y-56650000D03*
X134800002Y-56650000D03*
X134300000Y-56650000D03*
X134300000Y-59450000D03*
X134800002Y-59450000D03*
X135300001Y-59450000D03*
X135800000Y-59450000D03*
X136300002Y-59450000D03*
D22*
X135300001Y-58050000D03*
D23*
X135300001Y-58625000D03*
X135300001Y-57475000D03*
X134350000Y-58050000D03*
X136250002Y-58050000D03*
%TD*%
D16*
%TO.C,C2*%
X137600000Y-61037500D03*
X137600000Y-62587500D03*
%TD*%
D24*
%TO.C,U3*%
X143770000Y-61300000D03*
X142500000Y-61300000D03*
X141230000Y-61300000D03*
X139960000Y-61300000D03*
X139960000Y-66227600D03*
X141230000Y-66227600D03*
X142500000Y-66227600D03*
X143770000Y-66227600D03*
%TD*%
D25*
%TO.C,C3*%
X142500000Y-57450000D03*
X142500000Y-55900000D03*
%TD*%
D16*
%TO.C,C5*%
X135900000Y-53800000D03*
X135900000Y-55350000D03*
%TD*%
D25*
%TO.C,C8*%
X144200000Y-57450000D03*
X144200000Y-55900000D03*
%TD*%
D16*
%TO.C,C6*%
X137500000Y-53800000D03*
X137500000Y-55350000D03*
%TD*%
D13*
%TO.C,J5*%
X126000000Y-68177500D03*
D14*
X126000000Y-64217500D03*
%TD*%
D26*
%TO.C,FL1*%
X138125000Y-58050000D03*
X140675000Y-58050000D03*
%TD*%
D27*
%TO.C,R1*%
X133500000Y-53875000D03*
X133500000Y-55525000D03*
%TD*%
D13*
%TO.C,J4*%
X126000000Y-59217500D03*
D14*
X126000000Y-55257500D03*
%TD*%
M02*
