%TF.GenerationSoftware,KiCad,Pcbnew,9.0.6*%
%TF.CreationDate,2026-03-08T22:22:34-07:00*%
%TF.ProjectId,Untitled,556e7469-746c-4656-942e-6b696361645f,rev?*%
%TF.SameCoordinates,Original*%
%TF.FileFunction,Drillmap*%
%TF.FilePolarity,Positive*%
%FSLAX45Y45*%
G04 Gerber Fmt 4.5, Leading zero omitted, Abs format (unit mm)*
G04 Created by KiCad (PCBNEW 9.0.6) date 2026-03-08 22:22:34*
%MOMM*%
%LPD*%
G01*
G04 APERTURE LIST*
%ADD10C,0.050000*%
%ADD11C,0.200000*%
%ADD12C,0.100000*%
%ADD13C,0.175000*%
G04 APERTURE END LIST*
D10*
X12120000Y-8415000D02*
X14640000Y-8415000D01*
X14640000Y-4130000D02*
G75*
G02*
X14840000Y-4330000I0J-200000D01*
G01*
X12120000Y-4130000D02*
X14640000Y-4130000D01*
X14840000Y-8215000D02*
G75*
G02*
X14640000Y-8415000I-200000J0D01*
G01*
X11920000Y-4330000D02*
G75*
G02*
X12120000Y-4130000I200000J0D01*
G01*
X12120000Y-8415000D02*
G75*
G02*
X11920000Y-8215000I0J200000D01*
G01*
X14840000Y-4330000D02*
X14840000Y-8215000D01*
X11920000Y-8215000D02*
X11920000Y-4330000D01*
D11*
D12*
X13424840Y-5794840D02*
X13445160Y-5815160D01*
X13445160Y-5794840D02*
X13424840Y-5815160D01*
X13519840Y-5737340D02*
X13540160Y-5757660D01*
X13540160Y-5737340D02*
X13519840Y-5757660D01*
X13519840Y-5852340D02*
X13540160Y-5872660D01*
X13540160Y-5852340D02*
X13519840Y-5872660D01*
X13614840Y-5794840D02*
X13635160Y-5815160D01*
X13635160Y-5794840D02*
X13614840Y-5815160D01*
X13185000Y-5930000D02*
G75*
G02*
X13155000Y-5930000I-15000J0D01*
G01*
X13155000Y-5930000D02*
G75*
G02*
X13185000Y-5930000I15000J0D01*
G01*
X13195000Y-6170000D02*
G75*
G02*
X13165000Y-6170000I-15000J0D01*
G01*
X13165000Y-6170000D02*
G75*
G02*
X13195000Y-6170000I15000J0D01*
G01*
X13205000Y-6010000D02*
G75*
G02*
X13175000Y-6010000I-15000J0D01*
G01*
X13175000Y-6010000D02*
G75*
G02*
X13205000Y-6010000I15000J0D01*
G01*
X13295000Y-5310000D02*
G75*
G02*
X13265000Y-5310000I-15000J0D01*
G01*
X13265000Y-5310000D02*
G75*
G02*
X13295000Y-5310000I15000J0D01*
G01*
X13342424Y-5977576D02*
G75*
G02*
X13312424Y-5977576I-15000J0D01*
G01*
X13312424Y-5977576D02*
G75*
G02*
X13342424Y-5977576I15000J0D01*
G01*
X13375000Y-6370000D02*
G75*
G02*
X13345000Y-6370000I-15000J0D01*
G01*
X13345000Y-6370000D02*
G75*
G02*
X13375000Y-6370000I15000J0D01*
G01*
X13390000Y-6945000D02*
G75*
G02*
X13360000Y-6945000I-15000J0D01*
G01*
X13360000Y-6945000D02*
G75*
G02*
X13390000Y-6945000I15000J0D01*
G01*
X13475000Y-5560000D02*
G75*
G02*
X13445000Y-5560000I-15000J0D01*
G01*
X13445000Y-5560000D02*
G75*
G02*
X13475000Y-5560000I15000J0D01*
G01*
X13475000Y-5560000D02*
G75*
G02*
X13445000Y-5560000I-15000J0D01*
G01*
X13445000Y-5560000D02*
G75*
G02*
X13475000Y-5560000I15000J0D01*
G01*
X13545000Y-5295000D02*
G75*
G02*
X13515000Y-5295000I-15000J0D01*
G01*
X13515000Y-5295000D02*
G75*
G02*
X13545000Y-5295000I15000J0D01*
G01*
X13685000Y-6348750D02*
G75*
G02*
X13655000Y-6348750I-15000J0D01*
G01*
X13655000Y-6348750D02*
G75*
G02*
X13685000Y-6348750I15000J0D01*
G01*
X13695000Y-5295000D02*
G75*
G02*
X13665000Y-5295000I-15000J0D01*
G01*
X13665000Y-5295000D02*
G75*
G02*
X13695000Y-5295000I15000J0D01*
G01*
X13785000Y-5990000D02*
G75*
G02*
X13755000Y-5990000I-15000J0D01*
G01*
X13755000Y-5990000D02*
G75*
G02*
X13785000Y-5990000I15000J0D01*
G01*
X13800000Y-6955000D02*
G75*
G02*
X13770000Y-6955000I-15000J0D01*
G01*
X13770000Y-6955000D02*
G75*
G02*
X13800000Y-6955000I15000J0D01*
G01*
X13870000Y-6565000D02*
G75*
G02*
X13840000Y-6565000I-15000J0D01*
G01*
X13840000Y-6565000D02*
G75*
G02*
X13870000Y-6565000I15000J0D01*
G01*
X13875000Y-7330000D02*
G75*
G02*
X13845000Y-7330000I-15000J0D01*
G01*
X13845000Y-7330000D02*
G75*
G02*
X13875000Y-7330000I15000J0D01*
G01*
X14015000Y-6280000D02*
G75*
G02*
X13985000Y-6280000I-15000J0D01*
G01*
X13985000Y-6280000D02*
G75*
G02*
X14015000Y-6280000I15000J0D01*
G01*
X14350000Y-5520000D02*
G75*
G02*
X14320000Y-5520000I-15000J0D01*
G01*
X14320000Y-5520000D02*
G75*
G02*
X14350000Y-5520000I15000J0D01*
G01*
X14360000Y-6950000D02*
G75*
G02*
X14330000Y-6950000I-15000J0D01*
G01*
X14330000Y-6950000D02*
G75*
G02*
X14360000Y-6950000I15000J0D01*
G01*
X14495000Y-5990000D02*
G75*
G02*
X14465000Y-5990000I-15000J0D01*
G01*
X14465000Y-5990000D02*
G75*
G02*
X14495000Y-5990000I15000J0D01*
G01*
X14535000Y-5530000D02*
G75*
G02*
X14505000Y-5530000I-15000J0D01*
G01*
X14505000Y-5530000D02*
G75*
G02*
X14535000Y-5530000I15000J0D01*
G01*
D13*
X12600000Y-4551500D02*
X12600000Y-4726500D01*
X12512500Y-4639000D02*
X12687500Y-4639000D01*
X12600000Y-4947500D02*
X12600000Y-5122500D01*
X12512500Y-5035000D02*
X12687500Y-5035000D01*
X12600000Y-5438250D02*
X12600000Y-5613250D01*
X12512500Y-5525750D02*
X12687500Y-5525750D01*
X12600000Y-5834250D02*
X12600000Y-6009250D01*
X12512500Y-5921750D02*
X12687500Y-5921750D01*
X12600000Y-6334250D02*
X12600000Y-6509250D01*
X12512500Y-6421750D02*
X12687500Y-6421750D01*
X12600000Y-6730250D02*
X12600000Y-6905250D01*
X12512500Y-6817750D02*
X12687500Y-6817750D01*
X12600000Y-7224250D02*
X12600000Y-7399250D01*
X12512500Y-7311750D02*
X12687500Y-7311750D01*
X12600000Y-7620250D02*
X12600000Y-7795250D01*
X12512500Y-7707750D02*
X12687500Y-7707750D01*
X14104000Y-4892500D02*
X14104000Y-5067500D01*
X14016500Y-4980000D02*
X14191500Y-4980000D01*
X14500000Y-4892500D02*
X14500000Y-5067500D01*
X14412500Y-4980000D02*
X14587500Y-4980000D01*
D11*
X12178277Y-8728984D02*
X12178277Y-8528984D01*
X12178277Y-8528984D02*
X12225896Y-8528984D01*
X12225896Y-8528984D02*
X12254467Y-8538508D01*
X12254467Y-8538508D02*
X12273515Y-8557555D01*
X12273515Y-8557555D02*
X12283039Y-8576603D01*
X12283039Y-8576603D02*
X12292562Y-8614698D01*
X12292562Y-8614698D02*
X12292562Y-8643270D01*
X12292562Y-8643270D02*
X12283039Y-8681365D01*
X12283039Y-8681365D02*
X12273515Y-8700412D01*
X12273515Y-8700412D02*
X12254467Y-8719460D01*
X12254467Y-8719460D02*
X12225896Y-8728984D01*
X12225896Y-8728984D02*
X12178277Y-8728984D01*
X12378277Y-8728984D02*
X12378277Y-8595650D01*
X12378277Y-8633746D02*
X12387801Y-8614698D01*
X12387801Y-8614698D02*
X12397324Y-8605174D01*
X12397324Y-8605174D02*
X12416372Y-8595650D01*
X12416372Y-8595650D02*
X12435420Y-8595650D01*
X12502086Y-8728984D02*
X12502086Y-8595650D01*
X12502086Y-8528984D02*
X12492562Y-8538508D01*
X12492562Y-8538508D02*
X12502086Y-8548031D01*
X12502086Y-8548031D02*
X12511610Y-8538508D01*
X12511610Y-8538508D02*
X12502086Y-8528984D01*
X12502086Y-8528984D02*
X12502086Y-8548031D01*
X12625896Y-8728984D02*
X12606848Y-8719460D01*
X12606848Y-8719460D02*
X12597324Y-8700412D01*
X12597324Y-8700412D02*
X12597324Y-8528984D01*
X12730658Y-8728984D02*
X12711610Y-8719460D01*
X12711610Y-8719460D02*
X12702086Y-8700412D01*
X12702086Y-8700412D02*
X12702086Y-8528984D01*
X12959229Y-8728984D02*
X12959229Y-8528984D01*
X12959229Y-8528984D02*
X13025896Y-8671841D01*
X13025896Y-8671841D02*
X13092562Y-8528984D01*
X13092562Y-8528984D02*
X13092562Y-8728984D01*
X13273515Y-8728984D02*
X13273515Y-8624222D01*
X13273515Y-8624222D02*
X13263991Y-8605174D01*
X13263991Y-8605174D02*
X13244943Y-8595650D01*
X13244943Y-8595650D02*
X13206848Y-8595650D01*
X13206848Y-8595650D02*
X13187801Y-8605174D01*
X13273515Y-8719460D02*
X13254467Y-8728984D01*
X13254467Y-8728984D02*
X13206848Y-8728984D01*
X13206848Y-8728984D02*
X13187801Y-8719460D01*
X13187801Y-8719460D02*
X13178277Y-8700412D01*
X13178277Y-8700412D02*
X13178277Y-8681365D01*
X13178277Y-8681365D02*
X13187801Y-8662317D01*
X13187801Y-8662317D02*
X13206848Y-8652793D01*
X13206848Y-8652793D02*
X13254467Y-8652793D01*
X13254467Y-8652793D02*
X13273515Y-8643270D01*
X13368753Y-8595650D02*
X13368753Y-8795650D01*
X13368753Y-8605174D02*
X13387801Y-8595650D01*
X13387801Y-8595650D02*
X13425896Y-8595650D01*
X13425896Y-8595650D02*
X13444943Y-8605174D01*
X13444943Y-8605174D02*
X13454467Y-8614698D01*
X13454467Y-8614698D02*
X13463991Y-8633746D01*
X13463991Y-8633746D02*
X13463991Y-8690889D01*
X13463991Y-8690889D02*
X13454467Y-8709936D01*
X13454467Y-8709936D02*
X13444943Y-8719460D01*
X13444943Y-8719460D02*
X13425896Y-8728984D01*
X13425896Y-8728984D02*
X13387801Y-8728984D01*
X13387801Y-8728984D02*
X13368753Y-8719460D01*
X13549705Y-8709936D02*
X13559229Y-8719460D01*
X13559229Y-8719460D02*
X13549705Y-8728984D01*
X13549705Y-8728984D02*
X13540182Y-8719460D01*
X13540182Y-8719460D02*
X13549705Y-8709936D01*
X13549705Y-8709936D02*
X13549705Y-8728984D01*
X13549705Y-8605174D02*
X13559229Y-8614698D01*
X13559229Y-8614698D02*
X13549705Y-8624222D01*
X13549705Y-8624222D02*
X13540182Y-8614698D01*
X13540182Y-8614698D02*
X13549705Y-8605174D01*
X13549705Y-8605174D02*
X13549705Y-8624222D01*
D12*
X11897180Y-9047340D02*
X11917500Y-9067660D01*
X11917500Y-9047340D02*
X11897180Y-9067660D01*
D11*
X12216372Y-8948984D02*
X12235420Y-8948984D01*
X12235420Y-8948984D02*
X12254467Y-8958508D01*
X12254467Y-8958508D02*
X12263991Y-8968031D01*
X12263991Y-8968031D02*
X12273515Y-8987079D01*
X12273515Y-8987079D02*
X12283039Y-9025174D01*
X12283039Y-9025174D02*
X12283039Y-9072793D01*
X12283039Y-9072793D02*
X12273515Y-9110889D01*
X12273515Y-9110889D02*
X12263991Y-9129936D01*
X12263991Y-9129936D02*
X12254467Y-9139460D01*
X12254467Y-9139460D02*
X12235420Y-9148984D01*
X12235420Y-9148984D02*
X12216372Y-9148984D01*
X12216372Y-9148984D02*
X12197324Y-9139460D01*
X12197324Y-9139460D02*
X12187801Y-9129936D01*
X12187801Y-9129936D02*
X12178277Y-9110889D01*
X12178277Y-9110889D02*
X12168753Y-9072793D01*
X12168753Y-9072793D02*
X12168753Y-9025174D01*
X12168753Y-9025174D02*
X12178277Y-8987079D01*
X12178277Y-8987079D02*
X12187801Y-8968031D01*
X12187801Y-8968031D02*
X12197324Y-8958508D01*
X12197324Y-8958508D02*
X12216372Y-8948984D01*
X12368753Y-9129936D02*
X12378277Y-9139460D01*
X12378277Y-9139460D02*
X12368753Y-9148984D01*
X12368753Y-9148984D02*
X12359229Y-9139460D01*
X12359229Y-9139460D02*
X12368753Y-9129936D01*
X12368753Y-9129936D02*
X12368753Y-9148984D01*
X12454467Y-8968031D02*
X12463991Y-8958508D01*
X12463991Y-8958508D02*
X12483039Y-8948984D01*
X12483039Y-8948984D02*
X12530658Y-8948984D01*
X12530658Y-8948984D02*
X12549705Y-8958508D01*
X12549705Y-8958508D02*
X12559229Y-8968031D01*
X12559229Y-8968031D02*
X12568753Y-8987079D01*
X12568753Y-8987079D02*
X12568753Y-9006127D01*
X12568753Y-9006127D02*
X12559229Y-9034698D01*
X12559229Y-9034698D02*
X12444943Y-9148984D01*
X12444943Y-9148984D02*
X12568753Y-9148984D01*
X12692562Y-8948984D02*
X12711610Y-8948984D01*
X12711610Y-8948984D02*
X12730658Y-8958508D01*
X12730658Y-8958508D02*
X12740182Y-8968031D01*
X12740182Y-8968031D02*
X12749705Y-8987079D01*
X12749705Y-8987079D02*
X12759229Y-9025174D01*
X12759229Y-9025174D02*
X12759229Y-9072793D01*
X12759229Y-9072793D02*
X12749705Y-9110889D01*
X12749705Y-9110889D02*
X12740182Y-9129936D01*
X12740182Y-9129936D02*
X12730658Y-9139460D01*
X12730658Y-9139460D02*
X12711610Y-9148984D01*
X12711610Y-9148984D02*
X12692562Y-9148984D01*
X12692562Y-9148984D02*
X12673515Y-9139460D01*
X12673515Y-9139460D02*
X12663991Y-9129936D01*
X12663991Y-9129936D02*
X12654467Y-9110889D01*
X12654467Y-9110889D02*
X12644943Y-9072793D01*
X12644943Y-9072793D02*
X12644943Y-9025174D01*
X12644943Y-9025174D02*
X12654467Y-8987079D01*
X12654467Y-8987079D02*
X12663991Y-8968031D01*
X12663991Y-8968031D02*
X12673515Y-8958508D01*
X12673515Y-8958508D02*
X12692562Y-8948984D01*
X12825896Y-8948984D02*
X12949705Y-8948984D01*
X12949705Y-8948984D02*
X12883039Y-9025174D01*
X12883039Y-9025174D02*
X12911610Y-9025174D01*
X12911610Y-9025174D02*
X12930658Y-9034698D01*
X12930658Y-9034698D02*
X12940182Y-9044222D01*
X12940182Y-9044222D02*
X12949705Y-9063270D01*
X12949705Y-9063270D02*
X12949705Y-9110889D01*
X12949705Y-9110889D02*
X12940182Y-9129936D01*
X12940182Y-9129936D02*
X12930658Y-9139460D01*
X12930658Y-9139460D02*
X12911610Y-9148984D01*
X12911610Y-9148984D02*
X12854467Y-9148984D01*
X12854467Y-9148984D02*
X12835420Y-9139460D01*
X12835420Y-9139460D02*
X12825896Y-9129936D01*
X13035420Y-9148984D02*
X13035420Y-9015650D01*
X13035420Y-9034698D02*
X13044943Y-9025174D01*
X13044943Y-9025174D02*
X13063991Y-9015650D01*
X13063991Y-9015650D02*
X13092563Y-9015650D01*
X13092563Y-9015650D02*
X13111610Y-9025174D01*
X13111610Y-9025174D02*
X13121134Y-9044222D01*
X13121134Y-9044222D02*
X13121134Y-9148984D01*
X13121134Y-9044222D02*
X13130658Y-9025174D01*
X13130658Y-9025174D02*
X13149705Y-9015650D01*
X13149705Y-9015650D02*
X13178277Y-9015650D01*
X13178277Y-9015650D02*
X13197324Y-9025174D01*
X13197324Y-9025174D02*
X13206848Y-9044222D01*
X13206848Y-9044222D02*
X13206848Y-9148984D01*
X13302086Y-9148984D02*
X13302086Y-9015650D01*
X13302086Y-9034698D02*
X13311610Y-9025174D01*
X13311610Y-9025174D02*
X13330658Y-9015650D01*
X13330658Y-9015650D02*
X13359229Y-9015650D01*
X13359229Y-9015650D02*
X13378277Y-9025174D01*
X13378277Y-9025174D02*
X13387801Y-9044222D01*
X13387801Y-9044222D02*
X13387801Y-9148984D01*
X13387801Y-9044222D02*
X13397324Y-9025174D01*
X13397324Y-9025174D02*
X13416372Y-9015650D01*
X13416372Y-9015650D02*
X13444943Y-9015650D01*
X13444943Y-9015650D02*
X13463991Y-9025174D01*
X13463991Y-9025174D02*
X13473515Y-9044222D01*
X13473515Y-9044222D02*
X13473515Y-9148984D01*
X13863991Y-8939460D02*
X13692563Y-9196603D01*
X14121134Y-8948984D02*
X14140182Y-8948984D01*
X14140182Y-8948984D02*
X14159229Y-8958508D01*
X14159229Y-8958508D02*
X14168753Y-8968031D01*
X14168753Y-8968031D02*
X14178277Y-8987079D01*
X14178277Y-8987079D02*
X14187801Y-9025174D01*
X14187801Y-9025174D02*
X14187801Y-9072793D01*
X14187801Y-9072793D02*
X14178277Y-9110889D01*
X14178277Y-9110889D02*
X14168753Y-9129936D01*
X14168753Y-9129936D02*
X14159229Y-9139460D01*
X14159229Y-9139460D02*
X14140182Y-9148984D01*
X14140182Y-9148984D02*
X14121134Y-9148984D01*
X14121134Y-9148984D02*
X14102086Y-9139460D01*
X14102086Y-9139460D02*
X14092563Y-9129936D01*
X14092563Y-9129936D02*
X14083039Y-9110889D01*
X14083039Y-9110889D02*
X14073515Y-9072793D01*
X14073515Y-9072793D02*
X14073515Y-9025174D01*
X14073515Y-9025174D02*
X14083039Y-8987079D01*
X14083039Y-8987079D02*
X14092563Y-8968031D01*
X14092563Y-8968031D02*
X14102086Y-8958508D01*
X14102086Y-8958508D02*
X14121134Y-8948984D01*
X14273515Y-9129936D02*
X14283039Y-9139460D01*
X14283039Y-9139460D02*
X14273515Y-9148984D01*
X14273515Y-9148984D02*
X14263991Y-9139460D01*
X14263991Y-9139460D02*
X14273515Y-9129936D01*
X14273515Y-9129936D02*
X14273515Y-9148984D01*
X14406848Y-8948984D02*
X14425896Y-8948984D01*
X14425896Y-8948984D02*
X14444944Y-8958508D01*
X14444944Y-8958508D02*
X14454467Y-8968031D01*
X14454467Y-8968031D02*
X14463991Y-8987079D01*
X14463991Y-8987079D02*
X14473515Y-9025174D01*
X14473515Y-9025174D02*
X14473515Y-9072793D01*
X14473515Y-9072793D02*
X14463991Y-9110889D01*
X14463991Y-9110889D02*
X14454467Y-9129936D01*
X14454467Y-9129936D02*
X14444944Y-9139460D01*
X14444944Y-9139460D02*
X14425896Y-9148984D01*
X14425896Y-9148984D02*
X14406848Y-9148984D01*
X14406848Y-9148984D02*
X14387801Y-9139460D01*
X14387801Y-9139460D02*
X14378277Y-9129936D01*
X14378277Y-9129936D02*
X14368753Y-9110889D01*
X14368753Y-9110889D02*
X14359229Y-9072793D01*
X14359229Y-9072793D02*
X14359229Y-9025174D01*
X14359229Y-9025174D02*
X14368753Y-8987079D01*
X14368753Y-8987079D02*
X14378277Y-8968031D01*
X14378277Y-8968031D02*
X14387801Y-8958508D01*
X14387801Y-8958508D02*
X14406848Y-8948984D01*
X14597325Y-8948984D02*
X14616372Y-8948984D01*
X14616372Y-8948984D02*
X14635420Y-8958508D01*
X14635420Y-8958508D02*
X14644944Y-8968031D01*
X14644944Y-8968031D02*
X14654467Y-8987079D01*
X14654467Y-8987079D02*
X14663991Y-9025174D01*
X14663991Y-9025174D02*
X14663991Y-9072793D01*
X14663991Y-9072793D02*
X14654467Y-9110889D01*
X14654467Y-9110889D02*
X14644944Y-9129936D01*
X14644944Y-9129936D02*
X14635420Y-9139460D01*
X14635420Y-9139460D02*
X14616372Y-9148984D01*
X14616372Y-9148984D02*
X14597325Y-9148984D01*
X14597325Y-9148984D02*
X14578277Y-9139460D01*
X14578277Y-9139460D02*
X14568753Y-9129936D01*
X14568753Y-9129936D02*
X14559229Y-9110889D01*
X14559229Y-9110889D02*
X14549706Y-9072793D01*
X14549706Y-9072793D02*
X14549706Y-9025174D01*
X14549706Y-9025174D02*
X14559229Y-8987079D01*
X14559229Y-8987079D02*
X14568753Y-8968031D01*
X14568753Y-8968031D02*
X14578277Y-8958508D01*
X14578277Y-8958508D02*
X14597325Y-8948984D01*
X14778277Y-9034698D02*
X14759229Y-9025174D01*
X14759229Y-9025174D02*
X14749706Y-9015650D01*
X14749706Y-9015650D02*
X14740182Y-8996603D01*
X14740182Y-8996603D02*
X14740182Y-8987079D01*
X14740182Y-8987079D02*
X14749706Y-8968031D01*
X14749706Y-8968031D02*
X14759229Y-8958508D01*
X14759229Y-8958508D02*
X14778277Y-8948984D01*
X14778277Y-8948984D02*
X14816372Y-8948984D01*
X14816372Y-8948984D02*
X14835420Y-8958508D01*
X14835420Y-8958508D02*
X14844944Y-8968031D01*
X14844944Y-8968031D02*
X14854467Y-8987079D01*
X14854467Y-8987079D02*
X14854467Y-8996603D01*
X14854467Y-8996603D02*
X14844944Y-9015650D01*
X14844944Y-9015650D02*
X14835420Y-9025174D01*
X14835420Y-9025174D02*
X14816372Y-9034698D01*
X14816372Y-9034698D02*
X14778277Y-9034698D01*
X14778277Y-9034698D02*
X14759229Y-9044222D01*
X14759229Y-9044222D02*
X14749706Y-9053746D01*
X14749706Y-9053746D02*
X14740182Y-9072793D01*
X14740182Y-9072793D02*
X14740182Y-9110889D01*
X14740182Y-9110889D02*
X14749706Y-9129936D01*
X14749706Y-9129936D02*
X14759229Y-9139460D01*
X14759229Y-9139460D02*
X14778277Y-9148984D01*
X14778277Y-9148984D02*
X14816372Y-9148984D01*
X14816372Y-9148984D02*
X14835420Y-9139460D01*
X14835420Y-9139460D02*
X14844944Y-9129936D01*
X14844944Y-9129936D02*
X14854467Y-9110889D01*
X14854467Y-9110889D02*
X14854467Y-9072793D01*
X14854467Y-9072793D02*
X14844944Y-9053746D01*
X14844944Y-9053746D02*
X14835420Y-9044222D01*
X14835420Y-9044222D02*
X14816372Y-9034698D01*
X14978277Y-8948984D02*
X14997325Y-8948984D01*
X14997325Y-8948984D02*
X15016372Y-8958508D01*
X15016372Y-8958508D02*
X15025896Y-8968031D01*
X15025896Y-8968031D02*
X15035420Y-8987079D01*
X15035420Y-8987079D02*
X15044944Y-9025174D01*
X15044944Y-9025174D02*
X15044944Y-9072793D01*
X15044944Y-9072793D02*
X15035420Y-9110889D01*
X15035420Y-9110889D02*
X15025896Y-9129936D01*
X15025896Y-9129936D02*
X15016372Y-9139460D01*
X15016372Y-9139460D02*
X14997325Y-9148984D01*
X14997325Y-9148984D02*
X14978277Y-9148984D01*
X14978277Y-9148984D02*
X14959229Y-9139460D01*
X14959229Y-9139460D02*
X14949706Y-9129936D01*
X14949706Y-9129936D02*
X14940182Y-9110889D01*
X14940182Y-9110889D02*
X14930658Y-9072793D01*
X14930658Y-9072793D02*
X14930658Y-9025174D01*
X14930658Y-9025174D02*
X14940182Y-8987079D01*
X14940182Y-8987079D02*
X14949706Y-8968031D01*
X14949706Y-8968031D02*
X14959229Y-8958508D01*
X14959229Y-8958508D02*
X14978277Y-8948984D01*
X15121134Y-8948984D02*
X15121134Y-8987079D01*
X15197325Y-8948984D02*
X15197325Y-8987079D01*
X15492563Y-9225174D02*
X15483039Y-9215650D01*
X15483039Y-9215650D02*
X15463991Y-9187079D01*
X15463991Y-9187079D02*
X15454468Y-9168031D01*
X15454468Y-9168031D02*
X15444944Y-9139460D01*
X15444944Y-9139460D02*
X15435420Y-9091841D01*
X15435420Y-9091841D02*
X15435420Y-9053746D01*
X15435420Y-9053746D02*
X15444944Y-9006127D01*
X15444944Y-9006127D02*
X15454468Y-8977555D01*
X15454468Y-8977555D02*
X15463991Y-8958508D01*
X15463991Y-8958508D02*
X15483039Y-8929936D01*
X15483039Y-8929936D02*
X15492563Y-8920412D01*
X15654468Y-9015650D02*
X15654468Y-9148984D01*
X15606848Y-8939460D02*
X15559229Y-9082317D01*
X15559229Y-9082317D02*
X15683039Y-9082317D01*
X15911610Y-9148984D02*
X15911610Y-8948984D01*
X15997325Y-9148984D02*
X15997325Y-9044222D01*
X15997325Y-9044222D02*
X15987801Y-9025174D01*
X15987801Y-9025174D02*
X15968753Y-9015650D01*
X15968753Y-9015650D02*
X15940182Y-9015650D01*
X15940182Y-9015650D02*
X15921134Y-9025174D01*
X15921134Y-9025174D02*
X15911610Y-9034698D01*
X16121134Y-9148984D02*
X16102087Y-9139460D01*
X16102087Y-9139460D02*
X16092563Y-9129936D01*
X16092563Y-9129936D02*
X16083039Y-9110889D01*
X16083039Y-9110889D02*
X16083039Y-9053746D01*
X16083039Y-9053746D02*
X16092563Y-9034698D01*
X16092563Y-9034698D02*
X16102087Y-9025174D01*
X16102087Y-9025174D02*
X16121134Y-9015650D01*
X16121134Y-9015650D02*
X16149706Y-9015650D01*
X16149706Y-9015650D02*
X16168753Y-9025174D01*
X16168753Y-9025174D02*
X16178277Y-9034698D01*
X16178277Y-9034698D02*
X16187801Y-9053746D01*
X16187801Y-9053746D02*
X16187801Y-9110889D01*
X16187801Y-9110889D02*
X16178277Y-9129936D01*
X16178277Y-9129936D02*
X16168753Y-9139460D01*
X16168753Y-9139460D02*
X16149706Y-9148984D01*
X16149706Y-9148984D02*
X16121134Y-9148984D01*
X16302087Y-9148984D02*
X16283039Y-9139460D01*
X16283039Y-9139460D02*
X16273515Y-9120412D01*
X16273515Y-9120412D02*
X16273515Y-8948984D01*
X16454468Y-9139460D02*
X16435420Y-9148984D01*
X16435420Y-9148984D02*
X16397325Y-9148984D01*
X16397325Y-9148984D02*
X16378277Y-9139460D01*
X16378277Y-9139460D02*
X16368753Y-9120412D01*
X16368753Y-9120412D02*
X16368753Y-9044222D01*
X16368753Y-9044222D02*
X16378277Y-9025174D01*
X16378277Y-9025174D02*
X16397325Y-9015650D01*
X16397325Y-9015650D02*
X16435420Y-9015650D01*
X16435420Y-9015650D02*
X16454468Y-9025174D01*
X16454468Y-9025174D02*
X16463991Y-9044222D01*
X16463991Y-9044222D02*
X16463991Y-9063270D01*
X16463991Y-9063270D02*
X16368753Y-9082317D01*
X16540182Y-9139460D02*
X16559230Y-9148984D01*
X16559230Y-9148984D02*
X16597325Y-9148984D01*
X16597325Y-9148984D02*
X16616372Y-9139460D01*
X16616372Y-9139460D02*
X16625896Y-9120412D01*
X16625896Y-9120412D02*
X16625896Y-9110889D01*
X16625896Y-9110889D02*
X16616372Y-9091841D01*
X16616372Y-9091841D02*
X16597325Y-9082317D01*
X16597325Y-9082317D02*
X16568753Y-9082317D01*
X16568753Y-9082317D02*
X16549706Y-9072793D01*
X16549706Y-9072793D02*
X16540182Y-9053746D01*
X16540182Y-9053746D02*
X16540182Y-9044222D01*
X16540182Y-9044222D02*
X16549706Y-9025174D01*
X16549706Y-9025174D02*
X16568753Y-9015650D01*
X16568753Y-9015650D02*
X16597325Y-9015650D01*
X16597325Y-9015650D02*
X16616372Y-9025174D01*
X16692563Y-9225174D02*
X16702087Y-9215650D01*
X16702087Y-9215650D02*
X16721134Y-9187079D01*
X16721134Y-9187079D02*
X16730658Y-9168031D01*
X16730658Y-9168031D02*
X16740182Y-9139460D01*
X16740182Y-9139460D02*
X16749706Y-9091841D01*
X16749706Y-9091841D02*
X16749706Y-9053746D01*
X16749706Y-9053746D02*
X16740182Y-9006127D01*
X16740182Y-9006127D02*
X16730658Y-8977555D01*
X16730658Y-8977555D02*
X16721134Y-8958508D01*
X16721134Y-8958508D02*
X16702087Y-8929936D01*
X16702087Y-8929936D02*
X16692563Y-8920412D01*
D12*
X11917500Y-9321500D02*
G75*
G02*
X11887500Y-9321500I-15000J0D01*
G01*
X11887500Y-9321500D02*
G75*
G02*
X11917500Y-9321500I15000J0D01*
G01*
D11*
X12216372Y-9212984D02*
X12235420Y-9212984D01*
X12235420Y-9212984D02*
X12254467Y-9222508D01*
X12254467Y-9222508D02*
X12263991Y-9232031D01*
X12263991Y-9232031D02*
X12273515Y-9251079D01*
X12273515Y-9251079D02*
X12283039Y-9289174D01*
X12283039Y-9289174D02*
X12283039Y-9336793D01*
X12283039Y-9336793D02*
X12273515Y-9374889D01*
X12273515Y-9374889D02*
X12263991Y-9393936D01*
X12263991Y-9393936D02*
X12254467Y-9403460D01*
X12254467Y-9403460D02*
X12235420Y-9412984D01*
X12235420Y-9412984D02*
X12216372Y-9412984D01*
X12216372Y-9412984D02*
X12197324Y-9403460D01*
X12197324Y-9403460D02*
X12187801Y-9393936D01*
X12187801Y-9393936D02*
X12178277Y-9374889D01*
X12178277Y-9374889D02*
X12168753Y-9336793D01*
X12168753Y-9336793D02*
X12168753Y-9289174D01*
X12168753Y-9289174D02*
X12178277Y-9251079D01*
X12178277Y-9251079D02*
X12187801Y-9232031D01*
X12187801Y-9232031D02*
X12197324Y-9222508D01*
X12197324Y-9222508D02*
X12216372Y-9212984D01*
X12368753Y-9393936D02*
X12378277Y-9403460D01*
X12378277Y-9403460D02*
X12368753Y-9412984D01*
X12368753Y-9412984D02*
X12359229Y-9403460D01*
X12359229Y-9403460D02*
X12368753Y-9393936D01*
X12368753Y-9393936D02*
X12368753Y-9412984D01*
X12444943Y-9212984D02*
X12568753Y-9212984D01*
X12568753Y-9212984D02*
X12502086Y-9289174D01*
X12502086Y-9289174D02*
X12530658Y-9289174D01*
X12530658Y-9289174D02*
X12549705Y-9298698D01*
X12549705Y-9298698D02*
X12559229Y-9308222D01*
X12559229Y-9308222D02*
X12568753Y-9327270D01*
X12568753Y-9327270D02*
X12568753Y-9374889D01*
X12568753Y-9374889D02*
X12559229Y-9393936D01*
X12559229Y-9393936D02*
X12549705Y-9403460D01*
X12549705Y-9403460D02*
X12530658Y-9412984D01*
X12530658Y-9412984D02*
X12473515Y-9412984D01*
X12473515Y-9412984D02*
X12454467Y-9403460D01*
X12454467Y-9403460D02*
X12444943Y-9393936D01*
X12692562Y-9212984D02*
X12711610Y-9212984D01*
X12711610Y-9212984D02*
X12730658Y-9222508D01*
X12730658Y-9222508D02*
X12740182Y-9232031D01*
X12740182Y-9232031D02*
X12749705Y-9251079D01*
X12749705Y-9251079D02*
X12759229Y-9289174D01*
X12759229Y-9289174D02*
X12759229Y-9336793D01*
X12759229Y-9336793D02*
X12749705Y-9374889D01*
X12749705Y-9374889D02*
X12740182Y-9393936D01*
X12740182Y-9393936D02*
X12730658Y-9403460D01*
X12730658Y-9403460D02*
X12711610Y-9412984D01*
X12711610Y-9412984D02*
X12692562Y-9412984D01*
X12692562Y-9412984D02*
X12673515Y-9403460D01*
X12673515Y-9403460D02*
X12663991Y-9393936D01*
X12663991Y-9393936D02*
X12654467Y-9374889D01*
X12654467Y-9374889D02*
X12644943Y-9336793D01*
X12644943Y-9336793D02*
X12644943Y-9289174D01*
X12644943Y-9289174D02*
X12654467Y-9251079D01*
X12654467Y-9251079D02*
X12663991Y-9232031D01*
X12663991Y-9232031D02*
X12673515Y-9222508D01*
X12673515Y-9222508D02*
X12692562Y-9212984D01*
X12883039Y-9212984D02*
X12902086Y-9212984D01*
X12902086Y-9212984D02*
X12921134Y-9222508D01*
X12921134Y-9222508D02*
X12930658Y-9232031D01*
X12930658Y-9232031D02*
X12940182Y-9251079D01*
X12940182Y-9251079D02*
X12949705Y-9289174D01*
X12949705Y-9289174D02*
X12949705Y-9336793D01*
X12949705Y-9336793D02*
X12940182Y-9374889D01*
X12940182Y-9374889D02*
X12930658Y-9393936D01*
X12930658Y-9393936D02*
X12921134Y-9403460D01*
X12921134Y-9403460D02*
X12902086Y-9412984D01*
X12902086Y-9412984D02*
X12883039Y-9412984D01*
X12883039Y-9412984D02*
X12863991Y-9403460D01*
X12863991Y-9403460D02*
X12854467Y-9393936D01*
X12854467Y-9393936D02*
X12844943Y-9374889D01*
X12844943Y-9374889D02*
X12835420Y-9336793D01*
X12835420Y-9336793D02*
X12835420Y-9289174D01*
X12835420Y-9289174D02*
X12844943Y-9251079D01*
X12844943Y-9251079D02*
X12854467Y-9232031D01*
X12854467Y-9232031D02*
X12863991Y-9222508D01*
X12863991Y-9222508D02*
X12883039Y-9212984D01*
X13035420Y-9412984D02*
X13035420Y-9279650D01*
X13035420Y-9298698D02*
X13044943Y-9289174D01*
X13044943Y-9289174D02*
X13063991Y-9279650D01*
X13063991Y-9279650D02*
X13092563Y-9279650D01*
X13092563Y-9279650D02*
X13111610Y-9289174D01*
X13111610Y-9289174D02*
X13121134Y-9308222D01*
X13121134Y-9308222D02*
X13121134Y-9412984D01*
X13121134Y-9308222D02*
X13130658Y-9289174D01*
X13130658Y-9289174D02*
X13149705Y-9279650D01*
X13149705Y-9279650D02*
X13178277Y-9279650D01*
X13178277Y-9279650D02*
X13197324Y-9289174D01*
X13197324Y-9289174D02*
X13206848Y-9308222D01*
X13206848Y-9308222D02*
X13206848Y-9412984D01*
X13302086Y-9412984D02*
X13302086Y-9279650D01*
X13302086Y-9298698D02*
X13311610Y-9289174D01*
X13311610Y-9289174D02*
X13330658Y-9279650D01*
X13330658Y-9279650D02*
X13359229Y-9279650D01*
X13359229Y-9279650D02*
X13378277Y-9289174D01*
X13378277Y-9289174D02*
X13387801Y-9308222D01*
X13387801Y-9308222D02*
X13387801Y-9412984D01*
X13387801Y-9308222D02*
X13397324Y-9289174D01*
X13397324Y-9289174D02*
X13416372Y-9279650D01*
X13416372Y-9279650D02*
X13444943Y-9279650D01*
X13444943Y-9279650D02*
X13463991Y-9289174D01*
X13463991Y-9289174D02*
X13473515Y-9308222D01*
X13473515Y-9308222D02*
X13473515Y-9412984D01*
X13863991Y-9203460D02*
X13692563Y-9460603D01*
X14121134Y-9212984D02*
X14140182Y-9212984D01*
X14140182Y-9212984D02*
X14159229Y-9222508D01*
X14159229Y-9222508D02*
X14168753Y-9232031D01*
X14168753Y-9232031D02*
X14178277Y-9251079D01*
X14178277Y-9251079D02*
X14187801Y-9289174D01*
X14187801Y-9289174D02*
X14187801Y-9336793D01*
X14187801Y-9336793D02*
X14178277Y-9374889D01*
X14178277Y-9374889D02*
X14168753Y-9393936D01*
X14168753Y-9393936D02*
X14159229Y-9403460D01*
X14159229Y-9403460D02*
X14140182Y-9412984D01*
X14140182Y-9412984D02*
X14121134Y-9412984D01*
X14121134Y-9412984D02*
X14102086Y-9403460D01*
X14102086Y-9403460D02*
X14092563Y-9393936D01*
X14092563Y-9393936D02*
X14083039Y-9374889D01*
X14083039Y-9374889D02*
X14073515Y-9336793D01*
X14073515Y-9336793D02*
X14073515Y-9289174D01*
X14073515Y-9289174D02*
X14083039Y-9251079D01*
X14083039Y-9251079D02*
X14092563Y-9232031D01*
X14092563Y-9232031D02*
X14102086Y-9222508D01*
X14102086Y-9222508D02*
X14121134Y-9212984D01*
X14273515Y-9393936D02*
X14283039Y-9403460D01*
X14283039Y-9403460D02*
X14273515Y-9412984D01*
X14273515Y-9412984D02*
X14263991Y-9403460D01*
X14263991Y-9403460D02*
X14273515Y-9393936D01*
X14273515Y-9393936D02*
X14273515Y-9412984D01*
X14406848Y-9212984D02*
X14425896Y-9212984D01*
X14425896Y-9212984D02*
X14444944Y-9222508D01*
X14444944Y-9222508D02*
X14454467Y-9232031D01*
X14454467Y-9232031D02*
X14463991Y-9251079D01*
X14463991Y-9251079D02*
X14473515Y-9289174D01*
X14473515Y-9289174D02*
X14473515Y-9336793D01*
X14473515Y-9336793D02*
X14463991Y-9374889D01*
X14463991Y-9374889D02*
X14454467Y-9393936D01*
X14454467Y-9393936D02*
X14444944Y-9403460D01*
X14444944Y-9403460D02*
X14425896Y-9412984D01*
X14425896Y-9412984D02*
X14406848Y-9412984D01*
X14406848Y-9412984D02*
X14387801Y-9403460D01*
X14387801Y-9403460D02*
X14378277Y-9393936D01*
X14378277Y-9393936D02*
X14368753Y-9374889D01*
X14368753Y-9374889D02*
X14359229Y-9336793D01*
X14359229Y-9336793D02*
X14359229Y-9289174D01*
X14359229Y-9289174D02*
X14368753Y-9251079D01*
X14368753Y-9251079D02*
X14378277Y-9232031D01*
X14378277Y-9232031D02*
X14387801Y-9222508D01*
X14387801Y-9222508D02*
X14406848Y-9212984D01*
X14663991Y-9412984D02*
X14549706Y-9412984D01*
X14606848Y-9412984D02*
X14606848Y-9212984D01*
X14606848Y-9212984D02*
X14587801Y-9241555D01*
X14587801Y-9241555D02*
X14568753Y-9260603D01*
X14568753Y-9260603D02*
X14549706Y-9270127D01*
X14854467Y-9412984D02*
X14740182Y-9412984D01*
X14797325Y-9412984D02*
X14797325Y-9212984D01*
X14797325Y-9212984D02*
X14778277Y-9241555D01*
X14778277Y-9241555D02*
X14759229Y-9260603D01*
X14759229Y-9260603D02*
X14740182Y-9270127D01*
X14968753Y-9298698D02*
X14949706Y-9289174D01*
X14949706Y-9289174D02*
X14940182Y-9279650D01*
X14940182Y-9279650D02*
X14930658Y-9260603D01*
X14930658Y-9260603D02*
X14930658Y-9251079D01*
X14930658Y-9251079D02*
X14940182Y-9232031D01*
X14940182Y-9232031D02*
X14949706Y-9222508D01*
X14949706Y-9222508D02*
X14968753Y-9212984D01*
X14968753Y-9212984D02*
X15006848Y-9212984D01*
X15006848Y-9212984D02*
X15025896Y-9222508D01*
X15025896Y-9222508D02*
X15035420Y-9232031D01*
X15035420Y-9232031D02*
X15044944Y-9251079D01*
X15044944Y-9251079D02*
X15044944Y-9260603D01*
X15044944Y-9260603D02*
X15035420Y-9279650D01*
X15035420Y-9279650D02*
X15025896Y-9289174D01*
X15025896Y-9289174D02*
X15006848Y-9298698D01*
X15006848Y-9298698D02*
X14968753Y-9298698D01*
X14968753Y-9298698D02*
X14949706Y-9308222D01*
X14949706Y-9308222D02*
X14940182Y-9317746D01*
X14940182Y-9317746D02*
X14930658Y-9336793D01*
X14930658Y-9336793D02*
X14930658Y-9374889D01*
X14930658Y-9374889D02*
X14940182Y-9393936D01*
X14940182Y-9393936D02*
X14949706Y-9403460D01*
X14949706Y-9403460D02*
X14968753Y-9412984D01*
X14968753Y-9412984D02*
X15006848Y-9412984D01*
X15006848Y-9412984D02*
X15025896Y-9403460D01*
X15025896Y-9403460D02*
X15035420Y-9393936D01*
X15035420Y-9393936D02*
X15044944Y-9374889D01*
X15044944Y-9374889D02*
X15044944Y-9336793D01*
X15044944Y-9336793D02*
X15035420Y-9317746D01*
X15035420Y-9317746D02*
X15025896Y-9308222D01*
X15025896Y-9308222D02*
X15006848Y-9298698D01*
X15121134Y-9212984D02*
X15121134Y-9251079D01*
X15197325Y-9212984D02*
X15197325Y-9251079D01*
X15492563Y-9489174D02*
X15483039Y-9479650D01*
X15483039Y-9479650D02*
X15463991Y-9451079D01*
X15463991Y-9451079D02*
X15454468Y-9432031D01*
X15454468Y-9432031D02*
X15444944Y-9403460D01*
X15444944Y-9403460D02*
X15435420Y-9355841D01*
X15435420Y-9355841D02*
X15435420Y-9317746D01*
X15435420Y-9317746D02*
X15444944Y-9270127D01*
X15444944Y-9270127D02*
X15454468Y-9241555D01*
X15454468Y-9241555D02*
X15463991Y-9222508D01*
X15463991Y-9222508D02*
X15483039Y-9193936D01*
X15483039Y-9193936D02*
X15492563Y-9184412D01*
X15559229Y-9232031D02*
X15568753Y-9222508D01*
X15568753Y-9222508D02*
X15587801Y-9212984D01*
X15587801Y-9212984D02*
X15635420Y-9212984D01*
X15635420Y-9212984D02*
X15654468Y-9222508D01*
X15654468Y-9222508D02*
X15663991Y-9232031D01*
X15663991Y-9232031D02*
X15673515Y-9251079D01*
X15673515Y-9251079D02*
X15673515Y-9270127D01*
X15673515Y-9270127D02*
X15663991Y-9298698D01*
X15663991Y-9298698D02*
X15549706Y-9412984D01*
X15549706Y-9412984D02*
X15673515Y-9412984D01*
X15863991Y-9412984D02*
X15749706Y-9412984D01*
X15806848Y-9412984D02*
X15806848Y-9212984D01*
X15806848Y-9212984D02*
X15787801Y-9241555D01*
X15787801Y-9241555D02*
X15768753Y-9260603D01*
X15768753Y-9260603D02*
X15749706Y-9270127D01*
X16102087Y-9412984D02*
X16102087Y-9212984D01*
X16187801Y-9412984D02*
X16187801Y-9308222D01*
X16187801Y-9308222D02*
X16178277Y-9289174D01*
X16178277Y-9289174D02*
X16159230Y-9279650D01*
X16159230Y-9279650D02*
X16130658Y-9279650D01*
X16130658Y-9279650D02*
X16111610Y-9289174D01*
X16111610Y-9289174D02*
X16102087Y-9298698D01*
X16311610Y-9412984D02*
X16292563Y-9403460D01*
X16292563Y-9403460D02*
X16283039Y-9393936D01*
X16283039Y-9393936D02*
X16273515Y-9374889D01*
X16273515Y-9374889D02*
X16273515Y-9317746D01*
X16273515Y-9317746D02*
X16283039Y-9298698D01*
X16283039Y-9298698D02*
X16292563Y-9289174D01*
X16292563Y-9289174D02*
X16311610Y-9279650D01*
X16311610Y-9279650D02*
X16340182Y-9279650D01*
X16340182Y-9279650D02*
X16359230Y-9289174D01*
X16359230Y-9289174D02*
X16368753Y-9298698D01*
X16368753Y-9298698D02*
X16378277Y-9317746D01*
X16378277Y-9317746D02*
X16378277Y-9374889D01*
X16378277Y-9374889D02*
X16368753Y-9393936D01*
X16368753Y-9393936D02*
X16359230Y-9403460D01*
X16359230Y-9403460D02*
X16340182Y-9412984D01*
X16340182Y-9412984D02*
X16311610Y-9412984D01*
X16492563Y-9412984D02*
X16473515Y-9403460D01*
X16473515Y-9403460D02*
X16463991Y-9384412D01*
X16463991Y-9384412D02*
X16463991Y-9212984D01*
X16644944Y-9403460D02*
X16625896Y-9412984D01*
X16625896Y-9412984D02*
X16587801Y-9412984D01*
X16587801Y-9412984D02*
X16568753Y-9403460D01*
X16568753Y-9403460D02*
X16559230Y-9384412D01*
X16559230Y-9384412D02*
X16559230Y-9308222D01*
X16559230Y-9308222D02*
X16568753Y-9289174D01*
X16568753Y-9289174D02*
X16587801Y-9279650D01*
X16587801Y-9279650D02*
X16625896Y-9279650D01*
X16625896Y-9279650D02*
X16644944Y-9289174D01*
X16644944Y-9289174D02*
X16654468Y-9308222D01*
X16654468Y-9308222D02*
X16654468Y-9327270D01*
X16654468Y-9327270D02*
X16559230Y-9346317D01*
X16730658Y-9403460D02*
X16749706Y-9412984D01*
X16749706Y-9412984D02*
X16787801Y-9412984D01*
X16787801Y-9412984D02*
X16806849Y-9403460D01*
X16806849Y-9403460D02*
X16816373Y-9384412D01*
X16816373Y-9384412D02*
X16816373Y-9374889D01*
X16816373Y-9374889D02*
X16806849Y-9355841D01*
X16806849Y-9355841D02*
X16787801Y-9346317D01*
X16787801Y-9346317D02*
X16759230Y-9346317D01*
X16759230Y-9346317D02*
X16740182Y-9336793D01*
X16740182Y-9336793D02*
X16730658Y-9317746D01*
X16730658Y-9317746D02*
X16730658Y-9308222D01*
X16730658Y-9308222D02*
X16740182Y-9289174D01*
X16740182Y-9289174D02*
X16759230Y-9279650D01*
X16759230Y-9279650D02*
X16787801Y-9279650D01*
X16787801Y-9279650D02*
X16806849Y-9289174D01*
X16883039Y-9489174D02*
X16892563Y-9479650D01*
X16892563Y-9479650D02*
X16911611Y-9451079D01*
X16911611Y-9451079D02*
X16921134Y-9432031D01*
X16921134Y-9432031D02*
X16930658Y-9403460D01*
X16930658Y-9403460D02*
X16940182Y-9355841D01*
X16940182Y-9355841D02*
X16940182Y-9317746D01*
X16940182Y-9317746D02*
X16930658Y-9270127D01*
X16930658Y-9270127D02*
X16921134Y-9241555D01*
X16921134Y-9241555D02*
X16911611Y-9222508D01*
X16911611Y-9222508D02*
X16892563Y-9193936D01*
X16892563Y-9193936D02*
X16883039Y-9184412D01*
D13*
X11830000Y-9498000D02*
X11830000Y-9673000D01*
X11742500Y-9585500D02*
X11917500Y-9585500D01*
D11*
X12283039Y-9676984D02*
X12168753Y-9676984D01*
X12225896Y-9676984D02*
X12225896Y-9476984D01*
X12225896Y-9476984D02*
X12206848Y-9505555D01*
X12206848Y-9505555D02*
X12187801Y-9524603D01*
X12187801Y-9524603D02*
X12168753Y-9534127D01*
X12368753Y-9657936D02*
X12378277Y-9667460D01*
X12378277Y-9667460D02*
X12368753Y-9676984D01*
X12368753Y-9676984D02*
X12359229Y-9667460D01*
X12359229Y-9667460D02*
X12368753Y-9657936D01*
X12368753Y-9657936D02*
X12368753Y-9676984D01*
X12444943Y-9476984D02*
X12578277Y-9476984D01*
X12578277Y-9476984D02*
X12492562Y-9676984D01*
X12749705Y-9476984D02*
X12654467Y-9476984D01*
X12654467Y-9476984D02*
X12644943Y-9572222D01*
X12644943Y-9572222D02*
X12654467Y-9562698D01*
X12654467Y-9562698D02*
X12673515Y-9553174D01*
X12673515Y-9553174D02*
X12721134Y-9553174D01*
X12721134Y-9553174D02*
X12740182Y-9562698D01*
X12740182Y-9562698D02*
X12749705Y-9572222D01*
X12749705Y-9572222D02*
X12759229Y-9591270D01*
X12759229Y-9591270D02*
X12759229Y-9638889D01*
X12759229Y-9638889D02*
X12749705Y-9657936D01*
X12749705Y-9657936D02*
X12740182Y-9667460D01*
X12740182Y-9667460D02*
X12721134Y-9676984D01*
X12721134Y-9676984D02*
X12673515Y-9676984D01*
X12673515Y-9676984D02*
X12654467Y-9667460D01*
X12654467Y-9667460D02*
X12644943Y-9657936D01*
X12883039Y-9476984D02*
X12902086Y-9476984D01*
X12902086Y-9476984D02*
X12921134Y-9486508D01*
X12921134Y-9486508D02*
X12930658Y-9496031D01*
X12930658Y-9496031D02*
X12940182Y-9515079D01*
X12940182Y-9515079D02*
X12949705Y-9553174D01*
X12949705Y-9553174D02*
X12949705Y-9600793D01*
X12949705Y-9600793D02*
X12940182Y-9638889D01*
X12940182Y-9638889D02*
X12930658Y-9657936D01*
X12930658Y-9657936D02*
X12921134Y-9667460D01*
X12921134Y-9667460D02*
X12902086Y-9676984D01*
X12902086Y-9676984D02*
X12883039Y-9676984D01*
X12883039Y-9676984D02*
X12863991Y-9667460D01*
X12863991Y-9667460D02*
X12854467Y-9657936D01*
X12854467Y-9657936D02*
X12844943Y-9638889D01*
X12844943Y-9638889D02*
X12835420Y-9600793D01*
X12835420Y-9600793D02*
X12835420Y-9553174D01*
X12835420Y-9553174D02*
X12844943Y-9515079D01*
X12844943Y-9515079D02*
X12854467Y-9496031D01*
X12854467Y-9496031D02*
X12863991Y-9486508D01*
X12863991Y-9486508D02*
X12883039Y-9476984D01*
X13035420Y-9676984D02*
X13035420Y-9543650D01*
X13035420Y-9562698D02*
X13044943Y-9553174D01*
X13044943Y-9553174D02*
X13063991Y-9543650D01*
X13063991Y-9543650D02*
X13092563Y-9543650D01*
X13092563Y-9543650D02*
X13111610Y-9553174D01*
X13111610Y-9553174D02*
X13121134Y-9572222D01*
X13121134Y-9572222D02*
X13121134Y-9676984D01*
X13121134Y-9572222D02*
X13130658Y-9553174D01*
X13130658Y-9553174D02*
X13149705Y-9543650D01*
X13149705Y-9543650D02*
X13178277Y-9543650D01*
X13178277Y-9543650D02*
X13197324Y-9553174D01*
X13197324Y-9553174D02*
X13206848Y-9572222D01*
X13206848Y-9572222D02*
X13206848Y-9676984D01*
X13302086Y-9676984D02*
X13302086Y-9543650D01*
X13302086Y-9562698D02*
X13311610Y-9553174D01*
X13311610Y-9553174D02*
X13330658Y-9543650D01*
X13330658Y-9543650D02*
X13359229Y-9543650D01*
X13359229Y-9543650D02*
X13378277Y-9553174D01*
X13378277Y-9553174D02*
X13387801Y-9572222D01*
X13387801Y-9572222D02*
X13387801Y-9676984D01*
X13387801Y-9572222D02*
X13397324Y-9553174D01*
X13397324Y-9553174D02*
X13416372Y-9543650D01*
X13416372Y-9543650D02*
X13444943Y-9543650D01*
X13444943Y-9543650D02*
X13463991Y-9553174D01*
X13463991Y-9553174D02*
X13473515Y-9572222D01*
X13473515Y-9572222D02*
X13473515Y-9676984D01*
X13863991Y-9467460D02*
X13692563Y-9724603D01*
X14121134Y-9476984D02*
X14140182Y-9476984D01*
X14140182Y-9476984D02*
X14159229Y-9486508D01*
X14159229Y-9486508D02*
X14168753Y-9496031D01*
X14168753Y-9496031D02*
X14178277Y-9515079D01*
X14178277Y-9515079D02*
X14187801Y-9553174D01*
X14187801Y-9553174D02*
X14187801Y-9600793D01*
X14187801Y-9600793D02*
X14178277Y-9638889D01*
X14178277Y-9638889D02*
X14168753Y-9657936D01*
X14168753Y-9657936D02*
X14159229Y-9667460D01*
X14159229Y-9667460D02*
X14140182Y-9676984D01*
X14140182Y-9676984D02*
X14121134Y-9676984D01*
X14121134Y-9676984D02*
X14102086Y-9667460D01*
X14102086Y-9667460D02*
X14092563Y-9657936D01*
X14092563Y-9657936D02*
X14083039Y-9638889D01*
X14083039Y-9638889D02*
X14073515Y-9600793D01*
X14073515Y-9600793D02*
X14073515Y-9553174D01*
X14073515Y-9553174D02*
X14083039Y-9515079D01*
X14083039Y-9515079D02*
X14092563Y-9496031D01*
X14092563Y-9496031D02*
X14102086Y-9486508D01*
X14102086Y-9486508D02*
X14121134Y-9476984D01*
X14273515Y-9657936D02*
X14283039Y-9667460D01*
X14283039Y-9667460D02*
X14273515Y-9676984D01*
X14273515Y-9676984D02*
X14263991Y-9667460D01*
X14263991Y-9667460D02*
X14273515Y-9657936D01*
X14273515Y-9657936D02*
X14273515Y-9676984D01*
X14406848Y-9476984D02*
X14425896Y-9476984D01*
X14425896Y-9476984D02*
X14444944Y-9486508D01*
X14444944Y-9486508D02*
X14454467Y-9496031D01*
X14454467Y-9496031D02*
X14463991Y-9515079D01*
X14463991Y-9515079D02*
X14473515Y-9553174D01*
X14473515Y-9553174D02*
X14473515Y-9600793D01*
X14473515Y-9600793D02*
X14463991Y-9638889D01*
X14463991Y-9638889D02*
X14454467Y-9657936D01*
X14454467Y-9657936D02*
X14444944Y-9667460D01*
X14444944Y-9667460D02*
X14425896Y-9676984D01*
X14425896Y-9676984D02*
X14406848Y-9676984D01*
X14406848Y-9676984D02*
X14387801Y-9667460D01*
X14387801Y-9667460D02*
X14378277Y-9657936D01*
X14378277Y-9657936D02*
X14368753Y-9638889D01*
X14368753Y-9638889D02*
X14359229Y-9600793D01*
X14359229Y-9600793D02*
X14359229Y-9553174D01*
X14359229Y-9553174D02*
X14368753Y-9515079D01*
X14368753Y-9515079D02*
X14378277Y-9496031D01*
X14378277Y-9496031D02*
X14387801Y-9486508D01*
X14387801Y-9486508D02*
X14406848Y-9476984D01*
X14644944Y-9476984D02*
X14606848Y-9476984D01*
X14606848Y-9476984D02*
X14587801Y-9486508D01*
X14587801Y-9486508D02*
X14578277Y-9496031D01*
X14578277Y-9496031D02*
X14559229Y-9524603D01*
X14559229Y-9524603D02*
X14549706Y-9562698D01*
X14549706Y-9562698D02*
X14549706Y-9638889D01*
X14549706Y-9638889D02*
X14559229Y-9657936D01*
X14559229Y-9657936D02*
X14568753Y-9667460D01*
X14568753Y-9667460D02*
X14587801Y-9676984D01*
X14587801Y-9676984D02*
X14625896Y-9676984D01*
X14625896Y-9676984D02*
X14644944Y-9667460D01*
X14644944Y-9667460D02*
X14654467Y-9657936D01*
X14654467Y-9657936D02*
X14663991Y-9638889D01*
X14663991Y-9638889D02*
X14663991Y-9591270D01*
X14663991Y-9591270D02*
X14654467Y-9572222D01*
X14654467Y-9572222D02*
X14644944Y-9562698D01*
X14644944Y-9562698D02*
X14625896Y-9553174D01*
X14625896Y-9553174D02*
X14587801Y-9553174D01*
X14587801Y-9553174D02*
X14568753Y-9562698D01*
X14568753Y-9562698D02*
X14559229Y-9572222D01*
X14559229Y-9572222D02*
X14549706Y-9591270D01*
X14778277Y-9562698D02*
X14759229Y-9553174D01*
X14759229Y-9553174D02*
X14749706Y-9543650D01*
X14749706Y-9543650D02*
X14740182Y-9524603D01*
X14740182Y-9524603D02*
X14740182Y-9515079D01*
X14740182Y-9515079D02*
X14749706Y-9496031D01*
X14749706Y-9496031D02*
X14759229Y-9486508D01*
X14759229Y-9486508D02*
X14778277Y-9476984D01*
X14778277Y-9476984D02*
X14816372Y-9476984D01*
X14816372Y-9476984D02*
X14835420Y-9486508D01*
X14835420Y-9486508D02*
X14844944Y-9496031D01*
X14844944Y-9496031D02*
X14854467Y-9515079D01*
X14854467Y-9515079D02*
X14854467Y-9524603D01*
X14854467Y-9524603D02*
X14844944Y-9543650D01*
X14844944Y-9543650D02*
X14835420Y-9553174D01*
X14835420Y-9553174D02*
X14816372Y-9562698D01*
X14816372Y-9562698D02*
X14778277Y-9562698D01*
X14778277Y-9562698D02*
X14759229Y-9572222D01*
X14759229Y-9572222D02*
X14749706Y-9581746D01*
X14749706Y-9581746D02*
X14740182Y-9600793D01*
X14740182Y-9600793D02*
X14740182Y-9638889D01*
X14740182Y-9638889D02*
X14749706Y-9657936D01*
X14749706Y-9657936D02*
X14759229Y-9667460D01*
X14759229Y-9667460D02*
X14778277Y-9676984D01*
X14778277Y-9676984D02*
X14816372Y-9676984D01*
X14816372Y-9676984D02*
X14835420Y-9667460D01*
X14835420Y-9667460D02*
X14844944Y-9657936D01*
X14844944Y-9657936D02*
X14854467Y-9638889D01*
X14854467Y-9638889D02*
X14854467Y-9600793D01*
X14854467Y-9600793D02*
X14844944Y-9581746D01*
X14844944Y-9581746D02*
X14835420Y-9572222D01*
X14835420Y-9572222D02*
X14816372Y-9562698D01*
X14949706Y-9676984D02*
X14987801Y-9676984D01*
X14987801Y-9676984D02*
X15006848Y-9667460D01*
X15006848Y-9667460D02*
X15016372Y-9657936D01*
X15016372Y-9657936D02*
X15035420Y-9629365D01*
X15035420Y-9629365D02*
X15044944Y-9591270D01*
X15044944Y-9591270D02*
X15044944Y-9515079D01*
X15044944Y-9515079D02*
X15035420Y-9496031D01*
X15035420Y-9496031D02*
X15025896Y-9486508D01*
X15025896Y-9486508D02*
X15006848Y-9476984D01*
X15006848Y-9476984D02*
X14968753Y-9476984D01*
X14968753Y-9476984D02*
X14949706Y-9486508D01*
X14949706Y-9486508D02*
X14940182Y-9496031D01*
X14940182Y-9496031D02*
X14930658Y-9515079D01*
X14930658Y-9515079D02*
X14930658Y-9562698D01*
X14930658Y-9562698D02*
X14940182Y-9581746D01*
X14940182Y-9581746D02*
X14949706Y-9591270D01*
X14949706Y-9591270D02*
X14968753Y-9600793D01*
X14968753Y-9600793D02*
X15006848Y-9600793D01*
X15006848Y-9600793D02*
X15025896Y-9591270D01*
X15025896Y-9591270D02*
X15035420Y-9581746D01*
X15035420Y-9581746D02*
X15044944Y-9562698D01*
X15121134Y-9476984D02*
X15121134Y-9515079D01*
X15197325Y-9476984D02*
X15197325Y-9515079D01*
X15492563Y-9753174D02*
X15483039Y-9743650D01*
X15483039Y-9743650D02*
X15463991Y-9715079D01*
X15463991Y-9715079D02*
X15454468Y-9696031D01*
X15454468Y-9696031D02*
X15444944Y-9667460D01*
X15444944Y-9667460D02*
X15435420Y-9619841D01*
X15435420Y-9619841D02*
X15435420Y-9581746D01*
X15435420Y-9581746D02*
X15444944Y-9534127D01*
X15444944Y-9534127D02*
X15454468Y-9505555D01*
X15454468Y-9505555D02*
X15463991Y-9486508D01*
X15463991Y-9486508D02*
X15483039Y-9457936D01*
X15483039Y-9457936D02*
X15492563Y-9448412D01*
X15673515Y-9676984D02*
X15559229Y-9676984D01*
X15616372Y-9676984D02*
X15616372Y-9476984D01*
X15616372Y-9476984D02*
X15597325Y-9505555D01*
X15597325Y-9505555D02*
X15578277Y-9524603D01*
X15578277Y-9524603D02*
X15559229Y-9534127D01*
X15797325Y-9476984D02*
X15816372Y-9476984D01*
X15816372Y-9476984D02*
X15835420Y-9486508D01*
X15835420Y-9486508D02*
X15844944Y-9496031D01*
X15844944Y-9496031D02*
X15854468Y-9515079D01*
X15854468Y-9515079D02*
X15863991Y-9553174D01*
X15863991Y-9553174D02*
X15863991Y-9600793D01*
X15863991Y-9600793D02*
X15854468Y-9638889D01*
X15854468Y-9638889D02*
X15844944Y-9657936D01*
X15844944Y-9657936D02*
X15835420Y-9667460D01*
X15835420Y-9667460D02*
X15816372Y-9676984D01*
X15816372Y-9676984D02*
X15797325Y-9676984D01*
X15797325Y-9676984D02*
X15778277Y-9667460D01*
X15778277Y-9667460D02*
X15768753Y-9657936D01*
X15768753Y-9657936D02*
X15759229Y-9638889D01*
X15759229Y-9638889D02*
X15749706Y-9600793D01*
X15749706Y-9600793D02*
X15749706Y-9553174D01*
X15749706Y-9553174D02*
X15759229Y-9515079D01*
X15759229Y-9515079D02*
X15768753Y-9496031D01*
X15768753Y-9496031D02*
X15778277Y-9486508D01*
X15778277Y-9486508D02*
X15797325Y-9476984D01*
X16102087Y-9676984D02*
X16102087Y-9476984D01*
X16187801Y-9676984D02*
X16187801Y-9572222D01*
X16187801Y-9572222D02*
X16178277Y-9553174D01*
X16178277Y-9553174D02*
X16159230Y-9543650D01*
X16159230Y-9543650D02*
X16130658Y-9543650D01*
X16130658Y-9543650D02*
X16111610Y-9553174D01*
X16111610Y-9553174D02*
X16102087Y-9562698D01*
X16311610Y-9676984D02*
X16292563Y-9667460D01*
X16292563Y-9667460D02*
X16283039Y-9657936D01*
X16283039Y-9657936D02*
X16273515Y-9638889D01*
X16273515Y-9638889D02*
X16273515Y-9581746D01*
X16273515Y-9581746D02*
X16283039Y-9562698D01*
X16283039Y-9562698D02*
X16292563Y-9553174D01*
X16292563Y-9553174D02*
X16311610Y-9543650D01*
X16311610Y-9543650D02*
X16340182Y-9543650D01*
X16340182Y-9543650D02*
X16359230Y-9553174D01*
X16359230Y-9553174D02*
X16368753Y-9562698D01*
X16368753Y-9562698D02*
X16378277Y-9581746D01*
X16378277Y-9581746D02*
X16378277Y-9638889D01*
X16378277Y-9638889D02*
X16368753Y-9657936D01*
X16368753Y-9657936D02*
X16359230Y-9667460D01*
X16359230Y-9667460D02*
X16340182Y-9676984D01*
X16340182Y-9676984D02*
X16311610Y-9676984D01*
X16492563Y-9676984D02*
X16473515Y-9667460D01*
X16473515Y-9667460D02*
X16463991Y-9648412D01*
X16463991Y-9648412D02*
X16463991Y-9476984D01*
X16644944Y-9667460D02*
X16625896Y-9676984D01*
X16625896Y-9676984D02*
X16587801Y-9676984D01*
X16587801Y-9676984D02*
X16568753Y-9667460D01*
X16568753Y-9667460D02*
X16559230Y-9648412D01*
X16559230Y-9648412D02*
X16559230Y-9572222D01*
X16559230Y-9572222D02*
X16568753Y-9553174D01*
X16568753Y-9553174D02*
X16587801Y-9543650D01*
X16587801Y-9543650D02*
X16625896Y-9543650D01*
X16625896Y-9543650D02*
X16644944Y-9553174D01*
X16644944Y-9553174D02*
X16654468Y-9572222D01*
X16654468Y-9572222D02*
X16654468Y-9591270D01*
X16654468Y-9591270D02*
X16559230Y-9610317D01*
X16730658Y-9667460D02*
X16749706Y-9676984D01*
X16749706Y-9676984D02*
X16787801Y-9676984D01*
X16787801Y-9676984D02*
X16806849Y-9667460D01*
X16806849Y-9667460D02*
X16816373Y-9648412D01*
X16816373Y-9648412D02*
X16816373Y-9638889D01*
X16816373Y-9638889D02*
X16806849Y-9619841D01*
X16806849Y-9619841D02*
X16787801Y-9610317D01*
X16787801Y-9610317D02*
X16759230Y-9610317D01*
X16759230Y-9610317D02*
X16740182Y-9600793D01*
X16740182Y-9600793D02*
X16730658Y-9581746D01*
X16730658Y-9581746D02*
X16730658Y-9572222D01*
X16730658Y-9572222D02*
X16740182Y-9553174D01*
X16740182Y-9553174D02*
X16759230Y-9543650D01*
X16759230Y-9543650D02*
X16787801Y-9543650D01*
X16787801Y-9543650D02*
X16806849Y-9553174D01*
X16883039Y-9753174D02*
X16892563Y-9743650D01*
X16892563Y-9743650D02*
X16911611Y-9715079D01*
X16911611Y-9715079D02*
X16921134Y-9696031D01*
X16921134Y-9696031D02*
X16930658Y-9667460D01*
X16930658Y-9667460D02*
X16940182Y-9619841D01*
X16940182Y-9619841D02*
X16940182Y-9581746D01*
X16940182Y-9581746D02*
X16930658Y-9534127D01*
X16930658Y-9534127D02*
X16921134Y-9505555D01*
X16921134Y-9505555D02*
X16911611Y-9486508D01*
X16911611Y-9486508D02*
X16892563Y-9457936D01*
X16892563Y-9457936D02*
X16883039Y-9448412D01*
M02*
