%TF.GenerationSoftware,KiCad,Pcbnew,9.0.6*%
%TF.CreationDate,2026-03-08T22:22:37-07:00*%
%TF.ProjectId,Untitled,556e7469-746c-4656-942e-6b696361645f,rev?*%
%TF.SameCoordinates,Original*%
%TF.FileFunction,Copper,L2,Bot*%
%TF.FilePolarity,Positive*%
%FSLAX46Y46*%
G04 Gerber Fmt 4.6, Leading zero omitted, Abs format (unit mm)*
G04 Created by KiCad (PCBNEW 9.0.6) date 2026-03-08 22:22:37*
%MOMM*%
%LPD*%
G01*
G04 APERTURE LIST*
%TA.AperFunction,ComponentPad*%
%ADD10R,2.625000X2.625000*%
%TD*%
%TA.AperFunction,ComponentPad*%
%ADD11C,2.625000*%
%TD*%
%TA.AperFunction,ComponentPad*%
%ADD12C,0.499999*%
%TD*%
%TA.AperFunction,ViaPad*%
%ADD13C,0.600000*%
%TD*%
%TA.AperFunction,Conductor*%
%ADD14C,0.200000*%
%TD*%
G04 APERTURE END LIST*
D10*
%TO.P,J3,1,1*%
%TO.N,Vref*%
X126000000Y-50350000D03*
D11*
%TO.P,J3,2,2*%
%TO.N,GND*%
X126000000Y-46390000D03*
%TD*%
D10*
%TO.P,J2,1,1*%
%TO.N,Vref*%
X126000000Y-77077500D03*
D11*
%TO.P,J2,2,2*%
%TO.N,GND*%
X126000000Y-73117500D03*
%TD*%
D10*
%TO.P,J1,1,1*%
%TO.N,Vcc*%
X141040000Y-49800000D03*
D11*
%TO.P,J1,2,2*%
%TO.N,GND*%
X145000000Y-49800000D03*
%TD*%
D12*
%TO.P,U1,12*%
%TO.N,GND*%
X135300001Y-58625000D03*
%TO.P,U1,13*%
X135300001Y-57475000D03*
%TO.P,U1,14*%
X134350000Y-58050000D03*
%TO.P,U1,15*%
X136250002Y-58050000D03*
%TD*%
D10*
%TO.P,J5,1,1*%
%TO.N,Vref*%
X126000000Y-68177500D03*
D11*
%TO.P,J5,2,2*%
%TO.N,GND*%
X126000000Y-64217500D03*
%TD*%
D10*
%TO.P,J4,1,1*%
%TO.N,Vref*%
X126000000Y-59217500D03*
D11*
%TO.P,J4,2,2*%
%TO.N,GND*%
X126000000Y-55257500D03*
%TD*%
D13*
%TO.N,GND*%
X138600000Y-73300000D03*
X132800000Y-53100000D03*
X145200000Y-55300000D03*
X137850000Y-69550000D03*
X144800000Y-59900000D03*
X138550000Y-65650000D03*
X131800000Y-61700000D03*
X143350000Y-55200000D03*
X134600000Y-55600000D03*
X131900000Y-60100000D03*
X140000000Y-62800000D03*
X133274236Y-59775764D03*
X135300000Y-52950000D03*
X136800000Y-52950000D03*
X134600000Y-55600000D03*
X133750000Y-69450000D03*
X133600000Y-63700000D03*
X143450000Y-69500000D03*
X136700000Y-63487500D03*
%TO.N,Net-(U1-SNS)*%
X131700000Y-59300000D03*
X137700000Y-59900000D03*
%TD*%
D14*
%TO.N,Net-(U1-SNS)*%
X137700000Y-59900000D02*
X137200000Y-60400000D01*
X133049943Y-60400000D02*
X131949943Y-59300000D01*
X131949943Y-59300000D02*
X131700000Y-59300000D01*
X137200000Y-60400000D02*
X133049943Y-60400000D01*
%TD*%
%TA.AperFunction,Conductor*%
%TO.N,GND*%
G36*
X146404418Y-41800816D02*
G01*
X146604561Y-41815130D01*
X146622063Y-41817647D01*
X146813797Y-41859355D01*
X146830755Y-41864334D01*
X147014609Y-41932909D01*
X147030701Y-41940259D01*
X147202904Y-42034288D01*
X147217784Y-42043849D01*
X147374867Y-42161441D01*
X147388237Y-42173027D01*
X147526972Y-42311762D01*
X147538558Y-42325132D01*
X147656146Y-42482210D01*
X147665711Y-42497095D01*
X147759740Y-42669298D01*
X147767090Y-42685390D01*
X147835662Y-42869236D01*
X147840646Y-42886212D01*
X147882351Y-43077931D01*
X147884869Y-43095442D01*
X147899184Y-43295580D01*
X147899500Y-43304427D01*
X147899500Y-82145572D01*
X147899184Y-82154419D01*
X147884869Y-82354557D01*
X147882351Y-82372068D01*
X147840646Y-82563787D01*
X147835662Y-82580763D01*
X147767090Y-82764609D01*
X147759740Y-82780701D01*
X147665711Y-82952904D01*
X147656146Y-82967789D01*
X147538558Y-83124867D01*
X147526972Y-83138237D01*
X147388237Y-83276972D01*
X147374867Y-83288558D01*
X147217789Y-83406146D01*
X147202904Y-83415711D01*
X147030701Y-83509740D01*
X147014609Y-83517090D01*
X146830763Y-83585662D01*
X146813787Y-83590646D01*
X146622068Y-83632351D01*
X146604557Y-83634869D01*
X146423779Y-83647799D01*
X146404417Y-83649184D01*
X146395572Y-83649500D01*
X121204428Y-83649500D01*
X121195582Y-83649184D01*
X121173622Y-83647613D01*
X120995442Y-83634869D01*
X120977931Y-83632351D01*
X120786212Y-83590646D01*
X120769236Y-83585662D01*
X120585390Y-83517090D01*
X120569298Y-83509740D01*
X120397095Y-83415711D01*
X120382210Y-83406146D01*
X120225132Y-83288558D01*
X120211762Y-83276972D01*
X120073027Y-83138237D01*
X120061441Y-83124867D01*
X119943849Y-82967784D01*
X119934288Y-82952904D01*
X119840259Y-82780701D01*
X119832909Y-82764609D01*
X119772091Y-82601551D01*
X119764334Y-82580755D01*
X119759355Y-82563797D01*
X119717647Y-82372063D01*
X119715130Y-82354556D01*
X119700816Y-82154418D01*
X119700500Y-82145572D01*
X119700500Y-75717135D01*
X124187000Y-75717135D01*
X124187000Y-78437870D01*
X124187001Y-78437876D01*
X124193408Y-78497483D01*
X124243702Y-78632328D01*
X124243706Y-78632335D01*
X124329952Y-78747544D01*
X124329955Y-78747547D01*
X124445164Y-78833793D01*
X124445171Y-78833797D01*
X124580017Y-78884091D01*
X124580016Y-78884091D01*
X124586944Y-78884835D01*
X124639627Y-78890500D01*
X127360372Y-78890499D01*
X127419983Y-78884091D01*
X127554831Y-78833796D01*
X127670046Y-78747546D01*
X127756296Y-78632331D01*
X127806591Y-78497483D01*
X127813000Y-78437873D01*
X127812999Y-75717128D01*
X127806591Y-75657517D01*
X127756296Y-75522669D01*
X127756295Y-75522668D01*
X127756293Y-75522664D01*
X127670047Y-75407455D01*
X127670044Y-75407452D01*
X127554835Y-75321206D01*
X127554828Y-75321202D01*
X127419982Y-75270908D01*
X127419983Y-75270908D01*
X127360383Y-75264501D01*
X127360381Y-75264500D01*
X127360373Y-75264500D01*
X127360364Y-75264500D01*
X124639629Y-75264500D01*
X124639623Y-75264501D01*
X124580016Y-75270908D01*
X124445171Y-75321202D01*
X124445164Y-75321206D01*
X124329955Y-75407452D01*
X124329952Y-75407455D01*
X124243706Y-75522664D01*
X124243702Y-75522671D01*
X124193408Y-75657517D01*
X124187001Y-75717116D01*
X124187001Y-75717123D01*
X124187000Y-75717135D01*
X119700500Y-75717135D01*
X119700500Y-66817135D01*
X124187000Y-66817135D01*
X124187000Y-69537870D01*
X124187001Y-69537876D01*
X124193408Y-69597483D01*
X124243702Y-69732328D01*
X124243706Y-69732335D01*
X124329952Y-69847544D01*
X124329955Y-69847547D01*
X124445164Y-69933793D01*
X124445171Y-69933797D01*
X124580017Y-69984091D01*
X124580016Y-69984091D01*
X124586944Y-69984835D01*
X124639627Y-69990500D01*
X127360372Y-69990499D01*
X127419983Y-69984091D01*
X127554831Y-69933796D01*
X127670046Y-69847546D01*
X127756296Y-69732331D01*
X127806591Y-69597483D01*
X127813000Y-69537873D01*
X127812999Y-66817128D01*
X127806591Y-66757517D01*
X127756296Y-66622669D01*
X127756295Y-66622668D01*
X127756293Y-66622664D01*
X127670047Y-66507455D01*
X127670044Y-66507452D01*
X127554835Y-66421206D01*
X127554828Y-66421202D01*
X127419982Y-66370908D01*
X127419983Y-66370908D01*
X127360383Y-66364501D01*
X127360381Y-66364500D01*
X127360373Y-66364500D01*
X127360364Y-66364500D01*
X124639629Y-66364500D01*
X124639623Y-66364501D01*
X124580016Y-66370908D01*
X124445171Y-66421202D01*
X124445164Y-66421206D01*
X124329955Y-66507452D01*
X124329952Y-66507455D01*
X124243706Y-66622664D01*
X124243702Y-66622671D01*
X124193408Y-66757517D01*
X124187001Y-66817116D01*
X124187001Y-66817123D01*
X124187000Y-66817135D01*
X119700500Y-66817135D01*
X119700500Y-57857135D01*
X124187000Y-57857135D01*
X124187000Y-60577870D01*
X124187001Y-60577876D01*
X124193408Y-60637483D01*
X124243702Y-60772328D01*
X124243706Y-60772335D01*
X124329952Y-60887544D01*
X124329955Y-60887547D01*
X124445164Y-60973793D01*
X124445171Y-60973797D01*
X124580017Y-61024091D01*
X124580016Y-61024091D01*
X124586944Y-61024835D01*
X124639627Y-61030500D01*
X127360372Y-61030499D01*
X127419983Y-61024091D01*
X127554831Y-60973796D01*
X127670046Y-60887546D01*
X127756296Y-60772331D01*
X127806591Y-60637483D01*
X127813000Y-60577873D01*
X127813000Y-59221153D01*
X130899500Y-59221153D01*
X130899500Y-59378846D01*
X130930261Y-59533489D01*
X130930264Y-59533501D01*
X130990602Y-59679172D01*
X130990609Y-59679185D01*
X131078210Y-59810288D01*
X131078213Y-59810292D01*
X131189707Y-59921786D01*
X131189711Y-59921789D01*
X131320814Y-60009390D01*
X131320827Y-60009397D01*
X131466498Y-60069735D01*
X131466503Y-60069737D01*
X131584097Y-60093128D01*
X131621153Y-60100499D01*
X131621156Y-60100500D01*
X131621158Y-60100500D01*
X131778841Y-60100500D01*
X131778842Y-60100500D01*
X131815900Y-60093128D01*
X131885488Y-60099354D01*
X131927772Y-60127064D01*
X132565082Y-60764374D01*
X132565092Y-60764385D01*
X132569422Y-60768715D01*
X132569423Y-60768716D01*
X132681227Y-60880520D01*
X132768038Y-60930639D01*
X132768040Y-60930641D01*
X132806094Y-60952611D01*
X132818158Y-60959577D01*
X132970886Y-61000501D01*
X132970889Y-61000501D01*
X133136596Y-61000501D01*
X133136612Y-61000500D01*
X137113331Y-61000500D01*
X137113347Y-61000501D01*
X137120943Y-61000501D01*
X137279054Y-61000501D01*
X137279057Y-61000501D01*
X137431785Y-60959577D01*
X137481904Y-60930639D01*
X137568716Y-60880520D01*
X137680520Y-60768716D01*
X137680521Y-60768714D01*
X137714662Y-60734572D01*
X137775983Y-60701089D01*
X137778150Y-60700638D01*
X137836085Y-60689113D01*
X137933497Y-60669737D01*
X138079179Y-60609394D01*
X138210289Y-60521789D01*
X138321789Y-60410289D01*
X138409394Y-60279179D01*
X138469737Y-60133497D01*
X138500500Y-59978842D01*
X138500500Y-59821158D01*
X138500500Y-59821155D01*
X138500499Y-59821153D01*
X138492276Y-59779815D01*
X138469737Y-59666503D01*
X138469735Y-59666498D01*
X138409397Y-59520827D01*
X138409390Y-59520814D01*
X138321789Y-59389711D01*
X138321786Y-59389707D01*
X138210292Y-59278213D01*
X138210288Y-59278210D01*
X138079185Y-59190609D01*
X138079172Y-59190602D01*
X137933501Y-59130264D01*
X137933489Y-59130261D01*
X137778845Y-59099500D01*
X137778842Y-59099500D01*
X137621158Y-59099500D01*
X137621155Y-59099500D01*
X137466510Y-59130261D01*
X137466498Y-59130264D01*
X137320827Y-59190602D01*
X137320814Y-59190609D01*
X137189711Y-59278210D01*
X137189707Y-59278213D01*
X137078213Y-59389707D01*
X137078210Y-59389711D01*
X136990609Y-59520814D01*
X136990602Y-59520827D01*
X136930264Y-59666498D01*
X136930261Y-59666510D01*
X136923661Y-59699691D01*
X136891276Y-59761602D01*
X136830561Y-59796176D01*
X136802044Y-59799500D01*
X133350040Y-59799500D01*
X133283001Y-59779815D01*
X133262359Y-59763181D01*
X132437532Y-58938354D01*
X132430463Y-58931285D01*
X132430463Y-58931284D01*
X132396671Y-58897492D01*
X132381251Y-58878703D01*
X132321787Y-58789708D01*
X132210292Y-58678213D01*
X132210288Y-58678210D01*
X132079185Y-58590609D01*
X132079172Y-58590602D01*
X131933501Y-58530264D01*
X131933489Y-58530261D01*
X131778845Y-58499500D01*
X131778842Y-58499500D01*
X131621158Y-58499500D01*
X131621155Y-58499500D01*
X131466510Y-58530261D01*
X131466498Y-58530264D01*
X131320827Y-58590602D01*
X131320814Y-58590609D01*
X131189711Y-58678210D01*
X131189707Y-58678213D01*
X131078213Y-58789707D01*
X131078210Y-58789711D01*
X130990609Y-58920814D01*
X130990602Y-58920827D01*
X130930264Y-59066498D01*
X130930261Y-59066510D01*
X130899500Y-59221153D01*
X127813000Y-59221153D01*
X127812999Y-57857128D01*
X127806591Y-57797517D01*
X127756296Y-57662669D01*
X127756295Y-57662668D01*
X127756293Y-57662664D01*
X127670047Y-57547455D01*
X127670044Y-57547452D01*
X127554835Y-57461206D01*
X127554828Y-57461202D01*
X127419982Y-57410908D01*
X127419983Y-57410908D01*
X127360383Y-57404501D01*
X127360381Y-57404500D01*
X127360373Y-57404500D01*
X127360364Y-57404500D01*
X124639629Y-57404500D01*
X124639623Y-57404501D01*
X124580016Y-57410908D01*
X124445171Y-57461202D01*
X124445164Y-57461206D01*
X124329955Y-57547452D01*
X124329952Y-57547455D01*
X124243706Y-57662664D01*
X124243702Y-57662671D01*
X124193408Y-57797517D01*
X124187001Y-57857116D01*
X124187001Y-57857123D01*
X124187000Y-57857135D01*
X119700500Y-57857135D01*
X119700500Y-48989635D01*
X124187000Y-48989635D01*
X124187000Y-51710370D01*
X124187001Y-51710376D01*
X124193408Y-51769983D01*
X124243702Y-51904828D01*
X124243706Y-51904835D01*
X124329952Y-52020044D01*
X124329955Y-52020047D01*
X124445164Y-52106293D01*
X124445171Y-52106297D01*
X124580017Y-52156591D01*
X124580016Y-52156591D01*
X124586944Y-52157335D01*
X124639627Y-52163000D01*
X127360372Y-52162999D01*
X127419983Y-52156591D01*
X127554831Y-52106296D01*
X127670046Y-52020046D01*
X127756296Y-51904831D01*
X127806591Y-51769983D01*
X127813000Y-51710373D01*
X127812999Y-48989628D01*
X127806591Y-48930017D01*
X127756296Y-48795169D01*
X127756295Y-48795168D01*
X127756293Y-48795164D01*
X127670047Y-48679955D01*
X127670044Y-48679952D01*
X127554835Y-48593706D01*
X127554828Y-48593702D01*
X127444326Y-48552488D01*
X127419982Y-48543408D01*
X127419983Y-48543408D01*
X127360383Y-48537001D01*
X127360381Y-48537000D01*
X127360373Y-48537000D01*
X127360364Y-48537000D01*
X124639629Y-48537000D01*
X124639623Y-48537001D01*
X124580016Y-48543408D01*
X124445171Y-48593702D01*
X124445164Y-48593706D01*
X124329955Y-48679952D01*
X124329952Y-48679955D01*
X124243706Y-48795164D01*
X124243702Y-48795171D01*
X124193408Y-48930017D01*
X124187001Y-48989616D01*
X124187001Y-48989623D01*
X124187000Y-48989635D01*
X119700500Y-48989635D01*
X119700500Y-48439635D01*
X139227000Y-48439635D01*
X139227000Y-51160370D01*
X139227001Y-51160376D01*
X139233408Y-51219983D01*
X139283702Y-51354828D01*
X139283706Y-51354835D01*
X139369952Y-51470044D01*
X139369955Y-51470047D01*
X139485164Y-51556293D01*
X139485171Y-51556297D01*
X139620017Y-51606591D01*
X139620016Y-51606591D01*
X139626944Y-51607335D01*
X139679627Y-51613000D01*
X142400372Y-51612999D01*
X142459983Y-51606591D01*
X142594831Y-51556296D01*
X142710046Y-51470046D01*
X142796296Y-51354831D01*
X142846591Y-51219983D01*
X142853000Y-51160373D01*
X142852999Y-48439628D01*
X142846591Y-48380017D01*
X142796296Y-48245169D01*
X142796295Y-48245168D01*
X142796293Y-48245164D01*
X142710047Y-48129955D01*
X142710044Y-48129952D01*
X142594835Y-48043706D01*
X142594828Y-48043702D01*
X142459982Y-47993408D01*
X142459983Y-47993408D01*
X142400383Y-47987001D01*
X142400381Y-47987000D01*
X142400373Y-47987000D01*
X142400364Y-47987000D01*
X139679629Y-47987000D01*
X139679623Y-47987001D01*
X139620016Y-47993408D01*
X139485171Y-48043702D01*
X139485164Y-48043706D01*
X139369955Y-48129952D01*
X139369952Y-48129955D01*
X139283706Y-48245164D01*
X139283702Y-48245171D01*
X139233408Y-48380017D01*
X139227001Y-48439616D01*
X139227001Y-48439623D01*
X139227000Y-48439635D01*
X119700500Y-48439635D01*
X119700500Y-43304427D01*
X119700816Y-43295581D01*
X119715130Y-43095443D01*
X119715131Y-43095434D01*
X119717646Y-43077938D01*
X119759356Y-42886199D01*
X119764333Y-42869248D01*
X119832911Y-42685385D01*
X119840259Y-42669298D01*
X119902815Y-42554734D01*
X119934291Y-42497089D01*
X119943845Y-42482221D01*
X120061448Y-42325123D01*
X120073020Y-42311769D01*
X120211769Y-42173020D01*
X120225123Y-42161448D01*
X120382221Y-42043845D01*
X120397089Y-42034291D01*
X120569298Y-41940258D01*
X120585385Y-41932911D01*
X120769248Y-41864333D01*
X120786199Y-41859356D01*
X120977938Y-41817646D01*
X120995436Y-41815130D01*
X121195582Y-41800816D01*
X121204428Y-41800500D01*
X121265892Y-41800500D01*
X146334108Y-41800500D01*
X146395572Y-41800500D01*
X146404418Y-41800816D01*
G37*
%TD.AperFunction*%
%TD*%
M02*
