%TF.GenerationSoftware,KiCad,Pcbnew,9.0.6*%
%TF.CreationDate,2026-03-08T22:22:37-07:00*%
%TF.ProjectId,Untitled,556e7469-746c-4656-942e-6b696361645f,rev?*%
%TF.SameCoordinates,Original*%
%TF.FileFunction,Legend,Bot*%
%TF.FilePolarity,Positive*%
%FSLAX46Y46*%
G04 Gerber Fmt 4.6, Leading zero omitted, Abs format (unit mm)*
G04 Created by KiCad (PCBNEW 9.0.6) date 2026-03-08 22:22:37*
%MOMM*%
%LPD*%
G01*
G04 APERTURE LIST*
%ADD10C,0.300000*%
G04 APERTURE END LIST*
D10*
X143485912Y-57904510D02*
X141985912Y-57904510D01*
X141985912Y-57904510D02*
X141985912Y-58475939D01*
X141985912Y-58475939D02*
X142057341Y-58618796D01*
X142057341Y-58618796D02*
X142128769Y-58690225D01*
X142128769Y-58690225D02*
X142271626Y-58761653D01*
X142271626Y-58761653D02*
X142485912Y-58761653D01*
X142485912Y-58761653D02*
X142628769Y-58690225D01*
X142628769Y-58690225D02*
X142700198Y-58618796D01*
X142700198Y-58618796D02*
X142771626Y-58475939D01*
X142771626Y-58475939D02*
X142771626Y-57904510D01*
X143485912Y-59618796D02*
X143414484Y-59475939D01*
X143414484Y-59475939D02*
X143343055Y-59404510D01*
X143343055Y-59404510D02*
X143200198Y-59333082D01*
X143200198Y-59333082D02*
X142771626Y-59333082D01*
X142771626Y-59333082D02*
X142628769Y-59404510D01*
X142628769Y-59404510D02*
X142557341Y-59475939D01*
X142557341Y-59475939D02*
X142485912Y-59618796D01*
X142485912Y-59618796D02*
X142485912Y-59833082D01*
X142485912Y-59833082D02*
X142557341Y-59975939D01*
X142557341Y-59975939D02*
X142628769Y-60047368D01*
X142628769Y-60047368D02*
X142771626Y-60118796D01*
X142771626Y-60118796D02*
X143200198Y-60118796D01*
X143200198Y-60118796D02*
X143343055Y-60047368D01*
X143343055Y-60047368D02*
X143414484Y-59975939D01*
X143414484Y-59975939D02*
X143485912Y-59833082D01*
X143485912Y-59833082D02*
X143485912Y-59618796D01*
X142485912Y-60618796D02*
X143485912Y-60904511D01*
X143485912Y-60904511D02*
X142771626Y-61190225D01*
X142771626Y-61190225D02*
X143485912Y-61475939D01*
X143485912Y-61475939D02*
X142485912Y-61761653D01*
X143414484Y-62904511D02*
X143485912Y-62761654D01*
X143485912Y-62761654D02*
X143485912Y-62475940D01*
X143485912Y-62475940D02*
X143414484Y-62333082D01*
X143414484Y-62333082D02*
X143271626Y-62261654D01*
X143271626Y-62261654D02*
X142700198Y-62261654D01*
X142700198Y-62261654D02*
X142557341Y-62333082D01*
X142557341Y-62333082D02*
X142485912Y-62475940D01*
X142485912Y-62475940D02*
X142485912Y-62761654D01*
X142485912Y-62761654D02*
X142557341Y-62904511D01*
X142557341Y-62904511D02*
X142700198Y-62975940D01*
X142700198Y-62975940D02*
X142843055Y-62975940D01*
X142843055Y-62975940D02*
X142985912Y-62261654D01*
X143485912Y-63618796D02*
X142485912Y-63618796D01*
X142771626Y-63618796D02*
X142628769Y-63690225D01*
X142628769Y-63690225D02*
X142557341Y-63761654D01*
X142557341Y-63761654D02*
X142485912Y-63904511D01*
X142485912Y-63904511D02*
X142485912Y-64047368D01*
X143343055Y-66547367D02*
X143414484Y-66475939D01*
X143414484Y-66475939D02*
X143485912Y-66261653D01*
X143485912Y-66261653D02*
X143485912Y-66118796D01*
X143485912Y-66118796D02*
X143414484Y-65904510D01*
X143414484Y-65904510D02*
X143271626Y-65761653D01*
X143271626Y-65761653D02*
X143128769Y-65690224D01*
X143128769Y-65690224D02*
X142843055Y-65618796D01*
X142843055Y-65618796D02*
X142628769Y-65618796D01*
X142628769Y-65618796D02*
X142343055Y-65690224D01*
X142343055Y-65690224D02*
X142200198Y-65761653D01*
X142200198Y-65761653D02*
X142057341Y-65904510D01*
X142057341Y-65904510D02*
X141985912Y-66118796D01*
X141985912Y-66118796D02*
X141985912Y-66261653D01*
X141985912Y-66261653D02*
X142057341Y-66475939D01*
X142057341Y-66475939D02*
X142128769Y-66547367D01*
X143485912Y-67404510D02*
X143414484Y-67261653D01*
X143414484Y-67261653D02*
X143343055Y-67190224D01*
X143343055Y-67190224D02*
X143200198Y-67118796D01*
X143200198Y-67118796D02*
X142771626Y-67118796D01*
X142771626Y-67118796D02*
X142628769Y-67190224D01*
X142628769Y-67190224D02*
X142557341Y-67261653D01*
X142557341Y-67261653D02*
X142485912Y-67404510D01*
X142485912Y-67404510D02*
X142485912Y-67618796D01*
X142485912Y-67618796D02*
X142557341Y-67761653D01*
X142557341Y-67761653D02*
X142628769Y-67833082D01*
X142628769Y-67833082D02*
X142771626Y-67904510D01*
X142771626Y-67904510D02*
X143200198Y-67904510D01*
X143200198Y-67904510D02*
X143343055Y-67833082D01*
X143343055Y-67833082D02*
X143414484Y-67761653D01*
X143414484Y-67761653D02*
X143485912Y-67618796D01*
X143485912Y-67618796D02*
X143485912Y-67404510D01*
X142485912Y-68547367D02*
X143485912Y-68547367D01*
X142628769Y-68547367D02*
X142557341Y-68618796D01*
X142557341Y-68618796D02*
X142485912Y-68761653D01*
X142485912Y-68761653D02*
X142485912Y-68975939D01*
X142485912Y-68975939D02*
X142557341Y-69118796D01*
X142557341Y-69118796D02*
X142700198Y-69190225D01*
X142700198Y-69190225D02*
X143485912Y-69190225D01*
X143485912Y-70547368D02*
X141985912Y-70547368D01*
X143414484Y-70547368D02*
X143485912Y-70404510D01*
X143485912Y-70404510D02*
X143485912Y-70118796D01*
X143485912Y-70118796D02*
X143414484Y-69975939D01*
X143414484Y-69975939D02*
X143343055Y-69904510D01*
X143343055Y-69904510D02*
X143200198Y-69833082D01*
X143200198Y-69833082D02*
X142771626Y-69833082D01*
X142771626Y-69833082D02*
X142628769Y-69904510D01*
X142628769Y-69904510D02*
X142557341Y-69975939D01*
X142557341Y-69975939D02*
X142485912Y-70118796D01*
X142485912Y-70118796D02*
X142485912Y-70404510D01*
X142485912Y-70404510D02*
X142557341Y-70547368D01*
X143485912Y-71261653D02*
X142485912Y-71261653D01*
X141985912Y-71261653D02*
X142057341Y-71190225D01*
X142057341Y-71190225D02*
X142128769Y-71261653D01*
X142128769Y-71261653D02*
X142057341Y-71333082D01*
X142057341Y-71333082D02*
X141985912Y-71261653D01*
X141985912Y-71261653D02*
X142128769Y-71261653D01*
X142485912Y-71761654D02*
X142485912Y-72333082D01*
X141985912Y-71975939D02*
X143271626Y-71975939D01*
X143271626Y-71975939D02*
X143414484Y-72047368D01*
X143414484Y-72047368D02*
X143485912Y-72190225D01*
X143485912Y-72190225D02*
X143485912Y-72333082D01*
X143485912Y-72833082D02*
X142485912Y-72833082D01*
X141985912Y-72833082D02*
X142057341Y-72761654D01*
X142057341Y-72761654D02*
X142128769Y-72833082D01*
X142128769Y-72833082D02*
X142057341Y-72904511D01*
X142057341Y-72904511D02*
X141985912Y-72833082D01*
X141985912Y-72833082D02*
X142128769Y-72833082D01*
X143485912Y-73761654D02*
X143414484Y-73618797D01*
X143414484Y-73618797D02*
X143343055Y-73547368D01*
X143343055Y-73547368D02*
X143200198Y-73475940D01*
X143200198Y-73475940D02*
X142771626Y-73475940D01*
X142771626Y-73475940D02*
X142628769Y-73547368D01*
X142628769Y-73547368D02*
X142557341Y-73618797D01*
X142557341Y-73618797D02*
X142485912Y-73761654D01*
X142485912Y-73761654D02*
X142485912Y-73975940D01*
X142485912Y-73975940D02*
X142557341Y-74118797D01*
X142557341Y-74118797D02*
X142628769Y-74190226D01*
X142628769Y-74190226D02*
X142771626Y-74261654D01*
X142771626Y-74261654D02*
X143200198Y-74261654D01*
X143200198Y-74261654D02*
X143343055Y-74190226D01*
X143343055Y-74190226D02*
X143414484Y-74118797D01*
X143414484Y-74118797D02*
X143485912Y-73975940D01*
X143485912Y-73975940D02*
X143485912Y-73761654D01*
X142485912Y-74904511D02*
X143485912Y-74904511D01*
X142628769Y-74904511D02*
X142557341Y-74975940D01*
X142557341Y-74975940D02*
X142485912Y-75118797D01*
X142485912Y-75118797D02*
X142485912Y-75333083D01*
X142485912Y-75333083D02*
X142557341Y-75475940D01*
X142557341Y-75475940D02*
X142700198Y-75547369D01*
X142700198Y-75547369D02*
X143485912Y-75547369D01*
X143485912Y-76261654D02*
X142485912Y-76261654D01*
X141985912Y-76261654D02*
X142057341Y-76190226D01*
X142057341Y-76190226D02*
X142128769Y-76261654D01*
X142128769Y-76261654D02*
X142057341Y-76333083D01*
X142057341Y-76333083D02*
X141985912Y-76261654D01*
X141985912Y-76261654D02*
X142128769Y-76261654D01*
X142485912Y-76975940D02*
X143485912Y-76975940D01*
X142628769Y-76975940D02*
X142557341Y-77047369D01*
X142557341Y-77047369D02*
X142485912Y-77190226D01*
X142485912Y-77190226D02*
X142485912Y-77404512D01*
X142485912Y-77404512D02*
X142557341Y-77547369D01*
X142557341Y-77547369D02*
X142700198Y-77618798D01*
X142700198Y-77618798D02*
X143485912Y-77618798D01*
X142485912Y-78975941D02*
X143700198Y-78975941D01*
X143700198Y-78975941D02*
X143843055Y-78904512D01*
X143843055Y-78904512D02*
X143914484Y-78833083D01*
X143914484Y-78833083D02*
X143985912Y-78690226D01*
X143985912Y-78690226D02*
X143985912Y-78475941D01*
X143985912Y-78475941D02*
X143914484Y-78333083D01*
X143414484Y-78975941D02*
X143485912Y-78833083D01*
X143485912Y-78833083D02*
X143485912Y-78547369D01*
X143485912Y-78547369D02*
X143414484Y-78404512D01*
X143414484Y-78404512D02*
X143343055Y-78333083D01*
X143343055Y-78333083D02*
X143200198Y-78261655D01*
X143200198Y-78261655D02*
X142771626Y-78261655D01*
X142771626Y-78261655D02*
X142628769Y-78333083D01*
X142628769Y-78333083D02*
X142557341Y-78404512D01*
X142557341Y-78404512D02*
X142485912Y-78547369D01*
X142485912Y-78547369D02*
X142485912Y-78833083D01*
X142485912Y-78833083D02*
X142557341Y-78975941D01*
X144400828Y-58333082D02*
X145472257Y-58333082D01*
X145472257Y-58333082D02*
X145686542Y-58261653D01*
X145686542Y-58261653D02*
X145829400Y-58118796D01*
X145829400Y-58118796D02*
X145900828Y-57904510D01*
X145900828Y-57904510D02*
X145900828Y-57761653D01*
X145900828Y-59690225D02*
X145115114Y-59690225D01*
X145115114Y-59690225D02*
X144972257Y-59618796D01*
X144972257Y-59618796D02*
X144900828Y-59475939D01*
X144900828Y-59475939D02*
X144900828Y-59190225D01*
X144900828Y-59190225D02*
X144972257Y-59047367D01*
X145829400Y-59690225D02*
X145900828Y-59547367D01*
X145900828Y-59547367D02*
X145900828Y-59190225D01*
X145900828Y-59190225D02*
X145829400Y-59047367D01*
X145829400Y-59047367D02*
X145686542Y-58975939D01*
X145686542Y-58975939D02*
X145543685Y-58975939D01*
X145543685Y-58975939D02*
X145400828Y-59047367D01*
X145400828Y-59047367D02*
X145329400Y-59190225D01*
X145329400Y-59190225D02*
X145329400Y-59547367D01*
X145329400Y-59547367D02*
X145257971Y-59690225D01*
X145829400Y-61047368D02*
X145900828Y-60904510D01*
X145900828Y-60904510D02*
X145900828Y-60618796D01*
X145900828Y-60618796D02*
X145829400Y-60475939D01*
X145829400Y-60475939D02*
X145757971Y-60404510D01*
X145757971Y-60404510D02*
X145615114Y-60333082D01*
X145615114Y-60333082D02*
X145186542Y-60333082D01*
X145186542Y-60333082D02*
X145043685Y-60404510D01*
X145043685Y-60404510D02*
X144972257Y-60475939D01*
X144972257Y-60475939D02*
X144900828Y-60618796D01*
X144900828Y-60618796D02*
X144900828Y-60904510D01*
X144900828Y-60904510D02*
X144972257Y-61047368D01*
X145900828Y-61690224D02*
X144400828Y-61690224D01*
X145329400Y-61833082D02*
X145900828Y-62261653D01*
X144900828Y-62261653D02*
X145472257Y-61690224D01*
X145115114Y-64547367D02*
X145115114Y-64047367D01*
X145900828Y-64047367D02*
X144400828Y-64047367D01*
X144400828Y-64047367D02*
X144400828Y-64761653D01*
X145900828Y-65333081D02*
X144900828Y-65333081D01*
X145186542Y-65333081D02*
X145043685Y-65404510D01*
X145043685Y-65404510D02*
X144972257Y-65475939D01*
X144972257Y-65475939D02*
X144900828Y-65618796D01*
X144900828Y-65618796D02*
X144900828Y-65761653D01*
X145900828Y-66904510D02*
X145115114Y-66904510D01*
X145115114Y-66904510D02*
X144972257Y-66833081D01*
X144972257Y-66833081D02*
X144900828Y-66690224D01*
X144900828Y-66690224D02*
X144900828Y-66404510D01*
X144900828Y-66404510D02*
X144972257Y-66261652D01*
X145829400Y-66904510D02*
X145900828Y-66761652D01*
X145900828Y-66761652D02*
X145900828Y-66404510D01*
X145900828Y-66404510D02*
X145829400Y-66261652D01*
X145829400Y-66261652D02*
X145686542Y-66190224D01*
X145686542Y-66190224D02*
X145543685Y-66190224D01*
X145543685Y-66190224D02*
X145400828Y-66261652D01*
X145400828Y-66261652D02*
X145329400Y-66404510D01*
X145329400Y-66404510D02*
X145329400Y-66761652D01*
X145329400Y-66761652D02*
X145257971Y-66904510D01*
X145900828Y-67833081D02*
X145829400Y-67690224D01*
X145829400Y-67690224D02*
X145686542Y-67618795D01*
X145686542Y-67618795D02*
X144400828Y-67618795D01*
X145829400Y-68975938D02*
X145900828Y-68833081D01*
X145900828Y-68833081D02*
X145900828Y-68547367D01*
X145900828Y-68547367D02*
X145829400Y-68404509D01*
X145829400Y-68404509D02*
X145686542Y-68333081D01*
X145686542Y-68333081D02*
X145115114Y-68333081D01*
X145115114Y-68333081D02*
X144972257Y-68404509D01*
X144972257Y-68404509D02*
X144900828Y-68547367D01*
X144900828Y-68547367D02*
X144900828Y-68833081D01*
X144900828Y-68833081D02*
X144972257Y-68975938D01*
X144972257Y-68975938D02*
X145115114Y-69047367D01*
X145115114Y-69047367D02*
X145257971Y-69047367D01*
X145257971Y-69047367D02*
X145400828Y-68333081D01*
X144900828Y-69547366D02*
X145900828Y-69904509D01*
X144900828Y-70261652D02*
X145900828Y-69904509D01*
X145900828Y-69904509D02*
X146257971Y-69761652D01*
X146257971Y-69761652D02*
X146329400Y-69690223D01*
X146329400Y-69690223D02*
X146400828Y-69547366D01*
M02*
