%TF.GenerationSoftware,KiCad,Pcbnew,9.0.6*%
%TF.CreationDate,2026-02-03T22:31:43-08:00*%
%TF.ProjectId,PowerBlock,506f7765-7242-46c6-9f63-6b2e6b696361,rev?*%
%TF.SameCoordinates,Original*%
%TF.FileFunction,Soldermask,Top*%
%TF.FilePolarity,Negative*%
%FSLAX46Y46*%
G04 Gerber Fmt 4.6, Leading zero omitted, Abs format (unit mm)*
G04 Created by KiCad (PCBNEW 9.0.6) date 2026-02-03 22:31:43*
%MOMM*%
%LPD*%
G01*
G04 APERTURE LIST*
G04 Aperture macros list*
%AMRoundRect*
0 Rectangle with rounded corners*
0 $1 Rounding radius*
0 $2 $3 $4 $5 $6 $7 $8 $9 X,Y pos of 4 corners*
0 Add a 4 corners polygon primitive as box body*
4,1,4,$2,$3,$4,$5,$6,$7,$8,$9,$2,$3,0*
0 Add four circle primitives for the rounded corners*
1,1,$1+$1,$2,$3*
1,1,$1+$1,$4,$5*
1,1,$1+$1,$6,$7*
1,1,$1+$1,$8,$9*
0 Add four rect primitives between the rounded corners*
20,1,$1+$1,$2,$3,$4,$5,0*
20,1,$1+$1,$4,$5,$6,$7,0*
20,1,$1+$1,$6,$7,$8,$9,0*
20,1,$1+$1,$8,$9,$2,$3,0*%
%AMFreePoly0*
4,1,33,-0.125001,1.649999,-0.125001,1.200000,0.125001,1.200000,0.124998,1.649999,0.175001,1.699999,0.325001,1.699999,0.375001,1.649999,0.375001,1.200000,0.775000,1.200000,0.825000,1.150000,0.825000,-1.150000,0.775000,-1.200000,0.375001,-1.200000,0.375001,-1.649999,0.325001,-1.699999,0.175001,-1.699999,0.125001,-1.649999,0.125001,-1.200000,-0.125001,-1.200000,-0.125001,-1.649999,
-0.175001,-1.699999,-0.325001,-1.699999,-0.375001,-1.649999,-0.375001,-1.200000,-0.775002,-1.200000,-0.825000,-1.150000,-0.825000,1.150000,-0.775000,1.200000,-0.375001,1.200000,-0.375003,1.649999,-0.325001,1.699999,-0.175001,1.699999,-0.125001,1.649999,-0.125001,1.649999,$1*%
%AMFreePoly1*
4,1,13,0.549999,0.225000,0.549999,-0.224999,0.499999,-0.274999,-0.150002,-0.274999,-0.200002,-0.224999,-0.200002,0.025001,-0.250002,0.075001,-0.500001,0.075001,-0.550001,0.125001,-0.550001,0.225000,-0.500001,0.275000,0.499999,0.275000,0.549999,0.225000,0.549999,0.225000,$1*%
%AMFreePoly2*
4,1,13,0.575000,0.500001,0.575000,-0.499997,0.525000,-0.549997,-0.525000,-0.549997,-0.575000,-0.499997,-0.575000,0.150002,-0.525000,0.200002,-0.275001,0.200002,-0.225001,0.250002,-0.225001,0.500001,-0.175001,0.550001,0.525000,0.550001,0.575000,0.500001,0.575000,0.500001,$1*%
%AMFreePoly3*
4,1,13,0.550001,0.225000,0.550001,0.125001,0.500001,0.075001,0.250002,0.075001,0.200002,0.025001,0.200002,-0.224999,0.150002,-0.274999,-0.499999,-0.274999,-0.549999,-0.224999,-0.549999,0.225000,-0.499999,0.275000,0.500001,0.275000,0.550001,0.225000,0.550001,0.225000,$1*%
%AMFreePoly4*
4,1,13,0.225001,0.500001,0.225001,0.250002,0.275001,0.200002,0.525000,0.200002,0.575000,0.150002,0.575000,-0.499997,0.525000,-0.549997,-0.525000,-0.549997,-0.575000,-0.499997,-0.575000,0.500001,-0.525000,0.550001,0.175001,0.550001,0.225001,0.500001,0.225001,0.500001,$1*%
G04 Aperture macros list end*
%ADD10C,0.000000*%
%ADD11C,1.779000*%
%ADD12RoundRect,0.102000X-0.787500X-0.787500X0.787500X-0.787500X0.787500X0.787500X-0.787500X0.787500X0*%
%ADD13RoundRect,0.250000X-0.650000X0.325000X-0.650000X-0.325000X0.650000X-0.325000X0.650000X0.325000X0*%
%ADD14RoundRect,0.102000X-1.312500X-1.312500X1.312500X-1.312500X1.312500X1.312500X-1.312500X1.312500X0*%
%ADD15C,2.829000*%
%ADD16RoundRect,0.102000X-0.585000X-0.900000X0.585000X-0.900000X0.585000X0.900000X-0.585000X0.900000X0*%
%ADD17RoundRect,0.200000X-0.200000X-0.275000X0.200000X-0.275000X0.200000X0.275000X-0.200000X0.275000X0*%
%ADD18RoundRect,0.200000X0.200000X0.275000X-0.200000X0.275000X-0.200000X-0.275000X0.200000X-0.275000X0*%
%ADD19RoundRect,0.200000X-0.275000X0.200000X-0.275000X-0.200000X0.275000X-0.200000X0.275000X0.200000X0*%
%ADD20RoundRect,0.200000X0.275000X-0.200000X0.275000X0.200000X-0.275000X0.200000X-0.275000X-0.200000X0*%
%ADD21R,0.599999X1.000000*%
%ADD22RoundRect,0.225000X-0.225000X-0.250000X0.225000X-0.250000X0.225000X0.250000X-0.225000X0.250000X0*%
%ADD23RoundRect,0.225000X0.250000X-0.225000X0.250000X0.225000X-0.250000X0.225000X-0.250000X-0.225000X0*%
%ADD24RoundRect,0.225000X-0.250000X0.225000X-0.250000X-0.225000X0.250000X-0.225000X0.250000X0.225000X0*%
%ADD25RoundRect,0.250000X0.325000X0.650000X-0.325000X0.650000X-0.325000X-0.650000X0.325000X-0.650000X0*%
%ADD26C,0.600000*%
%ADD27FreePoly0,0.000000*%
%ADD28R,0.599999X0.240000*%
%ADD29RoundRect,0.250000X-0.325000X-0.650000X0.325000X-0.650000X0.325000X0.650000X-0.325000X0.650000X0*%
%ADD30RoundRect,0.225000X0.225000X0.250000X-0.225000X0.250000X-0.225000X-0.250000X0.225000X-0.250000X0*%
%ADD31RoundRect,0.102000X1.000000X-0.625000X1.000000X0.625000X-1.000000X0.625000X-1.000000X-0.625000X0*%
%ADD32FreePoly1,0.000000*%
%ADD33FreePoly2,0.000000*%
%ADD34R,1.074999X0.399999*%
%ADD35R,0.825000X0.249999*%
%ADD36R,0.249999X0.675000*%
%ADD37R,0.249999X0.825000*%
%ADD38FreePoly3,0.000000*%
%ADD39FreePoly4,0.000000*%
%ADD40R,0.349999X2.975000*%
%ADD41R,5.511800X3.860800*%
%ADD42RoundRect,0.250000X0.650000X-0.325000X0.650000X0.325000X-0.650000X0.325000X-0.650000X-0.325000X0*%
G04 APERTURE END LIST*
D10*
%TO.C,U1*%
G36*
X159751278Y-89479175D02*
G01*
X159760808Y-89482066D01*
X159769589Y-89486762D01*
X159777288Y-89493079D01*
X159827288Y-89543079D01*
X159833605Y-89550778D01*
X159838301Y-89559558D01*
X159841192Y-89569089D01*
X159842167Y-89579000D01*
X159842167Y-89678999D01*
X159841192Y-89688911D01*
X159838301Y-89698441D01*
X159833605Y-89707221D01*
X159827288Y-89714920D01*
X159777288Y-89764920D01*
X159769589Y-89771237D01*
X159760808Y-89775933D01*
X159751278Y-89778824D01*
X159741367Y-89779799D01*
X159512409Y-89779799D01*
X159492168Y-89800041D01*
X159492168Y-90028999D01*
X159491193Y-90038910D01*
X159488302Y-90048440D01*
X159483606Y-90057221D01*
X159477289Y-90064919D01*
X159427289Y-90114919D01*
X159419590Y-90121236D01*
X159410809Y-90125933D01*
X159401279Y-90128823D01*
X159391368Y-90129799D01*
X158741367Y-90129799D01*
X158731456Y-90128823D01*
X158721926Y-90125933D01*
X158713145Y-90121236D01*
X158705446Y-90114919D01*
X158655446Y-90064919D01*
X158649129Y-90057221D01*
X158644433Y-90048440D01*
X158641542Y-90038910D01*
X158640567Y-90028999D01*
X158640567Y-89579000D01*
X158641542Y-89569089D01*
X158644433Y-89559558D01*
X158649129Y-89550778D01*
X158655446Y-89543079D01*
X158705446Y-89493079D01*
X158713145Y-89486762D01*
X158721926Y-89482066D01*
X158731456Y-89479175D01*
X158741367Y-89478200D01*
X159741367Y-89478200D01*
X159751278Y-89479175D01*
G37*
G36*
X156951276Y-89479175D02*
G01*
X156960806Y-89482066D01*
X156969587Y-89486762D01*
X156977286Y-89493079D01*
X157027286Y-89543079D01*
X157033603Y-89550778D01*
X157038299Y-89559558D01*
X157041190Y-89569089D01*
X157042165Y-89579000D01*
X157042165Y-90028999D01*
X157041190Y-90038910D01*
X157038299Y-90048440D01*
X157033603Y-90057221D01*
X157027286Y-90064919D01*
X156977286Y-90114919D01*
X156969587Y-90121236D01*
X156960806Y-90125933D01*
X156951276Y-90128823D01*
X156941365Y-90129799D01*
X156291364Y-90129799D01*
X156281453Y-90128823D01*
X156271923Y-90125933D01*
X156263142Y-90121236D01*
X156255443Y-90114919D01*
X156205443Y-90064919D01*
X156199126Y-90057221D01*
X156194430Y-90048440D01*
X156191539Y-90038910D01*
X156190564Y-90028999D01*
X156190564Y-89800041D01*
X156170323Y-89779799D01*
X155941365Y-89779799D01*
X155931454Y-89778824D01*
X155921924Y-89775933D01*
X155913143Y-89771237D01*
X155905444Y-89764920D01*
X155855444Y-89714920D01*
X155849127Y-89707221D01*
X155844431Y-89698441D01*
X155841540Y-89688911D01*
X155840565Y-89678999D01*
X155840565Y-89579000D01*
X155841540Y-89569089D01*
X155844431Y-89559558D01*
X155849127Y-89550778D01*
X155855444Y-89543079D01*
X155905444Y-89493079D01*
X155913143Y-89486762D01*
X155921924Y-89482066D01*
X155931454Y-89479175D01*
X155941365Y-89478200D01*
X156941365Y-89478200D01*
X156951276Y-89479175D01*
G37*
G36*
X157001276Y-85129176D02*
G01*
X157010806Y-85132067D01*
X157019587Y-85136763D01*
X157027286Y-85143080D01*
X157077286Y-85193080D01*
X157083603Y-85200779D01*
X157088299Y-85209560D01*
X157091190Y-85219090D01*
X157092165Y-85229001D01*
X157092165Y-86228999D01*
X157091190Y-86238910D01*
X157088299Y-86248440D01*
X157083603Y-86257221D01*
X157077286Y-86264919D01*
X157027286Y-86314919D01*
X157019587Y-86321236D01*
X157010806Y-86325933D01*
X157001276Y-86328823D01*
X156991365Y-86329799D01*
X155941365Y-86329799D01*
X155931454Y-86328823D01*
X155921924Y-86325933D01*
X155913143Y-86321236D01*
X155905444Y-86314919D01*
X155855444Y-86264919D01*
X155849127Y-86257221D01*
X155844431Y-86248440D01*
X155841540Y-86238910D01*
X155840565Y-86228999D01*
X155840565Y-85579000D01*
X155841540Y-85569089D01*
X155844431Y-85559559D01*
X155849127Y-85550778D01*
X155855444Y-85543079D01*
X155905444Y-85493079D01*
X155913143Y-85486762D01*
X155921924Y-85482066D01*
X155931454Y-85479175D01*
X155941365Y-85478200D01*
X156170323Y-85478200D01*
X156190564Y-85457959D01*
X156190564Y-85229001D01*
X156191539Y-85219090D01*
X156194430Y-85209560D01*
X156199126Y-85200779D01*
X156205443Y-85193080D01*
X156255443Y-85143080D01*
X156263142Y-85136763D01*
X156271923Y-85132067D01*
X156281453Y-85129176D01*
X156291364Y-85128201D01*
X156991365Y-85128201D01*
X157001276Y-85129176D01*
G37*
G36*
X159401279Y-85129176D02*
G01*
X159410809Y-85132067D01*
X159419590Y-85136763D01*
X159427289Y-85143080D01*
X159477289Y-85193080D01*
X159483606Y-85200779D01*
X159488302Y-85209560D01*
X159491193Y-85219090D01*
X159492168Y-85229001D01*
X159492168Y-85457959D01*
X159512409Y-85478200D01*
X159741367Y-85478200D01*
X159751278Y-85479175D01*
X159760808Y-85482066D01*
X159769589Y-85486762D01*
X159777288Y-85493079D01*
X159827288Y-85543079D01*
X159833605Y-85550778D01*
X159838301Y-85559559D01*
X159841192Y-85569089D01*
X159842167Y-85579000D01*
X159842167Y-86228999D01*
X159841192Y-86238910D01*
X159838301Y-86248440D01*
X159833605Y-86257221D01*
X159827288Y-86264919D01*
X159777288Y-86314919D01*
X159769589Y-86321236D01*
X159760808Y-86325933D01*
X159751278Y-86328823D01*
X159741367Y-86329799D01*
X158691367Y-86329799D01*
X158681456Y-86328823D01*
X158671926Y-86325933D01*
X158663145Y-86321236D01*
X158655446Y-86314919D01*
X158605446Y-86264919D01*
X158599129Y-86257221D01*
X158594433Y-86248440D01*
X158591542Y-86238910D01*
X158590567Y-86228999D01*
X158590567Y-85229001D01*
X158591542Y-85219090D01*
X158594433Y-85209560D01*
X158599129Y-85200779D01*
X158605446Y-85193080D01*
X158655446Y-85143080D01*
X158663145Y-85136763D01*
X158671926Y-85132067D01*
X158681456Y-85129176D01*
X158691367Y-85128201D01*
X159391368Y-85128201D01*
X159401279Y-85129176D01*
G37*
%TD*%
D11*
%TO.C,J10*%
X160500000Y-53000000D03*
D12*
X163000000Y-53000000D03*
%TD*%
%TO.C,J9*%
X154644733Y-66239073D03*
D11*
X152144733Y-66239073D03*
%TD*%
%TO.C,J5*%
X160520000Y-59604000D03*
D12*
X163020000Y-59604000D03*
%TD*%
%TO.C,J6*%
X154600000Y-59650000D03*
D11*
X152100000Y-59650000D03*
%TD*%
D12*
%TO.C,J8*%
X162980000Y-66208000D03*
D11*
X160480000Y-66208000D03*
%TD*%
D12*
%TO.C,J7*%
X154644733Y-53031073D03*
D11*
X152144733Y-53031073D03*
%TD*%
D12*
%TO.C,J2*%
X143724000Y-53086000D03*
D11*
X141224000Y-53086000D03*
%TD*%
D12*
%TO.C,J3*%
X143764000Y-59690000D03*
D11*
X141264000Y-59690000D03*
%TD*%
D12*
%TO.C,J4*%
X143724000Y-66294000D03*
D11*
X141224000Y-66294000D03*
%TD*%
D13*
%TO.C,CIN1*%
X151300000Y-85515000D03*
X151300000Y-88465000D03*
%TD*%
D14*
%TO.C,J1*%
X140900000Y-91275000D03*
D15*
X144860000Y-91275000D03*
%TD*%
D16*
%TO.C,F1*%
X151780000Y-91300000D03*
X148840000Y-91300000D03*
%TD*%
D17*
%TO.C,R5*%
X163975000Y-91425000D03*
X162325000Y-91425000D03*
%TD*%
D18*
%TO.C,R2*%
X164249999Y-98025000D03*
X162599999Y-98025000D03*
%TD*%
D19*
%TO.C,R4*%
X160550000Y-94700000D03*
X160550000Y-96350000D03*
%TD*%
D20*
%TO.C,R1*%
X166124999Y-96425000D03*
X166124999Y-94775000D03*
%TD*%
D17*
%TO.C,R3*%
X160899999Y-98000000D03*
X159249999Y-98000000D03*
%TD*%
D21*
%TO.C,U2*%
X162350000Y-93675000D03*
X163300001Y-93675000D03*
X164249999Y-93675000D03*
X164249999Y-96425000D03*
X163300001Y-96425000D03*
X162350000Y-96425000D03*
%TD*%
D13*
%TO.C,CIN2*%
X164699802Y-88425296D03*
X164699802Y-85475296D03*
%TD*%
D22*
%TO.C,C5*%
X145535000Y-70340000D03*
X143985000Y-70340000D03*
%TD*%
D23*
%TO.C,C2*%
X147720000Y-53095000D03*
X147720000Y-54645000D03*
%TD*%
D24*
%TO.C,C4*%
X147660000Y-66285000D03*
X147660000Y-67835000D03*
%TD*%
D23*
%TO.C,C3*%
X147690000Y-61195000D03*
X147690000Y-59645000D03*
%TD*%
D18*
%TO.C,RFB_PGT1*%
X141300000Y-83300000D03*
X142950000Y-83300000D03*
%TD*%
D25*
%TO.C,CIN4*%
X137500000Y-77675000D03*
X140450000Y-77675000D03*
%TD*%
D26*
%TO.C,U5*%
X141850000Y-79761000D03*
X141850000Y-81513600D03*
X141342000Y-80650000D03*
X142358000Y-80650000D03*
D27*
X141850000Y-80650000D03*
D28*
X143250000Y-79649999D03*
X143250000Y-80150001D03*
X143250000Y-80650000D03*
X143250000Y-81149999D03*
X143250000Y-81650001D03*
X140450000Y-81650001D03*
X140450000Y-81149999D03*
X140450000Y-80650000D03*
X140450000Y-80150001D03*
X140450000Y-79649999D03*
%TD*%
D29*
%TO.C,COUT4*%
X143200000Y-77625000D03*
X146150000Y-77625000D03*
%TD*%
D19*
%TO.C,RFB_PGB1*%
X139390000Y-81145000D03*
X139390000Y-82795000D03*
%TD*%
D30*
%TO.C,C1*%
X140930000Y-70340000D03*
X142480000Y-70340000D03*
%TD*%
D19*
%TO.C,RNRSS1*%
X147710000Y-81170000D03*
X147710000Y-82820000D03*
%TD*%
D31*
%TO.C,FL1*%
X143200000Y-75285000D03*
X143200000Y-72735000D03*
%TD*%
D13*
%TO.C,CNRSS1*%
X145620000Y-81160000D03*
X145620000Y-84110000D03*
%TD*%
D32*
%TO.C,U1*%
X156441366Y-89804000D03*
D33*
X156466365Y-85729002D03*
D34*
X156428367Y-87079002D03*
D35*
X156303366Y-88154001D03*
X156303366Y-88654000D03*
X156303366Y-89154002D03*
D36*
X157341367Y-89742002D03*
D37*
X157841366Y-89667000D03*
D36*
X158341365Y-89742002D03*
D38*
X159241366Y-89804000D03*
D35*
X159379366Y-89154002D03*
X159379366Y-88654000D03*
X159379366Y-88154001D03*
D34*
X159254365Y-87079002D03*
D39*
X159216367Y-85729002D03*
D40*
X157841366Y-86666001D03*
%TD*%
D41*
%TO.C,L1*%
X157734000Y-72237600D03*
X157734000Y-82194400D03*
%TD*%
D24*
%TO.C,CHF2A1*%
X154984316Y-86936040D03*
X154984316Y-85386040D03*
%TD*%
D42*
%TO.C,COUT53*%
X165736733Y-74993073D03*
X165736733Y-72043073D03*
%TD*%
D13*
%TO.C,COUT52*%
X149736733Y-77043073D03*
X149736733Y-79993073D03*
%TD*%
D22*
%TO.C,CVCC1*%
X157915000Y-91160000D03*
X156365000Y-91160000D03*
%TD*%
D24*
%TO.C,CHF2B1*%
X162629366Y-85379000D03*
X162629366Y-86929000D03*
%TD*%
D23*
%TO.C,CHF1B1*%
X160879366Y-86929000D03*
X160879366Y-85379000D03*
%TD*%
%TO.C,CHF1A1*%
X153360000Y-86955000D03*
X153360000Y-85405000D03*
%TD*%
D24*
%TO.C,CBOOT1*%
X154650000Y-88805000D03*
X154650000Y-90355000D03*
%TD*%
D42*
%TO.C,COUT51*%
X149736733Y-74993073D03*
X149736733Y-72043073D03*
%TD*%
D13*
%TO.C,COUT54*%
X165736733Y-77043073D03*
X165736733Y-79993073D03*
%TD*%
M02*
