%TF.GenerationSoftware,KiCad,Pcbnew,9.0.6*%
%TF.CreationDate,2026-02-03T22:31:43-08:00*%
%TF.ProjectId,PowerBlock,506f7765-7242-46c6-9f63-6b2e6b696361,rev?*%
%TF.SameCoordinates,Original*%
%TF.FileFunction,Copper,L1,Top*%
%TF.FilePolarity,Positive*%
%FSLAX46Y46*%
G04 Gerber Fmt 4.6, Leading zero omitted, Abs format (unit mm)*
G04 Created by KiCad (PCBNEW 9.0.6) date 2026-02-03 22:31:43*
%MOMM*%
%LPD*%
G01*
G04 APERTURE LIST*
G04 Aperture macros list*
%AMRoundRect*
0 Rectangle with rounded corners*
0 $1 Rounding radius*
0 $2 $3 $4 $5 $6 $7 $8 $9 X,Y pos of 4 corners*
0 Add a 4 corners polygon primitive as box body*
4,1,4,$2,$3,$4,$5,$6,$7,$8,$9,$2,$3,0*
0 Add four circle primitives for the rounded corners*
1,1,$1+$1,$2,$3*
1,1,$1+$1,$4,$5*
1,1,$1+$1,$6,$7*
1,1,$1+$1,$8,$9*
0 Add four rect primitives between the rounded corners*
20,1,$1+$1,$2,$3,$4,$5,0*
20,1,$1+$1,$4,$5,$6,$7,0*
20,1,$1+$1,$6,$7,$8,$9,0*
20,1,$1+$1,$8,$9,$2,$3,0*%
%AMFreePoly0*
4,1,33,-0.125001,1.649999,-0.125001,1.200000,0.125001,1.200000,0.124998,1.649999,0.175001,1.699999,0.325001,1.699999,0.375001,1.649999,0.375001,1.200000,0.775000,1.200000,0.825000,1.150000,0.825000,-1.150000,0.775000,-1.200000,0.375001,-1.200000,0.375001,-1.649999,0.325001,-1.699999,0.175001,-1.699999,0.125001,-1.649999,0.125001,-1.200000,-0.125001,-1.200000,-0.125001,-1.649999,
-0.175001,-1.699999,-0.325001,-1.699999,-0.375001,-1.649999,-0.375001,-1.200000,-0.775002,-1.200000,-0.825000,-1.150000,-0.825000,1.150000,-0.775000,1.200000,-0.375001,1.200000,-0.375003,1.649999,-0.325001,1.699999,-0.175001,1.699999,-0.125001,1.649999,-0.125001,1.649999,$1*%
%AMFreePoly1*
4,1,13,0.549999,0.225000,0.549999,-0.224999,0.499999,-0.274999,-0.150002,-0.274999,-0.200002,-0.224999,-0.200002,0.025001,-0.250002,0.075001,-0.500001,0.075001,-0.550001,0.125001,-0.550001,0.225000,-0.500001,0.275000,0.499999,0.275000,0.549999,0.225000,0.549999,0.225000,$1*%
%AMFreePoly2*
4,1,13,0.575000,0.500001,0.575000,-0.499997,0.525000,-0.549997,-0.525000,-0.549997,-0.575000,-0.499997,-0.575000,0.150002,-0.525000,0.200002,-0.275001,0.200002,-0.225001,0.250002,-0.225001,0.500001,-0.175001,0.550001,0.525000,0.550001,0.575000,0.500001,0.575000,0.500001,$1*%
%AMFreePoly3*
4,1,13,0.550001,0.225000,0.550001,0.125001,0.500001,0.075001,0.250002,0.075001,0.200002,0.025001,0.200002,-0.224999,0.150002,-0.274999,-0.499999,-0.274999,-0.549999,-0.224999,-0.549999,0.225000,-0.499999,0.275000,0.500001,0.275000,0.550001,0.225000,0.550001,0.225000,$1*%
%AMFreePoly4*
4,1,13,0.225001,0.500001,0.225001,0.250002,0.275001,0.200002,0.525000,0.200002,0.575000,0.150002,0.575000,-0.499997,0.525000,-0.549997,-0.525000,-0.549997,-0.575000,-0.499997,-0.575000,0.500001,-0.525000,0.550001,0.175001,0.550001,0.225001,0.500001,0.225001,0.500001,$1*%
G04 Aperture macros list end*
%TA.AperFunction,ComponentPad*%
%ADD10C,1.575000*%
%TD*%
%TA.AperFunction,ComponentPad*%
%ADD11R,1.575000X1.575000*%
%TD*%
%TA.AperFunction,SMDPad,CuDef*%
%ADD12RoundRect,0.250000X-0.650000X0.325000X-0.650000X-0.325000X0.650000X-0.325000X0.650000X0.325000X0*%
%TD*%
%TA.AperFunction,ComponentPad*%
%ADD13R,2.625000X2.625000*%
%TD*%
%TA.AperFunction,ComponentPad*%
%ADD14C,2.625000*%
%TD*%
%TA.AperFunction,SMDPad,CuDef*%
%ADD15R,1.170000X1.800000*%
%TD*%
%TA.AperFunction,SMDPad,CuDef*%
%ADD16RoundRect,0.200000X-0.200000X-0.275000X0.200000X-0.275000X0.200000X0.275000X-0.200000X0.275000X0*%
%TD*%
%TA.AperFunction,SMDPad,CuDef*%
%ADD17RoundRect,0.200000X0.200000X0.275000X-0.200000X0.275000X-0.200000X-0.275000X0.200000X-0.275000X0*%
%TD*%
%TA.AperFunction,SMDPad,CuDef*%
%ADD18RoundRect,0.200000X-0.275000X0.200000X-0.275000X-0.200000X0.275000X-0.200000X0.275000X0.200000X0*%
%TD*%
%TA.AperFunction,SMDPad,CuDef*%
%ADD19RoundRect,0.200000X0.275000X-0.200000X0.275000X0.200000X-0.275000X0.200000X-0.275000X-0.200000X0*%
%TD*%
%TA.AperFunction,SMDPad,CuDef*%
%ADD20R,0.599999X1.000000*%
%TD*%
%TA.AperFunction,SMDPad,CuDef*%
%ADD21RoundRect,0.225000X-0.225000X-0.250000X0.225000X-0.250000X0.225000X0.250000X-0.225000X0.250000X0*%
%TD*%
%TA.AperFunction,SMDPad,CuDef*%
%ADD22RoundRect,0.225000X0.250000X-0.225000X0.250000X0.225000X-0.250000X0.225000X-0.250000X-0.225000X0*%
%TD*%
%TA.AperFunction,SMDPad,CuDef*%
%ADD23RoundRect,0.225000X-0.250000X0.225000X-0.250000X-0.225000X0.250000X-0.225000X0.250000X0.225000X0*%
%TD*%
%TA.AperFunction,SMDPad,CuDef*%
%ADD24RoundRect,0.250000X0.325000X0.650000X-0.325000X0.650000X-0.325000X-0.650000X0.325000X-0.650000X0*%
%TD*%
%TA.AperFunction,ComponentPad*%
%ADD25C,0.600000*%
%TD*%
%TA.AperFunction,SMDPad,CuDef*%
%ADD26FreePoly0,0.000000*%
%TD*%
%TA.AperFunction,SMDPad,CuDef*%
%ADD27R,0.599999X0.240000*%
%TD*%
%TA.AperFunction,SMDPad,CuDef*%
%ADD28RoundRect,0.250000X-0.325000X-0.650000X0.325000X-0.650000X0.325000X0.650000X-0.325000X0.650000X0*%
%TD*%
%TA.AperFunction,SMDPad,CuDef*%
%ADD29RoundRect,0.225000X0.225000X0.250000X-0.225000X0.250000X-0.225000X-0.250000X0.225000X-0.250000X0*%
%TD*%
%TA.AperFunction,SMDPad,CuDef*%
%ADD30R,2.000000X1.250000*%
%TD*%
%TA.AperFunction,SMDPad,CuDef*%
%ADD31FreePoly1,0.000000*%
%TD*%
%TA.AperFunction,SMDPad,CuDef*%
%ADD32FreePoly2,0.000000*%
%TD*%
%TA.AperFunction,SMDPad,CuDef*%
%ADD33R,1.074999X0.399999*%
%TD*%
%TA.AperFunction,SMDPad,CuDef*%
%ADD34R,0.825000X0.249999*%
%TD*%
%TA.AperFunction,SMDPad,CuDef*%
%ADD35R,0.249999X0.675000*%
%TD*%
%TA.AperFunction,SMDPad,CuDef*%
%ADD36R,0.249999X0.825000*%
%TD*%
%TA.AperFunction,SMDPad,CuDef*%
%ADD37FreePoly3,0.000000*%
%TD*%
%TA.AperFunction,SMDPad,CuDef*%
%ADD38FreePoly4,0.000000*%
%TD*%
%TA.AperFunction,SMDPad,CuDef*%
%ADD39R,0.349999X2.975000*%
%TD*%
%TA.AperFunction,SMDPad,CuDef*%
%ADD40R,5.511800X3.860800*%
%TD*%
%TA.AperFunction,SMDPad,CuDef*%
%ADD41RoundRect,0.250000X0.650000X-0.325000X0.650000X0.325000X-0.650000X0.325000X-0.650000X-0.325000X0*%
%TD*%
%TA.AperFunction,ViaPad*%
%ADD42C,0.600000*%
%TD*%
%TA.AperFunction,ViaPad*%
%ADD43C,0.808000*%
%TD*%
%TA.AperFunction,Conductor*%
%ADD44C,0.200000*%
%TD*%
%TA.AperFunction,Conductor*%
%ADD45C,1.500000*%
%TD*%
%TA.AperFunction,Conductor*%
%ADD46C,0.300000*%
%TD*%
%TA.AperFunction,Conductor*%
%ADD47C,0.500000*%
%TD*%
%TA.AperFunction,Conductor*%
%ADD48C,0.400000*%
%TD*%
%TA.AperFunction,Conductor*%
%ADD49C,1.000000*%
%TD*%
G04 APERTURE END LIST*
D10*
%TO.P,J10,2,2*%
%TO.N,GND*%
X160500000Y-53000000D03*
D11*
%TO.P,J10,1,1*%
%TO.N,Net-(U1-BIAS)*%
X163000000Y-53000000D03*
%TD*%
%TO.P,J9,1,1*%
%TO.N,Net-(U1-BIAS)*%
X154644733Y-66239073D03*
D10*
%TO.P,J9,2,2*%
%TO.N,GND*%
X152144733Y-66239073D03*
%TD*%
%TO.P,J5,2,2*%
%TO.N,GND*%
X160520000Y-59604000D03*
D11*
%TO.P,J5,1,1*%
%TO.N,Net-(U1-BIAS)*%
X163020000Y-59604000D03*
%TD*%
%TO.P,J6,1,1*%
%TO.N,Net-(U1-BIAS)*%
X154600000Y-59650000D03*
D10*
%TO.P,J6,2,2*%
%TO.N,GND*%
X152100000Y-59650000D03*
%TD*%
D11*
%TO.P,J8,1,1*%
%TO.N,Net-(U1-BIAS)*%
X162980000Y-66208000D03*
D10*
%TO.P,J8,2,2*%
%TO.N,GND*%
X160480000Y-66208000D03*
%TD*%
D11*
%TO.P,J7,1,1*%
%TO.N,Net-(U1-BIAS)*%
X154644733Y-53031073D03*
D10*
%TO.P,J7,2,2*%
%TO.N,GND*%
X152144733Y-53031073D03*
%TD*%
D11*
%TO.P,J2,1,1*%
%TO.N,Net-(C1-Pad1)*%
X143724000Y-53086000D03*
D10*
%TO.P,J2,2,2*%
%TO.N,GND*%
X141224000Y-53086000D03*
%TD*%
D11*
%TO.P,J3,1,1*%
%TO.N,Net-(C1-Pad1)*%
X143764000Y-59690000D03*
D10*
%TO.P,J3,2,2*%
%TO.N,GND*%
X141264000Y-59690000D03*
%TD*%
D11*
%TO.P,J4,1,1*%
%TO.N,Net-(C1-Pad1)*%
X143724000Y-66294000D03*
D10*
%TO.P,J4,2,2*%
%TO.N,GND*%
X141224000Y-66294000D03*
%TD*%
D12*
%TO.P,CIN1,1*%
%TO.N,GND*%
X151300000Y-85515000D03*
%TO.P,CIN1,2*%
%TO.N,Net-(U2-VDD)*%
X151300000Y-88465000D03*
%TD*%
D13*
%TO.P,J1,1,1*%
%TO.N,GND*%
X140900000Y-91275000D03*
D14*
%TO.P,J1,2,2*%
%TO.N,Net-(F1-Pad1)*%
X144860000Y-91275000D03*
%TD*%
D15*
%TO.P,F1,2*%
%TO.N,Net-(U2-VDD)*%
X151780000Y-91300000D03*
%TO.P,F1,1*%
%TO.N,Net-(F1-Pad1)*%
X148840000Y-91300000D03*
%TD*%
D16*
%TO.P,R5,2*%
%TO.N,Net-(U2-VDD)*%
X163975000Y-91425000D03*
%TO.P,R5,1*%
%TO.N,Net-(U1-EN)*%
X162325000Y-91425000D03*
%TD*%
D17*
%TO.P,R2,1*%
%TO.N,Net-(U2-INA+)*%
X164249999Y-98025000D03*
%TO.P,R2,2*%
%TO.N,Net-(U2-INB-)*%
X162599999Y-98025000D03*
%TD*%
D18*
%TO.P,R4,1*%
%TO.N,Net-(U2-VDD)*%
X160550000Y-94700000D03*
%TO.P,R4,2*%
%TO.N,Net-(U1-EN)*%
X160550000Y-96350000D03*
%TD*%
D19*
%TO.P,R1,1*%
%TO.N,Net-(U2-INA+)*%
X166124999Y-96425000D03*
%TO.P,R1,2*%
%TO.N,Net-(U2-VDD)*%
X166124999Y-94775000D03*
%TD*%
D16*
%TO.P,R3,2*%
%TO.N,Net-(U2-INB-)*%
X160899999Y-98000000D03*
%TO.P,R3,1*%
%TO.N,GND*%
X159249999Y-98000000D03*
%TD*%
D20*
%TO.P,U2,6,OUTB*%
%TO.N,Net-(U1-EN)*%
X162350000Y-93675000D03*
%TO.P,U2,5,VDD*%
%TO.N,Net-(U2-VDD)*%
X163300001Y-93675000D03*
%TO.P,U2,4,INB-*%
%TO.N,Net-(U2-INB-)*%
X164249999Y-93675000D03*
%TO.P,U2,3,INA+*%
%TO.N,Net-(U2-INA+)*%
X164249999Y-96425000D03*
%TO.P,U2,2,GND*%
%TO.N,GND*%
X163300001Y-96425000D03*
%TO.P,U2,1,OUTA*%
%TO.N,Net-(U1-EN)*%
X162350000Y-96425000D03*
%TD*%
D12*
%TO.P,CIN2,2*%
%TO.N,Net-(U2-VDD)*%
X164699802Y-88425296D03*
%TO.P,CIN2,1*%
%TO.N,GND*%
X164699802Y-85475296D03*
%TD*%
D21*
%TO.P,C5,2*%
%TO.N,GND*%
X145535000Y-70340000D03*
%TO.P,C5,1*%
%TO.N,Net-(C1-Pad1)*%
X143985000Y-70340000D03*
%TD*%
D22*
%TO.P,C2,2*%
%TO.N,Net-(C1-Pad1)*%
X147720000Y-53095000D03*
%TO.P,C2,1*%
%TO.N,GND*%
X147720000Y-54645000D03*
%TD*%
D23*
%TO.P,C4,1*%
%TO.N,Net-(C1-Pad1)*%
X147660000Y-66285000D03*
%TO.P,C4,2*%
%TO.N,GND*%
X147660000Y-67835000D03*
%TD*%
D22*
%TO.P,C3,1*%
%TO.N,GND*%
X147690000Y-61195000D03*
%TO.P,C3,2*%
%TO.N,Net-(C1-Pad1)*%
X147690000Y-59645000D03*
%TD*%
D17*
%TO.P,RFB_PGT1,2*%
%TO.N,Net-(U5-FB_PG)*%
X141300000Y-83300000D03*
%TO.P,RFB_PGT1,1*%
%TO.N,Net-(COUT4-Pad1)*%
X142950000Y-83300000D03*
%TD*%
D24*
%TO.P,CIN4,2*%
%TO.N,GND*%
X137500000Y-77675000D03*
%TO.P,CIN4,1*%
%TO.N,Net-(U1-BIAS)*%
X140450000Y-77675000D03*
%TD*%
D25*
%TO.P,U5,15*%
%TO.N,GND*%
X141850000Y-79761000D03*
%TO.P,U5,14*%
X141850000Y-81513600D03*
%TO.P,U5,13*%
X141342000Y-80650000D03*
%TO.P,U5,12*%
X142358000Y-80650000D03*
D26*
%TO.P,U5,11,Thermal_Pad*%
X141850000Y-80650000D03*
D27*
%TO.P,U5,10,OUT*%
%TO.N,Net-(COUT4-Pad1)*%
X143250000Y-79649999D03*
%TO.P,U5,9,OUT*%
X143250000Y-80150001D03*
%TO.P,U5,8,SNS*%
%TO.N,unconnected-(U5-SNS-Pad8)*%
X143250000Y-80650000D03*
%TO.P,U5,7,NR_SS*%
%TO.N,Net-(U5-NR_SS)*%
X143250000Y-81149999D03*
%TO.P,U5,6,GND*%
%TO.N,GND*%
X143250000Y-81650001D03*
%TO.P,U5,5,FB_PG*%
%TO.N,Net-(U5-FB_PG)*%
X140450000Y-81650001D03*
%TO.P,U5,4,PG*%
%TO.N,GND*%
X140450000Y-81149999D03*
%TO.P,U5,3,EN_UV*%
%TO.N,Net-(U1-BIAS)*%
X140450000Y-80650000D03*
%TO.P,U5,2,IN*%
X140450000Y-80150001D03*
%TO.P,U5,1,IN*%
X140450000Y-79649999D03*
%TD*%
D28*
%TO.P,COUT4,1*%
%TO.N,Net-(COUT4-Pad1)*%
X143200000Y-77625000D03*
%TO.P,COUT4,2*%
%TO.N,GND*%
X146150000Y-77625000D03*
%TD*%
D18*
%TO.P,RFB_PGB1,1*%
%TO.N,GND*%
X139390000Y-81145000D03*
%TO.P,RFB_PGB1,2*%
%TO.N,Net-(U5-FB_PG)*%
X139390000Y-82795000D03*
%TD*%
D29*
%TO.P,C1,2*%
%TO.N,GND*%
X140930000Y-70340000D03*
%TO.P,C1,1*%
%TO.N,Net-(C1-Pad1)*%
X142480000Y-70340000D03*
%TD*%
D18*
%TO.P,RNRSS1,1*%
%TO.N,Net-(U5-NR_SS)*%
X147710000Y-81170000D03*
%TO.P,RNRSS1,2*%
%TO.N,GND*%
X147710000Y-82820000D03*
%TD*%
D30*
%TO.P,FL1,1*%
%TO.N,Net-(COUT4-Pad1)*%
X143200000Y-75285000D03*
%TO.P,FL1,2*%
%TO.N,Net-(C1-Pad1)*%
X143200000Y-72735000D03*
%TD*%
D12*
%TO.P,CNRSS1,1*%
%TO.N,Net-(U5-NR_SS)*%
X145620000Y-81160000D03*
%TO.P,CNRSS1,2*%
%TO.N,GND*%
X145620000Y-84110000D03*
%TD*%
D31*
%TO.P,U1,6,VCC*%
%TO.N,Net-(U1-RT)*%
X156441366Y-89804000D03*
D32*
%TO.P,U1,1,PGND*%
%TO.N,GND*%
X156466365Y-85729002D03*
D33*
%TO.P,U1,2,VIN*%
%TO.N,Net-(U2-VDD)*%
X156428367Y-87079002D03*
D34*
%TO.P,U1,3,RBOOT*%
%TO.N,Net-(U1-CBOOT)*%
X156303366Y-88154001D03*
%TO.P,U1,4,CBOOT*%
X156303366Y-88654000D03*
%TO.P,U1,5,BIAS*%
%TO.N,Net-(U1-BIAS)*%
X156303366Y-89154002D03*
D35*
%TO.P,U1,7,FB*%
X157341367Y-89742002D03*
D36*
%TO.P,U1,8,AGND*%
%TO.N,GND*%
X157841366Y-89667000D03*
D35*
%TO.P,U1,9,RT*%
%TO.N,Net-(U1-RT)*%
X158341365Y-89742002D03*
D37*
%TO.P,U1,10,RESET*%
%TO.N,unconnected-(U1-RESET-Pad10)*%
X159241366Y-89804000D03*
D34*
%TO.P,U1,11,SpSp*%
%TO.N,Net-(U1-RT)*%
X159379366Y-89154002D03*
%TO.P,U1,12,SYNC_MODE*%
%TO.N,GND*%
X159379366Y-88654000D03*
%TO.P,U1,13,EN*%
%TO.N,Net-(U1-EN)*%
X159379366Y-88154001D03*
D33*
%TO.P,U1,14,VIN*%
%TO.N,Net-(U2-VDD)*%
X159254365Y-87079002D03*
D38*
%TO.P,U1,15,PGND*%
%TO.N,GND*%
X159216367Y-85729002D03*
D39*
%TO.P,U1,16,SW*%
%TO.N,Net-(U1-SW)*%
X157841366Y-86666001D03*
%TD*%
D40*
%TO.P,L1,2,2*%
%TO.N,Net-(U1-BIAS)*%
X157734000Y-72237600D03*
%TO.P,L1,1,1*%
%TO.N,Net-(U1-SW)*%
X157734000Y-82194400D03*
%TD*%
D23*
%TO.P,CHF2A1,2*%
%TO.N,Net-(U2-VDD)*%
X154984316Y-86936040D03*
%TO.P,CHF2A1,1*%
%TO.N,GND*%
X154984316Y-85386040D03*
%TD*%
D41*
%TO.P,COUT53,1*%
%TO.N,Net-(U1-BIAS)*%
X165736733Y-74993073D03*
%TO.P,COUT53,2*%
%TO.N,GND*%
X165736733Y-72043073D03*
%TD*%
D12*
%TO.P,COUT52,1*%
%TO.N,Net-(U1-BIAS)*%
X149736733Y-77043073D03*
%TO.P,COUT52,2*%
%TO.N,GND*%
X149736733Y-79993073D03*
%TD*%
D21*
%TO.P,CVCC1,2*%
%TO.N,GND*%
X157915000Y-91160000D03*
%TO.P,CVCC1,1*%
%TO.N,Net-(U1-RT)*%
X156365000Y-91160000D03*
%TD*%
D23*
%TO.P,CHF2B1,1*%
%TO.N,GND*%
X162629366Y-85379000D03*
%TO.P,CHF2B1,2*%
%TO.N,Net-(U2-VDD)*%
X162629366Y-86929000D03*
%TD*%
D22*
%TO.P,CHF1B1,1*%
%TO.N,Net-(U2-VDD)*%
X160879366Y-86929000D03*
%TO.P,CHF1B1,2*%
%TO.N,GND*%
X160879366Y-85379000D03*
%TD*%
%TO.P,CHF1A1,1*%
%TO.N,Net-(U2-VDD)*%
X153360000Y-86955000D03*
%TO.P,CHF1A1,2*%
%TO.N,GND*%
X153360000Y-85405000D03*
%TD*%
D23*
%TO.P,CBOOT1,1*%
%TO.N,Net-(U1-SW)*%
X154650000Y-88805000D03*
%TO.P,CBOOT1,2*%
%TO.N,Net-(U1-CBOOT)*%
X154650000Y-90355000D03*
%TD*%
D41*
%TO.P,COUT51,1*%
%TO.N,Net-(U1-BIAS)*%
X149736733Y-74993073D03*
%TO.P,COUT51,2*%
%TO.N,GND*%
X149736733Y-72043073D03*
%TD*%
D12*
%TO.P,COUT54,1*%
%TO.N,Net-(U1-BIAS)*%
X165736733Y-77043073D03*
%TO.P,COUT54,2*%
%TO.N,GND*%
X165736733Y-79993073D03*
%TD*%
D42*
%TO.N,GND*%
X140930000Y-70340000D03*
X145535000Y-70340000D03*
X151300000Y-85515000D03*
X163300001Y-96425000D03*
%TO.N,Net-(U1-EN)*%
X162350000Y-93675000D03*
%TO.N,Net-(U2-INB-)*%
X161755695Y-98025000D03*
X164249999Y-93675000D03*
%TO.N,Net-(U1-EN)*%
X162350000Y-96425000D03*
D43*
%TO.N,GND*%
X164699802Y-85475296D03*
D42*
X158310000Y-88654000D03*
%TO.N,Net-(U1-BIAS)*%
X147650000Y-76375000D03*
%TO.N,GND*%
X137500000Y-77675000D03*
%TO.N,Net-(U1-BIAS)*%
X140450000Y-77675000D03*
%TO.N,Net-(U1-EN)*%
X160125000Y-88150000D03*
%TO.N,GND*%
X159249999Y-98000000D03*
X147710000Y-82845000D03*
%TO.N,Net-(COUT4-Pad1)*%
X144399999Y-79649999D03*
X142950000Y-83300000D03*
%TO.N,GND*%
X145375000Y-84100000D03*
X143799999Y-81749999D03*
X146150000Y-77625000D03*
X139390000Y-81145000D03*
%TO.N,Net-(U1-BIAS)*%
X149736733Y-77043073D03*
%TO.N,GND*%
X157915000Y-91160000D03*
%TO.N,Net-(U1-BIAS)*%
X157356383Y-88689862D03*
D43*
%TO.N,GND*%
X160879366Y-85379000D03*
D42*
X159216367Y-85729002D03*
X153315045Y-85371267D03*
D43*
X162629366Y-85379000D03*
D42*
X149736733Y-79993073D03*
X149736733Y-72043073D03*
X165736733Y-72043073D03*
X165736733Y-79993073D03*
D43*
X154984316Y-85386040D03*
D42*
X156466365Y-85729002D03*
X147720000Y-54645000D03*
X147690000Y-61240000D03*
X147660000Y-67835000D03*
%TD*%
D44*
%TO.N,Net-(U1-BIAS)*%
X157341367Y-89742002D02*
X157341367Y-88704878D01*
X157341367Y-88704878D02*
X157356383Y-88689862D01*
X156303366Y-89154002D02*
X156892243Y-89154002D01*
X156892243Y-89154002D02*
X157356383Y-88689862D01*
X157356383Y-88689862D02*
X157356383Y-88847786D01*
D45*
%TO.N,Net-(F1-Pad1)*%
X148840000Y-91300000D02*
X144885000Y-91300000D01*
D44*
X144885000Y-91300000D02*
X144860000Y-91275000D01*
%TO.N,Net-(U1-EN)*%
X162350000Y-93675000D02*
X162350000Y-92075000D01*
%TO.N,Net-(U2-INA+)*%
X166124999Y-96425000D02*
X164249999Y-96425000D01*
%TO.N,Net-(U1-EN)*%
X162300000Y-93625000D02*
X162350000Y-93675000D01*
X162350000Y-92075000D02*
X162350000Y-91450000D01*
X162350000Y-91450000D02*
X162325000Y-91425000D01*
%TO.N,Net-(U2-INB-)*%
X160924999Y-98025000D02*
X160899999Y-98000000D01*
X161755695Y-98025000D02*
X160924999Y-98025000D01*
%TO.N,Net-(U2-INA+)*%
X164249999Y-98025000D02*
X164249999Y-96425000D01*
%TO.N,Net-(U1-EN)*%
X162350000Y-96425000D02*
X160625000Y-96425000D01*
X160625000Y-96425000D02*
X160550000Y-96350000D01*
%TO.N,Net-(U1-CBOOT)*%
X154650000Y-90355000D02*
X155426000Y-89579000D01*
X155426000Y-89579000D02*
X155426000Y-88891869D01*
X155426000Y-88891869D02*
X155663869Y-88654000D01*
X155663869Y-88654000D02*
X156303366Y-88654000D01*
D46*
%TO.N,GND*%
X158310000Y-88654000D02*
X157841366Y-89122634D01*
X157841366Y-89122634D02*
X157841366Y-89667000D01*
X159379366Y-88654000D02*
X158310000Y-88654000D01*
D44*
%TO.N,Net-(U1-RT)*%
X157017866Y-90380500D02*
X157017866Y-90507134D01*
X157017866Y-90507134D02*
X156365000Y-91160000D01*
X156441366Y-89804000D02*
X157017866Y-90380500D01*
X157017866Y-90380500D02*
X158267365Y-90380500D01*
X158267365Y-90380500D02*
X158341365Y-90306500D01*
X158341365Y-90306500D02*
X158341365Y-89742002D01*
%TO.N,GND*%
X157915000Y-91160000D02*
X157915000Y-91116634D01*
X157915000Y-91116634D02*
X157852366Y-91054000D01*
%TO.N,Net-(U5-FB_PG)*%
X140360000Y-82795000D02*
X140540000Y-82795000D01*
X140450000Y-82705000D02*
X140540000Y-82795000D01*
X139390000Y-82795000D02*
X140360000Y-82795000D01*
X140450000Y-81650001D02*
X140450000Y-82705000D01*
X140450000Y-82705000D02*
X140360000Y-82795000D01*
X140540000Y-82795000D02*
X140795000Y-82795000D01*
X140795000Y-82795000D02*
X141300000Y-83300000D01*
D46*
%TO.N,GND*%
X140450000Y-81149999D02*
X139394999Y-81149999D01*
X139394999Y-81149999D02*
X139390000Y-81145000D01*
D44*
%TO.N,Net-(U1-SW)*%
X154650000Y-88805000D02*
X155025000Y-88805000D01*
X155025000Y-88805000D02*
X155025000Y-88725769D01*
X155497769Y-88253000D02*
X155589866Y-88253000D01*
X157118865Y-87728002D02*
X157841366Y-87005501D01*
X155589866Y-88253000D02*
X155589866Y-87728002D01*
X155025000Y-88725769D02*
X155497769Y-88253000D01*
X155589866Y-87728002D02*
X157118865Y-87728002D01*
X157841366Y-87005501D02*
X157841366Y-86666001D01*
X154629366Y-88633000D02*
X154629366Y-88794366D01*
X154629366Y-88794366D02*
X154640000Y-88805000D01*
D46*
%TO.N,GND*%
X143799999Y-81749999D02*
X143783613Y-81766385D01*
X143783613Y-81766385D02*
X143610000Y-81766385D01*
X143610000Y-81766385D02*
X143493616Y-81650001D01*
X143493616Y-81650001D02*
X143250000Y-81650001D01*
D44*
%TO.N,Net-(U5-NR_SS)*%
X145620000Y-81160000D02*
X145410000Y-81160000D01*
X145399999Y-81149999D02*
X143250000Y-81149999D01*
X145410000Y-81160000D02*
X145399999Y-81149999D01*
X147710000Y-81170000D02*
X145630000Y-81170000D01*
X145630000Y-81170000D02*
X145620000Y-81160000D01*
D47*
%TO.N,Net-(U1-BIAS)*%
X140450000Y-80150001D02*
X140450000Y-80548999D01*
D44*
%TO.N,Net-(U1-EN)*%
X160120999Y-88154001D02*
X160125000Y-88150000D01*
X159379366Y-88154001D02*
X160120999Y-88154001D01*
D47*
%TO.N,Net-(U1-BIAS)*%
X140450000Y-79649999D02*
X140450000Y-77675000D01*
X140450000Y-80150001D02*
X140450000Y-79649999D01*
D48*
%TO.N,Net-(COUT4-Pad1)*%
X144399999Y-79649999D02*
X144400000Y-79650000D01*
D44*
%TO.N,Net-(U1-BIAS)*%
X154604733Y-66199073D02*
X154644733Y-66239073D01*
X154604733Y-52991073D02*
X154644733Y-53031073D01*
D49*
%TO.N,Net-(U1-SW)*%
X157841366Y-86666001D02*
X157841366Y-82301766D01*
D44*
X157841366Y-82301766D02*
X157734000Y-82194400D01*
%TO.N,Net-(U2-VDD)*%
X159379366Y-87204003D02*
X159254365Y-87079002D01*
%TO.N,Net-(C1-Pad1)*%
X143764000Y-53126000D02*
X143724000Y-53086000D01*
X143724000Y-59730000D02*
X143764000Y-59690000D01*
%TO.N,Net-(U1-RT)*%
X156441366Y-90915000D02*
X156302366Y-91054000D01*
%TO.N,Net-(U2-VDD)*%
X156252892Y-87079002D02*
X156428367Y-87079002D01*
%TO.N,Net-(U1-RT)*%
X159379368Y-89154000D02*
X159379366Y-89154002D01*
%TO.N,Net-(U2-VDD)*%
X160729364Y-87079002D02*
X160879366Y-86929000D01*
%TO.N,Net-(U1-SW)*%
X157948733Y-83708473D02*
X157736733Y-83496473D01*
%TO.N,Net-(U1-BIAS)*%
X157736733Y-73539673D02*
X157465133Y-73539673D01*
%TO.N,Net-(C1-Pad1)*%
X143733000Y-53095000D02*
X143724000Y-53086000D01*
%TO.N,Net-(U1-RT)*%
X158341365Y-89742002D02*
X158341365Y-89508635D01*
X158341365Y-89508635D02*
X158385367Y-89464633D01*
X158385367Y-89464633D02*
X158385367Y-89452250D01*
X158385367Y-89452250D02*
X158614617Y-89223000D01*
X158614617Y-89223000D02*
X158627000Y-89223000D01*
X158627000Y-89223000D02*
X158695998Y-89154002D01*
X158695998Y-89154002D02*
X159379366Y-89154002D01*
%TO.N,Net-(U2-INB-)*%
X161755695Y-98025000D02*
X162599999Y-98025000D01*
%TD*%
%TA.AperFunction,Conductor*%
%TO.N,Net-(U1-CBOOT)*%
G36*
X156660720Y-88048187D02*
G01*
X156706475Y-88100991D01*
X156717681Y-88152502D01*
X156717681Y-88658195D01*
X156697996Y-88725234D01*
X156645192Y-88770989D01*
X156593681Y-88782195D01*
X156013659Y-88782195D01*
X155946620Y-88762510D01*
X155900865Y-88709706D01*
X155889664Y-88657058D01*
X155894293Y-88152434D01*
X155896669Y-88144607D01*
X155895466Y-88136517D01*
X155906671Y-88111663D01*
X155914592Y-88085577D01*
X155920822Y-88080277D01*
X155924184Y-88072822D01*
X155947044Y-88057973D01*
X155967813Y-88040309D01*
X155977428Y-88038238D01*
X155982779Y-88034764D01*
X156017684Y-88029572D01*
X156239112Y-88028502D01*
X156239711Y-88028502D01*
X156593681Y-88028502D01*
X156660720Y-88048187D01*
G37*
%TD.AperFunction*%
%TD*%
%TA.AperFunction,Conductor*%
%TO.N,Net-(C1-Pad1)*%
G36*
X148353039Y-48771185D02*
G01*
X148398794Y-48823989D01*
X148410000Y-48875500D01*
X148410000Y-53964291D01*
X148390315Y-54031330D01*
X148337511Y-54077085D01*
X148268353Y-54087029D01*
X148229706Y-54074776D01*
X148103123Y-54010279D01*
X148003493Y-53994500D01*
X148003488Y-53994500D01*
X147436512Y-53994500D01*
X147436507Y-53994500D01*
X147336878Y-54010279D01*
X147216778Y-54071473D01*
X147216774Y-54071476D01*
X147121476Y-54166774D01*
X147121473Y-54166778D01*
X147060279Y-54286878D01*
X147044500Y-54386506D01*
X147044500Y-54903493D01*
X147060279Y-55003121D01*
X147060280Y-55003124D01*
X147060281Y-55003126D01*
X147121472Y-55123220D01*
X147121473Y-55123221D01*
X147121476Y-55123225D01*
X147216774Y-55218523D01*
X147216778Y-55218526D01*
X147216780Y-55218528D01*
X147336874Y-55279719D01*
X147336876Y-55279719D01*
X147336878Y-55279720D01*
X147436507Y-55295500D01*
X147436512Y-55295500D01*
X148003493Y-55295500D01*
X148103121Y-55279720D01*
X148103121Y-55279719D01*
X148103126Y-55279719D01*
X148223220Y-55218528D01*
X148223221Y-55218526D01*
X148229705Y-55215223D01*
X148298374Y-55202327D01*
X148363115Y-55228603D01*
X148403372Y-55285710D01*
X148410000Y-55325708D01*
X148410000Y-60538889D01*
X148390315Y-60605928D01*
X148337511Y-60651683D01*
X148268353Y-60661627D01*
X148204797Y-60632602D01*
X148198319Y-60626570D01*
X148193225Y-60621476D01*
X148193221Y-60621473D01*
X148193220Y-60621472D01*
X148073126Y-60560281D01*
X148073124Y-60560280D01*
X148073121Y-60560279D01*
X147973493Y-60544500D01*
X147973488Y-60544500D01*
X147406512Y-60544500D01*
X147406507Y-60544500D01*
X147306878Y-60560279D01*
X147186778Y-60621473D01*
X147186774Y-60621476D01*
X147091476Y-60716774D01*
X147091473Y-60716778D01*
X147030279Y-60836878D01*
X147014500Y-60936506D01*
X147014500Y-61453493D01*
X147030279Y-61553121D01*
X147030280Y-61553124D01*
X147030281Y-61553126D01*
X147091472Y-61673220D01*
X147091473Y-61673221D01*
X147091476Y-61673225D01*
X147186774Y-61768523D01*
X147186778Y-61768526D01*
X147186780Y-61768528D01*
X147306874Y-61829719D01*
X147306876Y-61829719D01*
X147306878Y-61829720D01*
X147406507Y-61845500D01*
X147406512Y-61845500D01*
X147973493Y-61845500D01*
X148073121Y-61829720D01*
X148073121Y-61829719D01*
X148073126Y-61829719D01*
X148193220Y-61768528D01*
X148193225Y-61768523D01*
X148198319Y-61763430D01*
X148259642Y-61729945D01*
X148329334Y-61734929D01*
X148385267Y-61776801D01*
X148409684Y-61842265D01*
X148410000Y-61851111D01*
X148410000Y-67208889D01*
X148390315Y-67275928D01*
X148337511Y-67321683D01*
X148268353Y-67331627D01*
X148204797Y-67302602D01*
X148198319Y-67296570D01*
X148163225Y-67261476D01*
X148163221Y-67261473D01*
X148163220Y-67261472D01*
X148043126Y-67200281D01*
X148043124Y-67200280D01*
X148043121Y-67200279D01*
X147943493Y-67184500D01*
X147943488Y-67184500D01*
X147376512Y-67184500D01*
X147376507Y-67184500D01*
X147276878Y-67200279D01*
X147156778Y-67261473D01*
X147156774Y-67261476D01*
X147061476Y-67356774D01*
X147061473Y-67356778D01*
X147000279Y-67476878D01*
X146984500Y-67576506D01*
X146984500Y-68093493D01*
X147000279Y-68193121D01*
X147000280Y-68193124D01*
X147000281Y-68193126D01*
X147061472Y-68313220D01*
X147061473Y-68313221D01*
X147061476Y-68313225D01*
X147156774Y-68408523D01*
X147156778Y-68408526D01*
X147156780Y-68408528D01*
X147276874Y-68469719D01*
X147276876Y-68469719D01*
X147276878Y-68469720D01*
X147376507Y-68485500D01*
X147376512Y-68485500D01*
X147943493Y-68485500D01*
X148043121Y-68469720D01*
X148043121Y-68469719D01*
X148043126Y-68469719D01*
X148163220Y-68408528D01*
X148163225Y-68408523D01*
X148198319Y-68373430D01*
X148259642Y-68339945D01*
X148329334Y-68344929D01*
X148385267Y-68386801D01*
X148409684Y-68452265D01*
X148410000Y-68461111D01*
X148410000Y-69536000D01*
X148390315Y-69603039D01*
X148337511Y-69648794D01*
X148286000Y-69660000D01*
X145703547Y-69660000D01*
X145700496Y-69661666D01*
X145674138Y-69664500D01*
X145276507Y-69664500D01*
X145176878Y-69680279D01*
X145056778Y-69741473D01*
X145056774Y-69741476D01*
X144961476Y-69836774D01*
X144961473Y-69836778D01*
X144900279Y-69956878D01*
X144884500Y-70056506D01*
X144884500Y-70623493D01*
X144900279Y-70723121D01*
X144900280Y-70723124D01*
X144900281Y-70723126D01*
X144961472Y-70843220D01*
X144961473Y-70843221D01*
X144961476Y-70843225D01*
X145056774Y-70938523D01*
X145056778Y-70938526D01*
X145056780Y-70938528D01*
X145176874Y-70999719D01*
X145176876Y-70999719D01*
X145176878Y-70999720D01*
X145276507Y-71015500D01*
X145606000Y-71015500D01*
X145673039Y-71035185D01*
X145718794Y-71087989D01*
X145730000Y-71139500D01*
X145730000Y-73886000D01*
X145710315Y-73953039D01*
X145657511Y-73998794D01*
X145606000Y-74010000D01*
X136450500Y-74010000D01*
X136383461Y-73990315D01*
X136337706Y-73937511D01*
X136326500Y-73886000D01*
X136326500Y-70056506D01*
X140279500Y-70056506D01*
X140279500Y-70623493D01*
X140295279Y-70723121D01*
X140295280Y-70723124D01*
X140295281Y-70723126D01*
X140356472Y-70843220D01*
X140356473Y-70843221D01*
X140356476Y-70843225D01*
X140451774Y-70938523D01*
X140451778Y-70938526D01*
X140451780Y-70938528D01*
X140571874Y-70999719D01*
X140571876Y-70999719D01*
X140571878Y-70999720D01*
X140671507Y-71015500D01*
X140671512Y-71015500D01*
X141188493Y-71015500D01*
X141288121Y-70999720D01*
X141288121Y-70999719D01*
X141288126Y-70999719D01*
X141408220Y-70938528D01*
X141503528Y-70843220D01*
X141564719Y-70723126D01*
X141564720Y-70723121D01*
X141580500Y-70623493D01*
X141580500Y-70056506D01*
X141564720Y-69956878D01*
X141564719Y-69956876D01*
X141564719Y-69956874D01*
X141503528Y-69836780D01*
X141503526Y-69836778D01*
X141503523Y-69836774D01*
X141408225Y-69741476D01*
X141408221Y-69741473D01*
X141408220Y-69741472D01*
X141288126Y-69680281D01*
X141288124Y-69680280D01*
X141288121Y-69680279D01*
X141188493Y-69664500D01*
X141188488Y-69664500D01*
X140671512Y-69664500D01*
X140671507Y-69664500D01*
X140571878Y-69680279D01*
X140451778Y-69741473D01*
X140451774Y-69741476D01*
X140356476Y-69836774D01*
X140356473Y-69836778D01*
X140295279Y-69956878D01*
X140279500Y-70056506D01*
X136326500Y-70056506D01*
X136326500Y-66196685D01*
X140236000Y-66196685D01*
X140236000Y-66391314D01*
X140273965Y-66582181D01*
X140273968Y-66582190D01*
X140348441Y-66761987D01*
X140348448Y-66762000D01*
X140456569Y-66923813D01*
X140456572Y-66923817D01*
X140594182Y-67061427D01*
X140594186Y-67061430D01*
X140755999Y-67169551D01*
X140756012Y-67169558D01*
X140890859Y-67225412D01*
X140935811Y-67244032D01*
X140935813Y-67244032D01*
X140935818Y-67244034D01*
X141126685Y-67281999D01*
X141126689Y-67282000D01*
X141126690Y-67282000D01*
X141321311Y-67282000D01*
X141321312Y-67281999D01*
X141424512Y-67261472D01*
X141512181Y-67244034D01*
X141512184Y-67244032D01*
X141512189Y-67244032D01*
X141691994Y-67169555D01*
X141853814Y-67061430D01*
X141991430Y-66923814D01*
X142099555Y-66761994D01*
X142174032Y-66582189D01*
X142212000Y-66391310D01*
X142212000Y-66196690D01*
X142211661Y-66194990D01*
X142174034Y-66005818D01*
X142174031Y-66005809D01*
X142099558Y-65826012D01*
X142099551Y-65825999D01*
X141991430Y-65664186D01*
X141991427Y-65664182D01*
X141853817Y-65526572D01*
X141853813Y-65526569D01*
X141692000Y-65418448D01*
X141691987Y-65418441D01*
X141512190Y-65343968D01*
X141512181Y-65343965D01*
X141321314Y-65306000D01*
X141321310Y-65306000D01*
X141126690Y-65306000D01*
X141126685Y-65306000D01*
X140935818Y-65343965D01*
X140935809Y-65343968D01*
X140756012Y-65418441D01*
X140755999Y-65418448D01*
X140594186Y-65526569D01*
X140594182Y-65526572D01*
X140456572Y-65664182D01*
X140456569Y-65664186D01*
X140348448Y-65825999D01*
X140348441Y-65826012D01*
X140273968Y-66005809D01*
X140273965Y-66005818D01*
X140236000Y-66196685D01*
X136326500Y-66196685D01*
X136326500Y-59592685D01*
X140276000Y-59592685D01*
X140276000Y-59787314D01*
X140313965Y-59978181D01*
X140313968Y-59978190D01*
X140388441Y-60157987D01*
X140388448Y-60158000D01*
X140496569Y-60319813D01*
X140496572Y-60319817D01*
X140634182Y-60457427D01*
X140634186Y-60457430D01*
X140795999Y-60565551D01*
X140796012Y-60565558D01*
X140893476Y-60605928D01*
X140975811Y-60640032D01*
X140975813Y-60640032D01*
X140975818Y-60640034D01*
X141166685Y-60677999D01*
X141166689Y-60678000D01*
X141166690Y-60678000D01*
X141361311Y-60678000D01*
X141361312Y-60677999D01*
X141443623Y-60661627D01*
X141552181Y-60640034D01*
X141552184Y-60640032D01*
X141552189Y-60640032D01*
X141731994Y-60565555D01*
X141893814Y-60457430D01*
X142031430Y-60319814D01*
X142139555Y-60157994D01*
X142214032Y-59978189D01*
X142252000Y-59787310D01*
X142252000Y-59592690D01*
X142251661Y-59590990D01*
X142214034Y-59401818D01*
X142214031Y-59401809D01*
X142139558Y-59222012D01*
X142139551Y-59221999D01*
X142031430Y-59060186D01*
X142031427Y-59060182D01*
X141893817Y-58922572D01*
X141893813Y-58922569D01*
X141732000Y-58814448D01*
X141731987Y-58814441D01*
X141552190Y-58739968D01*
X141552181Y-58739965D01*
X141361314Y-58702000D01*
X141361310Y-58702000D01*
X141166690Y-58702000D01*
X141166685Y-58702000D01*
X140975818Y-58739965D01*
X140975809Y-58739968D01*
X140796012Y-58814441D01*
X140795999Y-58814448D01*
X140634186Y-58922569D01*
X140634182Y-58922572D01*
X140496572Y-59060182D01*
X140496569Y-59060186D01*
X140388448Y-59221999D01*
X140388441Y-59222012D01*
X140313968Y-59401809D01*
X140313965Y-59401818D01*
X140276000Y-59592685D01*
X136326500Y-59592685D01*
X136326500Y-52988685D01*
X140236000Y-52988685D01*
X140236000Y-53183314D01*
X140273965Y-53374181D01*
X140273968Y-53374190D01*
X140348441Y-53553987D01*
X140348448Y-53554000D01*
X140456569Y-53715813D01*
X140456572Y-53715817D01*
X140594182Y-53853427D01*
X140594186Y-53853430D01*
X140755999Y-53961551D01*
X140756012Y-53961558D01*
X140873637Y-54010279D01*
X140935811Y-54036032D01*
X140935813Y-54036032D01*
X140935818Y-54036034D01*
X141126685Y-54073999D01*
X141126689Y-54074000D01*
X141126690Y-54074000D01*
X141321311Y-54074000D01*
X141321312Y-54073999D01*
X141384936Y-54061344D01*
X141512181Y-54036034D01*
X141512184Y-54036032D01*
X141512189Y-54036032D01*
X141691994Y-53961555D01*
X141853814Y-53853430D01*
X141991430Y-53715814D01*
X142099555Y-53553994D01*
X142174032Y-53374189D01*
X142212000Y-53183310D01*
X142212000Y-52988690D01*
X142211661Y-52986990D01*
X142174034Y-52797818D01*
X142174031Y-52797809D01*
X142099558Y-52618012D01*
X142099551Y-52617999D01*
X141991430Y-52456186D01*
X141991427Y-52456182D01*
X141853817Y-52318572D01*
X141853813Y-52318569D01*
X141692000Y-52210448D01*
X141691987Y-52210441D01*
X141512190Y-52135968D01*
X141512181Y-52135965D01*
X141321314Y-52098000D01*
X141321310Y-52098000D01*
X141126690Y-52098000D01*
X141126685Y-52098000D01*
X140935818Y-52135965D01*
X140935809Y-52135968D01*
X140756012Y-52210441D01*
X140755999Y-52210448D01*
X140594186Y-52318569D01*
X140594182Y-52318572D01*
X140456572Y-52456182D01*
X140456569Y-52456186D01*
X140348448Y-52617999D01*
X140348441Y-52618012D01*
X140273968Y-52797809D01*
X140273965Y-52797818D01*
X140236000Y-52988685D01*
X136326500Y-52988685D01*
X136326500Y-48875500D01*
X136346185Y-48808461D01*
X136398989Y-48762706D01*
X136450500Y-48751500D01*
X148286000Y-48751500D01*
X148353039Y-48771185D01*
G37*
%TD.AperFunction*%
%TD*%
%TA.AperFunction,Conductor*%
%TO.N,Net-(COUT4-Pad1)*%
G36*
X143150000Y-75100000D02*
G01*
X145055523Y-75100000D01*
X145122562Y-75119685D01*
X145168317Y-75172489D01*
X145179522Y-75224476D01*
X145160474Y-80186476D01*
X145140532Y-80253439D01*
X145087553Y-80298991D01*
X145036475Y-80310000D01*
X143004500Y-80310000D01*
X142937461Y-80290315D01*
X142891706Y-80237511D01*
X142880500Y-80186000D01*
X142880500Y-79500005D01*
X142880500Y-79500000D01*
X142868968Y-79432128D01*
X142820310Y-79354690D01*
X142770310Y-79304690D01*
X142714163Y-79264851D01*
X142669581Y-79254675D01*
X142625001Y-79244500D01*
X142625000Y-79244500D01*
X142554501Y-79244500D01*
X142487462Y-79224815D01*
X142441707Y-79172011D01*
X142430501Y-79120500D01*
X142430501Y-79000006D01*
X142430501Y-79000001D01*
X142418969Y-78932129D01*
X142370311Y-78854691D01*
X142320311Y-78804691D01*
X142264164Y-78764852D01*
X142219582Y-78754676D01*
X142175002Y-78744501D01*
X142175001Y-78744501D01*
X142025001Y-78744501D01*
X142024991Y-78744501D01*
X141957137Y-78756029D01*
X141957131Y-78756032D01*
X141918347Y-78780400D01*
X141851110Y-78799398D01*
X141784275Y-78779028D01*
X141780653Y-78776553D01*
X141764162Y-78764852D01*
X141719580Y-78754676D01*
X141675000Y-78744501D01*
X141674999Y-78744501D01*
X141550461Y-78744501D01*
X141483422Y-78724816D01*
X141437667Y-78672012D01*
X141426462Y-78620029D01*
X141439522Y-75204978D01*
X141459463Y-75138015D01*
X141512441Y-75092462D01*
X141564968Y-75081461D01*
X143150000Y-75100000D01*
G37*
%TD.AperFunction*%
%TD*%
%TA.AperFunction,Conductor*%
%TO.N,Net-(U1-BIAS)*%
G36*
X167982539Y-48771185D02*
G01*
X168028294Y-48823989D01*
X168039500Y-48875500D01*
X168039500Y-78452712D01*
X168019815Y-78519751D01*
X167967011Y-78565506D01*
X167917794Y-78576691D01*
X164057894Y-78648106D01*
X163990502Y-78629665D01*
X163943778Y-78577716D01*
X163931600Y-78524127D01*
X163931600Y-74218800D01*
X151536400Y-74218800D01*
X151536400Y-78758049D01*
X151516715Y-78825088D01*
X151463911Y-78870843D01*
X151414694Y-78882028D01*
X146786294Y-78967663D01*
X146776452Y-78964969D01*
X146766353Y-78966422D01*
X146743322Y-78955904D01*
X146718902Y-78949222D01*
X146712078Y-78941635D01*
X146702797Y-78937397D01*
X146689107Y-78916096D01*
X146672178Y-78897273D01*
X146669534Y-78885638D01*
X146665023Y-78878619D01*
X146660000Y-78843684D01*
X146660000Y-78760969D01*
X146679685Y-78693930D01*
X146710366Y-78661199D01*
X146797150Y-78597150D01*
X146877793Y-78487882D01*
X146900219Y-78423790D01*
X146922646Y-78359701D01*
X146922646Y-78359699D01*
X146925500Y-78329269D01*
X146925500Y-76920730D01*
X146922646Y-76890300D01*
X146922646Y-76890298D01*
X146877793Y-76762119D01*
X146877792Y-76762117D01*
X146797150Y-76652850D01*
X146710365Y-76588800D01*
X146668116Y-76533154D01*
X146660000Y-76489031D01*
X146660000Y-74109937D01*
X146653043Y-72770865D01*
X146647292Y-71663803D01*
X148636233Y-71663803D01*
X148636233Y-72422342D01*
X148639086Y-72452772D01*
X148639086Y-72452774D01*
X148683939Y-72580953D01*
X148683940Y-72580955D01*
X148764583Y-72690223D01*
X148873851Y-72770866D01*
X148916578Y-72785817D01*
X149002032Y-72815719D01*
X149032463Y-72818573D01*
X149032467Y-72818573D01*
X150441003Y-72818573D01*
X150471432Y-72815719D01*
X150471434Y-72815719D01*
X150535523Y-72793292D01*
X150599615Y-72770866D01*
X150708883Y-72690223D01*
X150789526Y-72580955D01*
X150811952Y-72516863D01*
X150834379Y-72452774D01*
X150834379Y-72452772D01*
X150837233Y-72422342D01*
X150837233Y-71663803D01*
X164636233Y-71663803D01*
X164636233Y-72422342D01*
X164639086Y-72452772D01*
X164639086Y-72452774D01*
X164683939Y-72580953D01*
X164683940Y-72580955D01*
X164764583Y-72690223D01*
X164873851Y-72770866D01*
X164916578Y-72785817D01*
X165002032Y-72815719D01*
X165032463Y-72818573D01*
X165032467Y-72818573D01*
X166441003Y-72818573D01*
X166471432Y-72815719D01*
X166471434Y-72815719D01*
X166535523Y-72793292D01*
X166599615Y-72770866D01*
X166708883Y-72690223D01*
X166789526Y-72580955D01*
X166811952Y-72516863D01*
X166834379Y-72452774D01*
X166834379Y-72452772D01*
X166837233Y-72422342D01*
X166837233Y-71663803D01*
X166834379Y-71633373D01*
X166834379Y-71633371D01*
X166789526Y-71505192D01*
X166789525Y-71505190D01*
X166708883Y-71395923D01*
X166599615Y-71315280D01*
X166599613Y-71315279D01*
X166471433Y-71270426D01*
X166441003Y-71267573D01*
X166440999Y-71267573D01*
X165032467Y-71267573D01*
X165032463Y-71267573D01*
X165002033Y-71270426D01*
X165002031Y-71270426D01*
X164873852Y-71315279D01*
X164873850Y-71315280D01*
X164764583Y-71395923D01*
X164683940Y-71505190D01*
X164683939Y-71505192D01*
X164639086Y-71633371D01*
X164639086Y-71633373D01*
X164636233Y-71663803D01*
X150837233Y-71663803D01*
X150834379Y-71633373D01*
X150834379Y-71633371D01*
X150789526Y-71505192D01*
X150789525Y-71505190D01*
X150708883Y-71395923D01*
X150599615Y-71315280D01*
X150599613Y-71315279D01*
X150471433Y-71270426D01*
X150441003Y-71267573D01*
X150440999Y-71267573D01*
X149032467Y-71267573D01*
X149032463Y-71267573D01*
X149002033Y-71270426D01*
X149002031Y-71270426D01*
X148873852Y-71315279D01*
X148873850Y-71315280D01*
X148764583Y-71395923D01*
X148683940Y-71505190D01*
X148683939Y-71505192D01*
X148639086Y-71633371D01*
X148639086Y-71633373D01*
X148636233Y-71663803D01*
X146647292Y-71663803D01*
X146640644Y-70384146D01*
X146659980Y-70317009D01*
X146712545Y-70270981D01*
X146764148Y-70259507D01*
X149160000Y-70250000D01*
X149130027Y-66141758D01*
X151156733Y-66141758D01*
X151156733Y-66336387D01*
X151194698Y-66527254D01*
X151194701Y-66527263D01*
X151269174Y-66707060D01*
X151269181Y-66707073D01*
X151377302Y-66868886D01*
X151377305Y-66868890D01*
X151514915Y-67006500D01*
X151514919Y-67006503D01*
X151676732Y-67114624D01*
X151676745Y-67114631D01*
X151781524Y-67158031D01*
X151856544Y-67189105D01*
X151856546Y-67189105D01*
X151856551Y-67189107D01*
X152047418Y-67227072D01*
X152047422Y-67227073D01*
X152047423Y-67227073D01*
X152242044Y-67227073D01*
X152242045Y-67227072D01*
X152305669Y-67214417D01*
X152432914Y-67189107D01*
X152432917Y-67189105D01*
X152432922Y-67189105D01*
X152612727Y-67114628D01*
X152774547Y-67006503D01*
X152912163Y-66868887D01*
X153020288Y-66707067D01*
X153094765Y-66527262D01*
X153100948Y-66496181D01*
X153132732Y-66336387D01*
X153132733Y-66336384D01*
X153132733Y-66141764D01*
X153130152Y-66128788D01*
X153130152Y-66128785D01*
X153126552Y-66110685D01*
X159492000Y-66110685D01*
X159492000Y-66305314D01*
X159529965Y-66496181D01*
X159529968Y-66496190D01*
X159604441Y-66675987D01*
X159604448Y-66676000D01*
X159712569Y-66837813D01*
X159712572Y-66837817D01*
X159850182Y-66975427D01*
X159850186Y-66975430D01*
X160011999Y-67083551D01*
X160012012Y-67083558D01*
X160146859Y-67139412D01*
X160191811Y-67158032D01*
X160191813Y-67158032D01*
X160191818Y-67158034D01*
X160382685Y-67195999D01*
X160382689Y-67196000D01*
X160382690Y-67196000D01*
X160577311Y-67196000D01*
X160577312Y-67195999D01*
X160640936Y-67183344D01*
X160768181Y-67158034D01*
X160768184Y-67158032D01*
X160768189Y-67158032D01*
X160947994Y-67083555D01*
X161109814Y-66975430D01*
X161247430Y-66837814D01*
X161355555Y-66675994D01*
X161430032Y-66496189D01*
X161468000Y-66305310D01*
X161468000Y-66110690D01*
X161451256Y-66026512D01*
X161430034Y-65919818D01*
X161430031Y-65919809D01*
X161355558Y-65740012D01*
X161355551Y-65739999D01*
X161247430Y-65578186D01*
X161247427Y-65578182D01*
X161109817Y-65440572D01*
X161109813Y-65440569D01*
X160948000Y-65332448D01*
X160947987Y-65332441D01*
X160768190Y-65257968D01*
X160768181Y-65257965D01*
X160577314Y-65220000D01*
X160577310Y-65220000D01*
X160382690Y-65220000D01*
X160382685Y-65220000D01*
X160191818Y-65257965D01*
X160191809Y-65257968D01*
X160012012Y-65332441D01*
X160011999Y-65332448D01*
X159850186Y-65440569D01*
X159850182Y-65440572D01*
X159712572Y-65578182D01*
X159712569Y-65578186D01*
X159604448Y-65739999D01*
X159604441Y-65740012D01*
X159529968Y-65919809D01*
X159529965Y-65919818D01*
X159492000Y-66110685D01*
X153126552Y-66110685D01*
X153094767Y-65950891D01*
X153094764Y-65950882D01*
X153020291Y-65771085D01*
X153020284Y-65771072D01*
X152912163Y-65609259D01*
X152912160Y-65609255D01*
X152774550Y-65471645D01*
X152774546Y-65471642D01*
X152612733Y-65363521D01*
X152612720Y-65363514D01*
X152432923Y-65289041D01*
X152432914Y-65289038D01*
X152242047Y-65251073D01*
X152242043Y-65251073D01*
X152047423Y-65251073D01*
X152047418Y-65251073D01*
X151856551Y-65289038D01*
X151856542Y-65289041D01*
X151676745Y-65363514D01*
X151676732Y-65363521D01*
X151514919Y-65471642D01*
X151514915Y-65471645D01*
X151377305Y-65609255D01*
X151377302Y-65609259D01*
X151269181Y-65771072D01*
X151269174Y-65771085D01*
X151194701Y-65950882D01*
X151194698Y-65950891D01*
X151156733Y-66141758D01*
X149130027Y-66141758D01*
X149081953Y-59552685D01*
X151112000Y-59552685D01*
X151112000Y-59747314D01*
X151149965Y-59938181D01*
X151149968Y-59938190D01*
X151224441Y-60117987D01*
X151224448Y-60118000D01*
X151332569Y-60279813D01*
X151332572Y-60279817D01*
X151470182Y-60417427D01*
X151470186Y-60417430D01*
X151631999Y-60525551D01*
X151632012Y-60525558D01*
X151766859Y-60581412D01*
X151811811Y-60600032D01*
X151811813Y-60600032D01*
X151811818Y-60600034D01*
X152002685Y-60637999D01*
X152002689Y-60638000D01*
X152002690Y-60638000D01*
X152197311Y-60638000D01*
X152197312Y-60637999D01*
X152260936Y-60625344D01*
X152388181Y-60600034D01*
X152388184Y-60600032D01*
X152388189Y-60600032D01*
X152567994Y-60525555D01*
X152729814Y-60417430D01*
X152867430Y-60279814D01*
X152975555Y-60117994D01*
X153050032Y-59938189D01*
X153056935Y-59903488D01*
X153087999Y-59747314D01*
X153088000Y-59747311D01*
X153088000Y-59552691D01*
X153082450Y-59524788D01*
X153082450Y-59524785D01*
X153078850Y-59506685D01*
X159532000Y-59506685D01*
X159532000Y-59701314D01*
X159569965Y-59892181D01*
X159569968Y-59892190D01*
X159644441Y-60071987D01*
X159644448Y-60072000D01*
X159752569Y-60233813D01*
X159752572Y-60233817D01*
X159890182Y-60371427D01*
X159890186Y-60371430D01*
X160051999Y-60479551D01*
X160052012Y-60479558D01*
X160163051Y-60525551D01*
X160231811Y-60554032D01*
X160231813Y-60554032D01*
X160231818Y-60554034D01*
X160422685Y-60591999D01*
X160422689Y-60592000D01*
X160422690Y-60592000D01*
X160617311Y-60592000D01*
X160617312Y-60591999D01*
X160680936Y-60579344D01*
X160808181Y-60554034D01*
X160808184Y-60554032D01*
X160808189Y-60554032D01*
X160987994Y-60479555D01*
X161149814Y-60371430D01*
X161287430Y-60233814D01*
X161395555Y-60071994D01*
X161470032Y-59892189D01*
X161508000Y-59701310D01*
X161508000Y-59506690D01*
X161507661Y-59504990D01*
X161470034Y-59315818D01*
X161470031Y-59315809D01*
X161395558Y-59136012D01*
X161395551Y-59135999D01*
X161287430Y-58974186D01*
X161287427Y-58974182D01*
X161149817Y-58836572D01*
X161149813Y-58836569D01*
X160988000Y-58728448D01*
X160987987Y-58728441D01*
X160808190Y-58653968D01*
X160808181Y-58653965D01*
X160617314Y-58616000D01*
X160617310Y-58616000D01*
X160422690Y-58616000D01*
X160422685Y-58616000D01*
X160231818Y-58653965D01*
X160231809Y-58653968D01*
X160052012Y-58728441D01*
X160051999Y-58728448D01*
X159890186Y-58836569D01*
X159890182Y-58836572D01*
X159752572Y-58974182D01*
X159752569Y-58974186D01*
X159644448Y-59135999D01*
X159644441Y-59136012D01*
X159569968Y-59315809D01*
X159569965Y-59315818D01*
X159532000Y-59506685D01*
X153078850Y-59506685D01*
X153050034Y-59361818D01*
X153050031Y-59361809D01*
X152975558Y-59182012D01*
X152975551Y-59181999D01*
X152867430Y-59020186D01*
X152867427Y-59020182D01*
X152729817Y-58882572D01*
X152729813Y-58882569D01*
X152568000Y-58774448D01*
X152567987Y-58774441D01*
X152388190Y-58699968D01*
X152388181Y-58699965D01*
X152197314Y-58662000D01*
X152197310Y-58662000D01*
X152002690Y-58662000D01*
X152002685Y-58662000D01*
X151811818Y-58699965D01*
X151811809Y-58699968D01*
X151632012Y-58774441D01*
X151631999Y-58774448D01*
X151470186Y-58882569D01*
X151470182Y-58882572D01*
X151332572Y-59020182D01*
X151332569Y-59020186D01*
X151224448Y-59181999D01*
X151224441Y-59182012D01*
X151149968Y-59361809D01*
X151149965Y-59361818D01*
X151112000Y-59552685D01*
X149081953Y-59552685D01*
X149033661Y-52933758D01*
X151156733Y-52933758D01*
X151156733Y-53128387D01*
X151194698Y-53319254D01*
X151194701Y-53319263D01*
X151269174Y-53499060D01*
X151269181Y-53499073D01*
X151377302Y-53660886D01*
X151377305Y-53660890D01*
X151514915Y-53798500D01*
X151514919Y-53798503D01*
X151676732Y-53906624D01*
X151676745Y-53906631D01*
X151781524Y-53950031D01*
X151856544Y-53981105D01*
X151856546Y-53981105D01*
X151856551Y-53981107D01*
X152047418Y-54019072D01*
X152047422Y-54019073D01*
X152047423Y-54019073D01*
X152242044Y-54019073D01*
X152242045Y-54019072D01*
X152305669Y-54006417D01*
X152432914Y-53981107D01*
X152432917Y-53981105D01*
X152432922Y-53981105D01*
X152612727Y-53906628D01*
X152774547Y-53798503D01*
X152912163Y-53660887D01*
X153020288Y-53499067D01*
X153094765Y-53319262D01*
X153100948Y-53288181D01*
X153132732Y-53128387D01*
X153132733Y-53128384D01*
X153132733Y-52933764D01*
X153130152Y-52920788D01*
X153130152Y-52920785D01*
X153126552Y-52902685D01*
X159512000Y-52902685D01*
X159512000Y-53097314D01*
X159549965Y-53288181D01*
X159549968Y-53288190D01*
X159624441Y-53467987D01*
X159624448Y-53468000D01*
X159732569Y-53629813D01*
X159732572Y-53629817D01*
X159870182Y-53767427D01*
X159870186Y-53767430D01*
X160031999Y-53875551D01*
X160032012Y-53875558D01*
X160166859Y-53931412D01*
X160211811Y-53950032D01*
X160211813Y-53950032D01*
X160211818Y-53950034D01*
X160402685Y-53987999D01*
X160402689Y-53988000D01*
X160402690Y-53988000D01*
X160597311Y-53988000D01*
X160597312Y-53987999D01*
X160660936Y-53975344D01*
X160788181Y-53950034D01*
X160788184Y-53950032D01*
X160788189Y-53950032D01*
X160967994Y-53875555D01*
X161129814Y-53767430D01*
X161267430Y-53629814D01*
X161375555Y-53467994D01*
X161381714Y-53453126D01*
X161386466Y-53441650D01*
X161450032Y-53288189D01*
X161488000Y-53097310D01*
X161488000Y-52902690D01*
X161487661Y-52900990D01*
X161450034Y-52711818D01*
X161450031Y-52711809D01*
X161375558Y-52532012D01*
X161375551Y-52531999D01*
X161267430Y-52370186D01*
X161267427Y-52370182D01*
X161129817Y-52232572D01*
X161129813Y-52232569D01*
X160968000Y-52124448D01*
X160967987Y-52124441D01*
X160788190Y-52049968D01*
X160788181Y-52049965D01*
X160597314Y-52012000D01*
X160597310Y-52012000D01*
X160402690Y-52012000D01*
X160402685Y-52012000D01*
X160211818Y-52049965D01*
X160211809Y-52049968D01*
X160032012Y-52124441D01*
X160031999Y-52124448D01*
X159870186Y-52232569D01*
X159870182Y-52232572D01*
X159732572Y-52370182D01*
X159732569Y-52370186D01*
X159624448Y-52531999D01*
X159624441Y-52532012D01*
X159549968Y-52711809D01*
X159549965Y-52711818D01*
X159512000Y-52902685D01*
X153126552Y-52902685D01*
X153094767Y-52742891D01*
X153094764Y-52742882D01*
X153092275Y-52736874D01*
X153076145Y-52697932D01*
X153020291Y-52563085D01*
X153020284Y-52563072D01*
X152912163Y-52401259D01*
X152912160Y-52401255D01*
X152774550Y-52263645D01*
X152774546Y-52263642D01*
X152612733Y-52155521D01*
X152612720Y-52155514D01*
X152432923Y-52081041D01*
X152432914Y-52081038D01*
X152242047Y-52043073D01*
X152242043Y-52043073D01*
X152047423Y-52043073D01*
X152047418Y-52043073D01*
X151856551Y-52081038D01*
X151856542Y-52081041D01*
X151676745Y-52155514D01*
X151676732Y-52155521D01*
X151514919Y-52263642D01*
X151514915Y-52263645D01*
X151377305Y-52401255D01*
X151377302Y-52401259D01*
X151269181Y-52563072D01*
X151269174Y-52563085D01*
X151194701Y-52742882D01*
X151194698Y-52742891D01*
X151156733Y-52933758D01*
X149033661Y-52933758D01*
X149032042Y-52711818D01*
X149004059Y-48876405D01*
X149023254Y-48809223D01*
X149075723Y-48763084D01*
X149128056Y-48751500D01*
X167915500Y-48751500D01*
X167982539Y-48771185D01*
G37*
%TD.AperFunction*%
%TD*%
%TA.AperFunction,Conductor*%
%TO.N,Net-(U2-VDD)*%
G36*
X163959430Y-86449997D02*
G01*
X163960630Y-86450010D01*
X166878039Y-86497994D01*
X166944746Y-86518778D01*
X166989626Y-86572327D01*
X167000000Y-86621977D01*
X167000000Y-95196072D01*
X166980315Y-95263111D01*
X166927511Y-95308866D01*
X166876072Y-95320072D01*
X149914072Y-95329927D01*
X149847021Y-95310281D01*
X149801236Y-95257504D01*
X149790000Y-95205927D01*
X149790000Y-91396129D01*
X149790500Y-91393616D01*
X149790500Y-91206384D01*
X149790000Y-91203870D01*
X149790000Y-86623285D01*
X149809685Y-86556246D01*
X149862489Y-86510491D01*
X149913281Y-86499287D01*
X151520000Y-86490000D01*
X153495189Y-86482161D01*
X154040024Y-86480000D01*
X154953768Y-86474895D01*
X155829467Y-86470002D01*
X155830554Y-86470002D01*
X155864881Y-86470127D01*
X155892010Y-86473234D01*
X155921654Y-86480000D01*
X155941359Y-86484498D01*
X155941365Y-86484499D01*
X156991361Y-86484499D01*
X156991365Y-86484499D01*
X156996096Y-86483695D01*
X157065485Y-86491872D01*
X157119438Y-86536266D01*
X157140826Y-86602781D01*
X157140866Y-86605943D01*
X157140866Y-86734994D01*
X157140866Y-86734996D01*
X157140865Y-86734996D01*
X157167784Y-86870323D01*
X157167787Y-86870333D01*
X157220587Y-86997805D01*
X157220594Y-86997818D01*
X157245561Y-87035183D01*
X157266439Y-87101860D01*
X157247955Y-87169241D01*
X157230140Y-87191755D01*
X157030713Y-87391183D01*
X156969390Y-87424668D01*
X156943032Y-87427502D01*
X155629428Y-87427502D01*
X155550304Y-87427502D01*
X155512090Y-87437741D01*
X155473875Y-87447981D01*
X155473870Y-87447984D01*
X155405361Y-87487537D01*
X155405353Y-87487543D01*
X155349407Y-87543489D01*
X155349401Y-87543497D01*
X155309848Y-87612006D01*
X155309845Y-87612011D01*
X155289366Y-87688441D01*
X155289366Y-87985069D01*
X155280721Y-88014509D01*
X155274198Y-88044496D01*
X155270443Y-88049511D01*
X155269681Y-88052108D01*
X155253047Y-88072750D01*
X155177909Y-88147888D01*
X155116586Y-88181373D01*
X155046894Y-88176389D01*
X155033933Y-88170692D01*
X155033125Y-88170280D01*
X154933493Y-88154500D01*
X154933488Y-88154500D01*
X154366512Y-88154500D01*
X154366507Y-88154500D01*
X154266878Y-88170279D01*
X154146778Y-88231473D01*
X154146774Y-88231476D01*
X154051476Y-88326774D01*
X154051473Y-88326778D01*
X153990279Y-88446878D01*
X153974500Y-88546506D01*
X153974500Y-89063493D01*
X153990279Y-89163121D01*
X153990280Y-89163124D01*
X153990281Y-89163126D01*
X154051472Y-89283220D01*
X154051473Y-89283221D01*
X154051476Y-89283225D01*
X154146774Y-89378523D01*
X154146778Y-89378526D01*
X154146780Y-89378528D01*
X154266874Y-89439719D01*
X154266876Y-89439719D01*
X154266878Y-89439720D01*
X154366507Y-89455500D01*
X154825167Y-89455500D01*
X154846412Y-89461738D01*
X154868501Y-89463318D01*
X154879284Y-89471390D01*
X154892206Y-89475185D01*
X154906705Y-89491918D01*
X154924434Y-89505190D01*
X154929141Y-89517810D01*
X154937961Y-89527989D01*
X154941112Y-89549906D01*
X154948851Y-89570654D01*
X154945988Y-89583814D01*
X154947905Y-89597147D01*
X154938705Y-89617290D01*
X154933999Y-89638927D01*
X154920730Y-89656652D01*
X154918880Y-89660703D01*
X154912848Y-89667181D01*
X154911848Y-89668181D01*
X154850525Y-89701666D01*
X154824167Y-89704500D01*
X154366507Y-89704500D01*
X154266878Y-89720279D01*
X154146778Y-89781473D01*
X154146774Y-89781476D01*
X154051476Y-89876774D01*
X154051473Y-89876778D01*
X153990279Y-89996878D01*
X153974500Y-90096506D01*
X153974500Y-90613493D01*
X153990279Y-90713121D01*
X153990280Y-90713124D01*
X153990281Y-90713126D01*
X154045732Y-90821954D01*
X154051473Y-90833221D01*
X154051476Y-90833225D01*
X154146774Y-90928523D01*
X154146778Y-90928526D01*
X154146780Y-90928528D01*
X154266874Y-90989719D01*
X154266876Y-90989719D01*
X154266878Y-90989720D01*
X154366507Y-91005500D01*
X154366512Y-91005500D01*
X154933493Y-91005500D01*
X155033121Y-90989720D01*
X155033121Y-90989719D01*
X155033126Y-90989719D01*
X155153220Y-90928528D01*
X155248528Y-90833220D01*
X155309719Y-90713126D01*
X155312734Y-90694092D01*
X155325500Y-90613493D01*
X155325500Y-90155833D01*
X155345185Y-90088794D01*
X155361819Y-90068152D01*
X155462783Y-89967188D01*
X155588179Y-89841791D01*
X155649500Y-89808308D01*
X155719191Y-89813292D01*
X155763539Y-89841793D01*
X155796055Y-89874309D01*
X155852202Y-89914148D01*
X155889097Y-89922569D01*
X155942196Y-89934689D01*
X156003175Y-89968798D01*
X156036032Y-90030460D01*
X156036850Y-90034807D01*
X156047396Y-90096871D01*
X156060773Y-90118160D01*
X156084444Y-90155833D01*
X156096054Y-90174309D01*
X156146054Y-90224309D01*
X156195471Y-90259373D01*
X156238753Y-90314218D01*
X156245513Y-90383760D01*
X156213602Y-90445917D01*
X156153153Y-90480955D01*
X156123714Y-90484500D01*
X156106507Y-90484500D01*
X156006878Y-90500279D01*
X155886778Y-90561473D01*
X155886774Y-90561476D01*
X155791476Y-90656774D01*
X155791473Y-90656778D01*
X155730279Y-90776878D01*
X155714500Y-90876506D01*
X155714500Y-91443493D01*
X155730279Y-91543121D01*
X155730280Y-91543124D01*
X155730281Y-91543126D01*
X155747669Y-91577251D01*
X155791473Y-91663221D01*
X155791476Y-91663225D01*
X155886774Y-91758523D01*
X155886778Y-91758526D01*
X155886780Y-91758528D01*
X156006874Y-91819719D01*
X156006876Y-91819719D01*
X156006878Y-91819720D01*
X156106507Y-91835500D01*
X156106512Y-91835500D01*
X156623493Y-91835500D01*
X156723121Y-91819720D01*
X156723121Y-91819719D01*
X156723126Y-91819719D01*
X156843220Y-91758528D01*
X156938528Y-91663220D01*
X156999719Y-91543126D01*
X156999720Y-91543121D01*
X157015500Y-91443493D01*
X157015500Y-90985833D01*
X157024144Y-90956392D01*
X157030668Y-90926406D01*
X157034422Y-90921390D01*
X157035185Y-90918794D01*
X157051819Y-90898152D01*
X157052819Y-90897152D01*
X157114142Y-90863667D01*
X157183834Y-90868651D01*
X157239767Y-90910523D01*
X157264184Y-90975987D01*
X157264500Y-90984833D01*
X157264500Y-91443493D01*
X157280279Y-91543121D01*
X157280280Y-91543124D01*
X157280281Y-91543126D01*
X157297669Y-91577251D01*
X157341473Y-91663221D01*
X157341476Y-91663225D01*
X157436774Y-91758523D01*
X157436778Y-91758526D01*
X157436780Y-91758528D01*
X157556874Y-91819719D01*
X157556876Y-91819719D01*
X157556878Y-91819720D01*
X157656507Y-91835500D01*
X157656512Y-91835500D01*
X158173493Y-91835500D01*
X158273121Y-91819720D01*
X158273121Y-91819719D01*
X158273126Y-91819719D01*
X158393220Y-91758528D01*
X158488528Y-91663220D01*
X158549719Y-91543126D01*
X158549720Y-91543121D01*
X158565500Y-91443493D01*
X158565500Y-91118475D01*
X161724500Y-91118475D01*
X161724500Y-91731517D01*
X161735292Y-91799657D01*
X161739354Y-91825304D01*
X161796950Y-91938342D01*
X161796952Y-91938344D01*
X161796954Y-91938347D01*
X161886652Y-92028045D01*
X161886656Y-92028048D01*
X161886658Y-92028050D01*
X161981797Y-92076526D01*
X162032591Y-92124499D01*
X162049500Y-92187009D01*
X162049500Y-92871081D01*
X162029815Y-92938120D01*
X161977011Y-92983875D01*
X161972957Y-92985640D01*
X161971771Y-92986131D01*
X161905447Y-93030447D01*
X161861132Y-93096769D01*
X161861131Y-93096770D01*
X161849500Y-93155247D01*
X161849500Y-94194752D01*
X161861131Y-94253229D01*
X161861132Y-94253230D01*
X161905447Y-94319552D01*
X161971769Y-94363867D01*
X161971770Y-94363868D01*
X162030247Y-94375499D01*
X162030250Y-94375500D01*
X162030252Y-94375500D01*
X162669750Y-94375500D01*
X162669751Y-94375499D01*
X162684568Y-94372552D01*
X162728229Y-94363868D01*
X162728229Y-94363867D01*
X162728231Y-94363867D01*
X162794552Y-94319552D01*
X162838867Y-94253231D01*
X162838867Y-94253229D01*
X162838868Y-94253229D01*
X162850499Y-94194752D01*
X162850500Y-94194750D01*
X162850500Y-93155249D01*
X162850499Y-93155247D01*
X163749499Y-93155247D01*
X163749499Y-94194752D01*
X163761130Y-94253229D01*
X163761131Y-94253230D01*
X163805446Y-94319552D01*
X163871768Y-94363867D01*
X163871769Y-94363868D01*
X163930246Y-94375499D01*
X163930249Y-94375500D01*
X163930251Y-94375500D01*
X164569749Y-94375500D01*
X164569750Y-94375499D01*
X164584567Y-94372552D01*
X164628228Y-94363868D01*
X164628228Y-94363867D01*
X164628230Y-94363867D01*
X164694551Y-94319552D01*
X164738866Y-94253231D01*
X164738866Y-94253229D01*
X164738867Y-94253229D01*
X164750498Y-94194752D01*
X164750499Y-94194750D01*
X164750499Y-93155249D01*
X164750498Y-93155247D01*
X164738867Y-93096770D01*
X164738866Y-93096769D01*
X164694551Y-93030447D01*
X164628229Y-92986132D01*
X164628228Y-92986131D01*
X164569751Y-92974500D01*
X164569747Y-92974500D01*
X163930251Y-92974500D01*
X163930246Y-92974500D01*
X163871769Y-92986131D01*
X163871768Y-92986132D01*
X163805446Y-93030447D01*
X163761131Y-93096769D01*
X163761130Y-93096770D01*
X163749499Y-93155247D01*
X162850499Y-93155247D01*
X162838868Y-93096770D01*
X162838867Y-93096769D01*
X162794552Y-93030447D01*
X162728228Y-92986131D01*
X162727043Y-92985640D01*
X162724857Y-92983878D01*
X162718077Y-92979348D01*
X162718482Y-92978741D01*
X162672641Y-92941797D01*
X162650579Y-92875502D01*
X162650500Y-92871081D01*
X162650500Y-92161533D01*
X162670185Y-92094494D01*
X162718203Y-92051049D01*
X162763342Y-92028050D01*
X162853050Y-91938342D01*
X162910646Y-91825304D01*
X162910646Y-91825302D01*
X162910647Y-91825301D01*
X162925499Y-91731524D01*
X162925500Y-91731519D01*
X162925499Y-91118482D01*
X162910646Y-91024696D01*
X162853050Y-90911658D01*
X162853046Y-90911654D01*
X162853045Y-90911652D01*
X162763347Y-90821954D01*
X162763344Y-90821952D01*
X162763342Y-90821950D01*
X162674876Y-90776874D01*
X162650301Y-90764352D01*
X162556524Y-90749500D01*
X162093482Y-90749500D01*
X162012519Y-90762323D01*
X161999696Y-90764354D01*
X161886658Y-90821950D01*
X161886657Y-90821951D01*
X161886652Y-90821954D01*
X161796954Y-90911652D01*
X161796951Y-90911657D01*
X161796950Y-90911658D01*
X161785326Y-90934471D01*
X161739352Y-91024698D01*
X161724500Y-91118475D01*
X158565500Y-91118475D01*
X158565500Y-90876506D01*
X158549720Y-90776878D01*
X158549719Y-90776876D01*
X158549719Y-90776874D01*
X158504964Y-90689037D01*
X158501326Y-90669669D01*
X158492929Y-90651840D01*
X158495010Y-90636038D01*
X158492069Y-90620373D01*
X158499481Y-90602110D01*
X158502056Y-90582569D01*
X158515183Y-90563421D01*
X158518345Y-90555633D01*
X158520786Y-90552655D01*
X158524111Y-90548724D01*
X158581825Y-90491011D01*
X158595357Y-90467572D01*
X158621386Y-90422489D01*
X158633734Y-90376403D01*
X158670099Y-90316745D01*
X158732946Y-90286216D01*
X158753509Y-90284499D01*
X159391363Y-90284499D01*
X159391368Y-90284499D01*
X159459240Y-90272967D01*
X159536678Y-90224309D01*
X159586678Y-90174309D01*
X159626517Y-90118162D01*
X159646868Y-90028999D01*
X159646868Y-90028998D01*
X159647058Y-90028166D01*
X159681167Y-89967188D01*
X159742828Y-89934330D01*
X159747152Y-89933516D01*
X159809239Y-89922967D01*
X159886677Y-89874309D01*
X159936677Y-89824309D01*
X159976516Y-89768162D01*
X159996867Y-89678999D01*
X159996867Y-89579000D01*
X159985335Y-89511128D01*
X159976024Y-89496310D01*
X159957024Y-89429075D01*
X159977391Y-89362240D01*
X159977919Y-89361444D01*
X159980734Y-89357231D01*
X159992365Y-89298754D01*
X159992366Y-89298752D01*
X159992366Y-89009251D01*
X159992365Y-89009249D01*
X159978351Y-88938792D01*
X159979504Y-88938562D01*
X159973145Y-88884347D01*
X159976475Y-88863603D01*
X159980733Y-88857231D01*
X159992366Y-88798748D01*
X159992366Y-88764613D01*
X159993934Y-88754846D01*
X160004882Y-88731875D01*
X160012051Y-88707461D01*
X160019661Y-88700866D01*
X160023995Y-88691774D01*
X160045626Y-88678367D01*
X160064855Y-88661706D01*
X160076651Y-88659139D01*
X160083384Y-88654967D01*
X160094960Y-88655156D01*
X160116366Y-88650500D01*
X160190890Y-88650500D01*
X160190892Y-88650500D01*
X160318186Y-88616392D01*
X160432314Y-88550500D01*
X160525500Y-88457314D01*
X160591392Y-88343186D01*
X160625500Y-88215892D01*
X160625500Y-88084108D01*
X160591392Y-87956814D01*
X160587902Y-87950770D01*
X160582563Y-87941521D01*
X160525500Y-87842686D01*
X160432314Y-87749500D01*
X160375250Y-87716554D01*
X160318187Y-87683608D01*
X160254539Y-87666554D01*
X160190892Y-87649500D01*
X160059108Y-87649500D01*
X159931812Y-87683608D01*
X159817686Y-87749500D01*
X159817683Y-87749502D01*
X159775004Y-87792182D01*
X159713681Y-87825667D01*
X159687323Y-87828501D01*
X158947113Y-87828501D01*
X158888636Y-87840132D01*
X158888635Y-87840133D01*
X158822313Y-87884448D01*
X158777998Y-87950770D01*
X158777997Y-87950771D01*
X158766366Y-88009248D01*
X158766366Y-88124780D01*
X158746681Y-88191819D01*
X158693877Y-88237574D01*
X158624719Y-88247518D01*
X158580366Y-88232167D01*
X158503189Y-88187609D01*
X158503186Y-88187608D01*
X158375892Y-88153500D01*
X158340866Y-88153500D01*
X158273827Y-88133815D01*
X158228072Y-88081011D01*
X158216866Y-88029500D01*
X158216866Y-87323862D01*
X158236551Y-87256823D01*
X158271975Y-87220760D01*
X158287908Y-87210115D01*
X158385480Y-87112543D01*
X158462141Y-86997812D01*
X158514946Y-86870329D01*
X158541866Y-86734994D01*
X158541866Y-86605867D01*
X158561551Y-86538828D01*
X158614355Y-86493073D01*
X158683513Y-86483129D01*
X158690148Y-86484361D01*
X158691367Y-86484499D01*
X159741362Y-86484499D01*
X159741367Y-86484499D01*
X159750556Y-86482937D01*
X159757536Y-86481752D01*
X159778305Y-86480000D01*
X159979994Y-86480000D01*
X159980000Y-86480000D01*
X161708330Y-86440038D01*
X161711663Y-86440007D01*
X163959430Y-86449997D01*
G37*
%TD.AperFunction*%
%TD*%
M02*
