%TF.GenerationSoftware,KiCad,Pcbnew,9.0.6*%
%TF.CreationDate,2026-02-03T22:31:43-08:00*%
%TF.ProjectId,PowerBlock,506f7765-7242-46c6-9f63-6b2e6b696361,rev?*%
%TF.SameCoordinates,Original*%
%TF.FileFunction,Legend,Top*%
%TF.FilePolarity,Positive*%
%FSLAX46Y46*%
G04 Gerber Fmt 4.6, Leading zero omitted, Abs format (unit mm)*
G04 Created by KiCad (PCBNEW 9.0.6) date 2026-02-03 22:31:43*
%MOMM*%
%LPD*%
G01*
G04 APERTURE LIST*
%ADD10C,0.150000*%
%ADD11C,0.127000*%
%ADD12C,0.120000*%
%ADD13C,0.200000*%
%ADD14C,0.250000*%
%ADD15C,0.152400*%
G04 APERTURE END LIST*
D10*
X143272969Y-96514295D02*
X143806303Y-96514295D01*
X143806303Y-96514295D02*
X143463445Y-97314295D01*
X144111065Y-97238104D02*
X144149160Y-97276200D01*
X144149160Y-97276200D02*
X144111065Y-97314295D01*
X144111065Y-97314295D02*
X144072969Y-97276200D01*
X144072969Y-97276200D02*
X144111065Y-97238104D01*
X144111065Y-97238104D02*
X144111065Y-97314295D01*
X144834874Y-96780961D02*
X144834874Y-97314295D01*
X144644398Y-96476200D02*
X144453921Y-97047628D01*
X144453921Y-97047628D02*
X144949160Y-97047628D01*
X145139636Y-96514295D02*
X145406303Y-97314295D01*
X145406303Y-97314295D02*
X145672969Y-96514295D01*
X140228207Y-96552390D02*
X140152017Y-96514295D01*
X140152017Y-96514295D02*
X140037731Y-96514295D01*
X140037731Y-96514295D02*
X139923445Y-96552390D01*
X139923445Y-96552390D02*
X139847255Y-96628580D01*
X139847255Y-96628580D02*
X139809160Y-96704771D01*
X139809160Y-96704771D02*
X139771064Y-96857152D01*
X139771064Y-96857152D02*
X139771064Y-96971438D01*
X139771064Y-96971438D02*
X139809160Y-97123819D01*
X139809160Y-97123819D02*
X139847255Y-97200009D01*
X139847255Y-97200009D02*
X139923445Y-97276200D01*
X139923445Y-97276200D02*
X140037731Y-97314295D01*
X140037731Y-97314295D02*
X140113922Y-97314295D01*
X140113922Y-97314295D02*
X140228207Y-97276200D01*
X140228207Y-97276200D02*
X140266303Y-97238104D01*
X140266303Y-97238104D02*
X140266303Y-96971438D01*
X140266303Y-96971438D02*
X140113922Y-96971438D01*
X140609160Y-97314295D02*
X140609160Y-96514295D01*
X140609160Y-96514295D02*
X141066303Y-97314295D01*
X141066303Y-97314295D02*
X141066303Y-96514295D01*
X141447255Y-97314295D02*
X141447255Y-96514295D01*
X141447255Y-96514295D02*
X141637731Y-96514295D01*
X141637731Y-96514295D02*
X141752017Y-96552390D01*
X141752017Y-96552390D02*
X141828207Y-96628580D01*
X141828207Y-96628580D02*
X141866302Y-96704771D01*
X141866302Y-96704771D02*
X141904398Y-96857152D01*
X141904398Y-96857152D02*
X141904398Y-96971438D01*
X141904398Y-96971438D02*
X141866302Y-97123819D01*
X141866302Y-97123819D02*
X141828207Y-97200009D01*
X141828207Y-97200009D02*
X141752017Y-97276200D01*
X141752017Y-97276200D02*
X141637731Y-97314295D01*
X141637731Y-97314295D02*
X141447255Y-97314295D01*
X149210000Y-49170000D02*
X150860000Y-49170000D01*
X151460000Y-49170000D02*
X153110000Y-49170000D01*
X153710000Y-49170000D02*
X155360000Y-49170000D01*
X155960000Y-49170000D02*
X157610000Y-49170000D01*
X158210000Y-49170000D02*
X159860000Y-49170000D01*
X160460000Y-49170000D02*
X162110000Y-49170000D01*
X162710000Y-49170000D02*
X164360000Y-49170000D01*
X164960000Y-49170000D02*
X166000000Y-49170000D01*
X166000000Y-49170000D02*
X166000000Y-50820000D01*
X166000000Y-51420000D02*
X166000000Y-53070000D01*
X166000000Y-53670000D02*
X166000000Y-55320000D01*
X166000000Y-55920000D02*
X166000000Y-57570000D01*
X166000000Y-58170000D02*
X166000000Y-59820000D01*
X166000000Y-60420000D02*
X166000000Y-62070000D01*
X166000000Y-62670000D02*
X166000000Y-64320000D01*
X166000000Y-64920000D02*
X166000000Y-66570000D01*
X166000000Y-67170000D02*
X166000000Y-68820000D01*
X166000000Y-69160000D02*
X164350000Y-69160000D01*
X163750000Y-69160000D02*
X162100000Y-69160000D01*
X161500000Y-69160000D02*
X159850000Y-69160000D01*
X159250000Y-69160000D02*
X157600000Y-69160000D01*
X157000000Y-69160000D02*
X155350000Y-69160000D01*
X154750000Y-69160000D02*
X153100000Y-69160000D01*
X152500000Y-69160000D02*
X150850000Y-69160000D01*
X150250000Y-69160000D02*
X149210000Y-69160000D01*
X149210000Y-69160000D02*
X149210000Y-67510000D01*
X149210000Y-66910000D02*
X149210000Y-65260000D01*
X149210000Y-64660000D02*
X149210000Y-63010000D01*
X149210000Y-62410000D02*
X149210000Y-60760000D01*
X149210000Y-60160000D02*
X149210000Y-58510000D01*
X149210000Y-57910000D02*
X149210000Y-56260000D01*
X149210000Y-55660000D02*
X149210000Y-54010000D01*
X149210000Y-53410000D02*
X149210000Y-51760000D01*
X149210000Y-51160000D02*
X149210000Y-49510000D01*
X137765704Y-53652969D02*
X137765704Y-54148207D01*
X137765704Y-54148207D02*
X137460942Y-53881541D01*
X137460942Y-53881541D02*
X137460942Y-53995826D01*
X137460942Y-53995826D02*
X137422847Y-54072017D01*
X137422847Y-54072017D02*
X137384752Y-54110112D01*
X137384752Y-54110112D02*
X137308561Y-54148207D01*
X137308561Y-54148207D02*
X137118085Y-54148207D01*
X137118085Y-54148207D02*
X137041895Y-54110112D01*
X137041895Y-54110112D02*
X137003800Y-54072017D01*
X137003800Y-54072017D02*
X136965704Y-53995826D01*
X136965704Y-53995826D02*
X136965704Y-53767255D01*
X136965704Y-53767255D02*
X137003800Y-53691064D01*
X137003800Y-53691064D02*
X137041895Y-53652969D01*
X137041895Y-54491065D02*
X137003800Y-54529160D01*
X137003800Y-54529160D02*
X136965704Y-54491065D01*
X136965704Y-54491065D02*
X137003800Y-54452969D01*
X137003800Y-54452969D02*
X137041895Y-54491065D01*
X137041895Y-54491065D02*
X136965704Y-54491065D01*
X137765704Y-54795826D02*
X137765704Y-55291064D01*
X137765704Y-55291064D02*
X137460942Y-55024398D01*
X137460942Y-55024398D02*
X137460942Y-55138683D01*
X137460942Y-55138683D02*
X137422847Y-55214874D01*
X137422847Y-55214874D02*
X137384752Y-55252969D01*
X137384752Y-55252969D02*
X137308561Y-55291064D01*
X137308561Y-55291064D02*
X137118085Y-55291064D01*
X137118085Y-55291064D02*
X137041895Y-55252969D01*
X137041895Y-55252969D02*
X137003800Y-55214874D01*
X137003800Y-55214874D02*
X136965704Y-55138683D01*
X136965704Y-55138683D02*
X136965704Y-54910112D01*
X136965704Y-54910112D02*
X137003800Y-54833921D01*
X137003800Y-54833921D02*
X137041895Y-54795826D01*
X137765704Y-55519636D02*
X136965704Y-55786303D01*
X136965704Y-55786303D02*
X137765704Y-56052969D01*
X137270466Y-56929160D02*
X137270466Y-57538684D01*
X137765704Y-58910112D02*
X137765704Y-58529160D01*
X137765704Y-58529160D02*
X137384752Y-58491064D01*
X137384752Y-58491064D02*
X137422847Y-58529160D01*
X137422847Y-58529160D02*
X137460942Y-58605350D01*
X137460942Y-58605350D02*
X137460942Y-58795826D01*
X137460942Y-58795826D02*
X137422847Y-58872017D01*
X137422847Y-58872017D02*
X137384752Y-58910112D01*
X137384752Y-58910112D02*
X137308561Y-58948207D01*
X137308561Y-58948207D02*
X137118085Y-58948207D01*
X137118085Y-58948207D02*
X137041895Y-58910112D01*
X137041895Y-58910112D02*
X137003800Y-58872017D01*
X137003800Y-58872017D02*
X136965704Y-58795826D01*
X136965704Y-58795826D02*
X136965704Y-58605350D01*
X136965704Y-58605350D02*
X137003800Y-58529160D01*
X137003800Y-58529160D02*
X137041895Y-58491064D01*
X137765704Y-59443446D02*
X137765704Y-59519636D01*
X137765704Y-59519636D02*
X137727609Y-59595827D01*
X137727609Y-59595827D02*
X137689514Y-59633922D01*
X137689514Y-59633922D02*
X137613323Y-59672017D01*
X137613323Y-59672017D02*
X137460942Y-59710112D01*
X137460942Y-59710112D02*
X137270466Y-59710112D01*
X137270466Y-59710112D02*
X137118085Y-59672017D01*
X137118085Y-59672017D02*
X137041895Y-59633922D01*
X137041895Y-59633922D02*
X137003800Y-59595827D01*
X137003800Y-59595827D02*
X136965704Y-59519636D01*
X136965704Y-59519636D02*
X136965704Y-59443446D01*
X136965704Y-59443446D02*
X137003800Y-59367255D01*
X137003800Y-59367255D02*
X137041895Y-59329160D01*
X137041895Y-59329160D02*
X137118085Y-59291065D01*
X137118085Y-59291065D02*
X137270466Y-59252969D01*
X137270466Y-59252969D02*
X137460942Y-59252969D01*
X137460942Y-59252969D02*
X137613323Y-59291065D01*
X137613323Y-59291065D02*
X137689514Y-59329160D01*
X137689514Y-59329160D02*
X137727609Y-59367255D01*
X137727609Y-59367255D02*
X137765704Y-59443446D01*
X137765704Y-60205351D02*
X137765704Y-60281541D01*
X137765704Y-60281541D02*
X137727609Y-60357732D01*
X137727609Y-60357732D02*
X137689514Y-60395827D01*
X137689514Y-60395827D02*
X137613323Y-60433922D01*
X137613323Y-60433922D02*
X137460942Y-60472017D01*
X137460942Y-60472017D02*
X137270466Y-60472017D01*
X137270466Y-60472017D02*
X137118085Y-60433922D01*
X137118085Y-60433922D02*
X137041895Y-60395827D01*
X137041895Y-60395827D02*
X137003800Y-60357732D01*
X137003800Y-60357732D02*
X136965704Y-60281541D01*
X136965704Y-60281541D02*
X136965704Y-60205351D01*
X136965704Y-60205351D02*
X137003800Y-60129160D01*
X137003800Y-60129160D02*
X137041895Y-60091065D01*
X137041895Y-60091065D02*
X137118085Y-60052970D01*
X137118085Y-60052970D02*
X137270466Y-60014874D01*
X137270466Y-60014874D02*
X137460942Y-60014874D01*
X137460942Y-60014874D02*
X137613323Y-60052970D01*
X137613323Y-60052970D02*
X137689514Y-60091065D01*
X137689514Y-60091065D02*
X137727609Y-60129160D01*
X137727609Y-60129160D02*
X137765704Y-60205351D01*
X136965704Y-60814875D02*
X137499038Y-60814875D01*
X137422847Y-60814875D02*
X137460942Y-60852970D01*
X137460942Y-60852970D02*
X137499038Y-60929160D01*
X137499038Y-60929160D02*
X137499038Y-61043446D01*
X137499038Y-61043446D02*
X137460942Y-61119637D01*
X137460942Y-61119637D02*
X137384752Y-61157732D01*
X137384752Y-61157732D02*
X136965704Y-61157732D01*
X137384752Y-61157732D02*
X137460942Y-61195827D01*
X137460942Y-61195827D02*
X137499038Y-61272018D01*
X137499038Y-61272018D02*
X137499038Y-61386303D01*
X137499038Y-61386303D02*
X137460942Y-61462494D01*
X137460942Y-61462494D02*
X137384752Y-61500589D01*
X137384752Y-61500589D02*
X136965704Y-61500589D01*
X137194276Y-61843446D02*
X137194276Y-62224399D01*
X136965704Y-61767256D02*
X137765704Y-62033923D01*
X137765704Y-62033923D02*
X136965704Y-62300589D01*
X136965704Y-63176780D02*
X137499038Y-63176780D01*
X137422847Y-63176780D02*
X137460942Y-63214875D01*
X137460942Y-63214875D02*
X137499038Y-63291065D01*
X137499038Y-63291065D02*
X137499038Y-63405351D01*
X137499038Y-63405351D02*
X137460942Y-63481542D01*
X137460942Y-63481542D02*
X137384752Y-63519637D01*
X137384752Y-63519637D02*
X136965704Y-63519637D01*
X137384752Y-63519637D02*
X137460942Y-63557732D01*
X137460942Y-63557732D02*
X137499038Y-63633923D01*
X137499038Y-63633923D02*
X137499038Y-63748208D01*
X137499038Y-63748208D02*
X137460942Y-63824399D01*
X137460942Y-63824399D02*
X137384752Y-63862494D01*
X137384752Y-63862494D02*
X136965704Y-63862494D01*
X136965704Y-64586304D02*
X137384752Y-64586304D01*
X137384752Y-64586304D02*
X137460942Y-64548209D01*
X137460942Y-64548209D02*
X137499038Y-64472018D01*
X137499038Y-64472018D02*
X137499038Y-64319637D01*
X137499038Y-64319637D02*
X137460942Y-64243447D01*
X137003800Y-64586304D02*
X136965704Y-64510113D01*
X136965704Y-64510113D02*
X136965704Y-64319637D01*
X136965704Y-64319637D02*
X137003800Y-64243447D01*
X137003800Y-64243447D02*
X137079990Y-64205351D01*
X137079990Y-64205351D02*
X137156180Y-64205351D01*
X137156180Y-64205351D02*
X137232371Y-64243447D01*
X137232371Y-64243447D02*
X137270466Y-64319637D01*
X137270466Y-64319637D02*
X137270466Y-64510113D01*
X137270466Y-64510113D02*
X137308561Y-64586304D01*
X136965704Y-64891066D02*
X137499038Y-65310114D01*
X137499038Y-64891066D02*
X136965704Y-65310114D01*
X166584295Y-62779887D02*
X166584295Y-63160839D01*
X166584295Y-63160839D02*
X166965247Y-63198935D01*
X166965247Y-63198935D02*
X166927152Y-63160839D01*
X166927152Y-63160839D02*
X166889057Y-63084649D01*
X166889057Y-63084649D02*
X166889057Y-62894173D01*
X166889057Y-62894173D02*
X166927152Y-62817982D01*
X166927152Y-62817982D02*
X166965247Y-62779887D01*
X166965247Y-62779887D02*
X167041438Y-62741792D01*
X167041438Y-62741792D02*
X167231914Y-62741792D01*
X167231914Y-62741792D02*
X167308104Y-62779887D01*
X167308104Y-62779887D02*
X167346200Y-62817982D01*
X167346200Y-62817982D02*
X167384295Y-62894173D01*
X167384295Y-62894173D02*
X167384295Y-63084649D01*
X167384295Y-63084649D02*
X167346200Y-63160839D01*
X167346200Y-63160839D02*
X167308104Y-63198935D01*
X166584295Y-62513220D02*
X167384295Y-62246553D01*
X167384295Y-62246553D02*
X166584295Y-61979887D01*
X167079533Y-61103696D02*
X167079533Y-60494173D01*
X166584295Y-59122744D02*
X166584295Y-59503696D01*
X166584295Y-59503696D02*
X166965247Y-59541792D01*
X166965247Y-59541792D02*
X166927152Y-59503696D01*
X166927152Y-59503696D02*
X166889057Y-59427506D01*
X166889057Y-59427506D02*
X166889057Y-59237030D01*
X166889057Y-59237030D02*
X166927152Y-59160839D01*
X166927152Y-59160839D02*
X166965247Y-59122744D01*
X166965247Y-59122744D02*
X167041438Y-59084649D01*
X167041438Y-59084649D02*
X167231914Y-59084649D01*
X167231914Y-59084649D02*
X167308104Y-59122744D01*
X167308104Y-59122744D02*
X167346200Y-59160839D01*
X167346200Y-59160839D02*
X167384295Y-59237030D01*
X167384295Y-59237030D02*
X167384295Y-59427506D01*
X167384295Y-59427506D02*
X167346200Y-59503696D01*
X167346200Y-59503696D02*
X167308104Y-59541792D01*
X167155723Y-58779887D02*
X167155723Y-58398934D01*
X167384295Y-58856077D02*
X166584295Y-58589410D01*
X166584295Y-58589410D02*
X167384295Y-58322744D01*
X167384295Y-57446553D02*
X166850961Y-57446553D01*
X166927152Y-57446553D02*
X166889057Y-57408458D01*
X166889057Y-57408458D02*
X166850961Y-57332268D01*
X166850961Y-57332268D02*
X166850961Y-57217982D01*
X166850961Y-57217982D02*
X166889057Y-57141791D01*
X166889057Y-57141791D02*
X166965247Y-57103696D01*
X166965247Y-57103696D02*
X167384295Y-57103696D01*
X166965247Y-57103696D02*
X166889057Y-57065601D01*
X166889057Y-57065601D02*
X166850961Y-56989410D01*
X166850961Y-56989410D02*
X166850961Y-56875125D01*
X166850961Y-56875125D02*
X166889057Y-56798934D01*
X166889057Y-56798934D02*
X166965247Y-56760839D01*
X166965247Y-56760839D02*
X167384295Y-56760839D01*
X167384295Y-56037029D02*
X166965247Y-56037029D01*
X166965247Y-56037029D02*
X166889057Y-56075124D01*
X166889057Y-56075124D02*
X166850961Y-56151315D01*
X166850961Y-56151315D02*
X166850961Y-56303696D01*
X166850961Y-56303696D02*
X166889057Y-56379886D01*
X167346200Y-56037029D02*
X167384295Y-56113220D01*
X167384295Y-56113220D02*
X167384295Y-56303696D01*
X167384295Y-56303696D02*
X167346200Y-56379886D01*
X167346200Y-56379886D02*
X167270009Y-56417982D01*
X167270009Y-56417982D02*
X167193819Y-56417982D01*
X167193819Y-56417982D02*
X167117628Y-56379886D01*
X167117628Y-56379886D02*
X167079533Y-56303696D01*
X167079533Y-56303696D02*
X167079533Y-56113220D01*
X167079533Y-56113220D02*
X167041438Y-56037029D01*
X167384295Y-55732267D02*
X166850961Y-55313219D01*
X166850961Y-55732267D02*
X167384295Y-55313219D01*
X138290000Y-49140000D02*
X139940000Y-49140000D01*
X140540000Y-49140000D02*
X142190000Y-49140000D01*
X142790000Y-49140000D02*
X144440000Y-49140000D01*
X145040000Y-49140000D02*
X146640000Y-49140000D01*
X146640000Y-49140000D02*
X146640000Y-50790000D01*
X146640000Y-51390000D02*
X146640000Y-53040000D01*
X146640000Y-53640000D02*
X146640000Y-55290000D01*
X146640000Y-55890000D02*
X146640000Y-57540000D01*
X146640000Y-58140000D02*
X146640000Y-59790000D01*
X146640000Y-60390000D02*
X146640000Y-62040000D01*
X146640000Y-62640000D02*
X146640000Y-64290000D01*
X146640000Y-64890000D02*
X146640000Y-66540000D01*
X146640000Y-67140000D02*
X146640000Y-68790000D01*
X146640000Y-69020000D02*
X144990000Y-69020000D01*
X144390000Y-69020000D02*
X142740000Y-69020000D01*
X142140000Y-69020000D02*
X140490000Y-69020000D01*
X139890000Y-69020000D02*
X138290000Y-69020000D01*
X138290000Y-69020000D02*
X138290000Y-67370000D01*
X138290000Y-66770000D02*
X138290000Y-65120000D01*
X138290000Y-64520000D02*
X138290000Y-62870000D01*
X138290000Y-62270000D02*
X138290000Y-60620000D01*
X138290000Y-60020000D02*
X138290000Y-58370000D01*
X138290000Y-57770000D02*
X138290000Y-56120000D01*
X138290000Y-55520000D02*
X138290000Y-53870000D01*
X138290000Y-53270000D02*
X138290000Y-51620000D01*
X138290000Y-51020000D02*
X138290000Y-49370000D01*
D11*
%TO.C,J10*%
X165450000Y-49600000D02*
X165450000Y-55350000D01*
X165450000Y-55350000D02*
X158050000Y-55350000D01*
X158050000Y-55350000D02*
X158050000Y-49600000D01*
X158050000Y-49600000D02*
X165450000Y-49600000D01*
%TO.C,J9*%
X149694733Y-62839073D02*
X157094733Y-62839073D01*
X149694733Y-68589073D02*
X149694733Y-62839073D01*
X157094733Y-68589073D02*
X149694733Y-68589073D01*
X157094733Y-62839073D02*
X157094733Y-68589073D01*
%TO.C,J5*%
X165470000Y-56204000D02*
X165470000Y-61954000D01*
X165470000Y-61954000D02*
X158070000Y-61954000D01*
X158070000Y-61954000D02*
X158070000Y-56204000D01*
X158070000Y-56204000D02*
X165470000Y-56204000D01*
%TO.C,J6*%
X149650000Y-56250000D02*
X157050000Y-56250000D01*
X149650000Y-62000000D02*
X149650000Y-56250000D01*
X157050000Y-62000000D02*
X149650000Y-62000000D01*
X157050000Y-56250000D02*
X157050000Y-62000000D01*
%TO.C,J8*%
X158030000Y-62808000D02*
X165430000Y-62808000D01*
X158030000Y-68558000D02*
X158030000Y-62808000D01*
X165430000Y-68558000D02*
X158030000Y-68558000D01*
X165430000Y-62808000D02*
X165430000Y-68558000D01*
%TO.C,J7*%
X149694733Y-49631073D02*
X157094733Y-49631073D01*
X149694733Y-55381073D02*
X149694733Y-49631073D01*
X157094733Y-55381073D02*
X149694733Y-55381073D01*
X157094733Y-49631073D02*
X157094733Y-55381073D01*
%TO.C,J2*%
X138774000Y-49686000D02*
X146174000Y-49686000D01*
X138774000Y-55436000D02*
X138774000Y-49686000D01*
X146174000Y-55436000D02*
X138774000Y-55436000D01*
X146174000Y-49686000D02*
X146174000Y-55436000D01*
%TO.C,J3*%
X138814000Y-56290000D02*
X146214000Y-56290000D01*
X138814000Y-62040000D02*
X138814000Y-56290000D01*
X146214000Y-62040000D02*
X138814000Y-62040000D01*
X146214000Y-56290000D02*
X146214000Y-62040000D01*
%TO.C,J4*%
X138774000Y-62894000D02*
X146174000Y-62894000D01*
X138774000Y-68644000D02*
X138774000Y-62894000D01*
X146174000Y-68644000D02*
X138774000Y-68644000D01*
X146174000Y-62894000D02*
X146174000Y-68644000D01*
D12*
%TO.C,CIN1*%
X152210000Y-86278748D02*
X152210000Y-87701252D01*
X150390000Y-86278748D02*
X150390000Y-87701252D01*
D13*
%TO.C,J1*%
X138480000Y-91275000D02*
G75*
G02*
X138280000Y-91275000I-100000J0D01*
G01*
X138280000Y-91275000D02*
G75*
G02*
X138480000Y-91275000I100000J0D01*
G01*
D11*
X140150000Y-87275000D02*
X140150000Y-89275000D01*
X145610000Y-89275000D02*
X145610000Y-87275000D01*
X145610000Y-87275000D02*
X140150000Y-87275000D01*
X138950000Y-89275000D02*
X138950000Y-95775000D01*
X138950000Y-95775000D02*
X146810000Y-95775000D01*
X146810000Y-95775000D02*
X146810000Y-89275000D01*
X146810000Y-89275000D02*
X145610000Y-89275000D01*
X140150000Y-89275000D02*
X138950000Y-89275000D01*
%TO.C,F1*%
X150750000Y-92090000D02*
X149870000Y-92090000D01*
X149870000Y-90510000D02*
X150750000Y-90510000D01*
D12*
%TO.C,R5*%
X162912742Y-91947500D02*
X163387258Y-91947500D01*
X162912742Y-90902500D02*
X163387258Y-90902500D01*
%TO.C,R2*%
X163662257Y-98547500D02*
X163187741Y-98547500D01*
X163662257Y-97502500D02*
X163187741Y-97502500D01*
%TO.C,R4*%
X161072500Y-95287742D02*
X161072500Y-95762258D01*
X160027500Y-95287742D02*
X160027500Y-95762258D01*
%TO.C,R1*%
X165602499Y-95837258D02*
X165602499Y-95362742D01*
X166647499Y-95837258D02*
X166647499Y-95362742D01*
%TO.C,R3*%
X159837741Y-98522500D02*
X160312257Y-98522500D01*
X159837741Y-97477500D02*
X160312257Y-97477500D01*
D13*
%TO.C,U2*%
X161775000Y-96799998D02*
X161775000Y-94500000D01*
X164824001Y-95750000D02*
X164824001Y-94349998D01*
D12*
%TO.C,CIN2*%
X163789802Y-86239044D02*
X163789802Y-87661548D01*
X165609802Y-86239044D02*
X165609802Y-87661548D01*
%TO.C,C5*%
X144619420Y-70850000D02*
X144900580Y-70850000D01*
X144619420Y-69830000D02*
X144900580Y-69830000D01*
%TO.C,C2*%
X148230000Y-54010580D02*
X148230000Y-53729420D01*
X147210000Y-54010580D02*
X147210000Y-53729420D01*
%TO.C,C4*%
X148170000Y-66919420D02*
X148170000Y-67200580D01*
X147150000Y-66919420D02*
X147150000Y-67200580D01*
%TO.C,C3*%
X147180000Y-60560580D02*
X147180000Y-60279420D01*
X148200000Y-60560580D02*
X148200000Y-60279420D01*
%TO.C,RFB_PGT1*%
X142362258Y-82777500D02*
X141887742Y-82777500D01*
X142362258Y-83822500D02*
X141887742Y-83822500D01*
%TO.C,CIN4*%
X139686252Y-76765000D02*
X138263748Y-76765000D01*
X139686252Y-78585000D02*
X138263748Y-78585000D01*
D14*
%TO.C,U5*%
X139700002Y-79649999D02*
G75*
G02*
X139450000Y-79649999I-125001J0D01*
G01*
X139450000Y-79649999D02*
G75*
G02*
X139700002Y-79649999I125001J0D01*
G01*
D10*
X140300001Y-79100001D02*
X140650000Y-79100001D01*
X143050000Y-79100001D02*
X143399999Y-79100001D01*
X140300001Y-82199999D02*
X140650000Y-82199999D01*
X143050000Y-82199999D02*
X143399999Y-82199999D01*
D12*
%TO.C,COUT4*%
X143963748Y-76715000D02*
X145386252Y-76715000D01*
X143963748Y-78535000D02*
X145386252Y-78535000D01*
%TO.C,RFB_PGB1*%
X139912500Y-81732742D02*
X139912500Y-82207258D01*
X138867500Y-81732742D02*
X138867500Y-82207258D01*
%TO.C,C1*%
X141845580Y-69830000D02*
X141564420Y-69830000D01*
X141845580Y-70850000D02*
X141564420Y-70850000D01*
%TO.C,RNRSS1*%
X148232500Y-81757742D02*
X148232500Y-82232258D01*
X147187500Y-81757742D02*
X147187500Y-82232258D01*
D11*
%TO.C,FL1*%
X141886500Y-75610000D02*
X141886500Y-72410000D01*
X144513500Y-72410000D02*
X144513500Y-75610000D01*
D12*
%TO.C,CNRSS1*%
X146530000Y-81923748D02*
X146530000Y-83346252D01*
X144710000Y-81923748D02*
X144710000Y-83346252D01*
D15*
%TO.C,L1*%
X154645360Y-70840600D02*
X151358600Y-70840600D01*
X160822640Y-83591400D02*
X164109400Y-83591400D01*
X151358600Y-83591400D02*
X154645360Y-83591400D01*
X151358600Y-70840600D02*
X151358600Y-83591400D01*
X164109400Y-70840600D02*
X160822640Y-70840600D01*
X164109400Y-83591400D02*
X164109400Y-70840600D01*
D12*
%TO.C,CHF2A1*%
X154474316Y-86020460D02*
X154474316Y-86301620D01*
X155494316Y-86020460D02*
X155494316Y-86301620D01*
%TO.C,COUT53*%
X164826733Y-74229325D02*
X164826733Y-72806821D01*
X166646733Y-74229325D02*
X166646733Y-72806821D01*
%TO.C,COUT52*%
X150646733Y-77806821D02*
X150646733Y-79229325D01*
X148826733Y-77806821D02*
X148826733Y-79229325D01*
%TO.C,CVCC1*%
X156999420Y-91670000D02*
X157280580Y-91670000D01*
X156999420Y-90650000D02*
X157280580Y-90650000D01*
%TO.C,CHF2B1*%
X163139366Y-86013420D02*
X163139366Y-86294580D01*
X162119366Y-86013420D02*
X162119366Y-86294580D01*
%TO.C,CHF1B1*%
X160369366Y-86294580D02*
X160369366Y-86013420D01*
X161389366Y-86294580D02*
X161389366Y-86013420D01*
%TO.C,CHF1A1*%
X152850000Y-86320580D02*
X152850000Y-86039420D01*
X153870000Y-86320580D02*
X153870000Y-86039420D01*
%TO.C,CBOOT1*%
X155160000Y-89439420D02*
X155160000Y-89720580D01*
X154140000Y-89439420D02*
X154140000Y-89720580D01*
%TO.C,COUT51*%
X148826733Y-74229325D02*
X148826733Y-72806821D01*
X150646733Y-74229325D02*
X150646733Y-72806821D01*
%TO.C,COUT54*%
X166646733Y-77806821D02*
X166646733Y-79229325D01*
X164826733Y-77806821D02*
X164826733Y-79229325D01*
%TD*%
M02*
