%TF.GenerationSoftware,KiCad,Pcbnew,9.0.6*%
%TF.CreationDate,2026-02-03T22:31:45-08:00*%
%TF.ProjectId,PowerBlock,506f7765-7242-46c6-9f63-6b2e6b696361,rev?*%
%TF.SameCoordinates,Original*%
%TF.FileFunction,Drillmap*%
%TF.FilePolarity,Positive*%
%FSLAX45Y45*%
G04 Gerber Fmt 4.5, Leading zero omitted, Abs format (unit mm)*
G04 Created by KiCad (PCBNEW 9.0.6) date 2026-02-03 22:31:45*
%MOMM*%
%LPD*%
G01*
G04 APERTURE LIST*
%ADD10C,0.050000*%
%ADD11C,0.200000*%
%ADD12C,0.100000*%
%ADD13C,0.105000*%
%ADD14C,0.175000*%
G04 APERTURE END LIST*
D10*
X13582600Y-4825100D02*
X16854000Y-4825100D01*
X16854000Y-9978500D01*
X13582600Y-9978500D01*
X13582600Y-4825100D01*
D11*
D12*
X13735000Y-7752500D02*
X13765000Y-7782500D01*
X13765000Y-7752500D02*
X13735000Y-7782500D01*
X13924000Y-8099500D02*
X13954000Y-8129500D01*
X13954000Y-8099500D02*
X13924000Y-8129500D01*
X14030000Y-7752500D02*
X14060000Y-7782500D01*
X14060000Y-7752500D02*
X14030000Y-7782500D01*
X14078000Y-7019000D02*
X14108000Y-7049000D01*
X14108000Y-7019000D02*
X14078000Y-7049000D01*
X14280000Y-8315000D02*
X14310000Y-8345000D01*
X14310000Y-8315000D02*
X14280000Y-8345000D01*
X14365000Y-8160000D02*
X14395000Y-8190000D01*
X14395000Y-8160000D02*
X14365000Y-8190000D01*
X14425000Y-7950000D02*
X14455000Y-7980000D01*
X14455000Y-7950000D02*
X14425000Y-7980000D01*
X14522500Y-8395000D02*
X14552500Y-8425000D01*
X14552500Y-8395000D02*
X14522500Y-8425000D01*
X14538500Y-7019000D02*
X14568500Y-7049000D01*
X14568500Y-7019000D02*
X14538500Y-7049000D01*
X14600000Y-7747500D02*
X14630000Y-7777500D01*
X14630000Y-7747500D02*
X14600000Y-7777500D01*
X14750000Y-7622500D02*
X14780000Y-7652500D01*
X14780000Y-7622500D02*
X14750000Y-7652500D01*
X14751000Y-6768500D02*
X14781000Y-6798500D01*
X14781000Y-6768500D02*
X14751000Y-6798500D01*
X14754000Y-6109000D02*
X14784000Y-6139000D01*
X14784000Y-6109000D02*
X14754000Y-6139000D01*
X14756000Y-8269500D02*
X14786000Y-8299500D01*
X14786000Y-8269500D02*
X14756000Y-8299500D01*
X14757000Y-5449500D02*
X14787000Y-5479500D01*
X14787000Y-5449500D02*
X14757000Y-5479500D01*
X14958673Y-7189307D02*
X14988673Y-7219307D01*
X14988673Y-7189307D02*
X14958673Y-7219307D01*
X14958673Y-7689307D02*
X14988673Y-7719307D01*
X14988673Y-7689307D02*
X14958673Y-7719307D01*
X14958673Y-7984307D02*
X14988673Y-8014307D01*
X14988673Y-7984307D02*
X14958673Y-8014307D01*
X15115000Y-8536500D02*
X15145000Y-8566500D01*
X15145000Y-8536500D02*
X15115000Y-8566500D01*
X15316504Y-8522127D02*
X15346504Y-8552127D01*
X15346504Y-8522127D02*
X15316504Y-8552127D01*
X15483432Y-8523604D02*
X15513432Y-8553604D01*
X15513432Y-8523604D02*
X15483432Y-8553604D01*
X15631636Y-8557900D02*
X15661636Y-8587900D01*
X15661636Y-8557900D02*
X15631636Y-8587900D01*
X15720638Y-8853986D02*
X15750638Y-8883986D01*
X15750638Y-8853986D02*
X15720638Y-8883986D01*
X15776500Y-9101000D02*
X15806500Y-9131000D01*
X15806500Y-9101000D02*
X15776500Y-9131000D01*
X15816000Y-8850400D02*
X15846000Y-8880400D01*
X15846000Y-8850400D02*
X15816000Y-8880400D01*
X15906637Y-8557900D02*
X15936637Y-8587900D01*
X15936637Y-8557900D02*
X15906637Y-8587900D01*
X15910000Y-9785000D02*
X15940000Y-9815000D01*
X15940000Y-9785000D02*
X15910000Y-9815000D01*
X15997500Y-8800000D02*
X16027500Y-8830000D01*
X16027500Y-8800000D02*
X15997500Y-8830000D01*
X16072937Y-8522900D02*
X16102937Y-8552900D01*
X16102937Y-8522900D02*
X16072937Y-8552900D01*
X16160569Y-9787500D02*
X16190569Y-9817500D01*
X16190569Y-9787500D02*
X16160569Y-9817500D01*
X16220000Y-9352500D02*
X16250000Y-9382500D01*
X16250000Y-9352500D02*
X16220000Y-9382500D01*
X16220000Y-9627500D02*
X16250000Y-9657500D01*
X16250000Y-9627500D02*
X16220000Y-9657500D01*
X16247937Y-8522900D02*
X16277937Y-8552900D01*
X16277937Y-8522900D02*
X16247937Y-8552900D01*
X16315000Y-9627500D02*
X16345000Y-9657500D01*
X16345000Y-9627500D02*
X16315000Y-9657500D01*
X16410000Y-9352500D02*
X16440000Y-9382500D01*
X16440000Y-9352500D02*
X16410000Y-9382500D01*
X16454980Y-8532530D02*
X16484980Y-8562530D01*
X16484980Y-8532530D02*
X16454980Y-8562530D01*
X16558673Y-7189307D02*
X16588673Y-7219307D01*
X16588673Y-7189307D02*
X16558673Y-7219307D01*
X16558673Y-7984307D02*
X16588673Y-8014307D01*
X16588673Y-7984307D02*
X16558673Y-8014307D01*
X14149200Y-8065000D02*
G75*
G02*
X14119200Y-8065000I-15000J0D01*
G01*
X14119200Y-8065000D02*
G75*
G02*
X14149200Y-8065000I15000J0D01*
G01*
X14200000Y-7976100D02*
G75*
G02*
X14170000Y-7976100I-15000J0D01*
G01*
X14170000Y-7976100D02*
G75*
G02*
X14200000Y-7976100I15000J0D01*
G01*
X14200000Y-8151360D02*
G75*
G02*
X14170000Y-8151360I-15000J0D01*
G01*
X14170000Y-8151360D02*
G75*
G02*
X14200000Y-8151360I15000J0D01*
G01*
X14250800Y-8065000D02*
G75*
G02*
X14220800Y-8065000I-15000J0D01*
G01*
X14220800Y-8065000D02*
G75*
G02*
X14250800Y-8065000I15000J0D01*
G01*
D13*
X14122400Y-5256100D02*
X14122400Y-5361100D01*
X14069900Y-5308600D02*
X14174900Y-5308600D01*
X14122400Y-6576900D02*
X14122400Y-6681900D01*
X14069900Y-6629400D02*
X14174900Y-6629400D01*
X14126400Y-5916500D02*
X14126400Y-6021500D01*
X14073900Y-5969000D02*
X14178900Y-5969000D01*
X14372400Y-5256100D02*
X14372400Y-5361100D01*
X14319900Y-5308600D02*
X14424900Y-5308600D01*
X14372400Y-6576900D02*
X14372400Y-6681900D01*
X14319900Y-6629400D02*
X14424900Y-6629400D01*
X14376400Y-5916500D02*
X14376400Y-6021500D01*
X14323900Y-5969000D02*
X14428900Y-5969000D01*
X15210000Y-5912500D02*
X15210000Y-6017500D01*
X15157500Y-5965000D02*
X15262500Y-5965000D01*
X15214473Y-5250607D02*
X15214473Y-5355607D01*
X15161973Y-5303107D02*
X15266973Y-5303107D01*
X15214473Y-6571407D02*
X15214473Y-6676407D01*
X15161973Y-6623907D02*
X15266973Y-6623907D01*
X15460000Y-5912500D02*
X15460000Y-6017500D01*
X15407500Y-5965000D02*
X15512500Y-5965000D01*
X15464473Y-5250607D02*
X15464473Y-5355607D01*
X15411973Y-5303107D02*
X15516973Y-5303107D01*
X15464473Y-6571407D02*
X15464473Y-6676407D01*
X15411973Y-6623907D02*
X15516973Y-6623907D01*
X16048000Y-6568300D02*
X16048000Y-6673300D01*
X15995500Y-6620800D02*
X16100500Y-6620800D01*
X16050000Y-5247500D02*
X16050000Y-5352500D01*
X15997500Y-5300000D02*
X16102500Y-5300000D01*
X16052000Y-5907900D02*
X16052000Y-6012900D01*
X15999500Y-5960400D02*
X16104500Y-5960400D01*
X16298000Y-6568300D02*
X16298000Y-6673300D01*
X16245500Y-6620800D02*
X16350500Y-6620800D01*
X16300000Y-5247500D02*
X16300000Y-5352500D01*
X16247500Y-5300000D02*
X16352500Y-5300000D01*
X16302000Y-5907900D02*
X16302000Y-6012900D01*
X16249500Y-5960400D02*
X16354500Y-5960400D01*
D14*
X14151872Y-9189372D02*
X14151872Y-9065628D01*
X14028128Y-9065628D01*
X14028128Y-9189372D01*
X14151872Y-9189372D01*
X14547872Y-9189372D02*
X14547872Y-9065628D01*
X14424128Y-9065628D01*
X14424128Y-9189372D01*
X14547872Y-9189372D01*
D11*
X13840877Y-10292484D02*
X13840877Y-10092484D01*
X13840877Y-10092484D02*
X13888496Y-10092484D01*
X13888496Y-10092484D02*
X13917067Y-10102008D01*
X13917067Y-10102008D02*
X13936115Y-10121055D01*
X13936115Y-10121055D02*
X13945639Y-10140103D01*
X13945639Y-10140103D02*
X13955162Y-10178198D01*
X13955162Y-10178198D02*
X13955162Y-10206770D01*
X13955162Y-10206770D02*
X13945639Y-10244865D01*
X13945639Y-10244865D02*
X13936115Y-10263912D01*
X13936115Y-10263912D02*
X13917067Y-10282960D01*
X13917067Y-10282960D02*
X13888496Y-10292484D01*
X13888496Y-10292484D02*
X13840877Y-10292484D01*
X14040877Y-10292484D02*
X14040877Y-10159150D01*
X14040877Y-10197246D02*
X14050401Y-10178198D01*
X14050401Y-10178198D02*
X14059924Y-10168674D01*
X14059924Y-10168674D02*
X14078972Y-10159150D01*
X14078972Y-10159150D02*
X14098020Y-10159150D01*
X14164686Y-10292484D02*
X14164686Y-10159150D01*
X14164686Y-10092484D02*
X14155162Y-10102008D01*
X14155162Y-10102008D02*
X14164686Y-10111531D01*
X14164686Y-10111531D02*
X14174210Y-10102008D01*
X14174210Y-10102008D02*
X14164686Y-10092484D01*
X14164686Y-10092484D02*
X14164686Y-10111531D01*
X14288496Y-10292484D02*
X14269448Y-10282960D01*
X14269448Y-10282960D02*
X14259924Y-10263912D01*
X14259924Y-10263912D02*
X14259924Y-10092484D01*
X14393258Y-10292484D02*
X14374210Y-10282960D01*
X14374210Y-10282960D02*
X14364686Y-10263912D01*
X14364686Y-10263912D02*
X14364686Y-10092484D01*
X14621829Y-10292484D02*
X14621829Y-10092484D01*
X14621829Y-10092484D02*
X14688496Y-10235341D01*
X14688496Y-10235341D02*
X14755162Y-10092484D01*
X14755162Y-10092484D02*
X14755162Y-10292484D01*
X14936115Y-10292484D02*
X14936115Y-10187722D01*
X14936115Y-10187722D02*
X14926591Y-10168674D01*
X14926591Y-10168674D02*
X14907543Y-10159150D01*
X14907543Y-10159150D02*
X14869448Y-10159150D01*
X14869448Y-10159150D02*
X14850401Y-10168674D01*
X14936115Y-10282960D02*
X14917067Y-10292484D01*
X14917067Y-10292484D02*
X14869448Y-10292484D01*
X14869448Y-10292484D02*
X14850401Y-10282960D01*
X14850401Y-10282960D02*
X14840877Y-10263912D01*
X14840877Y-10263912D02*
X14840877Y-10244865D01*
X14840877Y-10244865D02*
X14850401Y-10225817D01*
X14850401Y-10225817D02*
X14869448Y-10216293D01*
X14869448Y-10216293D02*
X14917067Y-10216293D01*
X14917067Y-10216293D02*
X14936115Y-10206770D01*
X15031353Y-10159150D02*
X15031353Y-10359150D01*
X15031353Y-10168674D02*
X15050401Y-10159150D01*
X15050401Y-10159150D02*
X15088496Y-10159150D01*
X15088496Y-10159150D02*
X15107543Y-10168674D01*
X15107543Y-10168674D02*
X15117067Y-10178198D01*
X15117067Y-10178198D02*
X15126591Y-10197246D01*
X15126591Y-10197246D02*
X15126591Y-10254389D01*
X15126591Y-10254389D02*
X15117067Y-10273436D01*
X15117067Y-10273436D02*
X15107543Y-10282960D01*
X15107543Y-10282960D02*
X15088496Y-10292484D01*
X15088496Y-10292484D02*
X15050401Y-10292484D01*
X15050401Y-10292484D02*
X15031353Y-10282960D01*
X15212305Y-10273436D02*
X15221829Y-10282960D01*
X15221829Y-10282960D02*
X15212305Y-10292484D01*
X15212305Y-10292484D02*
X15202782Y-10282960D01*
X15202782Y-10282960D02*
X15212305Y-10273436D01*
X15212305Y-10273436D02*
X15212305Y-10292484D01*
X15212305Y-10168674D02*
X15221829Y-10178198D01*
X15221829Y-10178198D02*
X15212305Y-10187722D01*
X15212305Y-10187722D02*
X15202782Y-10178198D01*
X15202782Y-10178198D02*
X15212305Y-10168674D01*
X15212305Y-10168674D02*
X15212305Y-10187722D01*
D12*
X13550100Y-10606000D02*
X13580100Y-10636000D01*
X13580100Y-10606000D02*
X13550100Y-10636000D01*
D11*
X13878972Y-10512484D02*
X13898020Y-10512484D01*
X13898020Y-10512484D02*
X13917067Y-10522008D01*
X13917067Y-10522008D02*
X13926591Y-10531531D01*
X13926591Y-10531531D02*
X13936115Y-10550579D01*
X13936115Y-10550579D02*
X13945639Y-10588674D01*
X13945639Y-10588674D02*
X13945639Y-10636293D01*
X13945639Y-10636293D02*
X13936115Y-10674389D01*
X13936115Y-10674389D02*
X13926591Y-10693436D01*
X13926591Y-10693436D02*
X13917067Y-10702960D01*
X13917067Y-10702960D02*
X13898020Y-10712484D01*
X13898020Y-10712484D02*
X13878972Y-10712484D01*
X13878972Y-10712484D02*
X13859924Y-10702960D01*
X13859924Y-10702960D02*
X13850401Y-10693436D01*
X13850401Y-10693436D02*
X13840877Y-10674389D01*
X13840877Y-10674389D02*
X13831353Y-10636293D01*
X13831353Y-10636293D02*
X13831353Y-10588674D01*
X13831353Y-10588674D02*
X13840877Y-10550579D01*
X13840877Y-10550579D02*
X13850401Y-10531531D01*
X13850401Y-10531531D02*
X13859924Y-10522008D01*
X13859924Y-10522008D02*
X13878972Y-10512484D01*
X14031353Y-10693436D02*
X14040877Y-10702960D01*
X14040877Y-10702960D02*
X14031353Y-10712484D01*
X14031353Y-10712484D02*
X14021829Y-10702960D01*
X14021829Y-10702960D02*
X14031353Y-10693436D01*
X14031353Y-10693436D02*
X14031353Y-10712484D01*
X14107543Y-10512484D02*
X14231353Y-10512484D01*
X14231353Y-10512484D02*
X14164686Y-10588674D01*
X14164686Y-10588674D02*
X14193258Y-10588674D01*
X14193258Y-10588674D02*
X14212305Y-10598198D01*
X14212305Y-10598198D02*
X14221829Y-10607722D01*
X14221829Y-10607722D02*
X14231353Y-10626770D01*
X14231353Y-10626770D02*
X14231353Y-10674389D01*
X14231353Y-10674389D02*
X14221829Y-10693436D01*
X14221829Y-10693436D02*
X14212305Y-10702960D01*
X14212305Y-10702960D02*
X14193258Y-10712484D01*
X14193258Y-10712484D02*
X14136115Y-10712484D01*
X14136115Y-10712484D02*
X14117067Y-10702960D01*
X14117067Y-10702960D02*
X14107543Y-10693436D01*
X14355162Y-10512484D02*
X14374210Y-10512484D01*
X14374210Y-10512484D02*
X14393258Y-10522008D01*
X14393258Y-10522008D02*
X14402782Y-10531531D01*
X14402782Y-10531531D02*
X14412305Y-10550579D01*
X14412305Y-10550579D02*
X14421829Y-10588674D01*
X14421829Y-10588674D02*
X14421829Y-10636293D01*
X14421829Y-10636293D02*
X14412305Y-10674389D01*
X14412305Y-10674389D02*
X14402782Y-10693436D01*
X14402782Y-10693436D02*
X14393258Y-10702960D01*
X14393258Y-10702960D02*
X14374210Y-10712484D01*
X14374210Y-10712484D02*
X14355162Y-10712484D01*
X14355162Y-10712484D02*
X14336115Y-10702960D01*
X14336115Y-10702960D02*
X14326591Y-10693436D01*
X14326591Y-10693436D02*
X14317067Y-10674389D01*
X14317067Y-10674389D02*
X14307543Y-10636293D01*
X14307543Y-10636293D02*
X14307543Y-10588674D01*
X14307543Y-10588674D02*
X14317067Y-10550579D01*
X14317067Y-10550579D02*
X14326591Y-10531531D01*
X14326591Y-10531531D02*
X14336115Y-10522008D01*
X14336115Y-10522008D02*
X14355162Y-10512484D01*
X14545639Y-10512484D02*
X14564686Y-10512484D01*
X14564686Y-10512484D02*
X14583734Y-10522008D01*
X14583734Y-10522008D02*
X14593258Y-10531531D01*
X14593258Y-10531531D02*
X14602782Y-10550579D01*
X14602782Y-10550579D02*
X14612305Y-10588674D01*
X14612305Y-10588674D02*
X14612305Y-10636293D01*
X14612305Y-10636293D02*
X14602782Y-10674389D01*
X14602782Y-10674389D02*
X14593258Y-10693436D01*
X14593258Y-10693436D02*
X14583734Y-10702960D01*
X14583734Y-10702960D02*
X14564686Y-10712484D01*
X14564686Y-10712484D02*
X14545639Y-10712484D01*
X14545639Y-10712484D02*
X14526591Y-10702960D01*
X14526591Y-10702960D02*
X14517067Y-10693436D01*
X14517067Y-10693436D02*
X14507543Y-10674389D01*
X14507543Y-10674389D02*
X14498020Y-10636293D01*
X14498020Y-10636293D02*
X14498020Y-10588674D01*
X14498020Y-10588674D02*
X14507543Y-10550579D01*
X14507543Y-10550579D02*
X14517067Y-10531531D01*
X14517067Y-10531531D02*
X14526591Y-10522008D01*
X14526591Y-10522008D02*
X14545639Y-10512484D01*
X14698020Y-10712484D02*
X14698020Y-10579150D01*
X14698020Y-10598198D02*
X14707543Y-10588674D01*
X14707543Y-10588674D02*
X14726591Y-10579150D01*
X14726591Y-10579150D02*
X14755163Y-10579150D01*
X14755163Y-10579150D02*
X14774210Y-10588674D01*
X14774210Y-10588674D02*
X14783734Y-10607722D01*
X14783734Y-10607722D02*
X14783734Y-10712484D01*
X14783734Y-10607722D02*
X14793258Y-10588674D01*
X14793258Y-10588674D02*
X14812305Y-10579150D01*
X14812305Y-10579150D02*
X14840877Y-10579150D01*
X14840877Y-10579150D02*
X14859924Y-10588674D01*
X14859924Y-10588674D02*
X14869448Y-10607722D01*
X14869448Y-10607722D02*
X14869448Y-10712484D01*
X14964686Y-10712484D02*
X14964686Y-10579150D01*
X14964686Y-10598198D02*
X14974210Y-10588674D01*
X14974210Y-10588674D02*
X14993258Y-10579150D01*
X14993258Y-10579150D02*
X15021829Y-10579150D01*
X15021829Y-10579150D02*
X15040877Y-10588674D01*
X15040877Y-10588674D02*
X15050401Y-10607722D01*
X15050401Y-10607722D02*
X15050401Y-10712484D01*
X15050401Y-10607722D02*
X15059924Y-10588674D01*
X15059924Y-10588674D02*
X15078972Y-10579150D01*
X15078972Y-10579150D02*
X15107543Y-10579150D01*
X15107543Y-10579150D02*
X15126591Y-10588674D01*
X15126591Y-10588674D02*
X15136115Y-10607722D01*
X15136115Y-10607722D02*
X15136115Y-10712484D01*
X15526591Y-10502960D02*
X15355163Y-10760103D01*
X15783734Y-10512484D02*
X15802782Y-10512484D01*
X15802782Y-10512484D02*
X15821829Y-10522008D01*
X15821829Y-10522008D02*
X15831353Y-10531531D01*
X15831353Y-10531531D02*
X15840877Y-10550579D01*
X15840877Y-10550579D02*
X15850401Y-10588674D01*
X15850401Y-10588674D02*
X15850401Y-10636293D01*
X15850401Y-10636293D02*
X15840877Y-10674389D01*
X15840877Y-10674389D02*
X15831353Y-10693436D01*
X15831353Y-10693436D02*
X15821829Y-10702960D01*
X15821829Y-10702960D02*
X15802782Y-10712484D01*
X15802782Y-10712484D02*
X15783734Y-10712484D01*
X15783734Y-10712484D02*
X15764686Y-10702960D01*
X15764686Y-10702960D02*
X15755163Y-10693436D01*
X15755163Y-10693436D02*
X15745639Y-10674389D01*
X15745639Y-10674389D02*
X15736115Y-10636293D01*
X15736115Y-10636293D02*
X15736115Y-10588674D01*
X15736115Y-10588674D02*
X15745639Y-10550579D01*
X15745639Y-10550579D02*
X15755163Y-10531531D01*
X15755163Y-10531531D02*
X15764686Y-10522008D01*
X15764686Y-10522008D02*
X15783734Y-10512484D01*
X15936115Y-10693436D02*
X15945639Y-10702960D01*
X15945639Y-10702960D02*
X15936115Y-10712484D01*
X15936115Y-10712484D02*
X15926591Y-10702960D01*
X15926591Y-10702960D02*
X15936115Y-10693436D01*
X15936115Y-10693436D02*
X15936115Y-10712484D01*
X16069448Y-10512484D02*
X16088496Y-10512484D01*
X16088496Y-10512484D02*
X16107544Y-10522008D01*
X16107544Y-10522008D02*
X16117067Y-10531531D01*
X16117067Y-10531531D02*
X16126591Y-10550579D01*
X16126591Y-10550579D02*
X16136115Y-10588674D01*
X16136115Y-10588674D02*
X16136115Y-10636293D01*
X16136115Y-10636293D02*
X16126591Y-10674389D01*
X16126591Y-10674389D02*
X16117067Y-10693436D01*
X16117067Y-10693436D02*
X16107544Y-10702960D01*
X16107544Y-10702960D02*
X16088496Y-10712484D01*
X16088496Y-10712484D02*
X16069448Y-10712484D01*
X16069448Y-10712484D02*
X16050401Y-10702960D01*
X16050401Y-10702960D02*
X16040877Y-10693436D01*
X16040877Y-10693436D02*
X16031353Y-10674389D01*
X16031353Y-10674389D02*
X16021829Y-10636293D01*
X16021829Y-10636293D02*
X16021829Y-10588674D01*
X16021829Y-10588674D02*
X16031353Y-10550579D01*
X16031353Y-10550579D02*
X16040877Y-10531531D01*
X16040877Y-10531531D02*
X16050401Y-10522008D01*
X16050401Y-10522008D02*
X16069448Y-10512484D01*
X16326591Y-10712484D02*
X16212306Y-10712484D01*
X16269448Y-10712484D02*
X16269448Y-10512484D01*
X16269448Y-10512484D02*
X16250401Y-10541055D01*
X16250401Y-10541055D02*
X16231353Y-10560103D01*
X16231353Y-10560103D02*
X16212306Y-10569627D01*
X16517067Y-10712484D02*
X16402782Y-10712484D01*
X16459925Y-10712484D02*
X16459925Y-10512484D01*
X16459925Y-10512484D02*
X16440877Y-10541055D01*
X16440877Y-10541055D02*
X16421829Y-10560103D01*
X16421829Y-10560103D02*
X16402782Y-10569627D01*
X16631353Y-10598198D02*
X16612306Y-10588674D01*
X16612306Y-10588674D02*
X16602782Y-10579150D01*
X16602782Y-10579150D02*
X16593258Y-10560103D01*
X16593258Y-10560103D02*
X16593258Y-10550579D01*
X16593258Y-10550579D02*
X16602782Y-10531531D01*
X16602782Y-10531531D02*
X16612306Y-10522008D01*
X16612306Y-10522008D02*
X16631353Y-10512484D01*
X16631353Y-10512484D02*
X16669448Y-10512484D01*
X16669448Y-10512484D02*
X16688496Y-10522008D01*
X16688496Y-10522008D02*
X16698020Y-10531531D01*
X16698020Y-10531531D02*
X16707544Y-10550579D01*
X16707544Y-10550579D02*
X16707544Y-10560103D01*
X16707544Y-10560103D02*
X16698020Y-10579150D01*
X16698020Y-10579150D02*
X16688496Y-10588674D01*
X16688496Y-10588674D02*
X16669448Y-10598198D01*
X16669448Y-10598198D02*
X16631353Y-10598198D01*
X16631353Y-10598198D02*
X16612306Y-10607722D01*
X16612306Y-10607722D02*
X16602782Y-10617246D01*
X16602782Y-10617246D02*
X16593258Y-10636293D01*
X16593258Y-10636293D02*
X16593258Y-10674389D01*
X16593258Y-10674389D02*
X16602782Y-10693436D01*
X16602782Y-10693436D02*
X16612306Y-10702960D01*
X16612306Y-10702960D02*
X16631353Y-10712484D01*
X16631353Y-10712484D02*
X16669448Y-10712484D01*
X16669448Y-10712484D02*
X16688496Y-10702960D01*
X16688496Y-10702960D02*
X16698020Y-10693436D01*
X16698020Y-10693436D02*
X16707544Y-10674389D01*
X16707544Y-10674389D02*
X16707544Y-10636293D01*
X16707544Y-10636293D02*
X16698020Y-10617246D01*
X16698020Y-10617246D02*
X16688496Y-10607722D01*
X16688496Y-10607722D02*
X16669448Y-10598198D01*
X16783734Y-10512484D02*
X16783734Y-10550579D01*
X16859925Y-10512484D02*
X16859925Y-10550579D01*
X17155163Y-10788674D02*
X17145639Y-10779150D01*
X17145639Y-10779150D02*
X17126591Y-10750579D01*
X17126591Y-10750579D02*
X17117068Y-10731531D01*
X17117068Y-10731531D02*
X17107544Y-10702960D01*
X17107544Y-10702960D02*
X17098020Y-10655341D01*
X17098020Y-10655341D02*
X17098020Y-10617246D01*
X17098020Y-10617246D02*
X17107544Y-10569627D01*
X17107544Y-10569627D02*
X17117068Y-10541055D01*
X17117068Y-10541055D02*
X17126591Y-10522008D01*
X17126591Y-10522008D02*
X17145639Y-10493436D01*
X17145639Y-10493436D02*
X17155163Y-10483912D01*
X17212306Y-10512484D02*
X17336115Y-10512484D01*
X17336115Y-10512484D02*
X17269449Y-10588674D01*
X17269449Y-10588674D02*
X17298020Y-10588674D01*
X17298020Y-10588674D02*
X17317068Y-10598198D01*
X17317068Y-10598198D02*
X17326591Y-10607722D01*
X17326591Y-10607722D02*
X17336115Y-10626770D01*
X17336115Y-10626770D02*
X17336115Y-10674389D01*
X17336115Y-10674389D02*
X17326591Y-10693436D01*
X17326591Y-10693436D02*
X17317068Y-10702960D01*
X17317068Y-10702960D02*
X17298020Y-10712484D01*
X17298020Y-10712484D02*
X17240877Y-10712484D01*
X17240877Y-10712484D02*
X17221830Y-10702960D01*
X17221830Y-10702960D02*
X17212306Y-10693436D01*
X17450401Y-10598198D02*
X17431353Y-10588674D01*
X17431353Y-10588674D02*
X17421830Y-10579150D01*
X17421830Y-10579150D02*
X17412306Y-10560103D01*
X17412306Y-10560103D02*
X17412306Y-10550579D01*
X17412306Y-10550579D02*
X17421830Y-10531531D01*
X17421830Y-10531531D02*
X17431353Y-10522008D01*
X17431353Y-10522008D02*
X17450401Y-10512484D01*
X17450401Y-10512484D02*
X17488496Y-10512484D01*
X17488496Y-10512484D02*
X17507544Y-10522008D01*
X17507544Y-10522008D02*
X17517068Y-10531531D01*
X17517068Y-10531531D02*
X17526591Y-10550579D01*
X17526591Y-10550579D02*
X17526591Y-10560103D01*
X17526591Y-10560103D02*
X17517068Y-10579150D01*
X17517068Y-10579150D02*
X17507544Y-10588674D01*
X17507544Y-10588674D02*
X17488496Y-10598198D01*
X17488496Y-10598198D02*
X17450401Y-10598198D01*
X17450401Y-10598198D02*
X17431353Y-10607722D01*
X17431353Y-10607722D02*
X17421830Y-10617246D01*
X17421830Y-10617246D02*
X17412306Y-10636293D01*
X17412306Y-10636293D02*
X17412306Y-10674389D01*
X17412306Y-10674389D02*
X17421830Y-10693436D01*
X17421830Y-10693436D02*
X17431353Y-10702960D01*
X17431353Y-10702960D02*
X17450401Y-10712484D01*
X17450401Y-10712484D02*
X17488496Y-10712484D01*
X17488496Y-10712484D02*
X17507544Y-10702960D01*
X17507544Y-10702960D02*
X17517068Y-10693436D01*
X17517068Y-10693436D02*
X17526591Y-10674389D01*
X17526591Y-10674389D02*
X17526591Y-10636293D01*
X17526591Y-10636293D02*
X17517068Y-10617246D01*
X17517068Y-10617246D02*
X17507544Y-10607722D01*
X17507544Y-10607722D02*
X17488496Y-10598198D01*
X17764687Y-10712484D02*
X17764687Y-10512484D01*
X17850401Y-10712484D02*
X17850401Y-10607722D01*
X17850401Y-10607722D02*
X17840877Y-10588674D01*
X17840877Y-10588674D02*
X17821830Y-10579150D01*
X17821830Y-10579150D02*
X17793258Y-10579150D01*
X17793258Y-10579150D02*
X17774211Y-10588674D01*
X17774211Y-10588674D02*
X17764687Y-10598198D01*
X17974211Y-10712484D02*
X17955163Y-10702960D01*
X17955163Y-10702960D02*
X17945639Y-10693436D01*
X17945639Y-10693436D02*
X17936115Y-10674389D01*
X17936115Y-10674389D02*
X17936115Y-10617246D01*
X17936115Y-10617246D02*
X17945639Y-10598198D01*
X17945639Y-10598198D02*
X17955163Y-10588674D01*
X17955163Y-10588674D02*
X17974211Y-10579150D01*
X17974211Y-10579150D02*
X18002782Y-10579150D01*
X18002782Y-10579150D02*
X18021830Y-10588674D01*
X18021830Y-10588674D02*
X18031353Y-10598198D01*
X18031353Y-10598198D02*
X18040877Y-10617246D01*
X18040877Y-10617246D02*
X18040877Y-10674389D01*
X18040877Y-10674389D02*
X18031353Y-10693436D01*
X18031353Y-10693436D02*
X18021830Y-10702960D01*
X18021830Y-10702960D02*
X18002782Y-10712484D01*
X18002782Y-10712484D02*
X17974211Y-10712484D01*
X18155163Y-10712484D02*
X18136115Y-10702960D01*
X18136115Y-10702960D02*
X18126592Y-10683912D01*
X18126592Y-10683912D02*
X18126592Y-10512484D01*
X18307544Y-10702960D02*
X18288496Y-10712484D01*
X18288496Y-10712484D02*
X18250401Y-10712484D01*
X18250401Y-10712484D02*
X18231353Y-10702960D01*
X18231353Y-10702960D02*
X18221830Y-10683912D01*
X18221830Y-10683912D02*
X18221830Y-10607722D01*
X18221830Y-10607722D02*
X18231353Y-10588674D01*
X18231353Y-10588674D02*
X18250401Y-10579150D01*
X18250401Y-10579150D02*
X18288496Y-10579150D01*
X18288496Y-10579150D02*
X18307544Y-10588674D01*
X18307544Y-10588674D02*
X18317068Y-10607722D01*
X18317068Y-10607722D02*
X18317068Y-10626770D01*
X18317068Y-10626770D02*
X18221830Y-10645817D01*
X18393258Y-10702960D02*
X18412306Y-10712484D01*
X18412306Y-10712484D02*
X18450401Y-10712484D01*
X18450401Y-10712484D02*
X18469449Y-10702960D01*
X18469449Y-10702960D02*
X18478973Y-10683912D01*
X18478973Y-10683912D02*
X18478973Y-10674389D01*
X18478973Y-10674389D02*
X18469449Y-10655341D01*
X18469449Y-10655341D02*
X18450401Y-10645817D01*
X18450401Y-10645817D02*
X18421830Y-10645817D01*
X18421830Y-10645817D02*
X18402782Y-10636293D01*
X18402782Y-10636293D02*
X18393258Y-10617246D01*
X18393258Y-10617246D02*
X18393258Y-10607722D01*
X18393258Y-10607722D02*
X18402782Y-10588674D01*
X18402782Y-10588674D02*
X18421830Y-10579150D01*
X18421830Y-10579150D02*
X18450401Y-10579150D01*
X18450401Y-10579150D02*
X18469449Y-10588674D01*
X18545639Y-10788674D02*
X18555163Y-10779150D01*
X18555163Y-10779150D02*
X18574211Y-10750579D01*
X18574211Y-10750579D02*
X18583734Y-10731531D01*
X18583734Y-10731531D02*
X18593258Y-10702960D01*
X18593258Y-10702960D02*
X18602782Y-10655341D01*
X18602782Y-10655341D02*
X18602782Y-10617246D01*
X18602782Y-10617246D02*
X18593258Y-10569627D01*
X18593258Y-10569627D02*
X18583734Y-10541055D01*
X18583734Y-10541055D02*
X18574211Y-10522008D01*
X18574211Y-10522008D02*
X18555163Y-10493436D01*
X18555163Y-10493436D02*
X18545639Y-10483912D01*
D12*
X13580100Y-10885000D02*
G75*
G02*
X13550100Y-10885000I-15000J0D01*
G01*
X13550100Y-10885000D02*
G75*
G02*
X13580100Y-10885000I15000J0D01*
G01*
D11*
X13878972Y-10776484D02*
X13898020Y-10776484D01*
X13898020Y-10776484D02*
X13917067Y-10786008D01*
X13917067Y-10786008D02*
X13926591Y-10795531D01*
X13926591Y-10795531D02*
X13936115Y-10814579D01*
X13936115Y-10814579D02*
X13945639Y-10852674D01*
X13945639Y-10852674D02*
X13945639Y-10900293D01*
X13945639Y-10900293D02*
X13936115Y-10938389D01*
X13936115Y-10938389D02*
X13926591Y-10957436D01*
X13926591Y-10957436D02*
X13917067Y-10966960D01*
X13917067Y-10966960D02*
X13898020Y-10976484D01*
X13898020Y-10976484D02*
X13878972Y-10976484D01*
X13878972Y-10976484D02*
X13859924Y-10966960D01*
X13859924Y-10966960D02*
X13850401Y-10957436D01*
X13850401Y-10957436D02*
X13840877Y-10938389D01*
X13840877Y-10938389D02*
X13831353Y-10900293D01*
X13831353Y-10900293D02*
X13831353Y-10852674D01*
X13831353Y-10852674D02*
X13840877Y-10814579D01*
X13840877Y-10814579D02*
X13850401Y-10795531D01*
X13850401Y-10795531D02*
X13859924Y-10786008D01*
X13859924Y-10786008D02*
X13878972Y-10776484D01*
X14031353Y-10957436D02*
X14040877Y-10966960D01*
X14040877Y-10966960D02*
X14031353Y-10976484D01*
X14031353Y-10976484D02*
X14021829Y-10966960D01*
X14021829Y-10966960D02*
X14031353Y-10957436D01*
X14031353Y-10957436D02*
X14031353Y-10976484D01*
X14107543Y-10776484D02*
X14231353Y-10776484D01*
X14231353Y-10776484D02*
X14164686Y-10852674D01*
X14164686Y-10852674D02*
X14193258Y-10852674D01*
X14193258Y-10852674D02*
X14212305Y-10862198D01*
X14212305Y-10862198D02*
X14221829Y-10871722D01*
X14221829Y-10871722D02*
X14231353Y-10890770D01*
X14231353Y-10890770D02*
X14231353Y-10938389D01*
X14231353Y-10938389D02*
X14221829Y-10957436D01*
X14221829Y-10957436D02*
X14212305Y-10966960D01*
X14212305Y-10966960D02*
X14193258Y-10976484D01*
X14193258Y-10976484D02*
X14136115Y-10976484D01*
X14136115Y-10976484D02*
X14117067Y-10966960D01*
X14117067Y-10966960D02*
X14107543Y-10957436D01*
X14355162Y-10776484D02*
X14374210Y-10776484D01*
X14374210Y-10776484D02*
X14393258Y-10786008D01*
X14393258Y-10786008D02*
X14402782Y-10795531D01*
X14402782Y-10795531D02*
X14412305Y-10814579D01*
X14412305Y-10814579D02*
X14421829Y-10852674D01*
X14421829Y-10852674D02*
X14421829Y-10900293D01*
X14421829Y-10900293D02*
X14412305Y-10938389D01*
X14412305Y-10938389D02*
X14402782Y-10957436D01*
X14402782Y-10957436D02*
X14393258Y-10966960D01*
X14393258Y-10966960D02*
X14374210Y-10976484D01*
X14374210Y-10976484D02*
X14355162Y-10976484D01*
X14355162Y-10976484D02*
X14336115Y-10966960D01*
X14336115Y-10966960D02*
X14326591Y-10957436D01*
X14326591Y-10957436D02*
X14317067Y-10938389D01*
X14317067Y-10938389D02*
X14307543Y-10900293D01*
X14307543Y-10900293D02*
X14307543Y-10852674D01*
X14307543Y-10852674D02*
X14317067Y-10814579D01*
X14317067Y-10814579D02*
X14326591Y-10795531D01*
X14326591Y-10795531D02*
X14336115Y-10786008D01*
X14336115Y-10786008D02*
X14355162Y-10776484D01*
X14545639Y-10776484D02*
X14564686Y-10776484D01*
X14564686Y-10776484D02*
X14583734Y-10786008D01*
X14583734Y-10786008D02*
X14593258Y-10795531D01*
X14593258Y-10795531D02*
X14602782Y-10814579D01*
X14602782Y-10814579D02*
X14612305Y-10852674D01*
X14612305Y-10852674D02*
X14612305Y-10900293D01*
X14612305Y-10900293D02*
X14602782Y-10938389D01*
X14602782Y-10938389D02*
X14593258Y-10957436D01*
X14593258Y-10957436D02*
X14583734Y-10966960D01*
X14583734Y-10966960D02*
X14564686Y-10976484D01*
X14564686Y-10976484D02*
X14545639Y-10976484D01*
X14545639Y-10976484D02*
X14526591Y-10966960D01*
X14526591Y-10966960D02*
X14517067Y-10957436D01*
X14517067Y-10957436D02*
X14507543Y-10938389D01*
X14507543Y-10938389D02*
X14498020Y-10900293D01*
X14498020Y-10900293D02*
X14498020Y-10852674D01*
X14498020Y-10852674D02*
X14507543Y-10814579D01*
X14507543Y-10814579D02*
X14517067Y-10795531D01*
X14517067Y-10795531D02*
X14526591Y-10786008D01*
X14526591Y-10786008D02*
X14545639Y-10776484D01*
X14698020Y-10976484D02*
X14698020Y-10843150D01*
X14698020Y-10862198D02*
X14707543Y-10852674D01*
X14707543Y-10852674D02*
X14726591Y-10843150D01*
X14726591Y-10843150D02*
X14755163Y-10843150D01*
X14755163Y-10843150D02*
X14774210Y-10852674D01*
X14774210Y-10852674D02*
X14783734Y-10871722D01*
X14783734Y-10871722D02*
X14783734Y-10976484D01*
X14783734Y-10871722D02*
X14793258Y-10852674D01*
X14793258Y-10852674D02*
X14812305Y-10843150D01*
X14812305Y-10843150D02*
X14840877Y-10843150D01*
X14840877Y-10843150D02*
X14859924Y-10852674D01*
X14859924Y-10852674D02*
X14869448Y-10871722D01*
X14869448Y-10871722D02*
X14869448Y-10976484D01*
X14964686Y-10976484D02*
X14964686Y-10843150D01*
X14964686Y-10862198D02*
X14974210Y-10852674D01*
X14974210Y-10852674D02*
X14993258Y-10843150D01*
X14993258Y-10843150D02*
X15021829Y-10843150D01*
X15021829Y-10843150D02*
X15040877Y-10852674D01*
X15040877Y-10852674D02*
X15050401Y-10871722D01*
X15050401Y-10871722D02*
X15050401Y-10976484D01*
X15050401Y-10871722D02*
X15059924Y-10852674D01*
X15059924Y-10852674D02*
X15078972Y-10843150D01*
X15078972Y-10843150D02*
X15107543Y-10843150D01*
X15107543Y-10843150D02*
X15126591Y-10852674D01*
X15126591Y-10852674D02*
X15136115Y-10871722D01*
X15136115Y-10871722D02*
X15136115Y-10976484D01*
X15526591Y-10766960D02*
X15355163Y-11024103D01*
X15783734Y-10776484D02*
X15802782Y-10776484D01*
X15802782Y-10776484D02*
X15821829Y-10786008D01*
X15821829Y-10786008D02*
X15831353Y-10795531D01*
X15831353Y-10795531D02*
X15840877Y-10814579D01*
X15840877Y-10814579D02*
X15850401Y-10852674D01*
X15850401Y-10852674D02*
X15850401Y-10900293D01*
X15850401Y-10900293D02*
X15840877Y-10938389D01*
X15840877Y-10938389D02*
X15831353Y-10957436D01*
X15831353Y-10957436D02*
X15821829Y-10966960D01*
X15821829Y-10966960D02*
X15802782Y-10976484D01*
X15802782Y-10976484D02*
X15783734Y-10976484D01*
X15783734Y-10976484D02*
X15764686Y-10966960D01*
X15764686Y-10966960D02*
X15755163Y-10957436D01*
X15755163Y-10957436D02*
X15745639Y-10938389D01*
X15745639Y-10938389D02*
X15736115Y-10900293D01*
X15736115Y-10900293D02*
X15736115Y-10852674D01*
X15736115Y-10852674D02*
X15745639Y-10814579D01*
X15745639Y-10814579D02*
X15755163Y-10795531D01*
X15755163Y-10795531D02*
X15764686Y-10786008D01*
X15764686Y-10786008D02*
X15783734Y-10776484D01*
X15936115Y-10957436D02*
X15945639Y-10966960D01*
X15945639Y-10966960D02*
X15936115Y-10976484D01*
X15936115Y-10976484D02*
X15926591Y-10966960D01*
X15926591Y-10966960D02*
X15936115Y-10957436D01*
X15936115Y-10957436D02*
X15936115Y-10976484D01*
X16069448Y-10776484D02*
X16088496Y-10776484D01*
X16088496Y-10776484D02*
X16107544Y-10786008D01*
X16107544Y-10786008D02*
X16117067Y-10795531D01*
X16117067Y-10795531D02*
X16126591Y-10814579D01*
X16126591Y-10814579D02*
X16136115Y-10852674D01*
X16136115Y-10852674D02*
X16136115Y-10900293D01*
X16136115Y-10900293D02*
X16126591Y-10938389D01*
X16126591Y-10938389D02*
X16117067Y-10957436D01*
X16117067Y-10957436D02*
X16107544Y-10966960D01*
X16107544Y-10966960D02*
X16088496Y-10976484D01*
X16088496Y-10976484D02*
X16069448Y-10976484D01*
X16069448Y-10976484D02*
X16050401Y-10966960D01*
X16050401Y-10966960D02*
X16040877Y-10957436D01*
X16040877Y-10957436D02*
X16031353Y-10938389D01*
X16031353Y-10938389D02*
X16021829Y-10900293D01*
X16021829Y-10900293D02*
X16021829Y-10852674D01*
X16021829Y-10852674D02*
X16031353Y-10814579D01*
X16031353Y-10814579D02*
X16040877Y-10795531D01*
X16040877Y-10795531D02*
X16050401Y-10786008D01*
X16050401Y-10786008D02*
X16069448Y-10776484D01*
X16326591Y-10976484D02*
X16212306Y-10976484D01*
X16269448Y-10976484D02*
X16269448Y-10776484D01*
X16269448Y-10776484D02*
X16250401Y-10805055D01*
X16250401Y-10805055D02*
X16231353Y-10824103D01*
X16231353Y-10824103D02*
X16212306Y-10833627D01*
X16517067Y-10976484D02*
X16402782Y-10976484D01*
X16459925Y-10976484D02*
X16459925Y-10776484D01*
X16459925Y-10776484D02*
X16440877Y-10805055D01*
X16440877Y-10805055D02*
X16421829Y-10824103D01*
X16421829Y-10824103D02*
X16402782Y-10833627D01*
X16631353Y-10862198D02*
X16612306Y-10852674D01*
X16612306Y-10852674D02*
X16602782Y-10843150D01*
X16602782Y-10843150D02*
X16593258Y-10824103D01*
X16593258Y-10824103D02*
X16593258Y-10814579D01*
X16593258Y-10814579D02*
X16602782Y-10795531D01*
X16602782Y-10795531D02*
X16612306Y-10786008D01*
X16612306Y-10786008D02*
X16631353Y-10776484D01*
X16631353Y-10776484D02*
X16669448Y-10776484D01*
X16669448Y-10776484D02*
X16688496Y-10786008D01*
X16688496Y-10786008D02*
X16698020Y-10795531D01*
X16698020Y-10795531D02*
X16707544Y-10814579D01*
X16707544Y-10814579D02*
X16707544Y-10824103D01*
X16707544Y-10824103D02*
X16698020Y-10843150D01*
X16698020Y-10843150D02*
X16688496Y-10852674D01*
X16688496Y-10852674D02*
X16669448Y-10862198D01*
X16669448Y-10862198D02*
X16631353Y-10862198D01*
X16631353Y-10862198D02*
X16612306Y-10871722D01*
X16612306Y-10871722D02*
X16602782Y-10881246D01*
X16602782Y-10881246D02*
X16593258Y-10900293D01*
X16593258Y-10900293D02*
X16593258Y-10938389D01*
X16593258Y-10938389D02*
X16602782Y-10957436D01*
X16602782Y-10957436D02*
X16612306Y-10966960D01*
X16612306Y-10966960D02*
X16631353Y-10976484D01*
X16631353Y-10976484D02*
X16669448Y-10976484D01*
X16669448Y-10976484D02*
X16688496Y-10966960D01*
X16688496Y-10966960D02*
X16698020Y-10957436D01*
X16698020Y-10957436D02*
X16707544Y-10938389D01*
X16707544Y-10938389D02*
X16707544Y-10900293D01*
X16707544Y-10900293D02*
X16698020Y-10881246D01*
X16698020Y-10881246D02*
X16688496Y-10871722D01*
X16688496Y-10871722D02*
X16669448Y-10862198D01*
X16783734Y-10776484D02*
X16783734Y-10814579D01*
X16859925Y-10776484D02*
X16859925Y-10814579D01*
X17155163Y-11052674D02*
X17145639Y-11043150D01*
X17145639Y-11043150D02*
X17126591Y-11014579D01*
X17126591Y-11014579D02*
X17117068Y-10995531D01*
X17117068Y-10995531D02*
X17107544Y-10966960D01*
X17107544Y-10966960D02*
X17098020Y-10919341D01*
X17098020Y-10919341D02*
X17098020Y-10881246D01*
X17098020Y-10881246D02*
X17107544Y-10833627D01*
X17107544Y-10833627D02*
X17117068Y-10805055D01*
X17117068Y-10805055D02*
X17126591Y-10786008D01*
X17126591Y-10786008D02*
X17145639Y-10757436D01*
X17145639Y-10757436D02*
X17155163Y-10747912D01*
X17317068Y-10843150D02*
X17317068Y-10976484D01*
X17269449Y-10766960D02*
X17221830Y-10909817D01*
X17221830Y-10909817D02*
X17345639Y-10909817D01*
X17574211Y-10976484D02*
X17574211Y-10776484D01*
X17659925Y-10976484D02*
X17659925Y-10871722D01*
X17659925Y-10871722D02*
X17650401Y-10852674D01*
X17650401Y-10852674D02*
X17631353Y-10843150D01*
X17631353Y-10843150D02*
X17602782Y-10843150D01*
X17602782Y-10843150D02*
X17583734Y-10852674D01*
X17583734Y-10852674D02*
X17574211Y-10862198D01*
X17783734Y-10976484D02*
X17764687Y-10966960D01*
X17764687Y-10966960D02*
X17755163Y-10957436D01*
X17755163Y-10957436D02*
X17745639Y-10938389D01*
X17745639Y-10938389D02*
X17745639Y-10881246D01*
X17745639Y-10881246D02*
X17755163Y-10862198D01*
X17755163Y-10862198D02*
X17764687Y-10852674D01*
X17764687Y-10852674D02*
X17783734Y-10843150D01*
X17783734Y-10843150D02*
X17812306Y-10843150D01*
X17812306Y-10843150D02*
X17831353Y-10852674D01*
X17831353Y-10852674D02*
X17840877Y-10862198D01*
X17840877Y-10862198D02*
X17850401Y-10881246D01*
X17850401Y-10881246D02*
X17850401Y-10938389D01*
X17850401Y-10938389D02*
X17840877Y-10957436D01*
X17840877Y-10957436D02*
X17831353Y-10966960D01*
X17831353Y-10966960D02*
X17812306Y-10976484D01*
X17812306Y-10976484D02*
X17783734Y-10976484D01*
X17964687Y-10976484D02*
X17945639Y-10966960D01*
X17945639Y-10966960D02*
X17936115Y-10947912D01*
X17936115Y-10947912D02*
X17936115Y-10776484D01*
X18117068Y-10966960D02*
X18098020Y-10976484D01*
X18098020Y-10976484D02*
X18059925Y-10976484D01*
X18059925Y-10976484D02*
X18040877Y-10966960D01*
X18040877Y-10966960D02*
X18031353Y-10947912D01*
X18031353Y-10947912D02*
X18031353Y-10871722D01*
X18031353Y-10871722D02*
X18040877Y-10852674D01*
X18040877Y-10852674D02*
X18059925Y-10843150D01*
X18059925Y-10843150D02*
X18098020Y-10843150D01*
X18098020Y-10843150D02*
X18117068Y-10852674D01*
X18117068Y-10852674D02*
X18126592Y-10871722D01*
X18126592Y-10871722D02*
X18126592Y-10890770D01*
X18126592Y-10890770D02*
X18031353Y-10909817D01*
X18202782Y-10966960D02*
X18221830Y-10976484D01*
X18221830Y-10976484D02*
X18259925Y-10976484D01*
X18259925Y-10976484D02*
X18278973Y-10966960D01*
X18278973Y-10966960D02*
X18288496Y-10947912D01*
X18288496Y-10947912D02*
X18288496Y-10938389D01*
X18288496Y-10938389D02*
X18278973Y-10919341D01*
X18278973Y-10919341D02*
X18259925Y-10909817D01*
X18259925Y-10909817D02*
X18231353Y-10909817D01*
X18231353Y-10909817D02*
X18212306Y-10900293D01*
X18212306Y-10900293D02*
X18202782Y-10881246D01*
X18202782Y-10881246D02*
X18202782Y-10871722D01*
X18202782Y-10871722D02*
X18212306Y-10852674D01*
X18212306Y-10852674D02*
X18231353Y-10843150D01*
X18231353Y-10843150D02*
X18259925Y-10843150D01*
X18259925Y-10843150D02*
X18278973Y-10852674D01*
X18355163Y-11052674D02*
X18364687Y-11043150D01*
X18364687Y-11043150D02*
X18383734Y-11014579D01*
X18383734Y-11014579D02*
X18393258Y-10995531D01*
X18393258Y-10995531D02*
X18402782Y-10966960D01*
X18402782Y-10966960D02*
X18412306Y-10919341D01*
X18412306Y-10919341D02*
X18412306Y-10881246D01*
X18412306Y-10881246D02*
X18402782Y-10833627D01*
X18402782Y-10833627D02*
X18393258Y-10805055D01*
X18393258Y-10805055D02*
X18383734Y-10786008D01*
X18383734Y-10786008D02*
X18364687Y-10757436D01*
X18364687Y-10757436D02*
X18355163Y-10747912D01*
D13*
X13527600Y-11096500D02*
X13527600Y-11201500D01*
X13475100Y-11149000D02*
X13580100Y-11149000D01*
D11*
X13945639Y-11240484D02*
X13831353Y-11240484D01*
X13888496Y-11240484D02*
X13888496Y-11040484D01*
X13888496Y-11040484D02*
X13869448Y-11069055D01*
X13869448Y-11069055D02*
X13850401Y-11088103D01*
X13850401Y-11088103D02*
X13831353Y-11097627D01*
X14031353Y-11221436D02*
X14040877Y-11230960D01*
X14040877Y-11230960D02*
X14031353Y-11240484D01*
X14031353Y-11240484D02*
X14021829Y-11230960D01*
X14021829Y-11230960D02*
X14031353Y-11221436D01*
X14031353Y-11221436D02*
X14031353Y-11240484D01*
X14164686Y-11040484D02*
X14183734Y-11040484D01*
X14183734Y-11040484D02*
X14202782Y-11050008D01*
X14202782Y-11050008D02*
X14212305Y-11059531D01*
X14212305Y-11059531D02*
X14221829Y-11078579D01*
X14221829Y-11078579D02*
X14231353Y-11116674D01*
X14231353Y-11116674D02*
X14231353Y-11164293D01*
X14231353Y-11164293D02*
X14221829Y-11202388D01*
X14221829Y-11202388D02*
X14212305Y-11221436D01*
X14212305Y-11221436D02*
X14202782Y-11230960D01*
X14202782Y-11230960D02*
X14183734Y-11240484D01*
X14183734Y-11240484D02*
X14164686Y-11240484D01*
X14164686Y-11240484D02*
X14145639Y-11230960D01*
X14145639Y-11230960D02*
X14136115Y-11221436D01*
X14136115Y-11221436D02*
X14126591Y-11202388D01*
X14126591Y-11202388D02*
X14117067Y-11164293D01*
X14117067Y-11164293D02*
X14117067Y-11116674D01*
X14117067Y-11116674D02*
X14126591Y-11078579D01*
X14126591Y-11078579D02*
X14136115Y-11059531D01*
X14136115Y-11059531D02*
X14145639Y-11050008D01*
X14145639Y-11050008D02*
X14164686Y-11040484D01*
X14412305Y-11040484D02*
X14317067Y-11040484D01*
X14317067Y-11040484D02*
X14307543Y-11135722D01*
X14307543Y-11135722D02*
X14317067Y-11126198D01*
X14317067Y-11126198D02*
X14336115Y-11116674D01*
X14336115Y-11116674D02*
X14383734Y-11116674D01*
X14383734Y-11116674D02*
X14402782Y-11126198D01*
X14402782Y-11126198D02*
X14412305Y-11135722D01*
X14412305Y-11135722D02*
X14421829Y-11154770D01*
X14421829Y-11154770D02*
X14421829Y-11202388D01*
X14421829Y-11202388D02*
X14412305Y-11221436D01*
X14412305Y-11221436D02*
X14402782Y-11230960D01*
X14402782Y-11230960D02*
X14383734Y-11240484D01*
X14383734Y-11240484D02*
X14336115Y-11240484D01*
X14336115Y-11240484D02*
X14317067Y-11230960D01*
X14317067Y-11230960D02*
X14307543Y-11221436D01*
X14545639Y-11040484D02*
X14564686Y-11040484D01*
X14564686Y-11040484D02*
X14583734Y-11050008D01*
X14583734Y-11050008D02*
X14593258Y-11059531D01*
X14593258Y-11059531D02*
X14602782Y-11078579D01*
X14602782Y-11078579D02*
X14612305Y-11116674D01*
X14612305Y-11116674D02*
X14612305Y-11164293D01*
X14612305Y-11164293D02*
X14602782Y-11202388D01*
X14602782Y-11202388D02*
X14593258Y-11221436D01*
X14593258Y-11221436D02*
X14583734Y-11230960D01*
X14583734Y-11230960D02*
X14564686Y-11240484D01*
X14564686Y-11240484D02*
X14545639Y-11240484D01*
X14545639Y-11240484D02*
X14526591Y-11230960D01*
X14526591Y-11230960D02*
X14517067Y-11221436D01*
X14517067Y-11221436D02*
X14507543Y-11202388D01*
X14507543Y-11202388D02*
X14498020Y-11164293D01*
X14498020Y-11164293D02*
X14498020Y-11116674D01*
X14498020Y-11116674D02*
X14507543Y-11078579D01*
X14507543Y-11078579D02*
X14517067Y-11059531D01*
X14517067Y-11059531D02*
X14526591Y-11050008D01*
X14526591Y-11050008D02*
X14545639Y-11040484D01*
X14698020Y-11240484D02*
X14698020Y-11107150D01*
X14698020Y-11126198D02*
X14707543Y-11116674D01*
X14707543Y-11116674D02*
X14726591Y-11107150D01*
X14726591Y-11107150D02*
X14755163Y-11107150D01*
X14755163Y-11107150D02*
X14774210Y-11116674D01*
X14774210Y-11116674D02*
X14783734Y-11135722D01*
X14783734Y-11135722D02*
X14783734Y-11240484D01*
X14783734Y-11135722D02*
X14793258Y-11116674D01*
X14793258Y-11116674D02*
X14812305Y-11107150D01*
X14812305Y-11107150D02*
X14840877Y-11107150D01*
X14840877Y-11107150D02*
X14859924Y-11116674D01*
X14859924Y-11116674D02*
X14869448Y-11135722D01*
X14869448Y-11135722D02*
X14869448Y-11240484D01*
X14964686Y-11240484D02*
X14964686Y-11107150D01*
X14964686Y-11126198D02*
X14974210Y-11116674D01*
X14974210Y-11116674D02*
X14993258Y-11107150D01*
X14993258Y-11107150D02*
X15021829Y-11107150D01*
X15021829Y-11107150D02*
X15040877Y-11116674D01*
X15040877Y-11116674D02*
X15050401Y-11135722D01*
X15050401Y-11135722D02*
X15050401Y-11240484D01*
X15050401Y-11135722D02*
X15059924Y-11116674D01*
X15059924Y-11116674D02*
X15078972Y-11107150D01*
X15078972Y-11107150D02*
X15107543Y-11107150D01*
X15107543Y-11107150D02*
X15126591Y-11116674D01*
X15126591Y-11116674D02*
X15136115Y-11135722D01*
X15136115Y-11135722D02*
X15136115Y-11240484D01*
X15526591Y-11030960D02*
X15355163Y-11288103D01*
X15783734Y-11040484D02*
X15802782Y-11040484D01*
X15802782Y-11040484D02*
X15821829Y-11050008D01*
X15821829Y-11050008D02*
X15831353Y-11059531D01*
X15831353Y-11059531D02*
X15840877Y-11078579D01*
X15840877Y-11078579D02*
X15850401Y-11116674D01*
X15850401Y-11116674D02*
X15850401Y-11164293D01*
X15850401Y-11164293D02*
X15840877Y-11202388D01*
X15840877Y-11202388D02*
X15831353Y-11221436D01*
X15831353Y-11221436D02*
X15821829Y-11230960D01*
X15821829Y-11230960D02*
X15802782Y-11240484D01*
X15802782Y-11240484D02*
X15783734Y-11240484D01*
X15783734Y-11240484D02*
X15764686Y-11230960D01*
X15764686Y-11230960D02*
X15755163Y-11221436D01*
X15755163Y-11221436D02*
X15745639Y-11202388D01*
X15745639Y-11202388D02*
X15736115Y-11164293D01*
X15736115Y-11164293D02*
X15736115Y-11116674D01*
X15736115Y-11116674D02*
X15745639Y-11078579D01*
X15745639Y-11078579D02*
X15755163Y-11059531D01*
X15755163Y-11059531D02*
X15764686Y-11050008D01*
X15764686Y-11050008D02*
X15783734Y-11040484D01*
X15936115Y-11221436D02*
X15945639Y-11230960D01*
X15945639Y-11230960D02*
X15936115Y-11240484D01*
X15936115Y-11240484D02*
X15926591Y-11230960D01*
X15926591Y-11230960D02*
X15936115Y-11221436D01*
X15936115Y-11221436D02*
X15936115Y-11240484D01*
X16069448Y-11040484D02*
X16088496Y-11040484D01*
X16088496Y-11040484D02*
X16107544Y-11050008D01*
X16107544Y-11050008D02*
X16117067Y-11059531D01*
X16117067Y-11059531D02*
X16126591Y-11078579D01*
X16126591Y-11078579D02*
X16136115Y-11116674D01*
X16136115Y-11116674D02*
X16136115Y-11164293D01*
X16136115Y-11164293D02*
X16126591Y-11202388D01*
X16126591Y-11202388D02*
X16117067Y-11221436D01*
X16117067Y-11221436D02*
X16107544Y-11230960D01*
X16107544Y-11230960D02*
X16088496Y-11240484D01*
X16088496Y-11240484D02*
X16069448Y-11240484D01*
X16069448Y-11240484D02*
X16050401Y-11230960D01*
X16050401Y-11230960D02*
X16040877Y-11221436D01*
X16040877Y-11221436D02*
X16031353Y-11202388D01*
X16031353Y-11202388D02*
X16021829Y-11164293D01*
X16021829Y-11164293D02*
X16021829Y-11116674D01*
X16021829Y-11116674D02*
X16031353Y-11078579D01*
X16031353Y-11078579D02*
X16040877Y-11059531D01*
X16040877Y-11059531D02*
X16050401Y-11050008D01*
X16050401Y-11050008D02*
X16069448Y-11040484D01*
X16307544Y-11107150D02*
X16307544Y-11240484D01*
X16259925Y-11030960D02*
X16212306Y-11173817D01*
X16212306Y-11173817D02*
X16336115Y-11173817D01*
X16517067Y-11240484D02*
X16402782Y-11240484D01*
X16459925Y-11240484D02*
X16459925Y-11040484D01*
X16459925Y-11040484D02*
X16440877Y-11069055D01*
X16440877Y-11069055D02*
X16421829Y-11088103D01*
X16421829Y-11088103D02*
X16402782Y-11097627D01*
X16583734Y-11040484D02*
X16707544Y-11040484D01*
X16707544Y-11040484D02*
X16640877Y-11116674D01*
X16640877Y-11116674D02*
X16669448Y-11116674D01*
X16669448Y-11116674D02*
X16688496Y-11126198D01*
X16688496Y-11126198D02*
X16698020Y-11135722D01*
X16698020Y-11135722D02*
X16707544Y-11154770D01*
X16707544Y-11154770D02*
X16707544Y-11202388D01*
X16707544Y-11202388D02*
X16698020Y-11221436D01*
X16698020Y-11221436D02*
X16688496Y-11230960D01*
X16688496Y-11230960D02*
X16669448Y-11240484D01*
X16669448Y-11240484D02*
X16612306Y-11240484D01*
X16612306Y-11240484D02*
X16593258Y-11230960D01*
X16593258Y-11230960D02*
X16583734Y-11221436D01*
X16783734Y-11040484D02*
X16783734Y-11078579D01*
X16859925Y-11040484D02*
X16859925Y-11078579D01*
X17155163Y-11316674D02*
X17145639Y-11307150D01*
X17145639Y-11307150D02*
X17126591Y-11278579D01*
X17126591Y-11278579D02*
X17117068Y-11259531D01*
X17117068Y-11259531D02*
X17107544Y-11230960D01*
X17107544Y-11230960D02*
X17098020Y-11183341D01*
X17098020Y-11183341D02*
X17098020Y-11145246D01*
X17098020Y-11145246D02*
X17107544Y-11097627D01*
X17107544Y-11097627D02*
X17117068Y-11069055D01*
X17117068Y-11069055D02*
X17126591Y-11050008D01*
X17126591Y-11050008D02*
X17145639Y-11021436D01*
X17145639Y-11021436D02*
X17155163Y-11011912D01*
X17336115Y-11240484D02*
X17221830Y-11240484D01*
X17278972Y-11240484D02*
X17278972Y-11040484D01*
X17278972Y-11040484D02*
X17259925Y-11069055D01*
X17259925Y-11069055D02*
X17240877Y-11088103D01*
X17240877Y-11088103D02*
X17221830Y-11097627D01*
X17450401Y-11126198D02*
X17431353Y-11116674D01*
X17431353Y-11116674D02*
X17421830Y-11107150D01*
X17421830Y-11107150D02*
X17412306Y-11088103D01*
X17412306Y-11088103D02*
X17412306Y-11078579D01*
X17412306Y-11078579D02*
X17421830Y-11059531D01*
X17421830Y-11059531D02*
X17431353Y-11050008D01*
X17431353Y-11050008D02*
X17450401Y-11040484D01*
X17450401Y-11040484D02*
X17488496Y-11040484D01*
X17488496Y-11040484D02*
X17507544Y-11050008D01*
X17507544Y-11050008D02*
X17517068Y-11059531D01*
X17517068Y-11059531D02*
X17526591Y-11078579D01*
X17526591Y-11078579D02*
X17526591Y-11088103D01*
X17526591Y-11088103D02*
X17517068Y-11107150D01*
X17517068Y-11107150D02*
X17507544Y-11116674D01*
X17507544Y-11116674D02*
X17488496Y-11126198D01*
X17488496Y-11126198D02*
X17450401Y-11126198D01*
X17450401Y-11126198D02*
X17431353Y-11135722D01*
X17431353Y-11135722D02*
X17421830Y-11145246D01*
X17421830Y-11145246D02*
X17412306Y-11164293D01*
X17412306Y-11164293D02*
X17412306Y-11202388D01*
X17412306Y-11202388D02*
X17421830Y-11221436D01*
X17421830Y-11221436D02*
X17431353Y-11230960D01*
X17431353Y-11230960D02*
X17450401Y-11240484D01*
X17450401Y-11240484D02*
X17488496Y-11240484D01*
X17488496Y-11240484D02*
X17507544Y-11230960D01*
X17507544Y-11230960D02*
X17517068Y-11221436D01*
X17517068Y-11221436D02*
X17526591Y-11202388D01*
X17526591Y-11202388D02*
X17526591Y-11164293D01*
X17526591Y-11164293D02*
X17517068Y-11145246D01*
X17517068Y-11145246D02*
X17507544Y-11135722D01*
X17507544Y-11135722D02*
X17488496Y-11126198D01*
X17764687Y-11240484D02*
X17764687Y-11040484D01*
X17850401Y-11240484D02*
X17850401Y-11135722D01*
X17850401Y-11135722D02*
X17840877Y-11116674D01*
X17840877Y-11116674D02*
X17821830Y-11107150D01*
X17821830Y-11107150D02*
X17793258Y-11107150D01*
X17793258Y-11107150D02*
X17774211Y-11116674D01*
X17774211Y-11116674D02*
X17764687Y-11126198D01*
X17974211Y-11240484D02*
X17955163Y-11230960D01*
X17955163Y-11230960D02*
X17945639Y-11221436D01*
X17945639Y-11221436D02*
X17936115Y-11202388D01*
X17936115Y-11202388D02*
X17936115Y-11145246D01*
X17936115Y-11145246D02*
X17945639Y-11126198D01*
X17945639Y-11126198D02*
X17955163Y-11116674D01*
X17955163Y-11116674D02*
X17974211Y-11107150D01*
X17974211Y-11107150D02*
X18002782Y-11107150D01*
X18002782Y-11107150D02*
X18021830Y-11116674D01*
X18021830Y-11116674D02*
X18031353Y-11126198D01*
X18031353Y-11126198D02*
X18040877Y-11145246D01*
X18040877Y-11145246D02*
X18040877Y-11202388D01*
X18040877Y-11202388D02*
X18031353Y-11221436D01*
X18031353Y-11221436D02*
X18021830Y-11230960D01*
X18021830Y-11230960D02*
X18002782Y-11240484D01*
X18002782Y-11240484D02*
X17974211Y-11240484D01*
X18155163Y-11240484D02*
X18136115Y-11230960D01*
X18136115Y-11230960D02*
X18126592Y-11211912D01*
X18126592Y-11211912D02*
X18126592Y-11040484D01*
X18307544Y-11230960D02*
X18288496Y-11240484D01*
X18288496Y-11240484D02*
X18250401Y-11240484D01*
X18250401Y-11240484D02*
X18231353Y-11230960D01*
X18231353Y-11230960D02*
X18221830Y-11211912D01*
X18221830Y-11211912D02*
X18221830Y-11135722D01*
X18221830Y-11135722D02*
X18231353Y-11116674D01*
X18231353Y-11116674D02*
X18250401Y-11107150D01*
X18250401Y-11107150D02*
X18288496Y-11107150D01*
X18288496Y-11107150D02*
X18307544Y-11116674D01*
X18307544Y-11116674D02*
X18317068Y-11135722D01*
X18317068Y-11135722D02*
X18317068Y-11154770D01*
X18317068Y-11154770D02*
X18221830Y-11173817D01*
X18393258Y-11230960D02*
X18412306Y-11240484D01*
X18412306Y-11240484D02*
X18450401Y-11240484D01*
X18450401Y-11240484D02*
X18469449Y-11230960D01*
X18469449Y-11230960D02*
X18478973Y-11211912D01*
X18478973Y-11211912D02*
X18478973Y-11202388D01*
X18478973Y-11202388D02*
X18469449Y-11183341D01*
X18469449Y-11183341D02*
X18450401Y-11173817D01*
X18450401Y-11173817D02*
X18421830Y-11173817D01*
X18421830Y-11173817D02*
X18402782Y-11164293D01*
X18402782Y-11164293D02*
X18393258Y-11145246D01*
X18393258Y-11145246D02*
X18393258Y-11135722D01*
X18393258Y-11135722D02*
X18402782Y-11116674D01*
X18402782Y-11116674D02*
X18421830Y-11107150D01*
X18421830Y-11107150D02*
X18450401Y-11107150D01*
X18450401Y-11107150D02*
X18469449Y-11116674D01*
X18545639Y-11316674D02*
X18555163Y-11307150D01*
X18555163Y-11307150D02*
X18574211Y-11278579D01*
X18574211Y-11278579D02*
X18583734Y-11259531D01*
X18583734Y-11259531D02*
X18593258Y-11230960D01*
X18593258Y-11230960D02*
X18602782Y-11183341D01*
X18602782Y-11183341D02*
X18602782Y-11145246D01*
X18602782Y-11145246D02*
X18593258Y-11097627D01*
X18593258Y-11097627D02*
X18583734Y-11069055D01*
X18583734Y-11069055D02*
X18574211Y-11050008D01*
X18574211Y-11050008D02*
X18555163Y-11021436D01*
X18555163Y-11021436D02*
X18545639Y-11011912D01*
D14*
X13554472Y-11474872D02*
X13554472Y-11351128D01*
X13430728Y-11351128D01*
X13430728Y-11474872D01*
X13554472Y-11474872D01*
D11*
X13945639Y-11504484D02*
X13831353Y-11504484D01*
X13888496Y-11504484D02*
X13888496Y-11304484D01*
X13888496Y-11304484D02*
X13869448Y-11333055D01*
X13869448Y-11333055D02*
X13850401Y-11352103D01*
X13850401Y-11352103D02*
X13831353Y-11361627D01*
X14031353Y-11485436D02*
X14040877Y-11494960D01*
X14040877Y-11494960D02*
X14031353Y-11504484D01*
X14031353Y-11504484D02*
X14021829Y-11494960D01*
X14021829Y-11494960D02*
X14031353Y-11485436D01*
X14031353Y-11485436D02*
X14031353Y-11504484D01*
X14107543Y-11304484D02*
X14240877Y-11304484D01*
X14240877Y-11304484D02*
X14155162Y-11504484D01*
X14412305Y-11304484D02*
X14317067Y-11304484D01*
X14317067Y-11304484D02*
X14307543Y-11399722D01*
X14307543Y-11399722D02*
X14317067Y-11390198D01*
X14317067Y-11390198D02*
X14336115Y-11380674D01*
X14336115Y-11380674D02*
X14383734Y-11380674D01*
X14383734Y-11380674D02*
X14402782Y-11390198D01*
X14402782Y-11390198D02*
X14412305Y-11399722D01*
X14412305Y-11399722D02*
X14421829Y-11418769D01*
X14421829Y-11418769D02*
X14421829Y-11466388D01*
X14421829Y-11466388D02*
X14412305Y-11485436D01*
X14412305Y-11485436D02*
X14402782Y-11494960D01*
X14402782Y-11494960D02*
X14383734Y-11504484D01*
X14383734Y-11504484D02*
X14336115Y-11504484D01*
X14336115Y-11504484D02*
X14317067Y-11494960D01*
X14317067Y-11494960D02*
X14307543Y-11485436D01*
X14545639Y-11304484D02*
X14564686Y-11304484D01*
X14564686Y-11304484D02*
X14583734Y-11314008D01*
X14583734Y-11314008D02*
X14593258Y-11323531D01*
X14593258Y-11323531D02*
X14602782Y-11342579D01*
X14602782Y-11342579D02*
X14612305Y-11380674D01*
X14612305Y-11380674D02*
X14612305Y-11428293D01*
X14612305Y-11428293D02*
X14602782Y-11466388D01*
X14602782Y-11466388D02*
X14593258Y-11485436D01*
X14593258Y-11485436D02*
X14583734Y-11494960D01*
X14583734Y-11494960D02*
X14564686Y-11504484D01*
X14564686Y-11504484D02*
X14545639Y-11504484D01*
X14545639Y-11504484D02*
X14526591Y-11494960D01*
X14526591Y-11494960D02*
X14517067Y-11485436D01*
X14517067Y-11485436D02*
X14507543Y-11466388D01*
X14507543Y-11466388D02*
X14498020Y-11428293D01*
X14498020Y-11428293D02*
X14498020Y-11380674D01*
X14498020Y-11380674D02*
X14507543Y-11342579D01*
X14507543Y-11342579D02*
X14517067Y-11323531D01*
X14517067Y-11323531D02*
X14526591Y-11314008D01*
X14526591Y-11314008D02*
X14545639Y-11304484D01*
X14698020Y-11504484D02*
X14698020Y-11371150D01*
X14698020Y-11390198D02*
X14707543Y-11380674D01*
X14707543Y-11380674D02*
X14726591Y-11371150D01*
X14726591Y-11371150D02*
X14755163Y-11371150D01*
X14755163Y-11371150D02*
X14774210Y-11380674D01*
X14774210Y-11380674D02*
X14783734Y-11399722D01*
X14783734Y-11399722D02*
X14783734Y-11504484D01*
X14783734Y-11399722D02*
X14793258Y-11380674D01*
X14793258Y-11380674D02*
X14812305Y-11371150D01*
X14812305Y-11371150D02*
X14840877Y-11371150D01*
X14840877Y-11371150D02*
X14859924Y-11380674D01*
X14859924Y-11380674D02*
X14869448Y-11399722D01*
X14869448Y-11399722D02*
X14869448Y-11504484D01*
X14964686Y-11504484D02*
X14964686Y-11371150D01*
X14964686Y-11390198D02*
X14974210Y-11380674D01*
X14974210Y-11380674D02*
X14993258Y-11371150D01*
X14993258Y-11371150D02*
X15021829Y-11371150D01*
X15021829Y-11371150D02*
X15040877Y-11380674D01*
X15040877Y-11380674D02*
X15050401Y-11399722D01*
X15050401Y-11399722D02*
X15050401Y-11504484D01*
X15050401Y-11399722D02*
X15059924Y-11380674D01*
X15059924Y-11380674D02*
X15078972Y-11371150D01*
X15078972Y-11371150D02*
X15107543Y-11371150D01*
X15107543Y-11371150D02*
X15126591Y-11380674D01*
X15126591Y-11380674D02*
X15136115Y-11399722D01*
X15136115Y-11399722D02*
X15136115Y-11504484D01*
X15526591Y-11294960D02*
X15355163Y-11552103D01*
X15783734Y-11304484D02*
X15802782Y-11304484D01*
X15802782Y-11304484D02*
X15821829Y-11314008D01*
X15821829Y-11314008D02*
X15831353Y-11323531D01*
X15831353Y-11323531D02*
X15840877Y-11342579D01*
X15840877Y-11342579D02*
X15850401Y-11380674D01*
X15850401Y-11380674D02*
X15850401Y-11428293D01*
X15850401Y-11428293D02*
X15840877Y-11466388D01*
X15840877Y-11466388D02*
X15831353Y-11485436D01*
X15831353Y-11485436D02*
X15821829Y-11494960D01*
X15821829Y-11494960D02*
X15802782Y-11504484D01*
X15802782Y-11504484D02*
X15783734Y-11504484D01*
X15783734Y-11504484D02*
X15764686Y-11494960D01*
X15764686Y-11494960D02*
X15755163Y-11485436D01*
X15755163Y-11485436D02*
X15745639Y-11466388D01*
X15745639Y-11466388D02*
X15736115Y-11428293D01*
X15736115Y-11428293D02*
X15736115Y-11380674D01*
X15736115Y-11380674D02*
X15745639Y-11342579D01*
X15745639Y-11342579D02*
X15755163Y-11323531D01*
X15755163Y-11323531D02*
X15764686Y-11314008D01*
X15764686Y-11314008D02*
X15783734Y-11304484D01*
X15936115Y-11485436D02*
X15945639Y-11494960D01*
X15945639Y-11494960D02*
X15936115Y-11504484D01*
X15936115Y-11504484D02*
X15926591Y-11494960D01*
X15926591Y-11494960D02*
X15936115Y-11485436D01*
X15936115Y-11485436D02*
X15936115Y-11504484D01*
X16069448Y-11304484D02*
X16088496Y-11304484D01*
X16088496Y-11304484D02*
X16107544Y-11314008D01*
X16107544Y-11314008D02*
X16117067Y-11323531D01*
X16117067Y-11323531D02*
X16126591Y-11342579D01*
X16126591Y-11342579D02*
X16136115Y-11380674D01*
X16136115Y-11380674D02*
X16136115Y-11428293D01*
X16136115Y-11428293D02*
X16126591Y-11466388D01*
X16126591Y-11466388D02*
X16117067Y-11485436D01*
X16117067Y-11485436D02*
X16107544Y-11494960D01*
X16107544Y-11494960D02*
X16088496Y-11504484D01*
X16088496Y-11504484D02*
X16069448Y-11504484D01*
X16069448Y-11504484D02*
X16050401Y-11494960D01*
X16050401Y-11494960D02*
X16040877Y-11485436D01*
X16040877Y-11485436D02*
X16031353Y-11466388D01*
X16031353Y-11466388D02*
X16021829Y-11428293D01*
X16021829Y-11428293D02*
X16021829Y-11380674D01*
X16021829Y-11380674D02*
X16031353Y-11342579D01*
X16031353Y-11342579D02*
X16040877Y-11323531D01*
X16040877Y-11323531D02*
X16050401Y-11314008D01*
X16050401Y-11314008D02*
X16069448Y-11304484D01*
X16307544Y-11304484D02*
X16269448Y-11304484D01*
X16269448Y-11304484D02*
X16250401Y-11314008D01*
X16250401Y-11314008D02*
X16240877Y-11323531D01*
X16240877Y-11323531D02*
X16221829Y-11352103D01*
X16221829Y-11352103D02*
X16212306Y-11390198D01*
X16212306Y-11390198D02*
X16212306Y-11466388D01*
X16212306Y-11466388D02*
X16221829Y-11485436D01*
X16221829Y-11485436D02*
X16231353Y-11494960D01*
X16231353Y-11494960D02*
X16250401Y-11504484D01*
X16250401Y-11504484D02*
X16288496Y-11504484D01*
X16288496Y-11504484D02*
X16307544Y-11494960D01*
X16307544Y-11494960D02*
X16317067Y-11485436D01*
X16317067Y-11485436D02*
X16326591Y-11466388D01*
X16326591Y-11466388D02*
X16326591Y-11418769D01*
X16326591Y-11418769D02*
X16317067Y-11399722D01*
X16317067Y-11399722D02*
X16307544Y-11390198D01*
X16307544Y-11390198D02*
X16288496Y-11380674D01*
X16288496Y-11380674D02*
X16250401Y-11380674D01*
X16250401Y-11380674D02*
X16231353Y-11390198D01*
X16231353Y-11390198D02*
X16221829Y-11399722D01*
X16221829Y-11399722D02*
X16212306Y-11418769D01*
X16440877Y-11390198D02*
X16421829Y-11380674D01*
X16421829Y-11380674D02*
X16412306Y-11371150D01*
X16412306Y-11371150D02*
X16402782Y-11352103D01*
X16402782Y-11352103D02*
X16402782Y-11342579D01*
X16402782Y-11342579D02*
X16412306Y-11323531D01*
X16412306Y-11323531D02*
X16421829Y-11314008D01*
X16421829Y-11314008D02*
X16440877Y-11304484D01*
X16440877Y-11304484D02*
X16478972Y-11304484D01*
X16478972Y-11304484D02*
X16498020Y-11314008D01*
X16498020Y-11314008D02*
X16507544Y-11323531D01*
X16507544Y-11323531D02*
X16517067Y-11342579D01*
X16517067Y-11342579D02*
X16517067Y-11352103D01*
X16517067Y-11352103D02*
X16507544Y-11371150D01*
X16507544Y-11371150D02*
X16498020Y-11380674D01*
X16498020Y-11380674D02*
X16478972Y-11390198D01*
X16478972Y-11390198D02*
X16440877Y-11390198D01*
X16440877Y-11390198D02*
X16421829Y-11399722D01*
X16421829Y-11399722D02*
X16412306Y-11409246D01*
X16412306Y-11409246D02*
X16402782Y-11428293D01*
X16402782Y-11428293D02*
X16402782Y-11466388D01*
X16402782Y-11466388D02*
X16412306Y-11485436D01*
X16412306Y-11485436D02*
X16421829Y-11494960D01*
X16421829Y-11494960D02*
X16440877Y-11504484D01*
X16440877Y-11504484D02*
X16478972Y-11504484D01*
X16478972Y-11504484D02*
X16498020Y-11494960D01*
X16498020Y-11494960D02*
X16507544Y-11485436D01*
X16507544Y-11485436D02*
X16517067Y-11466388D01*
X16517067Y-11466388D02*
X16517067Y-11428293D01*
X16517067Y-11428293D02*
X16507544Y-11409246D01*
X16507544Y-11409246D02*
X16498020Y-11399722D01*
X16498020Y-11399722D02*
X16478972Y-11390198D01*
X16612306Y-11504484D02*
X16650401Y-11504484D01*
X16650401Y-11504484D02*
X16669448Y-11494960D01*
X16669448Y-11494960D02*
X16678972Y-11485436D01*
X16678972Y-11485436D02*
X16698020Y-11456865D01*
X16698020Y-11456865D02*
X16707544Y-11418769D01*
X16707544Y-11418769D02*
X16707544Y-11342579D01*
X16707544Y-11342579D02*
X16698020Y-11323531D01*
X16698020Y-11323531D02*
X16688496Y-11314008D01*
X16688496Y-11314008D02*
X16669448Y-11304484D01*
X16669448Y-11304484D02*
X16631353Y-11304484D01*
X16631353Y-11304484D02*
X16612306Y-11314008D01*
X16612306Y-11314008D02*
X16602782Y-11323531D01*
X16602782Y-11323531D02*
X16593258Y-11342579D01*
X16593258Y-11342579D02*
X16593258Y-11390198D01*
X16593258Y-11390198D02*
X16602782Y-11409246D01*
X16602782Y-11409246D02*
X16612306Y-11418769D01*
X16612306Y-11418769D02*
X16631353Y-11428293D01*
X16631353Y-11428293D02*
X16669448Y-11428293D01*
X16669448Y-11428293D02*
X16688496Y-11418769D01*
X16688496Y-11418769D02*
X16698020Y-11409246D01*
X16698020Y-11409246D02*
X16707544Y-11390198D01*
X16783734Y-11304484D02*
X16783734Y-11342579D01*
X16859925Y-11304484D02*
X16859925Y-11342579D01*
X17155163Y-11580674D02*
X17145639Y-11571150D01*
X17145639Y-11571150D02*
X17126591Y-11542579D01*
X17126591Y-11542579D02*
X17117068Y-11523531D01*
X17117068Y-11523531D02*
X17107544Y-11494960D01*
X17107544Y-11494960D02*
X17098020Y-11447341D01*
X17098020Y-11447341D02*
X17098020Y-11409246D01*
X17098020Y-11409246D02*
X17107544Y-11361627D01*
X17107544Y-11361627D02*
X17117068Y-11333055D01*
X17117068Y-11333055D02*
X17126591Y-11314008D01*
X17126591Y-11314008D02*
X17145639Y-11285436D01*
X17145639Y-11285436D02*
X17155163Y-11275912D01*
X17221830Y-11323531D02*
X17231353Y-11314008D01*
X17231353Y-11314008D02*
X17250401Y-11304484D01*
X17250401Y-11304484D02*
X17298020Y-11304484D01*
X17298020Y-11304484D02*
X17317068Y-11314008D01*
X17317068Y-11314008D02*
X17326591Y-11323531D01*
X17326591Y-11323531D02*
X17336115Y-11342579D01*
X17336115Y-11342579D02*
X17336115Y-11361627D01*
X17336115Y-11361627D02*
X17326591Y-11390198D01*
X17326591Y-11390198D02*
X17212306Y-11504484D01*
X17212306Y-11504484D02*
X17336115Y-11504484D01*
X17574211Y-11504484D02*
X17574211Y-11304484D01*
X17659925Y-11504484D02*
X17659925Y-11399722D01*
X17659925Y-11399722D02*
X17650401Y-11380674D01*
X17650401Y-11380674D02*
X17631353Y-11371150D01*
X17631353Y-11371150D02*
X17602782Y-11371150D01*
X17602782Y-11371150D02*
X17583734Y-11380674D01*
X17583734Y-11380674D02*
X17574211Y-11390198D01*
X17783734Y-11504484D02*
X17764687Y-11494960D01*
X17764687Y-11494960D02*
X17755163Y-11485436D01*
X17755163Y-11485436D02*
X17745639Y-11466388D01*
X17745639Y-11466388D02*
X17745639Y-11409246D01*
X17745639Y-11409246D02*
X17755163Y-11390198D01*
X17755163Y-11390198D02*
X17764687Y-11380674D01*
X17764687Y-11380674D02*
X17783734Y-11371150D01*
X17783734Y-11371150D02*
X17812306Y-11371150D01*
X17812306Y-11371150D02*
X17831353Y-11380674D01*
X17831353Y-11380674D02*
X17840877Y-11390198D01*
X17840877Y-11390198D02*
X17850401Y-11409246D01*
X17850401Y-11409246D02*
X17850401Y-11466388D01*
X17850401Y-11466388D02*
X17840877Y-11485436D01*
X17840877Y-11485436D02*
X17831353Y-11494960D01*
X17831353Y-11494960D02*
X17812306Y-11504484D01*
X17812306Y-11504484D02*
X17783734Y-11504484D01*
X17964687Y-11504484D02*
X17945639Y-11494960D01*
X17945639Y-11494960D02*
X17936115Y-11475912D01*
X17936115Y-11475912D02*
X17936115Y-11304484D01*
X18117068Y-11494960D02*
X18098020Y-11504484D01*
X18098020Y-11504484D02*
X18059925Y-11504484D01*
X18059925Y-11504484D02*
X18040877Y-11494960D01*
X18040877Y-11494960D02*
X18031353Y-11475912D01*
X18031353Y-11475912D02*
X18031353Y-11399722D01*
X18031353Y-11399722D02*
X18040877Y-11380674D01*
X18040877Y-11380674D02*
X18059925Y-11371150D01*
X18059925Y-11371150D02*
X18098020Y-11371150D01*
X18098020Y-11371150D02*
X18117068Y-11380674D01*
X18117068Y-11380674D02*
X18126592Y-11399722D01*
X18126592Y-11399722D02*
X18126592Y-11418769D01*
X18126592Y-11418769D02*
X18031353Y-11437817D01*
X18202782Y-11494960D02*
X18221830Y-11504484D01*
X18221830Y-11504484D02*
X18259925Y-11504484D01*
X18259925Y-11504484D02*
X18278973Y-11494960D01*
X18278973Y-11494960D02*
X18288496Y-11475912D01*
X18288496Y-11475912D02*
X18288496Y-11466388D01*
X18288496Y-11466388D02*
X18278973Y-11447341D01*
X18278973Y-11447341D02*
X18259925Y-11437817D01*
X18259925Y-11437817D02*
X18231353Y-11437817D01*
X18231353Y-11437817D02*
X18212306Y-11428293D01*
X18212306Y-11428293D02*
X18202782Y-11409246D01*
X18202782Y-11409246D02*
X18202782Y-11399722D01*
X18202782Y-11399722D02*
X18212306Y-11380674D01*
X18212306Y-11380674D02*
X18231353Y-11371150D01*
X18231353Y-11371150D02*
X18259925Y-11371150D01*
X18259925Y-11371150D02*
X18278973Y-11380674D01*
X18355163Y-11580674D02*
X18364687Y-11571150D01*
X18364687Y-11571150D02*
X18383734Y-11542579D01*
X18383734Y-11542579D02*
X18393258Y-11523531D01*
X18393258Y-11523531D02*
X18402782Y-11494960D01*
X18402782Y-11494960D02*
X18412306Y-11447341D01*
X18412306Y-11447341D02*
X18412306Y-11409246D01*
X18412306Y-11409246D02*
X18402782Y-11361627D01*
X18402782Y-11361627D02*
X18393258Y-11333055D01*
X18393258Y-11333055D02*
X18383734Y-11314008D01*
X18383734Y-11314008D02*
X18364687Y-11285436D01*
X18364687Y-11285436D02*
X18355163Y-11275912D01*
M02*
