M48
; DRILL file {KiCad 9.0.6} date 2026-02-03T22:31:45-0800
; FORMAT={-:-/ absolute / metric / decimal}
; #@! TF.CreationDate,2026-02-03T22:31:45-08:00
; #@! TF.GenerationSoftware,Kicad,Pcbnew,9.0.6
; #@! TF.FileFunction,Plated,1,2,PTH
FMAT,2
METRIC
; #@! TA.AperFunction,Plated,PTH,ViaDrill
T1C0.300
; #@! TA.AperFunction,Plated,PTH,ComponentDrill
T2C0.300
; #@! TA.AperFunction,Plated,PTH,ComponentDrill
T3C1.050
; #@! TA.AperFunction,Plated,PTH,ComponentDrill
T4C1.750
%
G90
G05
T1
X137.5Y-77.675
X139.39Y-81.145
X140.45Y-77.675
X140.93Y-70.34
X142.95Y-83.3
X143.8Y-81.75
X144.4Y-79.65
X145.375Y-84.1
X145.535Y-70.34
X146.15Y-77.625
X147.65Y-76.375
X147.66Y-67.835
X147.69Y-61.24
X147.71Y-82.845
X147.72Y-54.645
X149.737Y-72.043
X149.737Y-77.043
X149.737Y-79.993
X151.3Y-85.515
X153.315Y-85.371
X154.984Y-85.386
X156.466Y-85.729
X157.356Y-88.69
X157.915Y-91.16
X158.31Y-88.654
X159.216Y-85.729
X159.25Y-98.0
X160.125Y-88.15
X160.879Y-85.379
X161.756Y-98.025
X162.35Y-93.675
X162.35Y-96.425
X162.629Y-85.379
X163.3Y-96.425
X164.25Y-93.675
X164.7Y-85.475
X165.737Y-72.043
X165.737Y-79.993
T2
X141.342Y-80.65
X141.85Y-79.761
X141.85Y-81.514
X142.358Y-80.65
T3
X141.224Y-53.086
X141.224Y-66.294
X141.264Y-59.69
X143.724Y-53.086
X143.724Y-66.294
X143.764Y-59.69
X152.1Y-59.65
X152.145Y-53.031
X152.145Y-66.239
X154.6Y-59.65
X154.645Y-53.031
X154.645Y-66.239
X160.48Y-66.208
X160.5Y-53.0
X160.52Y-59.604
X162.98Y-66.208
X163.0Y-53.0
X163.02Y-59.604
T4
X140.9Y-91.275
X144.86Y-91.275
M30
