%TF.GenerationSoftware,KiCad,Pcbnew,9.0.6*%
%TF.CreationDate,2026-02-03T22:31:43-08:00*%
%TF.ProjectId,PowerBlock,506f7765-7242-46c6-9f63-6b2e6b696361,rev?*%
%TF.SameCoordinates,Original*%
%TF.FileFunction,Legend,Bot*%
%TF.FilePolarity,Positive*%
%FSLAX46Y46*%
G04 Gerber Fmt 4.6, Leading zero omitted, Abs format (unit mm)*
G04 Created by KiCad (PCBNEW 9.0.6) date 2026-02-03 22:31:43*
%MOMM*%
%LPD*%
G01*
G04 APERTURE LIST*
%ADD10C,0.150000*%
G04 APERTURE END LIST*
D10*
X145877506Y-96299819D02*
X145877506Y-97014104D01*
X145877506Y-97014104D02*
X145925125Y-97156961D01*
X145925125Y-97156961D02*
X146020363Y-97252200D01*
X146020363Y-97252200D02*
X146163220Y-97299819D01*
X146163220Y-97299819D02*
X146258458Y-97299819D01*
X144972744Y-97299819D02*
X144972744Y-96776009D01*
X144972744Y-96776009D02*
X145020363Y-96680771D01*
X145020363Y-96680771D02*
X145115601Y-96633152D01*
X145115601Y-96633152D02*
X145306077Y-96633152D01*
X145306077Y-96633152D02*
X145401315Y-96680771D01*
X144972744Y-97252200D02*
X145067982Y-97299819D01*
X145067982Y-97299819D02*
X145306077Y-97299819D01*
X145306077Y-97299819D02*
X145401315Y-97252200D01*
X145401315Y-97252200D02*
X145448934Y-97156961D01*
X145448934Y-97156961D02*
X145448934Y-97061723D01*
X145448934Y-97061723D02*
X145401315Y-96966485D01*
X145401315Y-96966485D02*
X145306077Y-96918866D01*
X145306077Y-96918866D02*
X145067982Y-96918866D01*
X145067982Y-96918866D02*
X144972744Y-96871247D01*
X144067982Y-97252200D02*
X144163220Y-97299819D01*
X144163220Y-97299819D02*
X144353696Y-97299819D01*
X144353696Y-97299819D02*
X144448934Y-97252200D01*
X144448934Y-97252200D02*
X144496553Y-97204580D01*
X144496553Y-97204580D02*
X144544172Y-97109342D01*
X144544172Y-97109342D02*
X144544172Y-96823628D01*
X144544172Y-96823628D02*
X144496553Y-96728390D01*
X144496553Y-96728390D02*
X144448934Y-96680771D01*
X144448934Y-96680771D02*
X144353696Y-96633152D01*
X144353696Y-96633152D02*
X144163220Y-96633152D01*
X144163220Y-96633152D02*
X144067982Y-96680771D01*
X143639410Y-97299819D02*
X143639410Y-96299819D01*
X143544172Y-96918866D02*
X143258458Y-97299819D01*
X143258458Y-96633152D02*
X143639410Y-97014104D01*
X141734648Y-96776009D02*
X142067981Y-96776009D01*
X142067981Y-97299819D02*
X142067981Y-96299819D01*
X142067981Y-96299819D02*
X141591791Y-96299819D01*
X141210838Y-97299819D02*
X141210838Y-96633152D01*
X141210838Y-96823628D02*
X141163219Y-96728390D01*
X141163219Y-96728390D02*
X141115600Y-96680771D01*
X141115600Y-96680771D02*
X141020362Y-96633152D01*
X141020362Y-96633152D02*
X140925124Y-96633152D01*
X140163219Y-97299819D02*
X140163219Y-96776009D01*
X140163219Y-96776009D02*
X140210838Y-96680771D01*
X140210838Y-96680771D02*
X140306076Y-96633152D01*
X140306076Y-96633152D02*
X140496552Y-96633152D01*
X140496552Y-96633152D02*
X140591790Y-96680771D01*
X140163219Y-97252200D02*
X140258457Y-97299819D01*
X140258457Y-97299819D02*
X140496552Y-97299819D01*
X140496552Y-97299819D02*
X140591790Y-97252200D01*
X140591790Y-97252200D02*
X140639409Y-97156961D01*
X140639409Y-97156961D02*
X140639409Y-97061723D01*
X140639409Y-97061723D02*
X140591790Y-96966485D01*
X140591790Y-96966485D02*
X140496552Y-96918866D01*
X140496552Y-96918866D02*
X140258457Y-96918866D01*
X140258457Y-96918866D02*
X140163219Y-96871247D01*
X139544171Y-97299819D02*
X139639409Y-97252200D01*
X139639409Y-97252200D02*
X139687028Y-97156961D01*
X139687028Y-97156961D02*
X139687028Y-96299819D01*
X138782266Y-97252200D02*
X138877504Y-97299819D01*
X138877504Y-97299819D02*
X139067980Y-97299819D01*
X139067980Y-97299819D02*
X139163218Y-97252200D01*
X139163218Y-97252200D02*
X139210837Y-97156961D01*
X139210837Y-97156961D02*
X139210837Y-96776009D01*
X139210837Y-96776009D02*
X139163218Y-96680771D01*
X139163218Y-96680771D02*
X139067980Y-96633152D01*
X139067980Y-96633152D02*
X138877504Y-96633152D01*
X138877504Y-96633152D02*
X138782266Y-96680771D01*
X138782266Y-96680771D02*
X138734647Y-96776009D01*
X138734647Y-96776009D02*
X138734647Y-96871247D01*
X138734647Y-96871247D02*
X139210837Y-96966485D01*
X138401313Y-96633152D02*
X138163218Y-97299819D01*
X137925123Y-96633152D02*
X138163218Y-97299819D01*
X138163218Y-97299819D02*
X138258456Y-97537914D01*
X138258456Y-97537914D02*
X138306075Y-97585533D01*
X138306075Y-97585533D02*
X138401313Y-97633152D01*
M02*
