%TF.GenerationSoftware,KiCad,Pcbnew,9.0.6*%
%TF.CreationDate,2026-02-03T22:31:43-08:00*%
%TF.ProjectId,PowerBlock,506f7765-7242-46c6-9f63-6b2e6b696361,rev?*%
%TF.SameCoordinates,Original*%
%TF.FileFunction,Copper,L2,Bot*%
%TF.FilePolarity,Positive*%
%FSLAX46Y46*%
G04 Gerber Fmt 4.6, Leading zero omitted, Abs format (unit mm)*
G04 Created by KiCad (PCBNEW 9.0.6) date 2026-02-03 22:31:43*
%MOMM*%
%LPD*%
G01*
G04 APERTURE LIST*
%TA.AperFunction,ComponentPad*%
%ADD10C,1.575000*%
%TD*%
%TA.AperFunction,ComponentPad*%
%ADD11R,1.575000X1.575000*%
%TD*%
%TA.AperFunction,ComponentPad*%
%ADD12R,2.625000X2.625000*%
%TD*%
%TA.AperFunction,ComponentPad*%
%ADD13C,2.625000*%
%TD*%
%TA.AperFunction,ComponentPad*%
%ADD14C,0.600000*%
%TD*%
%TA.AperFunction,ViaPad*%
%ADD15C,0.600000*%
%TD*%
%TA.AperFunction,ViaPad*%
%ADD16C,0.808000*%
%TD*%
%TA.AperFunction,Conductor*%
%ADD17C,0.800000*%
%TD*%
%TA.AperFunction,Conductor*%
%ADD18C,0.200000*%
%TD*%
G04 APERTURE END LIST*
D10*
%TO.P,J10,2,2*%
%TO.N,GND*%
X160500000Y-53000000D03*
D11*
%TO.P,J10,1,1*%
%TO.N,Net-(U1-BIAS)*%
X163000000Y-53000000D03*
%TD*%
%TO.P,J9,1,1*%
%TO.N,Net-(U1-BIAS)*%
X154644733Y-66239073D03*
D10*
%TO.P,J9,2,2*%
%TO.N,GND*%
X152144733Y-66239073D03*
%TD*%
%TO.P,J5,2,2*%
%TO.N,GND*%
X160520000Y-59604000D03*
D11*
%TO.P,J5,1,1*%
%TO.N,Net-(U1-BIAS)*%
X163020000Y-59604000D03*
%TD*%
%TO.P,J6,1,1*%
%TO.N,Net-(U1-BIAS)*%
X154600000Y-59650000D03*
D10*
%TO.P,J6,2,2*%
%TO.N,GND*%
X152100000Y-59650000D03*
%TD*%
D11*
%TO.P,J8,1,1*%
%TO.N,Net-(U1-BIAS)*%
X162980000Y-66208000D03*
D10*
%TO.P,J8,2,2*%
%TO.N,GND*%
X160480000Y-66208000D03*
%TD*%
D11*
%TO.P,J7,1,1*%
%TO.N,Net-(U1-BIAS)*%
X154644733Y-53031073D03*
D10*
%TO.P,J7,2,2*%
%TO.N,GND*%
X152144733Y-53031073D03*
%TD*%
D11*
%TO.P,J2,1,1*%
%TO.N,Net-(C1-Pad1)*%
X143724000Y-53086000D03*
D10*
%TO.P,J2,2,2*%
%TO.N,GND*%
X141224000Y-53086000D03*
%TD*%
D11*
%TO.P,J3,1,1*%
%TO.N,Net-(C1-Pad1)*%
X143764000Y-59690000D03*
D10*
%TO.P,J3,2,2*%
%TO.N,GND*%
X141264000Y-59690000D03*
%TD*%
D11*
%TO.P,J4,1,1*%
%TO.N,Net-(C1-Pad1)*%
X143724000Y-66294000D03*
D10*
%TO.P,J4,2,2*%
%TO.N,GND*%
X141224000Y-66294000D03*
%TD*%
D12*
%TO.P,J1,1,1*%
%TO.N,GND*%
X140900000Y-91275000D03*
D13*
%TO.P,J1,2,2*%
%TO.N,Net-(F1-Pad1)*%
X144860000Y-91275000D03*
%TD*%
D14*
%TO.P,U5,15*%
%TO.N,GND*%
X141850000Y-79761000D03*
%TO.P,U5,14*%
X141850000Y-81513600D03*
%TO.P,U5,13*%
X141342000Y-80650000D03*
%TO.P,U5,12*%
X142358000Y-80650000D03*
%TD*%
D15*
%TO.N,GND*%
X140930000Y-70340000D03*
X145535000Y-70340000D03*
X151300000Y-85515000D03*
X163300001Y-96425000D03*
%TO.N,Net-(U1-EN)*%
X162350000Y-93675000D03*
%TO.N,Net-(U2-INB-)*%
X161755695Y-98025000D03*
X164249999Y-93675000D03*
%TO.N,Net-(U1-EN)*%
X162350000Y-96425000D03*
D16*
%TO.N,GND*%
X164699802Y-85475296D03*
D15*
X158310000Y-88654000D03*
%TO.N,Net-(U1-BIAS)*%
X147650000Y-76375000D03*
%TO.N,GND*%
X137500000Y-77675000D03*
%TO.N,Net-(U1-BIAS)*%
X140450000Y-77675000D03*
%TO.N,Net-(U1-EN)*%
X160125000Y-88150000D03*
%TO.N,GND*%
X159249999Y-98000000D03*
X147710000Y-82845000D03*
%TO.N,Net-(COUT4-Pad1)*%
X144399999Y-79649999D03*
X142950000Y-83300000D03*
%TO.N,GND*%
X145375000Y-84100000D03*
X143799999Y-81749999D03*
X146150000Y-77625000D03*
X139390000Y-81145000D03*
%TO.N,Net-(U1-BIAS)*%
X149736733Y-77043073D03*
%TO.N,GND*%
X157915000Y-91160000D03*
%TO.N,Net-(U1-BIAS)*%
X157356383Y-88689862D03*
D16*
%TO.N,GND*%
X160879366Y-85379000D03*
D15*
X159216367Y-85729002D03*
X153315045Y-85371267D03*
D16*
X162629366Y-85379000D03*
D15*
X149736733Y-79993073D03*
X149736733Y-72043073D03*
X165736733Y-72043073D03*
X165736733Y-79993073D03*
D16*
X154984316Y-85386040D03*
D15*
X156466365Y-85729002D03*
X147720000Y-54645000D03*
X147690000Y-61240000D03*
X147660000Y-67835000D03*
%TD*%
D17*
%TO.N,Net-(U1-BIAS)*%
X157356383Y-88689862D02*
X157367365Y-88678880D01*
X157367365Y-84673705D02*
X149736733Y-77043073D01*
X157367365Y-88678880D02*
X157367365Y-84673705D01*
D18*
%TO.N,Net-(U1-EN)*%
X162350000Y-96425000D02*
X162350000Y-93675000D01*
D17*
%TO.N,Net-(U1-BIAS)*%
X147650000Y-76375000D02*
X141750000Y-76375000D01*
D18*
%TO.N,Net-(COUT4-Pad1)*%
X144399999Y-79649999D02*
X144399999Y-82530001D01*
X144399999Y-82530001D02*
X143630000Y-83300000D01*
D17*
%TO.N,Net-(U1-BIAS)*%
X149736733Y-77043073D02*
X149068660Y-76375000D01*
X149068660Y-76375000D02*
X147650000Y-76375000D01*
X141750000Y-76375000D02*
X140450000Y-77675000D01*
D18*
%TO.N,Net-(COUT4-Pad1)*%
X143630000Y-83300000D02*
X142950000Y-83300000D01*
%TO.N,Net-(U1-EN)*%
X160125000Y-91450000D02*
X160125000Y-88150000D01*
X162350000Y-93675000D02*
X160125000Y-91450000D01*
%TO.N,Net-(U2-INB-)*%
X164249999Y-96375000D02*
X164249999Y-93675000D01*
X162599999Y-98025000D02*
X164249999Y-96375000D01*
X161755695Y-98025000D02*
X162599999Y-98025000D01*
%TD*%
%TA.AperFunction,Conductor*%
%TO.N,GND*%
G36*
X167982539Y-48771185D02*
G01*
X168028294Y-48823989D01*
X168039500Y-48875500D01*
X168039500Y-99160500D01*
X168019815Y-99227539D01*
X167967011Y-99273294D01*
X167915500Y-99284500D01*
X136450500Y-99284500D01*
X136383461Y-99264815D01*
X136337706Y-99212011D01*
X136326500Y-99160500D01*
X136326500Y-97959108D01*
X161255195Y-97959108D01*
X161255195Y-98090891D01*
X161289303Y-98218187D01*
X161316597Y-98265460D01*
X161355195Y-98332314D01*
X161448381Y-98425500D01*
X161562509Y-98491392D01*
X161689803Y-98525500D01*
X161689805Y-98525500D01*
X161821585Y-98525500D01*
X161821587Y-98525500D01*
X161948881Y-98491392D01*
X162063009Y-98425500D01*
X162126690Y-98361819D01*
X162188013Y-98328334D01*
X162214371Y-98325500D01*
X162639559Y-98325500D01*
X162639561Y-98325500D01*
X162715988Y-98305021D01*
X162784510Y-98265460D01*
X162840459Y-98209511D01*
X164490459Y-96559511D01*
X164530020Y-96490989D01*
X164550499Y-96414562D01*
X164550499Y-94133676D01*
X164570184Y-94066637D01*
X164586818Y-94045995D01*
X164650499Y-93982314D01*
X164716391Y-93868186D01*
X164750499Y-93740892D01*
X164750499Y-93609108D01*
X164716391Y-93481814D01*
X164650499Y-93367686D01*
X164557313Y-93274500D01*
X164500249Y-93241554D01*
X164443186Y-93208608D01*
X164379538Y-93191554D01*
X164315891Y-93174500D01*
X164184107Y-93174500D01*
X164056811Y-93208608D01*
X163942685Y-93274500D01*
X163942682Y-93274502D01*
X163849501Y-93367683D01*
X163849499Y-93367686D01*
X163783607Y-93481812D01*
X163749499Y-93609108D01*
X163749499Y-93740891D01*
X163783607Y-93868187D01*
X163816553Y-93925250D01*
X163849499Y-93982314D01*
X163849501Y-93982316D01*
X163913180Y-94045995D01*
X163946665Y-94107318D01*
X163949499Y-94133676D01*
X163949499Y-96199167D01*
X163929814Y-96266206D01*
X163913180Y-96286848D01*
X162511847Y-97688181D01*
X162484919Y-97702884D01*
X162459101Y-97719477D01*
X162452900Y-97720368D01*
X162450524Y-97721666D01*
X162424166Y-97724500D01*
X162214371Y-97724500D01*
X162147332Y-97704815D01*
X162126690Y-97688181D01*
X162063011Y-97624502D01*
X162063009Y-97624500D01*
X162005945Y-97591554D01*
X161948882Y-97558608D01*
X161885234Y-97541554D01*
X161821587Y-97524500D01*
X161689803Y-97524500D01*
X161562507Y-97558608D01*
X161448381Y-97624500D01*
X161448378Y-97624502D01*
X161355197Y-97717683D01*
X161355195Y-97717686D01*
X161289303Y-97831812D01*
X161255195Y-97959108D01*
X136326500Y-97959108D01*
X136326500Y-91155925D01*
X143347000Y-91155925D01*
X143347000Y-91394074D01*
X143384256Y-91629296D01*
X143457846Y-91855787D01*
X143457847Y-91855790D01*
X143565967Y-92067985D01*
X143705949Y-92260653D01*
X143874347Y-92429051D01*
X144067015Y-92569033D01*
X144171090Y-92622061D01*
X144279209Y-92677152D01*
X144279212Y-92677153D01*
X144392457Y-92713948D01*
X144505705Y-92750744D01*
X144740924Y-92788000D01*
X144740925Y-92788000D01*
X144979075Y-92788000D01*
X144979076Y-92788000D01*
X145214295Y-92750744D01*
X145440790Y-92677152D01*
X145652985Y-92569033D01*
X145845653Y-92429051D01*
X146014051Y-92260653D01*
X146154033Y-92067985D01*
X146262152Y-91855790D01*
X146335744Y-91629295D01*
X146373000Y-91394076D01*
X146373000Y-91155924D01*
X146335744Y-90920705D01*
X146262152Y-90694210D01*
X146262152Y-90694209D01*
X146154032Y-90482014D01*
X146014051Y-90289347D01*
X145845653Y-90120949D01*
X145652985Y-89980967D01*
X145440790Y-89872847D01*
X145440787Y-89872846D01*
X145214296Y-89799256D01*
X145096685Y-89780628D01*
X144979076Y-89762000D01*
X144740924Y-89762000D01*
X144662517Y-89774418D01*
X144505703Y-89799256D01*
X144279212Y-89872846D01*
X144279209Y-89872847D01*
X144067014Y-89980967D01*
X143957090Y-90060832D01*
X143874347Y-90120949D01*
X143874345Y-90120951D01*
X143874344Y-90120951D01*
X143705951Y-90289344D01*
X143705951Y-90289345D01*
X143705949Y-90289347D01*
X143645832Y-90372090D01*
X143565967Y-90482014D01*
X143457847Y-90694209D01*
X143457846Y-90694212D01*
X143384256Y-90920703D01*
X143347000Y-91155925D01*
X136326500Y-91155925D01*
X136326500Y-83234108D01*
X142449500Y-83234108D01*
X142449500Y-83365891D01*
X142483608Y-83493187D01*
X142510902Y-83540460D01*
X142549500Y-83607314D01*
X142642686Y-83700500D01*
X142756814Y-83766392D01*
X142884108Y-83800500D01*
X142884110Y-83800500D01*
X143015890Y-83800500D01*
X143015892Y-83800500D01*
X143143186Y-83766392D01*
X143257314Y-83700500D01*
X143320995Y-83636819D01*
X143382318Y-83603334D01*
X143408676Y-83600500D01*
X143669560Y-83600500D01*
X143669562Y-83600500D01*
X143745989Y-83580021D01*
X143814511Y-83540460D01*
X143870460Y-83484511D01*
X144640459Y-82714512D01*
X144680020Y-82645990D01*
X144700499Y-82569563D01*
X144700499Y-80108675D01*
X144720184Y-80041636D01*
X144736818Y-80020994D01*
X144800499Y-79957313D01*
X144866391Y-79843185D01*
X144900499Y-79715891D01*
X144900499Y-79584107D01*
X144866391Y-79456813D01*
X144800499Y-79342685D01*
X144707313Y-79249499D01*
X144650249Y-79216553D01*
X144593186Y-79183607D01*
X144529538Y-79166553D01*
X144465891Y-79149499D01*
X144334107Y-79149499D01*
X144206811Y-79183607D01*
X144092685Y-79249499D01*
X144092682Y-79249501D01*
X143999501Y-79342682D01*
X143999499Y-79342685D01*
X143933607Y-79456811D01*
X143899499Y-79584107D01*
X143899499Y-79715890D01*
X143933607Y-79843186D01*
X143966553Y-79900249D01*
X143999499Y-79957313D01*
X143999501Y-79957315D01*
X144063180Y-80020994D01*
X144096665Y-80082317D01*
X144099499Y-80108675D01*
X144099499Y-82354168D01*
X144079814Y-82421207D01*
X144063180Y-82441849D01*
X143541848Y-82963181D01*
X143514920Y-82977884D01*
X143489102Y-82994477D01*
X143482901Y-82995368D01*
X143480525Y-82996666D01*
X143454167Y-82999500D01*
X143408676Y-82999500D01*
X143341637Y-82979815D01*
X143320995Y-82963181D01*
X143257316Y-82899502D01*
X143257314Y-82899500D01*
X143200250Y-82866554D01*
X143143187Y-82833608D01*
X143079539Y-82816554D01*
X143015892Y-82799500D01*
X142884108Y-82799500D01*
X142756812Y-82833608D01*
X142642686Y-82899500D01*
X142642683Y-82899502D01*
X142549502Y-82992683D01*
X142549500Y-82992686D01*
X142483608Y-83106812D01*
X142449500Y-83234108D01*
X136326500Y-83234108D01*
X136326500Y-77754054D01*
X139849498Y-77754054D01*
X139849499Y-77754057D01*
X139890423Y-77906785D01*
X139969481Y-78043716D01*
X140081284Y-78155519D01*
X140218215Y-78234577D01*
X140370943Y-78275501D01*
X140370946Y-78275501D01*
X140529054Y-78275501D01*
X140529057Y-78275501D01*
X140681785Y-78234577D01*
X140818716Y-78155519D01*
X141962417Y-77011819D01*
X142023740Y-76978334D01*
X142050098Y-76975500D01*
X147570943Y-76975500D01*
X148768563Y-76975500D01*
X148835602Y-76995185D01*
X148856244Y-77011819D01*
X156730546Y-84886121D01*
X156764031Y-84947444D01*
X156766865Y-84973802D01*
X156766865Y-88553490D01*
X156762640Y-88585581D01*
X156755882Y-88610801D01*
X156755882Y-88768916D01*
X156755881Y-88768916D01*
X156755882Y-88768919D01*
X156796806Y-88921647D01*
X156875864Y-89058578D01*
X156987667Y-89170381D01*
X157124598Y-89249439D01*
X157277326Y-89290363D01*
X157277329Y-89290363D01*
X157435437Y-89290363D01*
X157435440Y-89290363D01*
X157588168Y-89249439D01*
X157725099Y-89170381D01*
X157725860Y-89169619D01*
X157725874Y-89169611D01*
X157725872Y-89169609D01*
X157736081Y-89159400D01*
X157847885Y-89047596D01*
X157920601Y-88921647D01*
X157926942Y-88910665D01*
X157967866Y-88757937D01*
X157967866Y-88599823D01*
X157967866Y-88592228D01*
X157967865Y-88592210D01*
X157967865Y-88084108D01*
X159624500Y-88084108D01*
X159624500Y-88215891D01*
X159658608Y-88343187D01*
X159691554Y-88400250D01*
X159724500Y-88457314D01*
X159724502Y-88457316D01*
X159788181Y-88520995D01*
X159821666Y-88582318D01*
X159824500Y-88608676D01*
X159824500Y-91489562D01*
X159844979Y-91565989D01*
X159881529Y-91629295D01*
X159884540Y-91634511D01*
X159884542Y-91634514D01*
X161813181Y-93563152D01*
X161846666Y-93624475D01*
X161849500Y-93650833D01*
X161849500Y-93740891D01*
X161883608Y-93868187D01*
X161916554Y-93925250D01*
X161949500Y-93982314D01*
X161949502Y-93982316D01*
X162013181Y-94045995D01*
X162046666Y-94107318D01*
X162049500Y-94133676D01*
X162049500Y-95966323D01*
X162029815Y-96033362D01*
X162013182Y-96054004D01*
X161949500Y-96117686D01*
X161883608Y-96231812D01*
X161868862Y-96286848D01*
X161849500Y-96359108D01*
X161849500Y-96490892D01*
X161849528Y-96490995D01*
X161883608Y-96618187D01*
X161916554Y-96675250D01*
X161949500Y-96732314D01*
X162042686Y-96825500D01*
X162156814Y-96891392D01*
X162284108Y-96925500D01*
X162284110Y-96925500D01*
X162415890Y-96925500D01*
X162415892Y-96925500D01*
X162543186Y-96891392D01*
X162657314Y-96825500D01*
X162750500Y-96732314D01*
X162816392Y-96618186D01*
X162850500Y-96490892D01*
X162850500Y-96359108D01*
X162816392Y-96231814D01*
X162750500Y-96117686D01*
X162686818Y-96054004D01*
X162653334Y-95992680D01*
X162650500Y-95966323D01*
X162650500Y-94133676D01*
X162670185Y-94066637D01*
X162686819Y-94045995D01*
X162750500Y-93982314D01*
X162816392Y-93868186D01*
X162850500Y-93740892D01*
X162850500Y-93609108D01*
X162816392Y-93481814D01*
X162750500Y-93367686D01*
X162657314Y-93274500D01*
X162600250Y-93241554D01*
X162543187Y-93208608D01*
X162479539Y-93191554D01*
X162415892Y-93174500D01*
X162325833Y-93174500D01*
X162258794Y-93154815D01*
X162238152Y-93138181D01*
X160461819Y-91361848D01*
X160428334Y-91300525D01*
X160425500Y-91274167D01*
X160425500Y-88608676D01*
X160445185Y-88541637D01*
X160461819Y-88520995D01*
X160525500Y-88457314D01*
X160591392Y-88343186D01*
X160625500Y-88215892D01*
X160625500Y-88084108D01*
X160591392Y-87956814D01*
X160525500Y-87842686D01*
X160432314Y-87749500D01*
X160375250Y-87716554D01*
X160318187Y-87683608D01*
X160254539Y-87666554D01*
X160190892Y-87649500D01*
X160059108Y-87649500D01*
X159931812Y-87683608D01*
X159817686Y-87749500D01*
X159817683Y-87749502D01*
X159724502Y-87842683D01*
X159724500Y-87842686D01*
X159658608Y-87956812D01*
X159624500Y-88084108D01*
X157967865Y-88084108D01*
X157967865Y-84594650D01*
X157967865Y-84594648D01*
X157926942Y-84441921D01*
X157926942Y-84441920D01*
X157926942Y-84441919D01*
X157898004Y-84391800D01*
X157898002Y-84391797D01*
X157847885Y-84304989D01*
X157736081Y-84193185D01*
X157736080Y-84193184D01*
X157731750Y-84188854D01*
X157731739Y-84188844D01*
X149556250Y-76013355D01*
X149556248Y-76013352D01*
X149437377Y-75894481D01*
X149437376Y-75894480D01*
X149350564Y-75844360D01*
X149350564Y-75844359D01*
X149350560Y-75844358D01*
X149300445Y-75815423D01*
X149147717Y-75774499D01*
X148989603Y-75774499D01*
X148982007Y-75774499D01*
X148981991Y-75774500D01*
X141836670Y-75774500D01*
X141836654Y-75774499D01*
X141829058Y-75774499D01*
X141670943Y-75774499D01*
X141594579Y-75794961D01*
X141518214Y-75815423D01*
X141518209Y-75815426D01*
X141381290Y-75894475D01*
X141381282Y-75894481D01*
X139969483Y-77306281D01*
X139969481Y-77306284D01*
X139890423Y-77443214D01*
X139890423Y-77443215D01*
X139849499Y-77595943D01*
X139849499Y-77595945D01*
X139849499Y-77754054D01*
X139849498Y-77754054D01*
X136326500Y-77754054D01*
X136326500Y-65486747D01*
X142736000Y-65486747D01*
X142736000Y-67101252D01*
X142747631Y-67159729D01*
X142747632Y-67159730D01*
X142791947Y-67226052D01*
X142858269Y-67270367D01*
X142858270Y-67270368D01*
X142916747Y-67281999D01*
X142916750Y-67282000D01*
X142916752Y-67282000D01*
X144531250Y-67282000D01*
X144531251Y-67281999D01*
X144546068Y-67279052D01*
X144589729Y-67270368D01*
X144589729Y-67270367D01*
X144589731Y-67270367D01*
X144656052Y-67226052D01*
X144700367Y-67159731D01*
X144700367Y-67159729D01*
X144700368Y-67159729D01*
X144711999Y-67101252D01*
X144712000Y-67101250D01*
X144712000Y-65486749D01*
X144704675Y-65449925D01*
X144704674Y-65449923D01*
X144701074Y-65431825D01*
X144701073Y-65431820D01*
X153656733Y-65431820D01*
X153656733Y-67046325D01*
X153668364Y-67104802D01*
X153668365Y-67104803D01*
X153712680Y-67171125D01*
X153779002Y-67215440D01*
X153779003Y-67215441D01*
X153837480Y-67227072D01*
X153837483Y-67227073D01*
X153837485Y-67227073D01*
X155451983Y-67227073D01*
X155451984Y-67227072D01*
X155466801Y-67224125D01*
X155510462Y-67215441D01*
X155510462Y-67215440D01*
X155510464Y-67215440D01*
X155576785Y-67171125D01*
X155621100Y-67104804D01*
X155621100Y-67104802D01*
X155621101Y-67104802D01*
X155632732Y-67046325D01*
X155632733Y-67046323D01*
X155632733Y-65431822D01*
X155632732Y-65431820D01*
X155630153Y-65418851D01*
X155626552Y-65400747D01*
X161992000Y-65400747D01*
X161992000Y-67015252D01*
X162003631Y-67073729D01*
X162003632Y-67073730D01*
X162047947Y-67140052D01*
X162114269Y-67184367D01*
X162114270Y-67184368D01*
X162172747Y-67195999D01*
X162172750Y-67196000D01*
X162172752Y-67196000D01*
X163787250Y-67196000D01*
X163787251Y-67195999D01*
X163802068Y-67193052D01*
X163845729Y-67184368D01*
X163845729Y-67184367D01*
X163845731Y-67184367D01*
X163912052Y-67140052D01*
X163956367Y-67073731D01*
X163956367Y-67073729D01*
X163956368Y-67073729D01*
X163967999Y-67015252D01*
X163968000Y-67015250D01*
X163968000Y-65400749D01*
X163967999Y-65400747D01*
X163956368Y-65342270D01*
X163956367Y-65342269D01*
X163912052Y-65275947D01*
X163845730Y-65231632D01*
X163845729Y-65231631D01*
X163787252Y-65220000D01*
X163787248Y-65220000D01*
X162172752Y-65220000D01*
X162172747Y-65220000D01*
X162114270Y-65231631D01*
X162114269Y-65231632D01*
X162047947Y-65275947D01*
X162003632Y-65342269D01*
X162003631Y-65342270D01*
X161992000Y-65400747D01*
X155626552Y-65400747D01*
X155621101Y-65373343D01*
X155621100Y-65373342D01*
X155576785Y-65307020D01*
X155510463Y-65262705D01*
X155510462Y-65262704D01*
X155451985Y-65251073D01*
X155451981Y-65251073D01*
X153837485Y-65251073D01*
X153837480Y-65251073D01*
X153779003Y-65262704D01*
X153779002Y-65262705D01*
X153712680Y-65307020D01*
X153668365Y-65373342D01*
X153668364Y-65373343D01*
X153656733Y-65431820D01*
X144701073Y-65431820D01*
X144700367Y-65428269D01*
X144685662Y-65406262D01*
X144656052Y-65361947D01*
X144589730Y-65317632D01*
X144589729Y-65317631D01*
X144531252Y-65306000D01*
X144531248Y-65306000D01*
X142916752Y-65306000D01*
X142916747Y-65306000D01*
X142858270Y-65317631D01*
X142858269Y-65317632D01*
X142791947Y-65361947D01*
X142747632Y-65428269D01*
X142747631Y-65428270D01*
X142736000Y-65486747D01*
X136326500Y-65486747D01*
X136326500Y-58882747D01*
X142776000Y-58882747D01*
X142776000Y-60497252D01*
X142787631Y-60555729D01*
X142787632Y-60555730D01*
X142831947Y-60622052D01*
X142898269Y-60666367D01*
X142898270Y-60666368D01*
X142956747Y-60677999D01*
X142956750Y-60678000D01*
X142956752Y-60678000D01*
X144571250Y-60678000D01*
X144571251Y-60677999D01*
X144586068Y-60675052D01*
X144629729Y-60666368D01*
X144629729Y-60666367D01*
X144629731Y-60666367D01*
X144696052Y-60622052D01*
X144740367Y-60555731D01*
X144740367Y-60555729D01*
X144740368Y-60555729D01*
X144751999Y-60497252D01*
X144752000Y-60497250D01*
X144752000Y-58882750D01*
X144747644Y-58860853D01*
X144747643Y-58860850D01*
X144744043Y-58842752D01*
X144744042Y-58842747D01*
X153612000Y-58842747D01*
X153612000Y-60457252D01*
X153623631Y-60515729D01*
X153623632Y-60515730D01*
X153667947Y-60582052D01*
X153734269Y-60626367D01*
X153734270Y-60626368D01*
X153792747Y-60637999D01*
X153792750Y-60638000D01*
X153792752Y-60638000D01*
X155407250Y-60638000D01*
X155407251Y-60637999D01*
X155422068Y-60635052D01*
X155465729Y-60626368D01*
X155465729Y-60626367D01*
X155465731Y-60626367D01*
X155532052Y-60582052D01*
X155576367Y-60515731D01*
X155576367Y-60515729D01*
X155576368Y-60515729D01*
X155587999Y-60457252D01*
X155588000Y-60457250D01*
X155588000Y-58842749D01*
X155587999Y-58842747D01*
X155582451Y-58814851D01*
X155578850Y-58796747D01*
X162032000Y-58796747D01*
X162032000Y-60411252D01*
X162043631Y-60469729D01*
X162043632Y-60469730D01*
X162087947Y-60536052D01*
X162154269Y-60580367D01*
X162154270Y-60580368D01*
X162212747Y-60591999D01*
X162212750Y-60592000D01*
X162212752Y-60592000D01*
X163827250Y-60592000D01*
X163827251Y-60591999D01*
X163842068Y-60589052D01*
X163885729Y-60580368D01*
X163885729Y-60580367D01*
X163885731Y-60580367D01*
X163952052Y-60536052D01*
X163996367Y-60469731D01*
X163996367Y-60469729D01*
X163996368Y-60469729D01*
X164007999Y-60411252D01*
X164008000Y-60411250D01*
X164008000Y-58796749D01*
X164007999Y-58796747D01*
X163996368Y-58738270D01*
X163996367Y-58738269D01*
X163952052Y-58671947D01*
X163885730Y-58627632D01*
X163885729Y-58627631D01*
X163827252Y-58616000D01*
X163827248Y-58616000D01*
X162212752Y-58616000D01*
X162212747Y-58616000D01*
X162154270Y-58627631D01*
X162154269Y-58627632D01*
X162087947Y-58671947D01*
X162043632Y-58738269D01*
X162043631Y-58738270D01*
X162032000Y-58796747D01*
X155578850Y-58796747D01*
X155576368Y-58784270D01*
X155576367Y-58784269D01*
X155532052Y-58717947D01*
X155465730Y-58673632D01*
X155465729Y-58673631D01*
X155407252Y-58662000D01*
X155407248Y-58662000D01*
X153792752Y-58662000D01*
X153792747Y-58662000D01*
X153734270Y-58673631D01*
X153734269Y-58673632D01*
X153667947Y-58717947D01*
X153623632Y-58784269D01*
X153623631Y-58784270D01*
X153612000Y-58842747D01*
X144744042Y-58842747D01*
X144740367Y-58824269D01*
X144725662Y-58802262D01*
X144696052Y-58757947D01*
X144629730Y-58713632D01*
X144629729Y-58713631D01*
X144571252Y-58702000D01*
X144571248Y-58702000D01*
X142956752Y-58702000D01*
X142956747Y-58702000D01*
X142898270Y-58713631D01*
X142898269Y-58713632D01*
X142831947Y-58757947D01*
X142787632Y-58824269D01*
X142787631Y-58824270D01*
X142776000Y-58882747D01*
X136326500Y-58882747D01*
X136326500Y-52278747D01*
X142736000Y-52278747D01*
X142736000Y-53893252D01*
X142747631Y-53951729D01*
X142747632Y-53951730D01*
X142791947Y-54018052D01*
X142858269Y-54062367D01*
X142858270Y-54062368D01*
X142916747Y-54073999D01*
X142916750Y-54074000D01*
X142916752Y-54074000D01*
X144531250Y-54074000D01*
X144531251Y-54073999D01*
X144546068Y-54071052D01*
X144589729Y-54062368D01*
X144589729Y-54062367D01*
X144589731Y-54062367D01*
X144656052Y-54018052D01*
X144700367Y-53951731D01*
X144700367Y-53951729D01*
X144700368Y-53951729D01*
X144711999Y-53893252D01*
X144712000Y-53893250D01*
X144712000Y-52278749D01*
X144704675Y-52241925D01*
X144704674Y-52241923D01*
X144701074Y-52223825D01*
X144701073Y-52223820D01*
X153656733Y-52223820D01*
X153656733Y-53838325D01*
X153668364Y-53896802D01*
X153668365Y-53896803D01*
X153712680Y-53963125D01*
X153779002Y-54007440D01*
X153779003Y-54007441D01*
X153837480Y-54019072D01*
X153837483Y-54019073D01*
X153837485Y-54019073D01*
X155451983Y-54019073D01*
X155451984Y-54019072D01*
X155466801Y-54016125D01*
X155510462Y-54007441D01*
X155510462Y-54007440D01*
X155510464Y-54007440D01*
X155576785Y-53963125D01*
X155621100Y-53896804D01*
X155621100Y-53896802D01*
X155621101Y-53896802D01*
X155632732Y-53838325D01*
X155632733Y-53838323D01*
X155632733Y-52223822D01*
X155632732Y-52223820D01*
X155630153Y-52210851D01*
X155626552Y-52192747D01*
X162012000Y-52192747D01*
X162012000Y-53807252D01*
X162023631Y-53865729D01*
X162023632Y-53865730D01*
X162067947Y-53932052D01*
X162134269Y-53976367D01*
X162134270Y-53976368D01*
X162192747Y-53987999D01*
X162192750Y-53988000D01*
X162192752Y-53988000D01*
X163807250Y-53988000D01*
X163807251Y-53987999D01*
X163822068Y-53985052D01*
X163865729Y-53976368D01*
X163865729Y-53976367D01*
X163865731Y-53976367D01*
X163932052Y-53932052D01*
X163976367Y-53865731D01*
X163976367Y-53865729D01*
X163976368Y-53865729D01*
X163987999Y-53807252D01*
X163988000Y-53807250D01*
X163988000Y-52192749D01*
X163987999Y-52192747D01*
X163976368Y-52134270D01*
X163976367Y-52134269D01*
X163932052Y-52067947D01*
X163865730Y-52023632D01*
X163865729Y-52023631D01*
X163807252Y-52012000D01*
X163807248Y-52012000D01*
X162192752Y-52012000D01*
X162192747Y-52012000D01*
X162134270Y-52023631D01*
X162134269Y-52023632D01*
X162067947Y-52067947D01*
X162023632Y-52134269D01*
X162023631Y-52134270D01*
X162012000Y-52192747D01*
X155626552Y-52192747D01*
X155621101Y-52165343D01*
X155621100Y-52165342D01*
X155576785Y-52099020D01*
X155510463Y-52054705D01*
X155510462Y-52054704D01*
X155451985Y-52043073D01*
X155451981Y-52043073D01*
X153837485Y-52043073D01*
X153837480Y-52043073D01*
X153779003Y-52054704D01*
X153779002Y-52054705D01*
X153712680Y-52099020D01*
X153668365Y-52165342D01*
X153668364Y-52165343D01*
X153656733Y-52223820D01*
X144701073Y-52223820D01*
X144700367Y-52220269D01*
X144685662Y-52198262D01*
X144656052Y-52153947D01*
X144589730Y-52109632D01*
X144589729Y-52109631D01*
X144531252Y-52098000D01*
X144531248Y-52098000D01*
X142916752Y-52098000D01*
X142916747Y-52098000D01*
X142858270Y-52109631D01*
X142858269Y-52109632D01*
X142791947Y-52153947D01*
X142747632Y-52220269D01*
X142747631Y-52220270D01*
X142736000Y-52278747D01*
X136326500Y-52278747D01*
X136326500Y-48875500D01*
X136346185Y-48808461D01*
X136398989Y-48762706D01*
X136450500Y-48751500D01*
X167915500Y-48751500D01*
X167982539Y-48771185D01*
G37*
%TD.AperFunction*%
%TD*%
M02*
