%TF.GenerationSoftware,KiCad,Pcbnew,9.0.6*%
%TF.CreationDate,2026-02-03T19:58:48-08:00*%
%TF.ProjectId,PowerBlock,506f7765-7242-46c6-9f63-6b2e6b696361,rev?*%
%TF.SameCoordinates,Original*%
%TF.FileFunction,Copper,L1,Top*%
%TF.FilePolarity,Positive*%
%FSLAX46Y46*%
G04 Gerber Fmt 4.6, Leading zero omitted, Abs format (unit mm)*
G04 Created by KiCad (PCBNEW 9.0.6) date 2026-02-03 19:58:48*
%MOMM*%
%LPD*%
G01*
G04 APERTURE LIST*
G04 Aperture macros list*
%AMRoundRect*
0 Rectangle with rounded corners*
0 $1 Rounding radius*
0 $2 $3 $4 $5 $6 $7 $8 $9 X,Y pos of 4 corners*
0 Add a 4 corners polygon primitive as box body*
4,1,4,$2,$3,$4,$5,$6,$7,$8,$9,$2,$3,0*
0 Add four circle primitives for the rounded corners*
1,1,$1+$1,$2,$3*
1,1,$1+$1,$4,$5*
1,1,$1+$1,$6,$7*
1,1,$1+$1,$8,$9*
0 Add four rect primitives between the rounded corners*
20,1,$1+$1,$2,$3,$4,$5,0*
20,1,$1+$1,$4,$5,$6,$7,0*
20,1,$1+$1,$6,$7,$8,$9,0*
20,1,$1+$1,$8,$9,$2,$3,0*%
%AMFreePoly0*
4,1,33,-0.125001,1.649999,-0.125001,1.200000,0.125001,1.200000,0.124998,1.649999,0.175001,1.699999,0.325001,1.699999,0.375001,1.649999,0.375001,1.200000,0.775000,1.200000,0.825000,1.150000,0.825000,-1.150000,0.775000,-1.200000,0.375001,-1.200000,0.375001,-1.649999,0.325001,-1.699999,0.175001,-1.699999,0.125001,-1.649999,0.125001,-1.200000,-0.125001,-1.200000,-0.125001,-1.649999,
-0.175001,-1.699999,-0.325001,-1.699999,-0.375001,-1.649999,-0.375001,-1.200000,-0.775002,-1.200000,-0.825000,-1.150000,-0.825000,1.150000,-0.775000,1.200000,-0.375001,1.200000,-0.375003,1.649999,-0.325001,1.699999,-0.175001,1.699999,-0.125001,1.649999,-0.125001,1.649999,$1*%
%AMFreePoly1*
4,1,13,0.549999,0.225000,0.549999,-0.224999,0.499999,-0.274999,-0.150002,-0.274999,-0.200002,-0.224999,-0.200002,0.025001,-0.250002,0.075001,-0.500001,0.075001,-0.550001,0.125001,-0.550001,0.225000,-0.500001,0.275000,0.499999,0.275000,0.549999,0.225000,0.549999,0.225000,$1*%
%AMFreePoly2*
4,1,13,0.575000,0.500001,0.575000,-0.499997,0.525000,-0.549997,-0.525000,-0.549997,-0.575000,-0.499997,-0.575000,0.150002,-0.525000,0.200002,-0.275001,0.200002,-0.225001,0.250002,-0.225001,0.500001,-0.175001,0.550001,0.525000,0.550001,0.575000,0.500001,0.575000,0.500001,$1*%
%AMFreePoly3*
4,1,13,0.550001,0.225000,0.550001,0.125001,0.500001,0.075001,0.250002,0.075001,0.200002,0.025001,0.200002,-0.224999,0.150002,-0.274999,-0.499999,-0.274999,-0.549999,-0.224999,-0.549999,0.225000,-0.499999,0.275000,0.500001,0.275000,0.550001,0.225000,0.550001,0.225000,$1*%
%AMFreePoly4*
4,1,13,0.225001,0.500001,0.225001,0.250002,0.275001,0.200002,0.525000,0.200002,0.575000,0.150002,0.575000,-0.499997,0.525000,-0.549997,-0.525000,-0.549997,-0.575000,-0.499997,-0.575000,0.500001,-0.525000,0.550001,0.175001,0.550001,0.225001,0.500001,0.225001,0.500001,$1*%
G04 Aperture macros list end*
%TA.AperFunction,SMDPad,CuDef*%
%ADD10RoundRect,0.250000X0.325000X0.650000X-0.325000X0.650000X-0.325000X-0.650000X0.325000X-0.650000X0*%
%TD*%
%TA.AperFunction,SMDPad,CuDef*%
%ADD11RoundRect,0.200000X-0.200000X-0.275000X0.200000X-0.275000X0.200000X0.275000X-0.200000X0.275000X0*%
%TD*%
%TA.AperFunction,SMDPad,CuDef*%
%ADD12RoundRect,0.200000X-0.275000X0.200000X-0.275000X-0.200000X0.275000X-0.200000X0.275000X0.200000X0*%
%TD*%
%TA.AperFunction,SMDPad,CuDef*%
%ADD13R,0.599999X1.000000*%
%TD*%
%TA.AperFunction,ComponentPad*%
%ADD14C,0.600000*%
%TD*%
%TA.AperFunction,SMDPad,CuDef*%
%ADD15FreePoly0,0.000000*%
%TD*%
%TA.AperFunction,SMDPad,CuDef*%
%ADD16R,0.599999X0.240000*%
%TD*%
%TA.AperFunction,SMDPad,CuDef*%
%ADD17RoundRect,0.200000X0.200000X0.275000X-0.200000X0.275000X-0.200000X-0.275000X0.200000X-0.275000X0*%
%TD*%
%TA.AperFunction,SMDPad,CuDef*%
%ADD18RoundRect,0.250000X-0.325000X-0.650000X0.325000X-0.650000X0.325000X0.650000X-0.325000X0.650000X0*%
%TD*%
%TA.AperFunction,SMDPad,CuDef*%
%ADD19RoundRect,0.200000X0.275000X-0.200000X0.275000X0.200000X-0.275000X0.200000X-0.275000X-0.200000X0*%
%TD*%
%TA.AperFunction,SMDPad,CuDef*%
%ADD20RoundRect,0.225000X0.225000X0.250000X-0.225000X0.250000X-0.225000X-0.250000X0.225000X-0.250000X0*%
%TD*%
%TA.AperFunction,SMDPad,CuDef*%
%ADD21R,2.000000X1.250000*%
%TD*%
%TA.AperFunction,SMDPad,CuDef*%
%ADD22R,1.170000X1.800000*%
%TD*%
%TA.AperFunction,SMDPad,CuDef*%
%ADD23RoundRect,0.250000X-0.650000X0.325000X-0.650000X-0.325000X0.650000X-0.325000X0.650000X0.325000X0*%
%TD*%
%TA.AperFunction,ComponentPad*%
%ADD24R,1.575000X1.575000*%
%TD*%
%TA.AperFunction,ComponentPad*%
%ADD25C,1.575000*%
%TD*%
%TA.AperFunction,SMDPad,CuDef*%
%ADD26FreePoly1,0.000000*%
%TD*%
%TA.AperFunction,SMDPad,CuDef*%
%ADD27FreePoly2,0.000000*%
%TD*%
%TA.AperFunction,SMDPad,CuDef*%
%ADD28R,1.074999X0.399999*%
%TD*%
%TA.AperFunction,SMDPad,CuDef*%
%ADD29R,0.825000X0.249999*%
%TD*%
%TA.AperFunction,SMDPad,CuDef*%
%ADD30R,0.249999X0.675000*%
%TD*%
%TA.AperFunction,SMDPad,CuDef*%
%ADD31R,0.249999X0.825000*%
%TD*%
%TA.AperFunction,SMDPad,CuDef*%
%ADD32FreePoly3,0.000000*%
%TD*%
%TA.AperFunction,SMDPad,CuDef*%
%ADD33FreePoly4,0.000000*%
%TD*%
%TA.AperFunction,SMDPad,CuDef*%
%ADD34R,0.349999X2.975000*%
%TD*%
%TA.AperFunction,SMDPad,CuDef*%
%ADD35R,5.511800X3.860800*%
%TD*%
%TA.AperFunction,SMDPad,CuDef*%
%ADD36RoundRect,0.225000X-0.250000X0.225000X-0.250000X-0.225000X0.250000X-0.225000X0.250000X0.225000X0*%
%TD*%
%TA.AperFunction,ComponentPad*%
%ADD37C,2.625000*%
%TD*%
%TA.AperFunction,ComponentPad*%
%ADD38R,2.625000X2.625000*%
%TD*%
%TA.AperFunction,SMDPad,CuDef*%
%ADD39RoundRect,0.250000X0.650000X-0.325000X0.650000X0.325000X-0.650000X0.325000X-0.650000X-0.325000X0*%
%TD*%
%TA.AperFunction,SMDPad,CuDef*%
%ADD40RoundRect,0.225000X-0.225000X-0.250000X0.225000X-0.250000X0.225000X0.250000X-0.225000X0.250000X0*%
%TD*%
%TA.AperFunction,SMDPad,CuDef*%
%ADD41RoundRect,0.225000X0.250000X-0.225000X0.250000X0.225000X-0.250000X0.225000X-0.250000X-0.225000X0*%
%TD*%
%TA.AperFunction,ViaPad*%
%ADD42C,0.600000*%
%TD*%
%TA.AperFunction,ViaPad*%
%ADD43C,0.808000*%
%TD*%
%TA.AperFunction,Conductor*%
%ADD44C,0.200000*%
%TD*%
%TA.AperFunction,Conductor*%
%ADD45C,0.500000*%
%TD*%
%TA.AperFunction,Conductor*%
%ADD46C,0.300000*%
%TD*%
%TA.AperFunction,Conductor*%
%ADD47C,0.400000*%
%TD*%
%TA.AperFunction,Conductor*%
%ADD48C,1.500000*%
%TD*%
%TA.AperFunction,Conductor*%
%ADD49C,1.000000*%
%TD*%
G04 APERTURE END LIST*
D10*
%TO.P,CIN4,2*%
%TO.N,GND*%
X137500000Y-77675000D03*
%TO.P,CIN4,1*%
%TO.N,Net-(U1-BIAS)*%
X140450000Y-77675000D03*
%TD*%
D11*
%TO.P,R3,1*%
%TO.N,GND*%
X159249999Y-98000000D03*
%TO.P,R3,2*%
%TO.N,Net-(U2-INB-)*%
X160899999Y-98000000D03*
%TD*%
D12*
%TO.P,R4,2*%
%TO.N,Net-(U1-EN)*%
X160550000Y-96350000D03*
%TO.P,R4,1*%
%TO.N,Net-(U2-VDD)*%
X160550000Y-94700000D03*
%TD*%
D13*
%TO.P,U2,1,OUTA*%
%TO.N,Net-(U1-EN)*%
X162350000Y-96425000D03*
%TO.P,U2,2,GND*%
%TO.N,GND*%
X163300001Y-96425000D03*
%TO.P,U2,3,INA+*%
%TO.N,Net-(U2-INA+)*%
X164249999Y-96425000D03*
%TO.P,U2,4,INB-*%
%TO.N,Net-(U2-INB-)*%
X164249999Y-93675000D03*
%TO.P,U2,5,VDD*%
%TO.N,Net-(U2-VDD)*%
X163300001Y-93675000D03*
%TO.P,U2,6,OUTB*%
%TO.N,Net-(U1-EN)*%
X162350000Y-93675000D03*
%TD*%
D14*
%TO.P,U5,15*%
%TO.N,GND*%
X141850000Y-79761000D03*
%TO.P,U5,14*%
X141850000Y-81513600D03*
%TO.P,U5,13*%
X141342000Y-80650000D03*
%TO.P,U5,12*%
X142358000Y-80650000D03*
D15*
%TO.P,U5,11,Thermal_Pad*%
X141850000Y-80650000D03*
D16*
%TO.P,U5,10,OUT*%
%TO.N,Net-(COUT4-Pad1)*%
X143250000Y-79649999D03*
%TO.P,U5,9,OUT*%
X143250000Y-80150001D03*
%TO.P,U5,8,SNS*%
%TO.N,unconnected-(U5-SNS-Pad8)*%
X143250000Y-80650000D03*
%TO.P,U5,7,NR_SS*%
%TO.N,Net-(U5-NR_SS)*%
X143250000Y-81149999D03*
%TO.P,U5,6,GND*%
%TO.N,GND*%
X143250000Y-81650001D03*
%TO.P,U5,5,FB_PG*%
%TO.N,Net-(U5-FB_PG)*%
X140450000Y-81650001D03*
%TO.P,U5,4,PG*%
%TO.N,GND*%
X140450000Y-81149999D03*
%TO.P,U5,3,EN_UV*%
%TO.N,Net-(U1-BIAS)*%
X140450000Y-80650000D03*
%TO.P,U5,2,IN*%
X140450000Y-80150001D03*
%TO.P,U5,1,IN*%
X140450000Y-79649999D03*
%TD*%
D17*
%TO.P,R2,2*%
%TO.N,Net-(U2-INB-)*%
X162599999Y-98025000D03*
%TO.P,R2,1*%
%TO.N,Net-(U2-INA+)*%
X164249999Y-98025000D03*
%TD*%
D18*
%TO.P,COUT4,1*%
%TO.N,Net-(COUT4-Pad1)*%
X143200000Y-77625000D03*
%TO.P,COUT4,2*%
%TO.N,GND*%
X146150000Y-77625000D03*
%TD*%
D19*
%TO.P,RFB_PGB1,1*%
%TO.N,GND*%
X139175000Y-83775000D03*
%TO.P,RFB_PGB1,2*%
%TO.N,Net-(U5-FB_PG)*%
X139175000Y-82125000D03*
%TD*%
D20*
%TO.P,C1,2*%
%TO.N,GND*%
X141650000Y-69750000D03*
%TO.P,C1,1*%
%TO.N,Net-(C1-Pad1)*%
X143200000Y-69750000D03*
%TD*%
D12*
%TO.P,RNRSS1,1*%
%TO.N,Net-(U5-NR_SS)*%
X147475000Y-81150000D03*
%TO.P,RNRSS1,2*%
%TO.N,GND*%
X147475000Y-82800000D03*
%TD*%
D17*
%TO.P,RFB_PGT1,1*%
%TO.N,Net-(COUT4-Pad1)*%
X142950000Y-83300000D03*
%TO.P,RFB_PGT1,2*%
%TO.N,Net-(U5-FB_PG)*%
X141300000Y-83300000D03*
%TD*%
D21*
%TO.P,FL1,1*%
%TO.N,Net-(COUT4-Pad1)*%
X143225000Y-74800000D03*
%TO.P,FL1,2*%
%TO.N,Net-(C1-Pad1)*%
X143225000Y-72250000D03*
%TD*%
D22*
%TO.P,F1,1*%
%TO.N,Net-(F1-Pad1)*%
X148840000Y-91300000D03*
%TO.P,F1,2*%
%TO.N,Net-(U2-VDD)*%
X151780000Y-91300000D03*
%TD*%
D23*
%TO.P,CNRSS1,1*%
%TO.N,Net-(U5-NR_SS)*%
X145375000Y-81150000D03*
%TO.P,CNRSS1,2*%
%TO.N,GND*%
X145375000Y-84100000D03*
%TD*%
D24*
%TO.P,J4,1,1*%
%TO.N,Net-(C1-Pad1)*%
X143724000Y-66294000D03*
D25*
%TO.P,J4,2,2*%
%TO.N,GND*%
X141224000Y-66294000D03*
%TD*%
D24*
%TO.P,J3,1,1*%
%TO.N,Net-(C1-Pad1)*%
X143764000Y-59690000D03*
D25*
%TO.P,J3,2,2*%
%TO.N,GND*%
X141264000Y-59690000D03*
%TD*%
D24*
%TO.P,J2,1,1*%
%TO.N,Net-(C1-Pad1)*%
X143724000Y-53086000D03*
D25*
%TO.P,J2,2,2*%
%TO.N,GND*%
X141224000Y-53086000D03*
%TD*%
D24*
%TO.P,J8,1,1*%
%TO.N,Net-(U1-BIAS)*%
X160780733Y-52032073D03*
D25*
%TO.P,J8,2,2*%
%TO.N,GND*%
X163280733Y-52032073D03*
%TD*%
%TO.P,J10,2,2*%
%TO.N,GND*%
X163260733Y-65240073D03*
D24*
%TO.P,J10,1,1*%
%TO.N,Net-(U1-BIAS)*%
X160760733Y-65240073D03*
%TD*%
D25*
%TO.P,J5,2,2*%
%TO.N,GND*%
X163240733Y-58636073D03*
D24*
%TO.P,J5,1,1*%
%TO.N,Net-(U1-BIAS)*%
X160740733Y-58636073D03*
%TD*%
%TO.P,J9,1,1*%
%TO.N,Net-(U1-BIAS)*%
X154644733Y-66239073D03*
D25*
%TO.P,J9,2,2*%
%TO.N,GND*%
X152144733Y-66239073D03*
%TD*%
D24*
%TO.P,J6,1,1*%
%TO.N,Net-(U1-BIAS)*%
X154604733Y-59652073D03*
D25*
%TO.P,J6,2,2*%
%TO.N,GND*%
X152104733Y-59652073D03*
%TD*%
D24*
%TO.P,J7,1,1*%
%TO.N,Net-(U1-BIAS)*%
X154644733Y-53031073D03*
D25*
%TO.P,J7,2,2*%
%TO.N,GND*%
X152144733Y-53031073D03*
%TD*%
D26*
%TO.P,U1,6,VCC*%
%TO.N,Net-(U1-RT)*%
X156441366Y-89804000D03*
D27*
%TO.P,U1,1,PGND*%
%TO.N,GND*%
X156466365Y-85729002D03*
D28*
%TO.P,U1,2,VIN*%
%TO.N,Net-(U2-VDD)*%
X156428367Y-87079002D03*
D29*
%TO.P,U1,3,RBOOT*%
%TO.N,Net-(U1-CBOOT)*%
X156303366Y-88154001D03*
%TO.P,U1,4,CBOOT*%
X156303366Y-88654000D03*
%TO.P,U1,5,BIAS*%
%TO.N,Net-(U1-BIAS)*%
X156303366Y-89154002D03*
D30*
%TO.P,U1,7,FB*%
X157341367Y-89742002D03*
D31*
%TO.P,U1,8,AGND*%
%TO.N,GND*%
X157841366Y-89667000D03*
D30*
%TO.P,U1,9,RT*%
%TO.N,Net-(U1-RT)*%
X158341365Y-89742002D03*
D32*
%TO.P,U1,10,RESET*%
%TO.N,unconnected-(U1-RESET-Pad10)*%
X159241366Y-89804000D03*
D29*
%TO.P,U1,11,SpSp*%
%TO.N,Net-(U1-RT)*%
X159379366Y-89154002D03*
%TO.P,U1,12,SYNC_MODE*%
%TO.N,GND*%
X159379366Y-88654000D03*
%TO.P,U1,13,EN*%
%TO.N,Net-(U1-EN)*%
X159379366Y-88154001D03*
D28*
%TO.P,U1,14,VIN*%
%TO.N,Net-(U2-VDD)*%
X159254365Y-87079002D03*
D33*
%TO.P,U1,15,PGND*%
%TO.N,GND*%
X159216367Y-85729002D03*
D34*
%TO.P,U1,16,SW*%
%TO.N,Net-(U1-SW)*%
X157841366Y-86666001D03*
%TD*%
D35*
%TO.P,L1,2,2*%
%TO.N,Net-(U1-BIAS)*%
X157734000Y-72237600D03*
%TO.P,L1,1,1*%
%TO.N,Net-(U1-SW)*%
X157734000Y-82194400D03*
%TD*%
D36*
%TO.P,CHF2A1,2*%
%TO.N,Net-(U2-VDD)*%
X154984316Y-86936040D03*
%TO.P,CHF2A1,1*%
%TO.N,GND*%
X154984316Y-85386040D03*
%TD*%
D23*
%TO.P,CIN1,1*%
%TO.N,GND*%
X151276465Y-85483745D03*
%TO.P,CIN1,2*%
%TO.N,Net-(U2-VDD)*%
X151276465Y-88433745D03*
%TD*%
D37*
%TO.P,J1,2,2*%
%TO.N,Net-(F1-Pad1)*%
X144860000Y-91275000D03*
D38*
%TO.P,J1,1,1*%
%TO.N,GND*%
X140900000Y-91275000D03*
%TD*%
D39*
%TO.P,COUT53,1*%
%TO.N,Net-(U1-BIAS)*%
X165736733Y-74993073D03*
%TO.P,COUT53,2*%
%TO.N,GND*%
X165736733Y-72043073D03*
%TD*%
D23*
%TO.P,COUT52,1*%
%TO.N,Net-(U1-BIAS)*%
X149736733Y-77043073D03*
%TO.P,COUT52,2*%
%TO.N,GND*%
X149736733Y-79993073D03*
%TD*%
D40*
%TO.P,CVCC1,2*%
%TO.N,GND*%
X157852366Y-91054000D03*
%TO.P,CVCC1,1*%
%TO.N,Net-(U1-RT)*%
X156302366Y-91054000D03*
%TD*%
D23*
%TO.P,CIN2,1*%
%TO.N,GND*%
X165025000Y-85425000D03*
%TO.P,CIN2,2*%
%TO.N,Net-(U2-VDD)*%
X165025000Y-88375000D03*
%TD*%
D36*
%TO.P,CHF2B1,1*%
%TO.N,GND*%
X162629366Y-85379000D03*
%TO.P,CHF2B1,2*%
%TO.N,Net-(U2-VDD)*%
X162629366Y-86929000D03*
%TD*%
D41*
%TO.P,CHF1B1,1*%
%TO.N,Net-(U2-VDD)*%
X160879366Y-86929000D03*
%TO.P,CHF1B1,2*%
%TO.N,GND*%
X160879366Y-85379000D03*
%TD*%
%TO.P,CHF1A1,1*%
%TO.N,Net-(U2-VDD)*%
X153315045Y-86921267D03*
%TO.P,CHF1A1,2*%
%TO.N,GND*%
X153315045Y-85371267D03*
%TD*%
D36*
%TO.P,CBOOT1,1*%
%TO.N,Net-(U1-SW)*%
X154629366Y-88633000D03*
%TO.P,CBOOT1,2*%
%TO.N,Net-(U1-CBOOT)*%
X154629366Y-90183000D03*
%TD*%
D39*
%TO.P,COUT51,1*%
%TO.N,Net-(U1-BIAS)*%
X149736733Y-74993073D03*
%TO.P,COUT51,2*%
%TO.N,GND*%
X149736733Y-72043073D03*
%TD*%
D23*
%TO.P,COUT54,1*%
%TO.N,Net-(U1-BIAS)*%
X165736733Y-77043073D03*
%TO.P,COUT54,2*%
%TO.N,GND*%
X165736733Y-79993073D03*
%TD*%
D11*
%TO.P,R5,1*%
%TO.N,Net-(U1-EN)*%
X162325000Y-91425000D03*
%TO.P,R5,2*%
%TO.N,Net-(U2-VDD)*%
X163975000Y-91425000D03*
%TD*%
D19*
%TO.P,R1,2*%
%TO.N,Net-(U2-VDD)*%
X166124999Y-94775000D03*
%TO.P,R1,1*%
%TO.N,Net-(U2-INA+)*%
X166124999Y-96425000D03*
%TD*%
D42*
%TO.N,GND*%
X137500000Y-77675000D03*
%TO.N,Net-(U1-BIAS)*%
X140450000Y-77675000D03*
%TO.N,Net-(U1-EN)*%
X162350000Y-96425000D03*
X162350000Y-93675000D03*
X160125000Y-88150000D03*
%TO.N,Net-(U2-INB-)*%
X164249999Y-93675000D03*
X162599999Y-98025000D03*
%TO.N,GND*%
X159249999Y-98000000D03*
X163300001Y-96425000D03*
X147475000Y-82825000D03*
%TO.N,Net-(COUT4-Pad1)*%
X144399999Y-79649999D03*
X142950000Y-83300000D03*
%TO.N,GND*%
X145375000Y-84100000D03*
X143000000Y-82319889D03*
X141525000Y-70000000D03*
X146150000Y-77625000D03*
X139175000Y-83775000D03*
X139575000Y-81100000D03*
%TO.N,Net-(U1-BIAS)*%
X149736733Y-77043073D03*
%TO.N,GND*%
X151276465Y-85483745D03*
X157841366Y-91043000D03*
%TO.N,Net-(U1-BIAS)*%
X157341367Y-88616001D03*
D43*
%TO.N,GND*%
X160879366Y-85379000D03*
D42*
X159216367Y-85729002D03*
X153315045Y-85371267D03*
X158541324Y-88554002D03*
D43*
X162629366Y-85379000D03*
D42*
X149736733Y-79993073D03*
X149736733Y-72043073D03*
X165736733Y-72043073D03*
X165736733Y-79993073D03*
D43*
X164879366Y-85429000D03*
X154984316Y-85386040D03*
D42*
X156466365Y-85729002D03*
%TD*%
D44*
%TO.N,GND*%
X158519123Y-88576203D02*
X158519123Y-88654000D01*
X158541324Y-88554002D02*
X158519123Y-88576203D01*
X140450000Y-81149999D02*
X141350001Y-81149999D01*
X141350001Y-81149999D02*
X141850000Y-80650000D01*
%TO.N,Net-(U2-INA+)*%
X164249999Y-98025000D02*
X164249999Y-96425000D01*
D45*
%TO.N,Net-(U1-EN)*%
X162350000Y-92075000D02*
X162350000Y-91450000D01*
D44*
X162350000Y-91450000D02*
X162325000Y-91425000D01*
D46*
%TO.N,GND*%
X143000000Y-82319889D02*
X143250000Y-82069889D01*
X143250000Y-82069889D02*
X143250000Y-81650001D01*
D47*
%TO.N,Net-(COUT4-Pad1)*%
X143250000Y-79649999D02*
X143250000Y-80129000D01*
D44*
%TO.N,Net-(U5-NR_SS)*%
X147475000Y-81150000D02*
X145375000Y-81150000D01*
X145375000Y-81150000D02*
X143250000Y-81149999D01*
D45*
%TO.N,Net-(U5-FB_PG)*%
X140125000Y-82125000D02*
X140125000Y-81975001D01*
X140125000Y-81975001D02*
X140379002Y-81720999D01*
X140379002Y-81720999D02*
X140450000Y-81720999D01*
%TO.N,Net-(U1-BIAS)*%
X140450000Y-80150001D02*
X140450000Y-80548999D01*
%TO.N,Net-(U1-EN)*%
X162350000Y-93675000D02*
X162350000Y-92075000D01*
D44*
X162300000Y-93625000D02*
X162350000Y-93675000D01*
X162350000Y-96425000D02*
X160625000Y-96425000D01*
X160625000Y-96425000D02*
X160550000Y-96350000D01*
X160120999Y-88154001D02*
X160125000Y-88150000D01*
X159379366Y-88154001D02*
X160120999Y-88154001D01*
%TO.N,Net-(U2-INB-)*%
X162599999Y-98025000D02*
X160924999Y-98025000D01*
X160924999Y-98025000D02*
X160899999Y-98000000D01*
%TO.N,Net-(U2-INA+)*%
X166124999Y-96425000D02*
X164249999Y-96425000D01*
D48*
%TO.N,Net-(F1-Pad1)*%
X148840000Y-91300000D02*
X144885000Y-91300000D01*
D44*
X144885000Y-91300000D02*
X144860000Y-91275000D01*
D45*
%TO.N,Net-(U1-BIAS)*%
X140450000Y-79649999D02*
X140450000Y-77675000D01*
X140450000Y-80150001D02*
X140450000Y-79649999D01*
D47*
%TO.N,Net-(COUT4-Pad1)*%
X144399999Y-79649999D02*
X144400000Y-79650000D01*
X143250000Y-79649999D02*
X144399999Y-79649999D01*
D44*
X143200000Y-75550000D02*
X143475000Y-75275000D01*
D45*
%TO.N,Net-(U5-FB_PG)*%
X139975001Y-82125000D02*
X140125000Y-82125000D01*
X140125000Y-82125000D02*
X141300000Y-83300000D01*
X139975001Y-82125000D02*
X139175000Y-82125000D01*
D44*
%TO.N,GND*%
X140450000Y-81149999D02*
X139624999Y-81149999D01*
X139624999Y-81149999D02*
X139575000Y-81100000D01*
%TO.N,Net-(U1-SW)*%
X157118865Y-87728002D02*
X157841366Y-87005501D01*
%TO.N,Net-(U1-BIAS)*%
X154604733Y-66199073D02*
X154644733Y-66239073D01*
X154604733Y-52991073D02*
X154644733Y-53031073D01*
%TO.N,Net-(U1-SW)*%
X154629366Y-88633000D02*
X155534364Y-87728002D01*
X155534364Y-87728002D02*
X157118865Y-87728002D01*
X157841366Y-87005501D02*
X157841366Y-86666001D01*
%TO.N,Net-(U1-CBOOT)*%
X156303366Y-88654000D02*
X155663869Y-88654000D01*
X155405366Y-89407000D02*
X154629366Y-90183000D01*
X155663869Y-88654000D02*
X155405366Y-88912503D01*
X155405366Y-88912503D02*
X155405366Y-89407000D01*
D49*
%TO.N,Net-(U1-SW)*%
X157841366Y-86666001D02*
X157841366Y-82301766D01*
D44*
X157841366Y-82301766D02*
X157734000Y-82194400D01*
%TO.N,Net-(U2-VDD)*%
X159379366Y-87204003D02*
X159254365Y-87079002D01*
%TO.N,Net-(U1-BIAS)*%
X160760733Y-58656073D02*
X160740733Y-58636073D01*
X160740733Y-52072073D02*
X160780733Y-52032073D01*
%TO.N,Net-(C1-Pad1)*%
X143764000Y-53126000D02*
X143724000Y-53086000D01*
X143724000Y-59730000D02*
X143764000Y-59690000D01*
%TO.N,Net-(U1-RT)*%
X158341365Y-89742002D02*
X158341365Y-90317889D01*
X158341365Y-90317889D02*
X158603366Y-90579890D01*
X158603366Y-90579890D02*
X158603366Y-91528110D01*
X158603366Y-91528110D02*
X158301476Y-91830000D01*
X158301476Y-91830000D02*
X157078366Y-91830000D01*
X157078366Y-91830000D02*
X156302366Y-91054000D01*
X156441366Y-89804000D02*
X156441366Y-90915000D01*
X156441366Y-90915000D02*
X156302366Y-91054000D01*
%TO.N,GND*%
X157841366Y-89667000D02*
X157841366Y-91043000D01*
X157841366Y-91043000D02*
X157852366Y-91054000D01*
%TO.N,Net-(U1-CBOOT)*%
X156303366Y-88154001D02*
X156303366Y-88654000D01*
%TO.N,Net-(U2-VDD)*%
X156252892Y-87079002D02*
X156428367Y-87079002D01*
D46*
%TO.N,GND*%
X159379366Y-88654000D02*
X158519123Y-88654000D01*
D44*
%TO.N,Net-(U1-RT)*%
X158341365Y-89742002D02*
X158341365Y-89204502D01*
X158341365Y-89204502D02*
X158391865Y-89154002D01*
X158391865Y-89154002D02*
X159379366Y-89154002D01*
%TO.N,Net-(U1-BIAS)*%
X156303366Y-89154002D02*
X157290867Y-89154002D01*
X157290867Y-89154002D02*
X157341367Y-89204502D01*
X157341367Y-89204502D02*
X157341367Y-89742002D01*
%TO.N,Net-(U1-RT)*%
X159379368Y-89154000D02*
X159379366Y-89154002D01*
%TO.N,Net-(U2-VDD)*%
X160729364Y-87079002D02*
X160879366Y-86929000D01*
%TO.N,Net-(U1-SW)*%
X157948733Y-83708473D02*
X157736733Y-83496473D01*
%TO.N,Net-(U1-BIAS)*%
X157736733Y-73539673D02*
X157465133Y-73539673D01*
X157341367Y-88616001D02*
X157341367Y-89742002D01*
X154644733Y-59612073D02*
X154604733Y-59652073D01*
X159937466Y-59439340D02*
X160740733Y-58636073D01*
%TD*%
%TA.AperFunction,Conductor*%
%TO.N,Net-(C1-Pad1)*%
G36*
X148001012Y-48771185D02*
G01*
X148046767Y-48823989D01*
X148057972Y-48875952D01*
X147980447Y-70127370D01*
X147960518Y-70194338D01*
X147907548Y-70239900D01*
X147857373Y-70250915D01*
X146639999Y-70260000D01*
X146659351Y-73985238D01*
X146640015Y-74052379D01*
X146587450Y-74098407D01*
X146535236Y-74109882D01*
X144487503Y-74107954D01*
X144420482Y-74088206D01*
X144384518Y-74052846D01*
X144369551Y-74030447D01*
X144303230Y-73986132D01*
X144303229Y-73986131D01*
X144244752Y-73974500D01*
X144244748Y-73974500D01*
X142205252Y-73974500D01*
X142205247Y-73974500D01*
X142146770Y-73986131D01*
X142146769Y-73986132D01*
X142080448Y-74030447D01*
X142067067Y-74050472D01*
X142013453Y-74095275D01*
X141963850Y-74105577D01*
X136450383Y-74100385D01*
X136383362Y-74080637D01*
X136337657Y-74027790D01*
X136326500Y-73976385D01*
X136326500Y-72922844D01*
X141725000Y-72922844D01*
X141731401Y-72982372D01*
X141731403Y-72982379D01*
X141781645Y-73117086D01*
X141781649Y-73117093D01*
X141867809Y-73232187D01*
X141867812Y-73232190D01*
X141982906Y-73318350D01*
X141982913Y-73318354D01*
X142117620Y-73368596D01*
X142117627Y-73368598D01*
X142177155Y-73374999D01*
X142177172Y-73375000D01*
X142975000Y-73375000D01*
X143475000Y-73375000D01*
X144272828Y-73375000D01*
X144272844Y-73374999D01*
X144332372Y-73368598D01*
X144332379Y-73368596D01*
X144467086Y-73318354D01*
X144467093Y-73318350D01*
X144582187Y-73232190D01*
X144582190Y-73232187D01*
X144668350Y-73117093D01*
X144668354Y-73117086D01*
X144718596Y-72982379D01*
X144718598Y-72982372D01*
X144724999Y-72922844D01*
X144725000Y-72922827D01*
X144725000Y-72500000D01*
X143475000Y-72500000D01*
X143475000Y-73375000D01*
X142975000Y-73375000D01*
X142975000Y-72500000D01*
X141725000Y-72500000D01*
X141725000Y-72922844D01*
X136326500Y-72922844D01*
X136326500Y-71577155D01*
X141725000Y-71577155D01*
X141725000Y-72000000D01*
X142975000Y-72000000D01*
X143475000Y-72000000D01*
X144725000Y-72000000D01*
X144725000Y-71577172D01*
X144724999Y-71577155D01*
X144718598Y-71517627D01*
X144718596Y-71517620D01*
X144668354Y-71382913D01*
X144668350Y-71382906D01*
X144582190Y-71267812D01*
X144582187Y-71267809D01*
X144467093Y-71181649D01*
X144467086Y-71181645D01*
X144332379Y-71131403D01*
X144332372Y-71131401D01*
X144272844Y-71125000D01*
X143475000Y-71125000D01*
X143475000Y-72000000D01*
X142975000Y-72000000D01*
X142975000Y-71125000D01*
X142177155Y-71125000D01*
X142117627Y-71131401D01*
X142117620Y-71131403D01*
X141982913Y-71181645D01*
X141982906Y-71181649D01*
X141867812Y-71267809D01*
X141867809Y-71267812D01*
X141781649Y-71382906D01*
X141781645Y-71382913D01*
X141731403Y-71517620D01*
X141731401Y-71517627D01*
X141725000Y-71577155D01*
X136326500Y-71577155D01*
X136326500Y-69466506D01*
X140999500Y-69466506D01*
X140999500Y-70033493D01*
X141015279Y-70133121D01*
X141015280Y-70133124D01*
X141015281Y-70133126D01*
X141075298Y-70250915D01*
X141076473Y-70253221D01*
X141076476Y-70253225D01*
X141104668Y-70281417D01*
X141124369Y-70307090D01*
X141124493Y-70307305D01*
X141124499Y-70307313D01*
X141124500Y-70307314D01*
X141217686Y-70400500D01*
X141289762Y-70442113D01*
X141331810Y-70466390D01*
X141331814Y-70466392D01*
X141459108Y-70500500D01*
X141459110Y-70500500D01*
X141590890Y-70500500D01*
X141590892Y-70500500D01*
X141718186Y-70466392D01*
X141760238Y-70442112D01*
X141822238Y-70425500D01*
X141908493Y-70425500D01*
X142008121Y-70409720D01*
X142008121Y-70409719D01*
X142008126Y-70409719D01*
X142128220Y-70348528D01*
X142147173Y-70329574D01*
X142208494Y-70296090D01*
X142278185Y-70301073D01*
X142334120Y-70342944D01*
X142340392Y-70352159D01*
X142402424Y-70452728D01*
X142402427Y-70452732D01*
X142522267Y-70572572D01*
X142522271Y-70572575D01*
X142666507Y-70661542D01*
X142666518Y-70661547D01*
X142827393Y-70714855D01*
X142926683Y-70724999D01*
X143450000Y-70724999D01*
X143473308Y-70724999D01*
X143473322Y-70724998D01*
X143572607Y-70714855D01*
X143733481Y-70661547D01*
X143733492Y-70661542D01*
X143877728Y-70572575D01*
X143877732Y-70572572D01*
X143997572Y-70452732D01*
X143997575Y-70452728D01*
X144086542Y-70308492D01*
X144086547Y-70308481D01*
X144139855Y-70147606D01*
X144149999Y-70048322D01*
X144150000Y-70048309D01*
X144150000Y-70000000D01*
X143450000Y-70000000D01*
X143450000Y-70724999D01*
X142926683Y-70724999D01*
X142950000Y-70724998D01*
X142950000Y-69500000D01*
X143450000Y-69500000D01*
X144149999Y-69500000D01*
X144149999Y-69451692D01*
X144149998Y-69451677D01*
X144139855Y-69352392D01*
X144086547Y-69191518D01*
X144086542Y-69191507D01*
X143997575Y-69047271D01*
X143997572Y-69047267D01*
X143877732Y-68927427D01*
X143877728Y-68927424D01*
X143733492Y-68838457D01*
X143733481Y-68838452D01*
X143572606Y-68785144D01*
X143473322Y-68775000D01*
X143450000Y-68775000D01*
X143450000Y-69500000D01*
X142950000Y-69500000D01*
X142950000Y-68774999D01*
X142926693Y-68775000D01*
X142926674Y-68775001D01*
X142827392Y-68785144D01*
X142666518Y-68838452D01*
X142666507Y-68838457D01*
X142522271Y-68927424D01*
X142522267Y-68927427D01*
X142402426Y-69047268D01*
X142340392Y-69147841D01*
X142288444Y-69194565D01*
X142219481Y-69205786D01*
X142155399Y-69177943D01*
X142147173Y-69170424D01*
X142128225Y-69151476D01*
X142128221Y-69151473D01*
X142128220Y-69151472D01*
X142008126Y-69090281D01*
X142008124Y-69090280D01*
X142008121Y-69090279D01*
X141908493Y-69074500D01*
X141908488Y-69074500D01*
X141391512Y-69074500D01*
X141391507Y-69074500D01*
X141291878Y-69090279D01*
X141171778Y-69151473D01*
X141171774Y-69151476D01*
X141076476Y-69246774D01*
X141076473Y-69246778D01*
X141015279Y-69366878D01*
X140999500Y-69466506D01*
X136326500Y-69466506D01*
X136326500Y-66196685D01*
X140236000Y-66196685D01*
X140236000Y-66391314D01*
X140273965Y-66582181D01*
X140273968Y-66582190D01*
X140348441Y-66761987D01*
X140348448Y-66762000D01*
X140456569Y-66923813D01*
X140456572Y-66923817D01*
X140594182Y-67061427D01*
X140594186Y-67061430D01*
X140755999Y-67169551D01*
X140756012Y-67169558D01*
X140890859Y-67225412D01*
X140935811Y-67244032D01*
X140935813Y-67244032D01*
X140935818Y-67244034D01*
X141126685Y-67281999D01*
X141126689Y-67282000D01*
X141126690Y-67282000D01*
X141321311Y-67282000D01*
X141321312Y-67281999D01*
X141384936Y-67269344D01*
X141512181Y-67244034D01*
X141512184Y-67244032D01*
X141512189Y-67244032D01*
X141691994Y-67169555D01*
X141853814Y-67061430D01*
X141991430Y-66923814D01*
X142099555Y-66761994D01*
X142174032Y-66582189D01*
X142174034Y-66582181D01*
X142190883Y-66497475D01*
X142223268Y-66435564D01*
X142283983Y-66400990D01*
X142353753Y-66404729D01*
X142410425Y-66445595D01*
X142436006Y-66510613D01*
X142436500Y-66521666D01*
X142436500Y-67129344D01*
X142442901Y-67188872D01*
X142442903Y-67188879D01*
X142493145Y-67323586D01*
X142493149Y-67323593D01*
X142579309Y-67438687D01*
X142579312Y-67438690D01*
X142694406Y-67524850D01*
X142694413Y-67524854D01*
X142829120Y-67575096D01*
X142829127Y-67575098D01*
X142888655Y-67581499D01*
X142888672Y-67581500D01*
X143474000Y-67581500D01*
X143474000Y-66755879D01*
X143521358Y-66783222D01*
X143654882Y-66819000D01*
X143793118Y-66819000D01*
X143926642Y-66783222D01*
X143974000Y-66755879D01*
X143974000Y-67581500D01*
X144559328Y-67581500D01*
X144559344Y-67581499D01*
X144618872Y-67575098D01*
X144618879Y-67575096D01*
X144753586Y-67524854D01*
X144753593Y-67524850D01*
X144868687Y-67438690D01*
X144868690Y-67438687D01*
X144954850Y-67323593D01*
X144954854Y-67323586D01*
X145005096Y-67188879D01*
X145005098Y-67188872D01*
X145011499Y-67129344D01*
X145011500Y-67129327D01*
X145011500Y-66544000D01*
X144185880Y-66544000D01*
X144213222Y-66496642D01*
X144249000Y-66363118D01*
X144249000Y-66224882D01*
X144213222Y-66091358D01*
X144185880Y-66044000D01*
X145011500Y-66044000D01*
X145011500Y-65458672D01*
X145011499Y-65458655D01*
X145005098Y-65399127D01*
X145005096Y-65399120D01*
X144954854Y-65264413D01*
X144954850Y-65264406D01*
X144868690Y-65149312D01*
X144868687Y-65149309D01*
X144753593Y-65063149D01*
X144753586Y-65063145D01*
X144618879Y-65012903D01*
X144618872Y-65012901D01*
X144559344Y-65006500D01*
X143974000Y-65006500D01*
X143974000Y-65832120D01*
X143926642Y-65804778D01*
X143793118Y-65769000D01*
X143654882Y-65769000D01*
X143521358Y-65804778D01*
X143474000Y-65832120D01*
X143474000Y-65006500D01*
X142888655Y-65006500D01*
X142829127Y-65012901D01*
X142829120Y-65012903D01*
X142694413Y-65063145D01*
X142694406Y-65063149D01*
X142579312Y-65149309D01*
X142579309Y-65149312D01*
X142493149Y-65264406D01*
X142493145Y-65264413D01*
X142442903Y-65399120D01*
X142442901Y-65399127D01*
X142436500Y-65458655D01*
X142436500Y-66066333D01*
X142416815Y-66133372D01*
X142364011Y-66179127D01*
X142294853Y-66189071D01*
X142231297Y-66160046D01*
X142193523Y-66101268D01*
X142190883Y-66090524D01*
X142174034Y-66005818D01*
X142174031Y-66005809D01*
X142099558Y-65826012D01*
X142099551Y-65825999D01*
X141991430Y-65664186D01*
X141991427Y-65664182D01*
X141853817Y-65526572D01*
X141853813Y-65526569D01*
X141692000Y-65418448D01*
X141691987Y-65418441D01*
X141512190Y-65343968D01*
X141512181Y-65343965D01*
X141321314Y-65306000D01*
X141321310Y-65306000D01*
X141126690Y-65306000D01*
X141126685Y-65306000D01*
X140935818Y-65343965D01*
X140935809Y-65343968D01*
X140756012Y-65418441D01*
X140755999Y-65418448D01*
X140594186Y-65526569D01*
X140594182Y-65526572D01*
X140456572Y-65664182D01*
X140456569Y-65664186D01*
X140348448Y-65825999D01*
X140348441Y-65826012D01*
X140273968Y-66005809D01*
X140273965Y-66005818D01*
X140236000Y-66196685D01*
X136326500Y-66196685D01*
X136326500Y-59592685D01*
X140276000Y-59592685D01*
X140276000Y-59787314D01*
X140313965Y-59978181D01*
X140313968Y-59978190D01*
X140388441Y-60157987D01*
X140388448Y-60158000D01*
X140496569Y-60319813D01*
X140496572Y-60319817D01*
X140634182Y-60457427D01*
X140634186Y-60457430D01*
X140795999Y-60565551D01*
X140796012Y-60565558D01*
X140930859Y-60621412D01*
X140975811Y-60640032D01*
X140975813Y-60640032D01*
X140975818Y-60640034D01*
X141166685Y-60677999D01*
X141166689Y-60678000D01*
X141166690Y-60678000D01*
X141361311Y-60678000D01*
X141361312Y-60677999D01*
X141424936Y-60665344D01*
X141552181Y-60640034D01*
X141552184Y-60640032D01*
X141552189Y-60640032D01*
X141731994Y-60565555D01*
X141893814Y-60457430D01*
X142031430Y-60319814D01*
X142139555Y-60157994D01*
X142214032Y-59978189D01*
X142214034Y-59978181D01*
X142230883Y-59893475D01*
X142263268Y-59831564D01*
X142323983Y-59796990D01*
X142393753Y-59800729D01*
X142450425Y-59841595D01*
X142476006Y-59906613D01*
X142476500Y-59917666D01*
X142476500Y-60525344D01*
X142482901Y-60584872D01*
X142482903Y-60584879D01*
X142533145Y-60719586D01*
X142533149Y-60719593D01*
X142619309Y-60834687D01*
X142619312Y-60834690D01*
X142734406Y-60920850D01*
X142734413Y-60920854D01*
X142869120Y-60971096D01*
X142869127Y-60971098D01*
X142928655Y-60977499D01*
X142928672Y-60977500D01*
X143514000Y-60977500D01*
X143514000Y-60151879D01*
X143561358Y-60179222D01*
X143694882Y-60215000D01*
X143833118Y-60215000D01*
X143966642Y-60179222D01*
X144014000Y-60151879D01*
X144014000Y-60977500D01*
X144599328Y-60977500D01*
X144599344Y-60977499D01*
X144658872Y-60971098D01*
X144658879Y-60971096D01*
X144793586Y-60920854D01*
X144793593Y-60920850D01*
X144908687Y-60834690D01*
X144908690Y-60834687D01*
X144994850Y-60719593D01*
X144994854Y-60719586D01*
X145045096Y-60584879D01*
X145045098Y-60584872D01*
X145051499Y-60525344D01*
X145051500Y-60525327D01*
X145051500Y-59940000D01*
X144225880Y-59940000D01*
X144253222Y-59892642D01*
X144289000Y-59759118D01*
X144289000Y-59620882D01*
X144253222Y-59487358D01*
X144225880Y-59440000D01*
X145051500Y-59440000D01*
X145051500Y-58854672D01*
X145051499Y-58854655D01*
X145045098Y-58795127D01*
X145045096Y-58795120D01*
X144994854Y-58660413D01*
X144994850Y-58660406D01*
X144908690Y-58545312D01*
X144908687Y-58545309D01*
X144793593Y-58459149D01*
X144793586Y-58459145D01*
X144658879Y-58408903D01*
X144658872Y-58408901D01*
X144599344Y-58402500D01*
X144014000Y-58402500D01*
X144014000Y-59228120D01*
X143966642Y-59200778D01*
X143833118Y-59165000D01*
X143694882Y-59165000D01*
X143561358Y-59200778D01*
X143514000Y-59228120D01*
X143514000Y-58402500D01*
X142928655Y-58402500D01*
X142869127Y-58408901D01*
X142869120Y-58408903D01*
X142734413Y-58459145D01*
X142734406Y-58459149D01*
X142619312Y-58545309D01*
X142619309Y-58545312D01*
X142533149Y-58660406D01*
X142533145Y-58660413D01*
X142482903Y-58795120D01*
X142482901Y-58795127D01*
X142476500Y-58854655D01*
X142476500Y-59462333D01*
X142456815Y-59529372D01*
X142404011Y-59575127D01*
X142334853Y-59585071D01*
X142271297Y-59556046D01*
X142233523Y-59497268D01*
X142230883Y-59486524D01*
X142214034Y-59401818D01*
X142214031Y-59401809D01*
X142139558Y-59222012D01*
X142139551Y-59221999D01*
X142031430Y-59060186D01*
X142031427Y-59060182D01*
X141893817Y-58922572D01*
X141893813Y-58922569D01*
X141732000Y-58814448D01*
X141731987Y-58814441D01*
X141552190Y-58739968D01*
X141552181Y-58739965D01*
X141361314Y-58702000D01*
X141361310Y-58702000D01*
X141166690Y-58702000D01*
X141166685Y-58702000D01*
X140975818Y-58739965D01*
X140975809Y-58739968D01*
X140796012Y-58814441D01*
X140795999Y-58814448D01*
X140634186Y-58922569D01*
X140634182Y-58922572D01*
X140496572Y-59060182D01*
X140496569Y-59060186D01*
X140388448Y-59221999D01*
X140388441Y-59222012D01*
X140313968Y-59401809D01*
X140313965Y-59401818D01*
X140276000Y-59592685D01*
X136326500Y-59592685D01*
X136326500Y-52988685D01*
X140236000Y-52988685D01*
X140236000Y-53183314D01*
X140273965Y-53374181D01*
X140273968Y-53374190D01*
X140348441Y-53553987D01*
X140348448Y-53554000D01*
X140456569Y-53715813D01*
X140456572Y-53715817D01*
X140594182Y-53853427D01*
X140594186Y-53853430D01*
X140755999Y-53961551D01*
X140756012Y-53961558D01*
X140890859Y-54017412D01*
X140935811Y-54036032D01*
X140935813Y-54036032D01*
X140935818Y-54036034D01*
X141126685Y-54073999D01*
X141126689Y-54074000D01*
X141126690Y-54074000D01*
X141321311Y-54074000D01*
X141321312Y-54073999D01*
X141384936Y-54061344D01*
X141512181Y-54036034D01*
X141512184Y-54036032D01*
X141512189Y-54036032D01*
X141691994Y-53961555D01*
X141853814Y-53853430D01*
X141991430Y-53715814D01*
X142099555Y-53553994D01*
X142174032Y-53374189D01*
X142174034Y-53374181D01*
X142190883Y-53289475D01*
X142223268Y-53227564D01*
X142283983Y-53192990D01*
X142353753Y-53196729D01*
X142410425Y-53237595D01*
X142436006Y-53302613D01*
X142436500Y-53313666D01*
X142436500Y-53921344D01*
X142442901Y-53980872D01*
X142442903Y-53980879D01*
X142493145Y-54115586D01*
X142493149Y-54115593D01*
X142579309Y-54230687D01*
X142579312Y-54230690D01*
X142694406Y-54316850D01*
X142694413Y-54316854D01*
X142829120Y-54367096D01*
X142829127Y-54367098D01*
X142888655Y-54373499D01*
X142888672Y-54373500D01*
X143474000Y-54373500D01*
X143474000Y-53547879D01*
X143521358Y-53575222D01*
X143654882Y-53611000D01*
X143793118Y-53611000D01*
X143926642Y-53575222D01*
X143974000Y-53547879D01*
X143974000Y-54373500D01*
X144559328Y-54373500D01*
X144559344Y-54373499D01*
X144618872Y-54367098D01*
X144618879Y-54367096D01*
X144753586Y-54316854D01*
X144753593Y-54316850D01*
X144868687Y-54230690D01*
X144868690Y-54230687D01*
X144954850Y-54115593D01*
X144954854Y-54115586D01*
X145005096Y-53980879D01*
X145005098Y-53980872D01*
X145011499Y-53921344D01*
X145011500Y-53921327D01*
X145011500Y-53336000D01*
X144185880Y-53336000D01*
X144213222Y-53288642D01*
X144249000Y-53155118D01*
X144249000Y-53016882D01*
X144213222Y-52883358D01*
X144185880Y-52836000D01*
X145011500Y-52836000D01*
X145011500Y-52250672D01*
X145011499Y-52250655D01*
X145005098Y-52191127D01*
X145005096Y-52191120D01*
X144954854Y-52056413D01*
X144954850Y-52056406D01*
X144868690Y-51941312D01*
X144868687Y-51941309D01*
X144753593Y-51855149D01*
X144753586Y-51855145D01*
X144618879Y-51804903D01*
X144618872Y-51804901D01*
X144559344Y-51798500D01*
X143974000Y-51798500D01*
X143974000Y-52624120D01*
X143926642Y-52596778D01*
X143793118Y-52561000D01*
X143654882Y-52561000D01*
X143521358Y-52596778D01*
X143474000Y-52624120D01*
X143474000Y-51798500D01*
X142888655Y-51798500D01*
X142829127Y-51804901D01*
X142829120Y-51804903D01*
X142694413Y-51855145D01*
X142694406Y-51855149D01*
X142579312Y-51941309D01*
X142579309Y-51941312D01*
X142493149Y-52056406D01*
X142493145Y-52056413D01*
X142442903Y-52191120D01*
X142442901Y-52191127D01*
X142436500Y-52250655D01*
X142436500Y-52858333D01*
X142416815Y-52925372D01*
X142364011Y-52971127D01*
X142294853Y-52981071D01*
X142231297Y-52952046D01*
X142193523Y-52893268D01*
X142190883Y-52882524D01*
X142174034Y-52797818D01*
X142174031Y-52797809D01*
X142099558Y-52618012D01*
X142099551Y-52617999D01*
X141991430Y-52456186D01*
X141991427Y-52456182D01*
X141853817Y-52318572D01*
X141853813Y-52318569D01*
X141692000Y-52210448D01*
X141691987Y-52210441D01*
X141512190Y-52135968D01*
X141512181Y-52135965D01*
X141321314Y-52098000D01*
X141321310Y-52098000D01*
X141126690Y-52098000D01*
X141126685Y-52098000D01*
X140935818Y-52135965D01*
X140935809Y-52135968D01*
X140756012Y-52210441D01*
X140755999Y-52210448D01*
X140594186Y-52318569D01*
X140594182Y-52318572D01*
X140456572Y-52456182D01*
X140456569Y-52456186D01*
X140348448Y-52617999D01*
X140348441Y-52618012D01*
X140273968Y-52797809D01*
X140273965Y-52797818D01*
X140236000Y-52988685D01*
X136326500Y-52988685D01*
X136326500Y-48875500D01*
X136346185Y-48808461D01*
X136398989Y-48762706D01*
X136450500Y-48751500D01*
X147933973Y-48751500D01*
X148001012Y-48771185D01*
G37*
%TD.AperFunction*%
%TD*%
%TA.AperFunction,Conductor*%
%TO.N,Net-(COUT4-Pad1)*%
G36*
X141601119Y-74310735D02*
G01*
X141668138Y-74330483D01*
X141713843Y-74383330D01*
X141725000Y-74434735D01*
X141725000Y-74550000D01*
X144725000Y-74550000D01*
X144725000Y-74437793D01*
X144744685Y-74370754D01*
X144797489Y-74324999D01*
X144849109Y-74313794D01*
X145343899Y-74314260D01*
X145410919Y-74334008D01*
X145456624Y-74386855D01*
X145467762Y-74440420D01*
X145427929Y-76726801D01*
X145420990Y-76765595D01*
X145377353Y-76890302D01*
X145374500Y-76920730D01*
X145374500Y-78329269D01*
X145377353Y-78359699D01*
X145377354Y-78359701D01*
X145391106Y-78399002D01*
X145398046Y-78442117D01*
X145384565Y-79215989D01*
X145366504Y-80252662D01*
X145345656Y-80319346D01*
X145292063Y-80364174D01*
X145242524Y-80374500D01*
X144670730Y-80374500D01*
X144640300Y-80377353D01*
X144640298Y-80377353D01*
X144512119Y-80422206D01*
X144512117Y-80422207D01*
X144402850Y-80502850D01*
X144322207Y-80612117D01*
X144322206Y-80612119D01*
X144277353Y-80740298D01*
X144276855Y-80742582D01*
X144276936Y-80743146D01*
X144276545Y-80744001D01*
X144275744Y-80747670D01*
X144274949Y-80747496D01*
X144263645Y-80772249D01*
X144251801Y-80801983D01*
X144249225Y-80803823D01*
X144247911Y-80806702D01*
X144220991Y-80824002D01*
X144194956Y-80842609D01*
X144190996Y-80843278D01*
X144189133Y-80844476D01*
X144154198Y-80849499D01*
X143982779Y-80849499D01*
X143915740Y-80829814D01*
X143869985Y-80777010D01*
X143860041Y-80707852D01*
X143889066Y-80644296D01*
X143903811Y-80630567D01*
X143907190Y-80627188D01*
X143993350Y-80512094D01*
X143993354Y-80512087D01*
X144043596Y-80377380D01*
X144043598Y-80377373D01*
X144049999Y-80317845D01*
X144050000Y-80317828D01*
X144050000Y-79982173D01*
X144049999Y-79982156D01*
X144042769Y-79914913D01*
X144044997Y-79914673D01*
X144044997Y-79885326D01*
X144042769Y-79885087D01*
X144049999Y-79817843D01*
X144050000Y-79817826D01*
X144050000Y-79482171D01*
X144049999Y-79482154D01*
X144043598Y-79422626D01*
X144043596Y-79422619D01*
X143993354Y-79287912D01*
X143993350Y-79287905D01*
X143907190Y-79172811D01*
X143868203Y-79143625D01*
X143826333Y-79087691D01*
X143821349Y-79017999D01*
X143854835Y-78956677D01*
X143877418Y-78938820D01*
X143993345Y-78867315D01*
X144117315Y-78743345D01*
X144209356Y-78594124D01*
X144209358Y-78594119D01*
X144264505Y-78427697D01*
X144264506Y-78427690D01*
X144274999Y-78324986D01*
X144275000Y-78324973D01*
X144275000Y-77875000D01*
X142125001Y-77875000D01*
X142125001Y-78324986D01*
X142135494Y-78427697D01*
X142186459Y-78581497D01*
X142188861Y-78651325D01*
X142153129Y-78711367D01*
X142099250Y-78740692D01*
X142084239Y-78744501D01*
X142025001Y-78744501D01*
X141957134Y-78756031D01*
X141901811Y-78790790D01*
X141882876Y-78795595D01*
X141866695Y-78794994D01*
X141851110Y-78799398D01*
X141832495Y-78793724D01*
X141813055Y-78793003D01*
X141799767Y-78783749D01*
X141784275Y-78779028D01*
X141780653Y-78776553D01*
X141764162Y-78764852D01*
X141719580Y-78754676D01*
X141675000Y-78744501D01*
X141674999Y-78744501D01*
X141524999Y-78744501D01*
X141524997Y-78744501D01*
X141457128Y-78756032D01*
X141457126Y-78756033D01*
X141379696Y-78804683D01*
X141329691Y-78854686D01*
X141329684Y-78854694D01*
X141289850Y-78910835D01*
X141289848Y-78910839D01*
X141279386Y-78956677D01*
X141269497Y-79000002D01*
X141269497Y-79120500D01*
X141266947Y-79129185D01*
X141268236Y-79138147D01*
X141257258Y-79162184D01*
X141249814Y-79187539D01*
X141242971Y-79193467D01*
X141239211Y-79201703D01*
X141216979Y-79215989D01*
X141197010Y-79233294D01*
X141186494Y-79235581D01*
X141180433Y-79239477D01*
X141145498Y-79244500D01*
X141101823Y-79244500D01*
X141034784Y-79224815D01*
X140989029Y-79172011D01*
X140977831Y-79121796D01*
X140974495Y-78801565D01*
X140993480Y-78734327D01*
X141024855Y-78700506D01*
X141055630Y-78677793D01*
X141097150Y-78647150D01*
X141177793Y-78537882D01*
X141200219Y-78473790D01*
X141222646Y-78409701D01*
X141222646Y-78409699D01*
X141225500Y-78379269D01*
X141225500Y-76970731D01*
X141222646Y-76940298D01*
X141217297Y-76925013D01*
X142125000Y-76925013D01*
X142125000Y-77375000D01*
X142950000Y-77375000D01*
X143450000Y-77375000D01*
X144274999Y-77375000D01*
X144274999Y-76925028D01*
X144274998Y-76925013D01*
X144264505Y-76822302D01*
X144209358Y-76655880D01*
X144209356Y-76655875D01*
X144117315Y-76506654D01*
X143993345Y-76382684D01*
X143844124Y-76290643D01*
X143844119Y-76290641D01*
X143677697Y-76235494D01*
X143677690Y-76235493D01*
X143574986Y-76225000D01*
X143450000Y-76225000D01*
X143450000Y-77375000D01*
X142950000Y-77375000D01*
X142950000Y-76225000D01*
X142825027Y-76225000D01*
X142825012Y-76225001D01*
X142722302Y-76235494D01*
X142555880Y-76290641D01*
X142555875Y-76290643D01*
X142406654Y-76382684D01*
X142282684Y-76506654D01*
X142190643Y-76655875D01*
X142190641Y-76655880D01*
X142135494Y-76822302D01*
X142135493Y-76822309D01*
X142125000Y-76925013D01*
X141217297Y-76925013D01*
X141181359Y-76822309D01*
X141177793Y-76812118D01*
X141097150Y-76702850D01*
X141001227Y-76632056D01*
X140958978Y-76576410D01*
X140950870Y-76533588D01*
X140939821Y-75472844D01*
X141725000Y-75472844D01*
X141731401Y-75532372D01*
X141731403Y-75532379D01*
X141781645Y-75667086D01*
X141781649Y-75667093D01*
X141867809Y-75782187D01*
X141867812Y-75782190D01*
X141982906Y-75868350D01*
X141982913Y-75868354D01*
X142117620Y-75918596D01*
X142117627Y-75918598D01*
X142177155Y-75924999D01*
X142177172Y-75925000D01*
X142975000Y-75925000D01*
X143475000Y-75925000D01*
X144272828Y-75925000D01*
X144272844Y-75924999D01*
X144332372Y-75918598D01*
X144332379Y-75918596D01*
X144467086Y-75868354D01*
X144467093Y-75868350D01*
X144582187Y-75782190D01*
X144582190Y-75782187D01*
X144668350Y-75667093D01*
X144668354Y-75667086D01*
X144718596Y-75532379D01*
X144718598Y-75532372D01*
X144724999Y-75472844D01*
X144725000Y-75472827D01*
X144725000Y-75050000D01*
X143475000Y-75050000D01*
X143475000Y-75925000D01*
X142975000Y-75925000D01*
X142975000Y-75050000D01*
X141725000Y-75050000D01*
X141725000Y-75472844D01*
X140939821Y-75472844D01*
X140929015Y-74435508D01*
X140948000Y-74368270D01*
X141000325Y-74321967D01*
X141053122Y-74310219D01*
X141601119Y-74310735D01*
G37*
%TD.AperFunction*%
%TD*%
%TA.AperFunction,Conductor*%
%TO.N,Net-(U1-BIAS)*%
G36*
X167982539Y-48771185D02*
G01*
X168028294Y-48823989D01*
X168039500Y-48875500D01*
X168039500Y-78452712D01*
X168019815Y-78519751D01*
X167967011Y-78565506D01*
X167917794Y-78576691D01*
X164057894Y-78648106D01*
X163990502Y-78629665D01*
X163943778Y-78577716D01*
X163931600Y-78524127D01*
X163931600Y-77418059D01*
X164336734Y-77418059D01*
X164347227Y-77520770D01*
X164402374Y-77687192D01*
X164402376Y-77687197D01*
X164494417Y-77836418D01*
X164618387Y-77960388D01*
X164767608Y-78052429D01*
X164767613Y-78052431D01*
X164934035Y-78107578D01*
X164934042Y-78107579D01*
X165036752Y-78118072D01*
X165486732Y-78118072D01*
X165986733Y-78118072D01*
X166436705Y-78118072D01*
X166436719Y-78118071D01*
X166539430Y-78107578D01*
X166705852Y-78052431D01*
X166705857Y-78052429D01*
X166855078Y-77960388D01*
X166979048Y-77836418D01*
X167071089Y-77687197D01*
X167071091Y-77687192D01*
X167126238Y-77520770D01*
X167126239Y-77520763D01*
X167136732Y-77418059D01*
X167136733Y-77418046D01*
X167136733Y-77293073D01*
X165986733Y-77293073D01*
X165986733Y-78118072D01*
X165486732Y-78118072D01*
X165486733Y-78118071D01*
X165486733Y-77293073D01*
X164336734Y-77293073D01*
X164336734Y-77418059D01*
X163931600Y-77418059D01*
X163931600Y-76668086D01*
X164336733Y-76668086D01*
X164336733Y-76793073D01*
X165486733Y-76793073D01*
X165986733Y-76793073D01*
X167136732Y-76793073D01*
X167136732Y-76668101D01*
X167136731Y-76668086D01*
X167126238Y-76565375D01*
X167071091Y-76398953D01*
X167071089Y-76398948D01*
X166979048Y-76249727D01*
X166855076Y-76125755D01*
X166851601Y-76123612D01*
X166849717Y-76121518D01*
X166849410Y-76121275D01*
X166849451Y-76121222D01*
X166804876Y-76071665D01*
X166793653Y-76002702D01*
X166821496Y-75938620D01*
X166851601Y-75912534D01*
X166855076Y-75910390D01*
X166979048Y-75786418D01*
X167071089Y-75637197D01*
X167071091Y-75637192D01*
X167126238Y-75470770D01*
X167126239Y-75470763D01*
X167136732Y-75368059D01*
X167136733Y-75368046D01*
X167136733Y-75243073D01*
X165986733Y-75243073D01*
X165986733Y-76793073D01*
X165486733Y-76793073D01*
X165486733Y-75243073D01*
X164336734Y-75243073D01*
X164336734Y-75368059D01*
X164347227Y-75470770D01*
X164402374Y-75637192D01*
X164402376Y-75637197D01*
X164494417Y-75786418D01*
X164618388Y-75910389D01*
X164618391Y-75910391D01*
X164621869Y-75912537D01*
X164623751Y-75914630D01*
X164624056Y-75914871D01*
X164624014Y-75914922D01*
X164668591Y-75964486D01*
X164679811Y-76033449D01*
X164651965Y-76097530D01*
X164621869Y-76123609D01*
X164618391Y-76125754D01*
X164618388Y-76125756D01*
X164494417Y-76249727D01*
X164402376Y-76398948D01*
X164402374Y-76398953D01*
X164347227Y-76565375D01*
X164347226Y-76565382D01*
X164336733Y-76668086D01*
X163931600Y-76668086D01*
X163931600Y-74618086D01*
X164336733Y-74618086D01*
X164336733Y-74743073D01*
X165486733Y-74743073D01*
X165986733Y-74743073D01*
X167136732Y-74743073D01*
X167136732Y-74618101D01*
X167136731Y-74618086D01*
X167126238Y-74515375D01*
X167071091Y-74348953D01*
X167071089Y-74348948D01*
X166979048Y-74199727D01*
X166855078Y-74075757D01*
X166705857Y-73983716D01*
X166705852Y-73983714D01*
X166539430Y-73928567D01*
X166539423Y-73928566D01*
X166436719Y-73918073D01*
X165986733Y-73918073D01*
X165986733Y-74743073D01*
X165486733Y-74743073D01*
X165486733Y-73918073D01*
X165036761Y-73918073D01*
X165036745Y-73918074D01*
X164934035Y-73928567D01*
X164767613Y-73983714D01*
X164767608Y-73983716D01*
X164618387Y-74075757D01*
X164494417Y-74199727D01*
X164402376Y-74348948D01*
X164402374Y-74348953D01*
X164347227Y-74515375D01*
X164347226Y-74515382D01*
X164336733Y-74618086D01*
X163931600Y-74618086D01*
X163931600Y-74218800D01*
X161113900Y-74218800D01*
X161046861Y-74199115D01*
X161001106Y-74146311D01*
X160989900Y-74094800D01*
X160989900Y-72487600D01*
X154478100Y-72487600D01*
X154478100Y-74094800D01*
X154458415Y-74161839D01*
X154405611Y-74207594D01*
X154354100Y-74218800D01*
X151536400Y-74218800D01*
X151536400Y-78758049D01*
X151516715Y-78825088D01*
X151463911Y-78870843D01*
X151414694Y-78882028D01*
X146786294Y-78967663D01*
X146776452Y-78964969D01*
X146766353Y-78966422D01*
X146743322Y-78955904D01*
X146718902Y-78949222D01*
X146712078Y-78941635D01*
X146702797Y-78937397D01*
X146689107Y-78916096D01*
X146672178Y-78897273D01*
X146669534Y-78885638D01*
X146665023Y-78878619D01*
X146660000Y-78843684D01*
X146660000Y-78760969D01*
X146679685Y-78693930D01*
X146710366Y-78661199D01*
X146797150Y-78597150D01*
X146877793Y-78487882D01*
X146900219Y-78423790D01*
X146922646Y-78359701D01*
X146922646Y-78359699D01*
X146925500Y-78329269D01*
X146925500Y-77418059D01*
X148336734Y-77418059D01*
X148347227Y-77520770D01*
X148402374Y-77687192D01*
X148402376Y-77687197D01*
X148494417Y-77836418D01*
X148618387Y-77960388D01*
X148767608Y-78052429D01*
X148767613Y-78052431D01*
X148934035Y-78107578D01*
X148934042Y-78107579D01*
X149036752Y-78118072D01*
X149486732Y-78118072D01*
X149986733Y-78118072D01*
X150436705Y-78118072D01*
X150436719Y-78118071D01*
X150539430Y-78107578D01*
X150705852Y-78052431D01*
X150705857Y-78052429D01*
X150855078Y-77960388D01*
X150979048Y-77836418D01*
X151071089Y-77687197D01*
X151071091Y-77687192D01*
X151126238Y-77520770D01*
X151126239Y-77520763D01*
X151136732Y-77418059D01*
X151136733Y-77418046D01*
X151136733Y-77293073D01*
X149986733Y-77293073D01*
X149986733Y-78118072D01*
X149486732Y-78118072D01*
X149486733Y-78118071D01*
X149486733Y-77293073D01*
X148336734Y-77293073D01*
X148336734Y-77418059D01*
X146925500Y-77418059D01*
X146925500Y-76920730D01*
X146922646Y-76890300D01*
X146922646Y-76890298D01*
X146877793Y-76762119D01*
X146877792Y-76762117D01*
X146808395Y-76668086D01*
X148336733Y-76668086D01*
X148336733Y-76793073D01*
X149486733Y-76793073D01*
X149986733Y-76793073D01*
X151136732Y-76793073D01*
X151136732Y-76668101D01*
X151136731Y-76668086D01*
X151126238Y-76565375D01*
X151071091Y-76398953D01*
X151071089Y-76398948D01*
X150979048Y-76249727D01*
X150855076Y-76125755D01*
X150851601Y-76123612D01*
X150849717Y-76121518D01*
X150849410Y-76121275D01*
X150849451Y-76121222D01*
X150804876Y-76071665D01*
X150793653Y-76002702D01*
X150821496Y-75938620D01*
X150851601Y-75912534D01*
X150855076Y-75910390D01*
X150979048Y-75786418D01*
X151071089Y-75637197D01*
X151071091Y-75637192D01*
X151126238Y-75470770D01*
X151126239Y-75470763D01*
X151136732Y-75368059D01*
X151136733Y-75368046D01*
X151136733Y-75243073D01*
X149986733Y-75243073D01*
X149986733Y-76793073D01*
X149486733Y-76793073D01*
X149486733Y-75243073D01*
X148336734Y-75243073D01*
X148336734Y-75368059D01*
X148347227Y-75470770D01*
X148402374Y-75637192D01*
X148402376Y-75637197D01*
X148494417Y-75786418D01*
X148618388Y-75910389D01*
X148618391Y-75910391D01*
X148621869Y-75912537D01*
X148623751Y-75914630D01*
X148624056Y-75914871D01*
X148624014Y-75914922D01*
X148668591Y-75964486D01*
X148679811Y-76033449D01*
X148651965Y-76097530D01*
X148621869Y-76123609D01*
X148618391Y-76125754D01*
X148618388Y-76125756D01*
X148494417Y-76249727D01*
X148402376Y-76398948D01*
X148402374Y-76398953D01*
X148347227Y-76565375D01*
X148347226Y-76565382D01*
X148336733Y-76668086D01*
X146808395Y-76668086D01*
X146797150Y-76652850D01*
X146702930Y-76583313D01*
X146696388Y-76576781D01*
X146683878Y-76553914D01*
X146668116Y-76533154D01*
X146665884Y-76521022D01*
X146662855Y-76515485D01*
X146663413Y-76507588D01*
X146660000Y-76489031D01*
X146660000Y-74618086D01*
X148336733Y-74618086D01*
X148336733Y-74743073D01*
X149486733Y-74743073D01*
X149986733Y-74743073D01*
X151136732Y-74743073D01*
X151136732Y-74618101D01*
X151136731Y-74618086D01*
X151126238Y-74515375D01*
X151071091Y-74348953D01*
X151071089Y-74348948D01*
X150979048Y-74199727D01*
X150855078Y-74075757D01*
X150705857Y-73983716D01*
X150705852Y-73983714D01*
X150539430Y-73928567D01*
X150539423Y-73928566D01*
X150436719Y-73918073D01*
X149986733Y-73918073D01*
X149986733Y-74743073D01*
X149486733Y-74743073D01*
X149486733Y-73918073D01*
X149036761Y-73918073D01*
X149036745Y-73918074D01*
X148934035Y-73928567D01*
X148767613Y-73983714D01*
X148767608Y-73983716D01*
X148618387Y-74075757D01*
X148494417Y-74199727D01*
X148402376Y-74348948D01*
X148402374Y-74348953D01*
X148347227Y-74515375D01*
X148347226Y-74515382D01*
X148336733Y-74618086D01*
X146660000Y-74618086D01*
X146660000Y-74360904D01*
X146679685Y-74293865D01*
X146718048Y-74258331D01*
X146717112Y-74256982D01*
X146722825Y-74253014D01*
X146722829Y-74253012D01*
X146775394Y-74206984D01*
X146793258Y-74189298D01*
X146837489Y-74109250D01*
X146856825Y-74042109D01*
X146864848Y-73984170D01*
X146852794Y-71663803D01*
X148636233Y-71663803D01*
X148636233Y-72422342D01*
X148639086Y-72452772D01*
X148639086Y-72452774D01*
X148683939Y-72580953D01*
X148683940Y-72580955D01*
X148764583Y-72690223D01*
X148873851Y-72770866D01*
X148916578Y-72785817D01*
X149002032Y-72815719D01*
X149032463Y-72818573D01*
X149032467Y-72818573D01*
X150441003Y-72818573D01*
X150471432Y-72815719D01*
X150471434Y-72815719D01*
X150535523Y-72793292D01*
X150599615Y-72770866D01*
X150708883Y-72690223D01*
X150789526Y-72580955D01*
X150811952Y-72516863D01*
X150834379Y-72452774D01*
X150834379Y-72452772D01*
X150837233Y-72422342D01*
X150837233Y-71663803D01*
X150834379Y-71633373D01*
X150834379Y-71633371D01*
X150789526Y-71505192D01*
X150789525Y-71505190D01*
X150772712Y-71482409D01*
X150708883Y-71395923D01*
X150599615Y-71315280D01*
X150599613Y-71315279D01*
X150471433Y-71270426D01*
X150441003Y-71267573D01*
X150440999Y-71267573D01*
X149032467Y-71267573D01*
X149032463Y-71267573D01*
X149002033Y-71270426D01*
X149002031Y-71270426D01*
X148873852Y-71315279D01*
X148873850Y-71315280D01*
X148764583Y-71395923D01*
X148683940Y-71505190D01*
X148683939Y-71505192D01*
X148639086Y-71633371D01*
X148639086Y-71633373D01*
X148636233Y-71663803D01*
X146852794Y-71663803D01*
X146847203Y-70587677D01*
X146866539Y-70520539D01*
X146919104Y-70474511D01*
X146970272Y-70463039D01*
X147858907Y-70456409D01*
X147901437Y-70451635D01*
X147951612Y-70440620D01*
X147960687Y-70438411D01*
X148041555Y-70395696D01*
X148094525Y-70350134D01*
X148112544Y-70332607D01*
X148153869Y-70259355D01*
X154478100Y-70259355D01*
X154478100Y-71987600D01*
X157484000Y-71987600D01*
X157984000Y-71987600D01*
X160989900Y-71987600D01*
X160989900Y-71663803D01*
X164636233Y-71663803D01*
X164636233Y-72422342D01*
X164639086Y-72452772D01*
X164639086Y-72452774D01*
X164683939Y-72580953D01*
X164683940Y-72580955D01*
X164764583Y-72690223D01*
X164873851Y-72770866D01*
X164916578Y-72785817D01*
X165002032Y-72815719D01*
X165032463Y-72818573D01*
X165032467Y-72818573D01*
X166441003Y-72818573D01*
X166471432Y-72815719D01*
X166471434Y-72815719D01*
X166535523Y-72793292D01*
X166599615Y-72770866D01*
X166708883Y-72690223D01*
X166789526Y-72580955D01*
X166811952Y-72516863D01*
X166834379Y-72452774D01*
X166834379Y-72452772D01*
X166837233Y-72422342D01*
X166837233Y-71663803D01*
X166834379Y-71633373D01*
X166834379Y-71633371D01*
X166789526Y-71505192D01*
X166789525Y-71505190D01*
X166772712Y-71482409D01*
X166708883Y-71395923D01*
X166599615Y-71315280D01*
X166599613Y-71315279D01*
X166471433Y-71270426D01*
X166441003Y-71267573D01*
X166440999Y-71267573D01*
X165032467Y-71267573D01*
X165032463Y-71267573D01*
X165002033Y-71270426D01*
X165002031Y-71270426D01*
X164873852Y-71315279D01*
X164873850Y-71315280D01*
X164764583Y-71395923D01*
X164683940Y-71505190D01*
X164683939Y-71505192D01*
X164639086Y-71633371D01*
X164639086Y-71633373D01*
X164636233Y-71663803D01*
X160989900Y-71663803D01*
X160989900Y-70259372D01*
X160989899Y-70259355D01*
X160983498Y-70199827D01*
X160983496Y-70199820D01*
X160933254Y-70065113D01*
X160933250Y-70065106D01*
X160847090Y-69950012D01*
X160847087Y-69950009D01*
X160731993Y-69863849D01*
X160731986Y-69863845D01*
X160597279Y-69813603D01*
X160597272Y-69813601D01*
X160537744Y-69807200D01*
X157984000Y-69807200D01*
X157984000Y-71987600D01*
X157484000Y-71987600D01*
X157484000Y-69807200D01*
X154930255Y-69807200D01*
X154870727Y-69813601D01*
X154870720Y-69813603D01*
X154736013Y-69863845D01*
X154736006Y-69863849D01*
X154620912Y-69950009D01*
X154620909Y-69950012D01*
X154534749Y-70065106D01*
X154534745Y-70065113D01*
X154484503Y-70199820D01*
X154484501Y-70199827D01*
X154478100Y-70259355D01*
X148153869Y-70259355D01*
X148157481Y-70252952D01*
X148165110Y-70227316D01*
X148167084Y-70220684D01*
X148167084Y-70220683D01*
X148173290Y-70199827D01*
X148177410Y-70185984D01*
X148184701Y-70136560D01*
X148185946Y-70128123D01*
X148185946Y-70128122D01*
X148196667Y-67189107D01*
X148200488Y-66141758D01*
X151156733Y-66141758D01*
X151156733Y-66336387D01*
X151194698Y-66527254D01*
X151194701Y-66527263D01*
X151269174Y-66707060D01*
X151269181Y-66707073D01*
X151377302Y-66868886D01*
X151377305Y-66868890D01*
X151514915Y-67006500D01*
X151514919Y-67006503D01*
X151676732Y-67114624D01*
X151676745Y-67114631D01*
X151740984Y-67141239D01*
X151856544Y-67189105D01*
X151856546Y-67189105D01*
X151856551Y-67189107D01*
X152047418Y-67227072D01*
X152047422Y-67227073D01*
X152047423Y-67227073D01*
X152242044Y-67227073D01*
X152242045Y-67227072D01*
X152305669Y-67214417D01*
X152432914Y-67189107D01*
X152432917Y-67189105D01*
X152432922Y-67189105D01*
X152603794Y-67118328D01*
X152612720Y-67114631D01*
X152612720Y-67114630D01*
X152612727Y-67114628D01*
X152774547Y-67006503D01*
X152912163Y-66868887D01*
X153020288Y-66707067D01*
X153094765Y-66527262D01*
X153095764Y-66522241D01*
X153111616Y-66442548D01*
X153144001Y-66380637D01*
X153204716Y-66346063D01*
X153274486Y-66349802D01*
X153331158Y-66390668D01*
X153356739Y-66455686D01*
X153357233Y-66466739D01*
X153357233Y-67074417D01*
X153363634Y-67133945D01*
X153363636Y-67133952D01*
X153413878Y-67268659D01*
X153413882Y-67268666D01*
X153500042Y-67383760D01*
X153500045Y-67383763D01*
X153615139Y-67469923D01*
X153615146Y-67469927D01*
X153749853Y-67520169D01*
X153749860Y-67520171D01*
X153809388Y-67526572D01*
X153809405Y-67526573D01*
X154394733Y-67526573D01*
X154394733Y-66700952D01*
X154442091Y-66728295D01*
X154575615Y-66764073D01*
X154713851Y-66764073D01*
X154847375Y-66728295D01*
X154894733Y-66700952D01*
X154894733Y-67526573D01*
X155480061Y-67526573D01*
X155480077Y-67526572D01*
X155539605Y-67520171D01*
X155539612Y-67520169D01*
X155674319Y-67469927D01*
X155674326Y-67469923D01*
X155789420Y-67383763D01*
X155789423Y-67383760D01*
X155875583Y-67268666D01*
X155875587Y-67268659D01*
X155925829Y-67133952D01*
X155925831Y-67133945D01*
X155932232Y-67074417D01*
X155932233Y-67074400D01*
X155932233Y-66489073D01*
X155106613Y-66489073D01*
X155133955Y-66441715D01*
X155169733Y-66308191D01*
X155169733Y-66169955D01*
X155133955Y-66036431D01*
X155106613Y-65989073D01*
X155932233Y-65989073D01*
X155932233Y-65403745D01*
X155932232Y-65403728D01*
X155925831Y-65344200D01*
X155925829Y-65344193D01*
X155875587Y-65209486D01*
X155875583Y-65209479D01*
X155789423Y-65094385D01*
X155789420Y-65094382D01*
X155674326Y-65008222D01*
X155674319Y-65008218D01*
X155539612Y-64957976D01*
X155539605Y-64957974D01*
X155480077Y-64951573D01*
X154894733Y-64951573D01*
X154894733Y-65777193D01*
X154847375Y-65749851D01*
X154713851Y-65714073D01*
X154575615Y-65714073D01*
X154442091Y-65749851D01*
X154394733Y-65777193D01*
X154394733Y-64951573D01*
X153809388Y-64951573D01*
X153749860Y-64957974D01*
X153749853Y-64957976D01*
X153615146Y-65008218D01*
X153615139Y-65008222D01*
X153500045Y-65094382D01*
X153500042Y-65094385D01*
X153413882Y-65209479D01*
X153413878Y-65209486D01*
X153363636Y-65344193D01*
X153363634Y-65344200D01*
X153357233Y-65403728D01*
X153357233Y-66011406D01*
X153337548Y-66078445D01*
X153284744Y-66124200D01*
X153215586Y-66134144D01*
X153152030Y-66105119D01*
X153114256Y-66046341D01*
X153111616Y-66035597D01*
X153094767Y-65950891D01*
X153094764Y-65950882D01*
X153020291Y-65771085D01*
X153020284Y-65771072D01*
X152912163Y-65609259D01*
X152912160Y-65609255D01*
X152774550Y-65471645D01*
X152774546Y-65471642D01*
X152612733Y-65363521D01*
X152612720Y-65363514D01*
X152432923Y-65289041D01*
X152432914Y-65289038D01*
X152242047Y-65251073D01*
X152242043Y-65251073D01*
X152047423Y-65251073D01*
X152047418Y-65251073D01*
X151856551Y-65289038D01*
X151856542Y-65289041D01*
X151676745Y-65363514D01*
X151676732Y-65363521D01*
X151514919Y-65471642D01*
X151514915Y-65471645D01*
X151377305Y-65609255D01*
X151377302Y-65609259D01*
X151269181Y-65771072D01*
X151269174Y-65771085D01*
X151194701Y-65950882D01*
X151194698Y-65950891D01*
X151156733Y-66141758D01*
X148200488Y-66141758D01*
X148206825Y-64404728D01*
X159473233Y-64404728D01*
X159473233Y-64990073D01*
X160298853Y-64990073D01*
X160271511Y-65037431D01*
X160235733Y-65170955D01*
X160235733Y-65309191D01*
X160271511Y-65442715D01*
X160298853Y-65490073D01*
X159473233Y-65490073D01*
X159473233Y-66075417D01*
X159479634Y-66134945D01*
X159479636Y-66134952D01*
X159529878Y-66269659D01*
X159529882Y-66269666D01*
X159616042Y-66384760D01*
X159616045Y-66384763D01*
X159731139Y-66470923D01*
X159731146Y-66470927D01*
X159865853Y-66521169D01*
X159865860Y-66521171D01*
X159925388Y-66527572D01*
X159925405Y-66527573D01*
X160510733Y-66527573D01*
X160510733Y-65701952D01*
X160558091Y-65729295D01*
X160691615Y-65765073D01*
X160829851Y-65765073D01*
X160963375Y-65729295D01*
X161010733Y-65701952D01*
X161010733Y-66527573D01*
X161596061Y-66527573D01*
X161596077Y-66527572D01*
X161655605Y-66521171D01*
X161655612Y-66521169D01*
X161790319Y-66470927D01*
X161790326Y-66470923D01*
X161905420Y-66384763D01*
X161905423Y-66384760D01*
X161991583Y-66269666D01*
X161991587Y-66269659D01*
X162041829Y-66134952D01*
X162041831Y-66134945D01*
X162048232Y-66075417D01*
X162048233Y-66075400D01*
X162048233Y-65467739D01*
X162067918Y-65400700D01*
X162120722Y-65354945D01*
X162189880Y-65345001D01*
X162253436Y-65374026D01*
X162291210Y-65432804D01*
X162293850Y-65443548D01*
X162310698Y-65528254D01*
X162310701Y-65528263D01*
X162385174Y-65708060D01*
X162385181Y-65708073D01*
X162493302Y-65869886D01*
X162493305Y-65869890D01*
X162630915Y-66007500D01*
X162630919Y-66007503D01*
X162792732Y-66115624D01*
X162792745Y-66115631D01*
X162876457Y-66150305D01*
X162972544Y-66190105D01*
X162972546Y-66190105D01*
X162972551Y-66190107D01*
X163163418Y-66228072D01*
X163163422Y-66228073D01*
X163163423Y-66228073D01*
X163358044Y-66228073D01*
X163358045Y-66228072D01*
X163436993Y-66212369D01*
X163548914Y-66190107D01*
X163548917Y-66190105D01*
X163548922Y-66190105D01*
X163728727Y-66115628D01*
X163890547Y-66007503D01*
X164028163Y-65869887D01*
X164136288Y-65708067D01*
X164210765Y-65528262D01*
X164214100Y-65511500D01*
X164248732Y-65337387D01*
X164248733Y-65337384D01*
X164248733Y-65142762D01*
X164248732Y-65142758D01*
X164210767Y-64951891D01*
X164210764Y-64951882D01*
X164136291Y-64772085D01*
X164136284Y-64772072D01*
X164028163Y-64610259D01*
X164028160Y-64610255D01*
X163890550Y-64472645D01*
X163890546Y-64472642D01*
X163728733Y-64364521D01*
X163728720Y-64364514D01*
X163548923Y-64290041D01*
X163548914Y-64290038D01*
X163358047Y-64252073D01*
X163358043Y-64252073D01*
X163163423Y-64252073D01*
X163163418Y-64252073D01*
X162972551Y-64290038D01*
X162972542Y-64290041D01*
X162792745Y-64364514D01*
X162792732Y-64364521D01*
X162630919Y-64472642D01*
X162630915Y-64472645D01*
X162493305Y-64610255D01*
X162493302Y-64610259D01*
X162385181Y-64772072D01*
X162385174Y-64772085D01*
X162310701Y-64951882D01*
X162310698Y-64951891D01*
X162293850Y-65036597D01*
X162261465Y-65098508D01*
X162200750Y-65133082D01*
X162130980Y-65129343D01*
X162074308Y-65088476D01*
X162048727Y-65023458D01*
X162048233Y-65012406D01*
X162048233Y-64404745D01*
X162048232Y-64404728D01*
X162041831Y-64345200D01*
X162041829Y-64345193D01*
X161991587Y-64210486D01*
X161991583Y-64210479D01*
X161905423Y-64095385D01*
X161905420Y-64095382D01*
X161790326Y-64009222D01*
X161790319Y-64009218D01*
X161655612Y-63958976D01*
X161655605Y-63958974D01*
X161596077Y-63952573D01*
X161010733Y-63952573D01*
X161010733Y-64778193D01*
X160963375Y-64750851D01*
X160829851Y-64715073D01*
X160691615Y-64715073D01*
X160558091Y-64750851D01*
X160510733Y-64778193D01*
X160510733Y-63952573D01*
X159925388Y-63952573D01*
X159865860Y-63958974D01*
X159865853Y-63958976D01*
X159731146Y-64009218D01*
X159731139Y-64009222D01*
X159616045Y-64095382D01*
X159616042Y-64095385D01*
X159529882Y-64210479D01*
X159529878Y-64210486D01*
X159479636Y-64345193D01*
X159479634Y-64345200D01*
X159473233Y-64404728D01*
X148206825Y-64404728D01*
X148224517Y-59554758D01*
X151116733Y-59554758D01*
X151116733Y-59749387D01*
X151154698Y-59940254D01*
X151154701Y-59940263D01*
X151229174Y-60120060D01*
X151229181Y-60120073D01*
X151337302Y-60281886D01*
X151337305Y-60281890D01*
X151474915Y-60419500D01*
X151474919Y-60419503D01*
X151636732Y-60527624D01*
X151636745Y-60527631D01*
X151771592Y-60583485D01*
X151816544Y-60602105D01*
X151816546Y-60602105D01*
X151816551Y-60602107D01*
X152007418Y-60640072D01*
X152007422Y-60640073D01*
X152007423Y-60640073D01*
X152202044Y-60640073D01*
X152202045Y-60640072D01*
X152302510Y-60620089D01*
X152392914Y-60602107D01*
X152392917Y-60602105D01*
X152392922Y-60602105D01*
X152572727Y-60527628D01*
X152734547Y-60419503D01*
X152872163Y-60281887D01*
X152980288Y-60120067D01*
X153054765Y-59940262D01*
X153059144Y-59918247D01*
X153071616Y-59855548D01*
X153104001Y-59793637D01*
X153164716Y-59759063D01*
X153234486Y-59762802D01*
X153291158Y-59803668D01*
X153316739Y-59868686D01*
X153317233Y-59879739D01*
X153317233Y-60487417D01*
X153323634Y-60546945D01*
X153323636Y-60546952D01*
X153373878Y-60681659D01*
X153373882Y-60681666D01*
X153460042Y-60796760D01*
X153460045Y-60796763D01*
X153575139Y-60882923D01*
X153575146Y-60882927D01*
X153709853Y-60933169D01*
X153709860Y-60933171D01*
X153769388Y-60939572D01*
X153769405Y-60939573D01*
X154354733Y-60939573D01*
X154354733Y-60113952D01*
X154402091Y-60141295D01*
X154535615Y-60177073D01*
X154673851Y-60177073D01*
X154807375Y-60141295D01*
X154854733Y-60113952D01*
X154854733Y-60939573D01*
X155440061Y-60939573D01*
X155440077Y-60939572D01*
X155499605Y-60933171D01*
X155499612Y-60933169D01*
X155634319Y-60882927D01*
X155634326Y-60882923D01*
X155749420Y-60796763D01*
X155749423Y-60796760D01*
X155835583Y-60681666D01*
X155835587Y-60681659D01*
X155885829Y-60546952D01*
X155885831Y-60546945D01*
X155892232Y-60487417D01*
X155892233Y-60487400D01*
X155892233Y-59902073D01*
X155066613Y-59902073D01*
X155093955Y-59854715D01*
X155129733Y-59721191D01*
X155129733Y-59582955D01*
X155093955Y-59449431D01*
X155066613Y-59402073D01*
X155892233Y-59402073D01*
X155892233Y-58816745D01*
X155892232Y-58816728D01*
X155885831Y-58757200D01*
X155885829Y-58757193D01*
X155835587Y-58622486D01*
X155835583Y-58622479D01*
X155749423Y-58507385D01*
X155749420Y-58507382D01*
X155634326Y-58421222D01*
X155634319Y-58421218D01*
X155499612Y-58370976D01*
X155499605Y-58370974D01*
X155440077Y-58364573D01*
X154854733Y-58364573D01*
X154854733Y-59190193D01*
X154807375Y-59162851D01*
X154673851Y-59127073D01*
X154535615Y-59127073D01*
X154402091Y-59162851D01*
X154354733Y-59190193D01*
X154354733Y-58364573D01*
X153769388Y-58364573D01*
X153709860Y-58370974D01*
X153709853Y-58370976D01*
X153575146Y-58421218D01*
X153575139Y-58421222D01*
X153460045Y-58507382D01*
X153460042Y-58507385D01*
X153373882Y-58622479D01*
X153373878Y-58622486D01*
X153323636Y-58757193D01*
X153323634Y-58757200D01*
X153317233Y-58816728D01*
X153317233Y-59424406D01*
X153297548Y-59491445D01*
X153244744Y-59537200D01*
X153175586Y-59547144D01*
X153112030Y-59518119D01*
X153074256Y-59459341D01*
X153071616Y-59448597D01*
X153054767Y-59363891D01*
X153054764Y-59363882D01*
X152980291Y-59184085D01*
X152980284Y-59184072D01*
X152872163Y-59022259D01*
X152872160Y-59022255D01*
X152734550Y-58884645D01*
X152734546Y-58884642D01*
X152572733Y-58776521D01*
X152572720Y-58776514D01*
X152392923Y-58702041D01*
X152392914Y-58702038D01*
X152202047Y-58664073D01*
X152202043Y-58664073D01*
X152007423Y-58664073D01*
X152007418Y-58664073D01*
X151816551Y-58702038D01*
X151816542Y-58702041D01*
X151636745Y-58776514D01*
X151636732Y-58776521D01*
X151474919Y-58884642D01*
X151474915Y-58884645D01*
X151337305Y-59022255D01*
X151337302Y-59022259D01*
X151229181Y-59184072D01*
X151229174Y-59184085D01*
X151154701Y-59363882D01*
X151154698Y-59363891D01*
X151116733Y-59554758D01*
X148224517Y-59554758D01*
X148230166Y-58006255D01*
X148230916Y-57800728D01*
X159453233Y-57800728D01*
X159453233Y-58386073D01*
X160278853Y-58386073D01*
X160251511Y-58433431D01*
X160215733Y-58566955D01*
X160215733Y-58705191D01*
X160251511Y-58838715D01*
X160278853Y-58886073D01*
X159453233Y-58886073D01*
X159453233Y-59471417D01*
X159459634Y-59530945D01*
X159459636Y-59530952D01*
X159509878Y-59665659D01*
X159509882Y-59665666D01*
X159596042Y-59780760D01*
X159596045Y-59780763D01*
X159711139Y-59866923D01*
X159711146Y-59866927D01*
X159845853Y-59917169D01*
X159845860Y-59917171D01*
X159905388Y-59923572D01*
X159905405Y-59923573D01*
X160490733Y-59923573D01*
X160490733Y-59097952D01*
X160538091Y-59125295D01*
X160671615Y-59161073D01*
X160809851Y-59161073D01*
X160943375Y-59125295D01*
X160990733Y-59097952D01*
X160990733Y-59923573D01*
X161576061Y-59923573D01*
X161576077Y-59923572D01*
X161635605Y-59917171D01*
X161635612Y-59917169D01*
X161770319Y-59866927D01*
X161770326Y-59866923D01*
X161885420Y-59780763D01*
X161885423Y-59780760D01*
X161971583Y-59665666D01*
X161971587Y-59665659D01*
X162021829Y-59530952D01*
X162021831Y-59530945D01*
X162028232Y-59471417D01*
X162028233Y-59471400D01*
X162028233Y-58863739D01*
X162047918Y-58796700D01*
X162100722Y-58750945D01*
X162169880Y-58741001D01*
X162233436Y-58770026D01*
X162271210Y-58828804D01*
X162273850Y-58839548D01*
X162290698Y-58924254D01*
X162290701Y-58924263D01*
X162365174Y-59104060D01*
X162365181Y-59104073D01*
X162473302Y-59265886D01*
X162473305Y-59265890D01*
X162610915Y-59403500D01*
X162610919Y-59403503D01*
X162772732Y-59511624D01*
X162772745Y-59511631D01*
X162856457Y-59546305D01*
X162952544Y-59586105D01*
X162952546Y-59586105D01*
X162952551Y-59586107D01*
X163143418Y-59624072D01*
X163143422Y-59624073D01*
X163143423Y-59624073D01*
X163338044Y-59624073D01*
X163338045Y-59624072D01*
X163416993Y-59608369D01*
X163528914Y-59586107D01*
X163528917Y-59586105D01*
X163528922Y-59586105D01*
X163708727Y-59511628D01*
X163870547Y-59403503D01*
X164008163Y-59265887D01*
X164116288Y-59104067D01*
X164190765Y-58924262D01*
X164194100Y-58907500D01*
X164223457Y-58759907D01*
X164228733Y-58733383D01*
X164228733Y-58538763D01*
X164217935Y-58484476D01*
X164190767Y-58347891D01*
X164190764Y-58347882D01*
X164116291Y-58168085D01*
X164116284Y-58168072D01*
X164008163Y-58006259D01*
X164008160Y-58006255D01*
X163870550Y-57868645D01*
X163870546Y-57868642D01*
X163708733Y-57760521D01*
X163708720Y-57760514D01*
X163528923Y-57686041D01*
X163528914Y-57686038D01*
X163338047Y-57648073D01*
X163338043Y-57648073D01*
X163143423Y-57648073D01*
X163143418Y-57648073D01*
X162952551Y-57686038D01*
X162952542Y-57686041D01*
X162772745Y-57760514D01*
X162772732Y-57760521D01*
X162610919Y-57868642D01*
X162610915Y-57868645D01*
X162473305Y-58006255D01*
X162473302Y-58006259D01*
X162365181Y-58168072D01*
X162365174Y-58168085D01*
X162290701Y-58347882D01*
X162290698Y-58347891D01*
X162273850Y-58432597D01*
X162241465Y-58494508D01*
X162180750Y-58529082D01*
X162110980Y-58525343D01*
X162054308Y-58484476D01*
X162028727Y-58419458D01*
X162028233Y-58408406D01*
X162028233Y-57800745D01*
X162028232Y-57800728D01*
X162021831Y-57741200D01*
X162021829Y-57741193D01*
X161971587Y-57606486D01*
X161971583Y-57606479D01*
X161885423Y-57491385D01*
X161885420Y-57491382D01*
X161770326Y-57405222D01*
X161770319Y-57405218D01*
X161635612Y-57354976D01*
X161635605Y-57354974D01*
X161576077Y-57348573D01*
X160990733Y-57348573D01*
X160990733Y-58174193D01*
X160943375Y-58146851D01*
X160809851Y-58111073D01*
X160671615Y-58111073D01*
X160538091Y-58146851D01*
X160490733Y-58174193D01*
X160490733Y-57348573D01*
X159905388Y-57348573D01*
X159845860Y-57354974D01*
X159845853Y-57354976D01*
X159711146Y-57405218D01*
X159711139Y-57405222D01*
X159596045Y-57491382D01*
X159596042Y-57491385D01*
X159509882Y-57606479D01*
X159509878Y-57606486D01*
X159459636Y-57741193D01*
X159459634Y-57741200D01*
X159453233Y-57800728D01*
X148230916Y-57800728D01*
X148230930Y-57796972D01*
X148248671Y-52933758D01*
X151156733Y-52933758D01*
X151156733Y-53128387D01*
X151194698Y-53319254D01*
X151194701Y-53319263D01*
X151269174Y-53499060D01*
X151269181Y-53499073D01*
X151377302Y-53660886D01*
X151377305Y-53660890D01*
X151514915Y-53798500D01*
X151514919Y-53798503D01*
X151676732Y-53906624D01*
X151676745Y-53906631D01*
X151740984Y-53933239D01*
X151856544Y-53981105D01*
X151856546Y-53981105D01*
X151856551Y-53981107D01*
X152047418Y-54019072D01*
X152047422Y-54019073D01*
X152047423Y-54019073D01*
X152242044Y-54019073D01*
X152242045Y-54019072D01*
X152305669Y-54006417D01*
X152432914Y-53981107D01*
X152432917Y-53981105D01*
X152432922Y-53981105D01*
X152603794Y-53910328D01*
X152612720Y-53906631D01*
X152612720Y-53906630D01*
X152612727Y-53906628D01*
X152774547Y-53798503D01*
X152912163Y-53660887D01*
X153020288Y-53499067D01*
X153094765Y-53319262D01*
X153095764Y-53314241D01*
X153111616Y-53234548D01*
X153144001Y-53172637D01*
X153204716Y-53138063D01*
X153274486Y-53141802D01*
X153331158Y-53182668D01*
X153356739Y-53247686D01*
X153357233Y-53258739D01*
X153357233Y-53866417D01*
X153363634Y-53925945D01*
X153363636Y-53925952D01*
X153413878Y-54060659D01*
X153413882Y-54060666D01*
X153500042Y-54175760D01*
X153500045Y-54175763D01*
X153615139Y-54261923D01*
X153615146Y-54261927D01*
X153749853Y-54312169D01*
X153749860Y-54312171D01*
X153809388Y-54318572D01*
X153809405Y-54318573D01*
X154394733Y-54318573D01*
X154394733Y-53492952D01*
X154442091Y-53520295D01*
X154575615Y-53556073D01*
X154713851Y-53556073D01*
X154847375Y-53520295D01*
X154894733Y-53492952D01*
X154894733Y-54318573D01*
X155480061Y-54318573D01*
X155480077Y-54318572D01*
X155539605Y-54312171D01*
X155539612Y-54312169D01*
X155674319Y-54261927D01*
X155674326Y-54261923D01*
X155789420Y-54175763D01*
X155789423Y-54175760D01*
X155875583Y-54060666D01*
X155875587Y-54060659D01*
X155925829Y-53925952D01*
X155925831Y-53925945D01*
X155932232Y-53866417D01*
X155932233Y-53866400D01*
X155932233Y-53281073D01*
X155106613Y-53281073D01*
X155133955Y-53233715D01*
X155169733Y-53100191D01*
X155169733Y-52961955D01*
X155133955Y-52828431D01*
X155106613Y-52781073D01*
X155932233Y-52781073D01*
X155932233Y-52195745D01*
X155932232Y-52195728D01*
X155925831Y-52136200D01*
X155925829Y-52136193D01*
X155875587Y-52001486D01*
X155875583Y-52001479D01*
X155789423Y-51886385D01*
X155789420Y-51886382D01*
X155674326Y-51800222D01*
X155674319Y-51800218D01*
X155539612Y-51749976D01*
X155539605Y-51749974D01*
X155480077Y-51743573D01*
X154894733Y-51743573D01*
X154894733Y-52569193D01*
X154847375Y-52541851D01*
X154713851Y-52506073D01*
X154575615Y-52506073D01*
X154442091Y-52541851D01*
X154394733Y-52569193D01*
X154394733Y-51743573D01*
X153809388Y-51743573D01*
X153749860Y-51749974D01*
X153749853Y-51749976D01*
X153615146Y-51800218D01*
X153615139Y-51800222D01*
X153500045Y-51886382D01*
X153500042Y-51886385D01*
X153413882Y-52001479D01*
X153413878Y-52001486D01*
X153363636Y-52136193D01*
X153363634Y-52136200D01*
X153357233Y-52195728D01*
X153357233Y-52803406D01*
X153337548Y-52870445D01*
X153284744Y-52916200D01*
X153215586Y-52926144D01*
X153152030Y-52897119D01*
X153114256Y-52838341D01*
X153111616Y-52827597D01*
X153094767Y-52742891D01*
X153094764Y-52742882D01*
X153020291Y-52563085D01*
X153020284Y-52563072D01*
X152912163Y-52401259D01*
X152912160Y-52401255D01*
X152774550Y-52263645D01*
X152774546Y-52263642D01*
X152612733Y-52155521D01*
X152612720Y-52155514D01*
X152432923Y-52081041D01*
X152432914Y-52081038D01*
X152242047Y-52043073D01*
X152242043Y-52043073D01*
X152047423Y-52043073D01*
X152047418Y-52043073D01*
X151856551Y-52081038D01*
X151856542Y-52081041D01*
X151676745Y-52155514D01*
X151676732Y-52155521D01*
X151514919Y-52263642D01*
X151514915Y-52263645D01*
X151377305Y-52401255D01*
X151377302Y-52401259D01*
X151269181Y-52563072D01*
X151269174Y-52563085D01*
X151194701Y-52742882D01*
X151194698Y-52742891D01*
X151156733Y-52933758D01*
X148248671Y-52933758D01*
X148248695Y-52927219D01*
X148252315Y-51934758D01*
X148255007Y-51196728D01*
X159493233Y-51196728D01*
X159493233Y-51782073D01*
X160318853Y-51782073D01*
X160291511Y-51829431D01*
X160255733Y-51962955D01*
X160255733Y-52101191D01*
X160291511Y-52234715D01*
X160318853Y-52282073D01*
X159493233Y-52282073D01*
X159493233Y-52867417D01*
X159499634Y-52926945D01*
X159499636Y-52926952D01*
X159549878Y-53061659D01*
X159549882Y-53061666D01*
X159636042Y-53176760D01*
X159636045Y-53176763D01*
X159751139Y-53262923D01*
X159751146Y-53262927D01*
X159885853Y-53313169D01*
X159885860Y-53313171D01*
X159945388Y-53319572D01*
X159945405Y-53319573D01*
X160530733Y-53319573D01*
X160530733Y-52493952D01*
X160578091Y-52521295D01*
X160711615Y-52557073D01*
X160849851Y-52557073D01*
X160983375Y-52521295D01*
X161030733Y-52493952D01*
X161030733Y-53319573D01*
X161616061Y-53319573D01*
X161616077Y-53319572D01*
X161675605Y-53313171D01*
X161675612Y-53313169D01*
X161810319Y-53262927D01*
X161810326Y-53262923D01*
X161925420Y-53176763D01*
X161925423Y-53176760D01*
X162011583Y-53061666D01*
X162011587Y-53061659D01*
X162061829Y-52926952D01*
X162061831Y-52926945D01*
X162068232Y-52867417D01*
X162068233Y-52867400D01*
X162068233Y-52259739D01*
X162087918Y-52192700D01*
X162140722Y-52146945D01*
X162209880Y-52137001D01*
X162273436Y-52166026D01*
X162311210Y-52224804D01*
X162313850Y-52235548D01*
X162330698Y-52320254D01*
X162330701Y-52320263D01*
X162405174Y-52500060D01*
X162405181Y-52500073D01*
X162513302Y-52661886D01*
X162513305Y-52661890D01*
X162650915Y-52799500D01*
X162650919Y-52799503D01*
X162812732Y-52907624D01*
X162812745Y-52907631D01*
X162896457Y-52942305D01*
X162992544Y-52982105D01*
X162992546Y-52982105D01*
X162992551Y-52982107D01*
X163183418Y-53020072D01*
X163183422Y-53020073D01*
X163183423Y-53020073D01*
X163378044Y-53020073D01*
X163378045Y-53020072D01*
X163456993Y-53004369D01*
X163568914Y-52982107D01*
X163568917Y-52982105D01*
X163568922Y-52982105D01*
X163748727Y-52907628D01*
X163910547Y-52799503D01*
X164048163Y-52661887D01*
X164156288Y-52500067D01*
X164230765Y-52320262D01*
X164234100Y-52303500D01*
X164268732Y-52129387D01*
X164268733Y-52129384D01*
X164268733Y-51934762D01*
X164268732Y-51934758D01*
X164230767Y-51743891D01*
X164230764Y-51743882D01*
X164156291Y-51564085D01*
X164156284Y-51564072D01*
X164048163Y-51402259D01*
X164048160Y-51402255D01*
X163910550Y-51264645D01*
X163910546Y-51264642D01*
X163748733Y-51156521D01*
X163748720Y-51156514D01*
X163568923Y-51082041D01*
X163568914Y-51082038D01*
X163378047Y-51044073D01*
X163378043Y-51044073D01*
X163183423Y-51044073D01*
X163183418Y-51044073D01*
X162992551Y-51082038D01*
X162992542Y-51082041D01*
X162812745Y-51156514D01*
X162812732Y-51156521D01*
X162650919Y-51264642D01*
X162650915Y-51264645D01*
X162513305Y-51402255D01*
X162513302Y-51402259D01*
X162405181Y-51564072D01*
X162405174Y-51564085D01*
X162330701Y-51743882D01*
X162330698Y-51743891D01*
X162313850Y-51828597D01*
X162281465Y-51890508D01*
X162220750Y-51925082D01*
X162150980Y-51921343D01*
X162094308Y-51880476D01*
X162068727Y-51815458D01*
X162068233Y-51804406D01*
X162068233Y-51196745D01*
X162068232Y-51196728D01*
X162061831Y-51137200D01*
X162061829Y-51137193D01*
X162011587Y-51002486D01*
X162011583Y-51002479D01*
X161925423Y-50887385D01*
X161925420Y-50887382D01*
X161810326Y-50801222D01*
X161810319Y-50801218D01*
X161675612Y-50750976D01*
X161675605Y-50750974D01*
X161616077Y-50744573D01*
X161030733Y-50744573D01*
X161030733Y-51570193D01*
X160983375Y-51542851D01*
X160849851Y-51507073D01*
X160711615Y-51507073D01*
X160578091Y-51542851D01*
X160530733Y-51570193D01*
X160530733Y-50744573D01*
X159945388Y-50744573D01*
X159885860Y-50750974D01*
X159885853Y-50750976D01*
X159751146Y-50801218D01*
X159751139Y-50801222D01*
X159636045Y-50887382D01*
X159636042Y-50887385D01*
X159549882Y-51002479D01*
X159549878Y-51002486D01*
X159499636Y-51137193D01*
X159499634Y-51137200D01*
X159493233Y-51196728D01*
X148255007Y-51196728D01*
X148263471Y-48876702D01*
X148263470Y-48876701D01*
X148263477Y-48875048D01*
X148283406Y-48808080D01*
X148336376Y-48762518D01*
X148387476Y-48751500D01*
X167915500Y-48751500D01*
X167982539Y-48771185D01*
G37*
%TD.AperFunction*%
%TD*%
%TA.AperFunction,Conductor*%
%TO.N,Net-(U2-VDD)*%
G36*
X152377259Y-86244833D02*
G01*
X152412101Y-86305396D01*
X152408668Y-86375181D01*
X152403939Y-86386837D01*
X152403499Y-86387779D01*
X152350189Y-86548660D01*
X152340045Y-86647944D01*
X152340045Y-86671267D01*
X154353910Y-86671267D01*
X154404221Y-86686040D01*
X155965316Y-86686040D01*
X156032355Y-86705725D01*
X156078110Y-86758529D01*
X156089316Y-86810040D01*
X156089316Y-86879003D01*
X156304367Y-86879003D01*
X156313052Y-86881553D01*
X156322014Y-86880265D01*
X156346054Y-86891243D01*
X156371406Y-86898688D01*
X156377333Y-86905528D01*
X156385570Y-86909290D01*
X156399859Y-86931524D01*
X156417161Y-86951492D01*
X156419448Y-86962006D01*
X156423344Y-86968068D01*
X156428367Y-87003003D01*
X156428367Y-87155001D01*
X156408682Y-87222040D01*
X156355878Y-87267795D01*
X156304367Y-87279001D01*
X155384868Y-87279001D01*
X155317829Y-87259316D01*
X155272074Y-87206512D01*
X155269497Y-87194669D01*
X155260868Y-87186040D01*
X153945451Y-87186040D01*
X153895140Y-87171267D01*
X153565045Y-87171267D01*
X153565045Y-87871266D01*
X153613353Y-87871266D01*
X153613367Y-87871265D01*
X153712652Y-87861122D01*
X153873526Y-87807814D01*
X153873537Y-87807809D01*
X154017773Y-87718842D01*
X154017776Y-87718840D01*
X154054611Y-87682005D01*
X154056717Y-87680854D01*
X154057947Y-87678790D01*
X154087230Y-87664192D01*
X154115933Y-87648519D01*
X154118328Y-87648690D01*
X154120478Y-87647619D01*
X154152993Y-87651169D01*
X154185625Y-87653503D01*
X154188289Y-87655023D01*
X154189935Y-87655203D01*
X154197611Y-87660341D01*
X154220259Y-87673262D01*
X154343854Y-87773199D01*
X154359418Y-87795696D01*
X154377709Y-87816031D01*
X154379007Y-87824009D01*
X154383607Y-87830658D01*
X154384537Y-87857992D01*
X154388932Y-87884993D01*
X154385709Y-87892408D01*
X154385985Y-87900487D01*
X154371988Y-87923989D01*
X154361088Y-87949076D01*
X154354370Y-87953570D01*
X154350234Y-87960517D01*
X154325751Y-87972721D01*
X154303020Y-87987932D01*
X154288309Y-87991385D01*
X154287703Y-87991688D01*
X154287237Y-87991637D01*
X154285288Y-87992095D01*
X154246243Y-87998279D01*
X154126144Y-88059473D01*
X154126140Y-88059476D01*
X154030842Y-88154774D01*
X154030839Y-88154778D01*
X153969645Y-88274878D01*
X153953866Y-88374506D01*
X153953866Y-88891493D01*
X153969645Y-88991121D01*
X153969646Y-88991124D01*
X153969647Y-88991126D01*
X154013845Y-89077869D01*
X154030839Y-89111221D01*
X154030842Y-89111225D01*
X154126140Y-89206523D01*
X154126144Y-89206526D01*
X154126146Y-89206528D01*
X154246240Y-89267719D01*
X154246242Y-89267719D01*
X154246244Y-89267720D01*
X154345873Y-89283500D01*
X154804533Y-89283500D01*
X154825778Y-89289738D01*
X154847867Y-89291318D01*
X154858650Y-89299390D01*
X154871572Y-89303185D01*
X154886071Y-89319918D01*
X154903800Y-89333190D01*
X154908507Y-89345810D01*
X154917327Y-89355989D01*
X154920478Y-89377906D01*
X154928217Y-89398654D01*
X154925354Y-89411814D01*
X154927271Y-89425147D01*
X154918071Y-89445290D01*
X154913365Y-89466927D01*
X154900096Y-89484652D01*
X154898246Y-89488703D01*
X154892214Y-89495181D01*
X154891214Y-89496181D01*
X154829891Y-89529666D01*
X154803533Y-89532500D01*
X154345873Y-89532500D01*
X154246244Y-89548279D01*
X154126144Y-89609473D01*
X154126140Y-89609476D01*
X154030842Y-89704774D01*
X154030839Y-89704778D01*
X153969645Y-89824878D01*
X153953866Y-89924506D01*
X153953866Y-90441493D01*
X153969645Y-90541121D01*
X153969646Y-90541124D01*
X153969647Y-90541126D01*
X154030838Y-90661220D01*
X154030839Y-90661221D01*
X154030842Y-90661225D01*
X154126140Y-90756523D01*
X154126144Y-90756526D01*
X154126146Y-90756528D01*
X154246240Y-90817719D01*
X154246242Y-90817719D01*
X154246244Y-90817720D01*
X154345873Y-90833500D01*
X154345878Y-90833500D01*
X154912859Y-90833500D01*
X155012487Y-90817720D01*
X155012487Y-90817719D01*
X155012492Y-90817719D01*
X155132586Y-90756528D01*
X155227894Y-90661220D01*
X155289085Y-90541126D01*
X155289211Y-90540329D01*
X155304866Y-90441493D01*
X155304866Y-89983833D01*
X155313510Y-89954392D01*
X155320034Y-89924406D01*
X155323788Y-89919390D01*
X155324551Y-89916794D01*
X155341179Y-89896157D01*
X155507601Y-89729735D01*
X155568921Y-89696253D01*
X155638612Y-89701237D01*
X155694546Y-89743108D01*
X155700273Y-89751448D01*
X155746051Y-89824304D01*
X155746053Y-89824307D01*
X155746055Y-89824309D01*
X155796055Y-89874309D01*
X155852202Y-89914148D01*
X155863795Y-89916794D01*
X155942196Y-89934689D01*
X156003175Y-89968798D01*
X156027834Y-90005035D01*
X156035864Y-90023023D01*
X156035864Y-90028999D01*
X156047396Y-90096871D01*
X156096054Y-90174309D01*
X156109315Y-90187570D01*
X156118657Y-90208498D01*
X156120389Y-90221325D01*
X156126592Y-90232685D01*
X156124975Y-90255285D01*
X156128008Y-90277739D01*
X156122531Y-90289464D01*
X156121608Y-90302377D01*
X156108028Y-90320516D01*
X156098441Y-90341044D01*
X156087492Y-90347948D01*
X156079736Y-90358310D01*
X156053445Y-90369420D01*
X156039342Y-90378315D01*
X156032537Y-90378256D01*
X156024825Y-90381516D01*
X155944244Y-90394279D01*
X155824144Y-90455473D01*
X155824140Y-90455476D01*
X155728842Y-90550774D01*
X155728839Y-90550778D01*
X155667645Y-90670878D01*
X155651866Y-90770506D01*
X155651866Y-91337493D01*
X155667645Y-91437121D01*
X155667646Y-91437124D01*
X155667647Y-91437126D01*
X155728838Y-91557220D01*
X155728839Y-91557221D01*
X155728842Y-91557225D01*
X155824140Y-91652523D01*
X155824144Y-91652526D01*
X155824146Y-91652528D01*
X155944240Y-91713719D01*
X155944242Y-91713719D01*
X155944244Y-91713720D01*
X156043873Y-91729500D01*
X156043878Y-91729500D01*
X156501533Y-91729500D01*
X156568572Y-91749185D01*
X156589214Y-91765819D01*
X156893855Y-92070460D01*
X156953195Y-92104720D01*
X156962374Y-92110020D01*
X156962378Y-92110022D01*
X157038804Y-92130500D01*
X157038806Y-92130500D01*
X158341036Y-92130500D01*
X158341038Y-92130500D01*
X158417465Y-92110021D01*
X158485987Y-92070460D01*
X158541936Y-92014511D01*
X158843826Y-91712621D01*
X158883387Y-91644099D01*
X158903866Y-91567672D01*
X158903866Y-91118475D01*
X161724500Y-91118475D01*
X161724500Y-91731517D01*
X161729933Y-91765819D01*
X161739354Y-91825304D01*
X161796950Y-91938342D01*
X161863182Y-92004574D01*
X161896666Y-92065895D01*
X161899500Y-92092254D01*
X161899500Y-93001734D01*
X161879815Y-93068773D01*
X161878603Y-93070624D01*
X161861132Y-93096770D01*
X161861131Y-93096773D01*
X161849500Y-93155247D01*
X161849500Y-94194752D01*
X161861131Y-94253229D01*
X161861132Y-94253230D01*
X161905447Y-94319552D01*
X161971769Y-94363867D01*
X161971770Y-94363868D01*
X162030247Y-94375499D01*
X162030250Y-94375500D01*
X162463445Y-94375500D01*
X162530484Y-94395185D01*
X162562711Y-94425189D01*
X162642810Y-94532187D01*
X162642813Y-94532190D01*
X162757907Y-94618350D01*
X162757914Y-94618354D01*
X162892621Y-94668596D01*
X162892628Y-94668598D01*
X162952156Y-94674999D01*
X162952173Y-94675000D01*
X163050001Y-94675000D01*
X163550001Y-94675000D01*
X163647829Y-94675000D01*
X163647845Y-94674999D01*
X163707373Y-94668598D01*
X163707380Y-94668596D01*
X163842087Y-94618354D01*
X163842094Y-94618350D01*
X163957187Y-94532190D01*
X163967490Y-94518427D01*
X165149999Y-94518427D01*
X165149999Y-94525000D01*
X165874999Y-94525000D01*
X166374999Y-94525000D01*
X167099998Y-94525000D01*
X167099998Y-94518417D01*
X167093590Y-94447897D01*
X167093589Y-94447892D01*
X167043017Y-94285603D01*
X166955071Y-94140122D01*
X166834876Y-94019927D01*
X166689394Y-93931980D01*
X166689395Y-93931980D01*
X166527104Y-93881409D01*
X166527105Y-93881409D01*
X166456571Y-93875000D01*
X166374999Y-93875000D01*
X166374999Y-94525000D01*
X165874999Y-94525000D01*
X165874999Y-93875000D01*
X165874998Y-93874999D01*
X165793416Y-93875000D01*
X165722896Y-93881408D01*
X165722891Y-93881409D01*
X165560602Y-93931981D01*
X165415121Y-94019927D01*
X165294926Y-94140122D01*
X165206979Y-94285604D01*
X165156408Y-94447893D01*
X165149999Y-94518427D01*
X163967490Y-94518427D01*
X164025226Y-94441304D01*
X164025227Y-94441303D01*
X164037291Y-94425188D01*
X164093226Y-94383317D01*
X164136557Y-94375500D01*
X164569749Y-94375500D01*
X164569750Y-94375499D01*
X164584567Y-94372552D01*
X164628228Y-94363868D01*
X164628228Y-94363867D01*
X164628230Y-94363867D01*
X164694551Y-94319552D01*
X164738866Y-94253231D01*
X164738866Y-94253229D01*
X164738867Y-94253229D01*
X164750498Y-94194752D01*
X164750499Y-94194750D01*
X164750499Y-93155249D01*
X164750498Y-93155247D01*
X164738867Y-93096770D01*
X164738866Y-93096769D01*
X164694551Y-93030447D01*
X164628229Y-92986132D01*
X164628228Y-92986131D01*
X164569751Y-92974500D01*
X164569747Y-92974500D01*
X164136557Y-92974500D01*
X164069518Y-92954815D01*
X164037291Y-92924811D01*
X163957191Y-92817812D01*
X163957188Y-92817809D01*
X163842094Y-92731649D01*
X163842087Y-92731645D01*
X163707380Y-92681403D01*
X163707373Y-92681401D01*
X163647845Y-92675000D01*
X163550001Y-92675000D01*
X163550001Y-94675000D01*
X163050001Y-94675000D01*
X163050001Y-92675000D01*
X162952170Y-92675000D01*
X162937754Y-92676550D01*
X162868995Y-92664144D01*
X162817858Y-92616533D01*
X162800500Y-92553260D01*
X162800500Y-92042254D01*
X162820185Y-91975215D01*
X162821127Y-91973770D01*
X162828006Y-91963385D01*
X162853050Y-91938342D01*
X162881205Y-91883084D01*
X162885105Y-91877198D01*
X162906634Y-91859060D01*
X162925967Y-91838591D01*
X162932999Y-91836849D01*
X162938540Y-91832182D01*
X162966462Y-91828562D01*
X162993788Y-91821796D01*
X163000644Y-91824132D01*
X163007830Y-91823201D01*
X163033277Y-91835252D01*
X163059923Y-91844333D01*
X163064428Y-91850005D01*
X163070976Y-91853107D01*
X163085865Y-91876999D01*
X163103375Y-91899048D01*
X163106863Y-91908791D01*
X163131981Y-91989396D01*
X163219927Y-92134877D01*
X163340122Y-92255072D01*
X163485604Y-92343019D01*
X163485603Y-92343019D01*
X163647894Y-92393590D01*
X163647893Y-92393590D01*
X163718408Y-92399998D01*
X163718426Y-92399999D01*
X164225000Y-92399999D01*
X164231581Y-92399999D01*
X164302102Y-92393591D01*
X164302107Y-92393590D01*
X164464396Y-92343018D01*
X164609877Y-92255072D01*
X164730072Y-92134877D01*
X164818019Y-91989395D01*
X164868590Y-91827106D01*
X164875000Y-91756572D01*
X164875000Y-91675000D01*
X164225000Y-91675000D01*
X164225000Y-92399999D01*
X163718426Y-92399999D01*
X163724999Y-92399998D01*
X163725000Y-92399998D01*
X163725000Y-91175000D01*
X164225000Y-91175000D01*
X164874999Y-91175000D01*
X164874999Y-91093417D01*
X164868591Y-91022897D01*
X164868590Y-91022892D01*
X164818018Y-90860603D01*
X164730072Y-90715122D01*
X164609877Y-90594927D01*
X164464395Y-90506980D01*
X164464396Y-90506980D01*
X164302105Y-90456409D01*
X164302106Y-90456409D01*
X164231572Y-90450000D01*
X164225000Y-90450000D01*
X164225000Y-91175000D01*
X163725000Y-91175000D01*
X163725000Y-90450000D01*
X163724999Y-90449999D01*
X163718436Y-90450000D01*
X163718417Y-90450001D01*
X163647897Y-90456408D01*
X163647892Y-90456409D01*
X163485603Y-90506981D01*
X163340122Y-90594927D01*
X163219927Y-90715122D01*
X163131981Y-90860603D01*
X163106863Y-90941209D01*
X163068125Y-90999356D01*
X163004100Y-91027330D01*
X162935115Y-91016248D01*
X162883072Y-90969629D01*
X162878002Y-90960630D01*
X162853050Y-90911658D01*
X162853048Y-90911656D01*
X162853045Y-90911652D01*
X162763347Y-90821954D01*
X162763344Y-90821952D01*
X162763342Y-90821950D01*
X162662390Y-90770512D01*
X162650301Y-90764352D01*
X162556524Y-90749500D01*
X162093482Y-90749500D01*
X162012519Y-90762323D01*
X161999696Y-90764354D01*
X161886658Y-90821950D01*
X161886657Y-90821951D01*
X161886652Y-90821954D01*
X161796954Y-90911652D01*
X161796951Y-90911657D01*
X161739352Y-91024698D01*
X161724500Y-91118475D01*
X158903866Y-91118475D01*
X158903866Y-90540328D01*
X158883387Y-90463901D01*
X158883386Y-90463899D01*
X158880276Y-90456391D01*
X158883465Y-90455069D01*
X158870720Y-90402681D01*
X158893528Y-90336639D01*
X158948421Y-90293412D01*
X158994583Y-90284499D01*
X159391363Y-90284499D01*
X159391368Y-90284499D01*
X159459240Y-90272967D01*
X159536678Y-90224309D01*
X159586678Y-90174309D01*
X159626517Y-90118162D01*
X159646868Y-90028999D01*
X159646868Y-90028998D01*
X159647058Y-90028166D01*
X159681167Y-89967188D01*
X159742828Y-89934330D01*
X159747152Y-89933516D01*
X159809239Y-89922967D01*
X159886677Y-89874309D01*
X159936677Y-89824309D01*
X159976516Y-89768162D01*
X159996867Y-89678999D01*
X159996867Y-89579000D01*
X159985335Y-89511128D01*
X159976024Y-89496310D01*
X159957024Y-89429075D01*
X159977391Y-89362240D01*
X159977919Y-89361444D01*
X159980734Y-89357231D01*
X159992365Y-89298754D01*
X159992366Y-89298752D01*
X159992366Y-89009251D01*
X159992365Y-89009249D01*
X159978351Y-88938792D01*
X159979504Y-88938562D01*
X159973145Y-88884347D01*
X159976475Y-88863603D01*
X159980733Y-88857231D01*
X159992366Y-88798748D01*
X159992366Y-88764613D01*
X159993934Y-88754846D01*
X159996250Y-88749986D01*
X163625001Y-88749986D01*
X163635494Y-88852697D01*
X163690641Y-89019119D01*
X163690643Y-89019124D01*
X163782684Y-89168345D01*
X163906654Y-89292315D01*
X164055875Y-89384356D01*
X164055880Y-89384358D01*
X164222302Y-89439505D01*
X164222309Y-89439506D01*
X164325019Y-89449999D01*
X164774999Y-89449999D01*
X165275000Y-89449999D01*
X165724972Y-89449999D01*
X165724986Y-89449998D01*
X165827697Y-89439505D01*
X165994119Y-89384358D01*
X165994124Y-89384356D01*
X166143345Y-89292315D01*
X166267315Y-89168345D01*
X166359356Y-89019124D01*
X166359358Y-89019119D01*
X166414505Y-88852697D01*
X166414506Y-88852690D01*
X166424999Y-88749986D01*
X166425000Y-88749973D01*
X166425000Y-88625000D01*
X165275000Y-88625000D01*
X165275000Y-89449999D01*
X164774999Y-89449999D01*
X164775000Y-89449998D01*
X164775000Y-88625000D01*
X163625001Y-88625000D01*
X163625001Y-88749986D01*
X159996250Y-88749986D01*
X160004882Y-88731875D01*
X160012051Y-88707461D01*
X160019661Y-88700866D01*
X160023995Y-88691774D01*
X160045626Y-88678367D01*
X160064855Y-88661706D01*
X160076651Y-88659139D01*
X160083384Y-88654967D01*
X160094960Y-88655156D01*
X160116366Y-88650500D01*
X160190890Y-88650500D01*
X160190892Y-88650500D01*
X160318186Y-88616392D01*
X160432314Y-88550500D01*
X160525500Y-88457314D01*
X160591392Y-88343186D01*
X160625500Y-88215892D01*
X160625500Y-88084108D01*
X160602967Y-88000013D01*
X163625000Y-88000013D01*
X163625000Y-88125000D01*
X164775000Y-88125000D01*
X165275000Y-88125000D01*
X166424999Y-88125000D01*
X166424999Y-88000028D01*
X166424998Y-88000013D01*
X166414505Y-87897302D01*
X166359358Y-87730880D01*
X166359356Y-87730875D01*
X166267315Y-87581654D01*
X166143345Y-87457684D01*
X165994124Y-87365643D01*
X165994119Y-87365641D01*
X165827697Y-87310494D01*
X165827690Y-87310493D01*
X165724986Y-87300000D01*
X165275000Y-87300000D01*
X165275000Y-88125000D01*
X164775000Y-88125000D01*
X164775000Y-87300000D01*
X164325028Y-87300000D01*
X164325012Y-87300001D01*
X164222302Y-87310494D01*
X164055880Y-87365641D01*
X164055875Y-87365643D01*
X163906654Y-87457684D01*
X163782684Y-87581654D01*
X163690643Y-87730875D01*
X163690641Y-87730880D01*
X163635494Y-87897302D01*
X163635493Y-87897309D01*
X163625000Y-88000013D01*
X160602967Y-88000013D01*
X160601501Y-87994541D01*
X160603164Y-87924695D01*
X160629366Y-87881708D01*
X160629366Y-87878999D01*
X161129366Y-87878999D01*
X161177674Y-87878999D01*
X161177688Y-87878998D01*
X161276973Y-87868855D01*
X161437847Y-87815547D01*
X161437858Y-87815542D01*
X161582094Y-87726575D01*
X161582098Y-87726572D01*
X161666685Y-87641986D01*
X161728008Y-87608501D01*
X161797700Y-87613485D01*
X161842047Y-87641986D01*
X161926633Y-87726572D01*
X161926637Y-87726575D01*
X162070873Y-87815542D01*
X162070884Y-87815547D01*
X162231759Y-87868855D01*
X162331049Y-87878999D01*
X162879366Y-87878999D01*
X162927674Y-87878999D01*
X162927688Y-87878998D01*
X162981453Y-87873506D01*
X163026973Y-87868855D01*
X163187847Y-87815547D01*
X163187858Y-87815542D01*
X163332094Y-87726575D01*
X163332098Y-87726572D01*
X163451938Y-87606732D01*
X163451941Y-87606728D01*
X163540908Y-87462492D01*
X163540913Y-87462481D01*
X163594221Y-87301606D01*
X163604365Y-87202322D01*
X163604366Y-87202309D01*
X163604366Y-87179000D01*
X162879366Y-87179000D01*
X162879366Y-87878999D01*
X162331049Y-87878999D01*
X162379365Y-87878998D01*
X162379366Y-87878998D01*
X162379366Y-87179000D01*
X161129366Y-87179000D01*
X161129366Y-87878999D01*
X160629366Y-87878999D01*
X160629366Y-87179000D01*
X160421864Y-87179000D01*
X160411887Y-87188976D01*
X160402179Y-87222040D01*
X160349375Y-87267795D01*
X160297864Y-87279001D01*
X159378365Y-87279001D01*
X159369679Y-87276450D01*
X159360718Y-87277739D01*
X159336677Y-87266760D01*
X159311326Y-87259316D01*
X159305398Y-87252475D01*
X159297162Y-87248714D01*
X159282872Y-87226479D01*
X159265571Y-87206512D01*
X159263283Y-87195997D01*
X159259388Y-87189936D01*
X159254365Y-87155001D01*
X159254365Y-87003003D01*
X159274050Y-86935964D01*
X159326854Y-86890209D01*
X159378365Y-86879003D01*
X159774366Y-86879003D01*
X159774366Y-86803000D01*
X159794051Y-86735961D01*
X159846855Y-86690206D01*
X159898366Y-86679000D01*
X163318098Y-86679000D01*
X163993098Y-86904000D01*
X167913270Y-86833324D01*
X167980648Y-86851796D01*
X168027347Y-86903767D01*
X168039500Y-86957303D01*
X168039500Y-95536698D01*
X168019815Y-95603737D01*
X167967011Y-95649492D01*
X167912598Y-95660664D01*
X167021566Y-95639808D01*
X166955006Y-95618560D01*
X166910499Y-95564700D01*
X166902177Y-95495328D01*
X166932681Y-95432469D01*
X166936789Y-95428159D01*
X166955071Y-95409877D01*
X167043018Y-95264395D01*
X167093589Y-95102106D01*
X167099999Y-95031572D01*
X167099999Y-95025000D01*
X165150000Y-95025000D01*
X165150000Y-95031582D01*
X165156407Y-95102102D01*
X165156408Y-95102107D01*
X165206980Y-95264396D01*
X165294220Y-95408708D01*
X165312056Y-95476262D01*
X165290539Y-95542736D01*
X165236498Y-95587024D01*
X165185201Y-95596824D01*
X161490928Y-95510353D01*
X161424368Y-95489105D01*
X161379861Y-95435245D01*
X161371539Y-95365873D01*
X161387714Y-95322236D01*
X161468018Y-95189398D01*
X161468019Y-95189396D01*
X161518590Y-95027106D01*
X161525000Y-94956572D01*
X161525000Y-94950000D01*
X159575001Y-94950000D01*
X159575001Y-94956582D01*
X159581408Y-95027102D01*
X159581409Y-95027107D01*
X159631981Y-95189396D01*
X159685192Y-95277418D01*
X159703028Y-95344973D01*
X159681510Y-95411446D01*
X159627470Y-95455734D01*
X159576173Y-95465534D01*
X150489098Y-95252834D01*
X150422538Y-95231586D01*
X150378031Y-95177726D01*
X150368000Y-95128868D01*
X150368000Y-94443427D01*
X159575000Y-94443427D01*
X159575000Y-94450000D01*
X160300000Y-94450000D01*
X160800000Y-94450000D01*
X161524999Y-94450000D01*
X161524999Y-94443417D01*
X161518591Y-94372897D01*
X161518590Y-94372892D01*
X161468018Y-94210603D01*
X161380072Y-94065122D01*
X161259877Y-93944927D01*
X161114395Y-93856980D01*
X161114396Y-93856980D01*
X160952105Y-93806409D01*
X160952106Y-93806409D01*
X160881572Y-93800000D01*
X160800000Y-93800000D01*
X160800000Y-94450000D01*
X160300000Y-94450000D01*
X160300000Y-93800000D01*
X160299999Y-93799999D01*
X160218417Y-93800000D01*
X160147897Y-93806408D01*
X160147892Y-93806409D01*
X159985603Y-93856981D01*
X159840122Y-93944927D01*
X159719927Y-94065122D01*
X159631980Y-94210604D01*
X159581409Y-94372893D01*
X159575000Y-94443427D01*
X150368000Y-94443427D01*
X150368000Y-92247844D01*
X150695000Y-92247844D01*
X150701401Y-92307372D01*
X150701403Y-92307379D01*
X150751645Y-92442086D01*
X150751649Y-92442093D01*
X150837809Y-92557187D01*
X150837812Y-92557190D01*
X150952906Y-92643350D01*
X150952913Y-92643354D01*
X151087620Y-92693596D01*
X151087627Y-92693598D01*
X151147155Y-92699999D01*
X151147172Y-92700000D01*
X151530000Y-92700000D01*
X152030000Y-92700000D01*
X152412828Y-92700000D01*
X152412844Y-92699999D01*
X152472372Y-92693598D01*
X152472379Y-92693596D01*
X152607086Y-92643354D01*
X152607093Y-92643350D01*
X152722187Y-92557190D01*
X152722190Y-92557187D01*
X152808350Y-92442093D01*
X152808354Y-92442086D01*
X152858596Y-92307379D01*
X152858598Y-92307372D01*
X152864999Y-92247844D01*
X152865000Y-92247827D01*
X152865000Y-91550000D01*
X152030000Y-91550000D01*
X152030000Y-92700000D01*
X151530000Y-92700000D01*
X151530000Y-91550000D01*
X150695000Y-91550000D01*
X150695000Y-92247844D01*
X150368000Y-92247844D01*
X150368000Y-90352155D01*
X150695000Y-90352155D01*
X150695000Y-91050000D01*
X151530000Y-91050000D01*
X152030000Y-91050000D01*
X152865000Y-91050000D01*
X152865000Y-90352172D01*
X152864999Y-90352155D01*
X152858598Y-90292627D01*
X152858596Y-90292620D01*
X152808354Y-90157913D01*
X152808350Y-90157906D01*
X152722190Y-90042812D01*
X152722187Y-90042809D01*
X152607093Y-89956649D01*
X152607086Y-89956645D01*
X152472379Y-89906403D01*
X152472372Y-89906401D01*
X152412844Y-89900000D01*
X152030000Y-89900000D01*
X152030000Y-91050000D01*
X151530000Y-91050000D01*
X151530000Y-89900000D01*
X151147155Y-89900000D01*
X151087627Y-89906401D01*
X151087620Y-89906403D01*
X150952913Y-89956645D01*
X150952906Y-89956649D01*
X150837812Y-90042809D01*
X150837809Y-90042812D01*
X150751649Y-90157906D01*
X150751645Y-90157913D01*
X150701403Y-90292620D01*
X150701401Y-90292627D01*
X150695000Y-90352155D01*
X150368000Y-90352155D01*
X150368000Y-89624759D01*
X150387685Y-89557720D01*
X150440489Y-89511965D01*
X150504603Y-89501401D01*
X150576485Y-89508744D01*
X151026464Y-89508744D01*
X151526465Y-89508744D01*
X151976437Y-89508744D01*
X151976451Y-89508743D01*
X152079162Y-89498250D01*
X152245584Y-89443103D01*
X152245589Y-89443101D01*
X152394810Y-89351060D01*
X152518780Y-89227090D01*
X152610821Y-89077869D01*
X152610823Y-89077864D01*
X152665970Y-88911442D01*
X152665971Y-88911435D01*
X152676464Y-88808731D01*
X152676465Y-88808718D01*
X152676465Y-88683745D01*
X151526465Y-88683745D01*
X151526465Y-89508744D01*
X151026464Y-89508744D01*
X151026465Y-89508743D01*
X151026465Y-87358745D01*
X151526465Y-87358745D01*
X151526465Y-88183745D01*
X152676464Y-88183745D01*
X152676464Y-88058773D01*
X152676463Y-88058758D01*
X152666590Y-87962109D01*
X152679360Y-87893416D01*
X152727240Y-87842532D01*
X152795030Y-87825611D01*
X152828953Y-87831801D01*
X152917439Y-87861123D01*
X153016728Y-87871266D01*
X153065044Y-87871265D01*
X153065045Y-87871265D01*
X153065045Y-87171267D01*
X152340046Y-87171267D01*
X152340046Y-87194574D01*
X152340047Y-87194589D01*
X152348187Y-87274277D01*
X152335417Y-87342969D01*
X152287536Y-87393854D01*
X152219747Y-87410774D01*
X152185825Y-87404584D01*
X152079162Y-87369239D01*
X152079155Y-87369238D01*
X151976451Y-87358745D01*
X151526465Y-87358745D01*
X151026465Y-87358745D01*
X150576493Y-87358745D01*
X150576475Y-87358746D01*
X150504601Y-87366089D01*
X150489528Y-87363286D01*
X150474353Y-87365469D01*
X150455876Y-87357031D01*
X150435908Y-87353319D01*
X150424742Y-87342812D01*
X150410797Y-87336444D01*
X150399815Y-87319356D01*
X150385024Y-87305438D01*
X150380747Y-87289685D01*
X150373023Y-87277666D01*
X150368000Y-87242731D01*
X150368000Y-87130387D01*
X150369129Y-87113696D01*
X150380449Y-87030435D01*
X150408984Y-86966665D01*
X150457407Y-86931958D01*
X152245643Y-86219254D01*
X152315206Y-86212721D01*
X152377259Y-86244833D01*
G37*
%TD.AperFunction*%
%TD*%
M02*
