%TF.GenerationSoftware,KiCad,Pcbnew,9.0.6*%
%TF.CreationDate,2026-02-03T19:58:48-08:00*%
%TF.ProjectId,PowerBlock,506f7765-7242-46c6-9f63-6b2e6b696361,rev?*%
%TF.SameCoordinates,Original*%
%TF.FileFunction,Paste,Top*%
%TF.FilePolarity,Positive*%
%FSLAX46Y46*%
G04 Gerber Fmt 4.6, Leading zero omitted, Abs format (unit mm)*
G04 Created by KiCad (PCBNEW 9.0.6) date 2026-02-03 19:58:48*
%MOMM*%
%LPD*%
G01*
G04 APERTURE LIST*
G04 Aperture macros list*
%AMRoundRect*
0 Rectangle with rounded corners*
0 $1 Rounding radius*
0 $2 $3 $4 $5 $6 $7 $8 $9 X,Y pos of 4 corners*
0 Add a 4 corners polygon primitive as box body*
4,1,4,$2,$3,$4,$5,$6,$7,$8,$9,$2,$3,0*
0 Add four circle primitives for the rounded corners*
1,1,$1+$1,$2,$3*
1,1,$1+$1,$4,$5*
1,1,$1+$1,$6,$7*
1,1,$1+$1,$8,$9*
0 Add four rect primitives between the rounded corners*
20,1,$1+$1,$2,$3,$4,$5,0*
20,1,$1+$1,$4,$5,$6,$7,0*
20,1,$1+$1,$6,$7,$8,$9,0*
20,1,$1+$1,$8,$9,$2,$3,0*%
G04 Aperture macros list end*
%ADD10C,0.000000*%
%ADD11RoundRect,0.250000X0.325000X0.650000X-0.325000X0.650000X-0.325000X-0.650000X0.325000X-0.650000X0*%
%ADD12RoundRect,0.200000X-0.200000X-0.275000X0.200000X-0.275000X0.200000X0.275000X-0.200000X0.275000X0*%
%ADD13RoundRect,0.200000X-0.275000X0.200000X-0.275000X-0.200000X0.275000X-0.200000X0.275000X0.200000X0*%
%ADD14R,0.599999X1.000000*%
%ADD15R,0.599999X0.240000*%
%ADD16RoundRect,0.200000X0.200000X0.275000X-0.200000X0.275000X-0.200000X-0.275000X0.200000X-0.275000X0*%
%ADD17RoundRect,0.250000X-0.325000X-0.650000X0.325000X-0.650000X0.325000X0.650000X-0.325000X0.650000X0*%
%ADD18RoundRect,0.200000X0.275000X-0.200000X0.275000X0.200000X-0.275000X0.200000X-0.275000X-0.200000X0*%
%ADD19RoundRect,0.225000X0.225000X0.250000X-0.225000X0.250000X-0.225000X-0.250000X0.225000X-0.250000X0*%
%ADD20R,2.000000X1.250000*%
%ADD21R,1.170000X1.800000*%
%ADD22RoundRect,0.250000X-0.650000X0.325000X-0.650000X-0.325000X0.650000X-0.325000X0.650000X0.325000X0*%
%ADD23R,1.074999X0.399999*%
%ADD24R,0.825000X0.249999*%
%ADD25R,0.249999X0.675000*%
%ADD26R,0.249999X0.825000*%
%ADD27R,0.349999X2.975000*%
%ADD28R,5.511800X3.860800*%
%ADD29RoundRect,0.225000X-0.250000X0.225000X-0.250000X-0.225000X0.250000X-0.225000X0.250000X0.225000X0*%
%ADD30RoundRect,0.250000X0.650000X-0.325000X0.650000X0.325000X-0.650000X0.325000X-0.650000X-0.325000X0*%
%ADD31RoundRect,0.225000X-0.225000X-0.250000X0.225000X-0.250000X0.225000X0.250000X-0.225000X0.250000X0*%
%ADD32RoundRect,0.225000X0.250000X-0.225000X0.250000X0.225000X-0.250000X0.225000X-0.250000X-0.225000X0*%
G04 APERTURE END LIST*
D10*
%TO.C,U5*%
G36*
X142600001Y-79540000D02*
G01*
X142600001Y-80500000D01*
X142550001Y-80550000D01*
X141149999Y-80550000D01*
X141099999Y-80500000D01*
X141099999Y-79540000D01*
X141149999Y-79490000D01*
X142550001Y-79490000D01*
X142600001Y-79540000D01*
G37*
G36*
X142600001Y-80800000D02*
G01*
X142600001Y-81760000D01*
X142550001Y-81810000D01*
X141149999Y-81810000D01*
X141099999Y-81760000D01*
X141099999Y-80800000D01*
X141149999Y-80750000D01*
X142550001Y-80750000D01*
X142600001Y-80800000D01*
G37*
G36*
X141724999Y-79000001D02*
G01*
X141724999Y-79240000D01*
X141674999Y-79290000D01*
X141524999Y-79290000D01*
X141474999Y-79240000D01*
X141474999Y-79000001D01*
X141524999Y-78950001D01*
X141674999Y-78950001D01*
X141724999Y-79000001D01*
G37*
G36*
X142225001Y-79000001D02*
G01*
X142225001Y-79240000D01*
X142175001Y-79290000D01*
X142025001Y-79290000D01*
X141975001Y-79240000D01*
X141975001Y-79000001D01*
X142025001Y-78950001D01*
X142175001Y-78950001D01*
X142225001Y-79000001D01*
G37*
G36*
X142225001Y-82060000D02*
G01*
X142225001Y-82299999D01*
X142175001Y-82349999D01*
X142025001Y-82349999D01*
X141975001Y-82299999D01*
X141975001Y-82060000D01*
X142025001Y-82010000D01*
X142175001Y-82010000D01*
X142225001Y-82060000D01*
G37*
G36*
X141724999Y-82060000D02*
G01*
X141724999Y-82299999D01*
X141674999Y-82349999D01*
X141524999Y-82349999D01*
X141474999Y-82299999D01*
X141474999Y-82060000D01*
X141524999Y-82010000D01*
X141674999Y-82010000D01*
X141724999Y-82060000D01*
G37*
%TO.C,U1*%
G36*
X157041368Y-85289001D02*
G01*
X157041368Y-86228999D01*
X156991368Y-86278999D01*
X156051367Y-86278999D01*
X156001367Y-86228999D01*
X156001367Y-85639000D01*
X156051367Y-85589000D01*
X156251367Y-85589000D01*
X156301367Y-85539000D01*
X156301367Y-85289001D01*
X156351366Y-85239001D01*
X156991368Y-85239001D01*
X157041368Y-85289001D01*
G37*
G36*
X156991368Y-89579000D02*
G01*
X156991368Y-89978999D01*
X156941368Y-90028999D01*
X156321366Y-90028999D01*
X156271367Y-89978999D01*
X156271367Y-89778999D01*
X156221367Y-89728999D01*
X155941367Y-89728999D01*
X155891367Y-89678999D01*
X155891367Y-89579000D01*
X155941367Y-89529000D01*
X156941368Y-89529000D01*
X156991368Y-89579000D01*
G37*
G36*
X159791365Y-89579000D02*
G01*
X159791365Y-89678999D01*
X159741365Y-89728999D01*
X159461365Y-89728999D01*
X159411365Y-89778999D01*
X159411365Y-89978999D01*
X159361366Y-90028999D01*
X158741364Y-90028999D01*
X158691364Y-89978999D01*
X158691364Y-89579000D01*
X158741364Y-89529000D01*
X159741365Y-89529000D01*
X159791365Y-89579000D01*
G37*
G36*
X159381365Y-85289001D02*
G01*
X159381365Y-85539000D01*
X159431365Y-85589000D01*
X159631365Y-85589000D01*
X159681365Y-85639000D01*
X159681365Y-86228999D01*
X159631365Y-86278999D01*
X158691364Y-86278999D01*
X158641364Y-86228999D01*
X158641364Y-85289001D01*
X158691364Y-85239001D01*
X159331366Y-85239001D01*
X159381365Y-85289001D01*
G37*
%TD*%
D11*
%TO.C,CIN4*%
X137500000Y-77675000D03*
X140450000Y-77675000D03*
%TD*%
D12*
%TO.C,R3*%
X159249999Y-98000000D03*
X160899999Y-98000000D03*
%TD*%
D13*
%TO.C,R4*%
X160550000Y-96350000D03*
X160550000Y-94700000D03*
%TD*%
D14*
%TO.C,U2*%
X162350000Y-96425000D03*
X163300001Y-96425000D03*
X164249999Y-96425000D03*
X164249999Y-93675000D03*
X163300001Y-93675000D03*
X162350000Y-93675000D03*
%TD*%
D15*
%TO.C,U5*%
X143250000Y-79649999D03*
X143250000Y-80150001D03*
X143250000Y-80650000D03*
X143250000Y-81149999D03*
X143250000Y-81650001D03*
X140450000Y-81650001D03*
X140450000Y-81149999D03*
X140450000Y-80650000D03*
X140450000Y-80150001D03*
X140450000Y-79649999D03*
%TD*%
D16*
%TO.C,R2*%
X162599999Y-98025000D03*
X164249999Y-98025000D03*
%TD*%
D17*
%TO.C,COUT4*%
X143200000Y-77625000D03*
X146150000Y-77625000D03*
%TD*%
D18*
%TO.C,RFB_PGB1*%
X139175000Y-83775000D03*
X139175000Y-82125000D03*
%TD*%
D19*
%TO.C,C1*%
X141650000Y-69750000D03*
X143200000Y-69750000D03*
%TD*%
D13*
%TO.C,RNRSS1*%
X147475000Y-81150000D03*
X147475000Y-82800000D03*
%TD*%
D16*
%TO.C,RFB_PGT1*%
X142950000Y-83300000D03*
X141300000Y-83300000D03*
%TD*%
D20*
%TO.C,FL1*%
X143225000Y-74800000D03*
X143225000Y-72250000D03*
%TD*%
D21*
%TO.C,F1*%
X148840000Y-91300000D03*
X151780000Y-91300000D03*
%TD*%
D22*
%TO.C,CNRSS1*%
X145375000Y-81150000D03*
X145375000Y-84100000D03*
%TD*%
D23*
%TO.C,U1*%
X156428367Y-87079002D03*
D24*
X156303366Y-88154001D03*
X156303366Y-88654000D03*
X156303366Y-89154002D03*
D25*
X157341367Y-89742002D03*
D26*
X157841366Y-89667000D03*
D25*
X158341365Y-89742002D03*
D24*
X159379366Y-89154002D03*
X159379366Y-88654000D03*
X159379366Y-88154001D03*
D23*
X159254365Y-87079002D03*
D27*
X157841366Y-86666001D03*
%TD*%
D28*
%TO.C,L1*%
X157734000Y-72237600D03*
X157734000Y-82194400D03*
%TD*%
D29*
%TO.C,CHF2A1*%
X154984316Y-86936040D03*
X154984316Y-85386040D03*
%TD*%
D22*
%TO.C,CIN1*%
X151276465Y-85483745D03*
X151276465Y-88433745D03*
%TD*%
D30*
%TO.C,COUT53*%
X165736733Y-74993073D03*
X165736733Y-72043073D03*
%TD*%
D22*
%TO.C,COUT52*%
X149736733Y-77043073D03*
X149736733Y-79993073D03*
%TD*%
D31*
%TO.C,CVCC1*%
X157852366Y-91054000D03*
X156302366Y-91054000D03*
%TD*%
D22*
%TO.C,CIN2*%
X165025000Y-85425000D03*
X165025000Y-88375000D03*
%TD*%
D29*
%TO.C,CHF2B1*%
X162629366Y-85379000D03*
X162629366Y-86929000D03*
%TD*%
D32*
%TO.C,CHF1B1*%
X160879366Y-86929000D03*
X160879366Y-85379000D03*
%TD*%
%TO.C,CHF1A1*%
X153315045Y-86921267D03*
X153315045Y-85371267D03*
%TD*%
D29*
%TO.C,CBOOT1*%
X154629366Y-88633000D03*
X154629366Y-90183000D03*
%TD*%
D30*
%TO.C,COUT51*%
X149736733Y-74993073D03*
X149736733Y-72043073D03*
%TD*%
D22*
%TO.C,COUT54*%
X165736733Y-77043073D03*
X165736733Y-79993073D03*
%TD*%
D12*
%TO.C,R5*%
X162325000Y-91425000D03*
X163975000Y-91425000D03*
%TD*%
D18*
%TO.C,R1*%
X166124999Y-94775000D03*
X166124999Y-96425000D03*
%TD*%
M02*
